<?xml version="1.0" encoding="UTF-8" standalone="no"?>
<svg width="249px" height="100px" viewBox="0 0 249 100" version="1.1" xmlns="http://www.w3.org/2000/svg" xmlns:xlink="http://www.w3.org/1999/xlink">
    <!-- Generator: Sketch 46.2 (44496) - http://www.bohemiancoding.com/sketch -->
    <title>Group</title>
    <desc>Created with Sketch.</desc>
    <defs></defs>
    <g id="404" stroke="none" stroke-width="1" fill="none" fill-rule="evenodd">
        <g transform="translate(-63.000000, -119.000000)" id="Group" fill="#EC2028">
            <g transform="translate(62.000000, 119.000000)">
                <path d="M1.608,86 L4.992,86 L4.992,77.84 L10.632,86 L14.52,86 L8.28,77.24 L14.328,69.2 L10.536,69.2 L4.992,76.88 L4.992,69.2 L1.608,69.2 L1.608,86 Z M26.208,74.936 C25.488,73.736 24.312,73.136 22.68,73.136 C21.936,73.136 21.24,73.328 20.616,73.688 C20.088,74 19.68,74.408 19.368,74.912 L19.368,68.648 L16.056,68.648 L16.056,86 L19.368,86 L19.368,78.464 C19.368,77.768 19.584,77.216 19.992,76.784 C20.4,76.328 20.952,76.112 21.648,76.112 C22.224,76.112 22.704,76.304 23.112,76.712 C23.52,77.144 23.736,77.696 23.736,78.368 L23.736,86 L27.024,86 L27.024,78.752 C27.024,77.144 26.76,75.872 26.208,74.936 Z M30.792,75.008 C32.064,73.76 33.672,73.136 35.592,73.136 C37.512,73.136 39.12,73.76 40.416,75.032 C41.712,76.304 42.36,77.864 42.36,79.76 C42.36,81.656 41.736,83.24 40.464,84.464 C39.192,85.688 37.56,86.312 35.592,86.312 C33.648,86.312 32.016,85.688 30.744,84.464 C29.472,83.24 28.848,81.656 28.848,79.76 C28.848,77.864 29.496,76.28 30.792,75.008 Z M33.144,82.376 C33.792,83.048 34.608,83.384 35.592,83.384 C36.6,83.384 37.416,83.048 38.064,82.376 C38.712,81.68 39.048,80.816 39.048,79.76 C39.048,78.68 38.712,77.816 38.064,77.12 C37.416,76.424 36.576,76.064 35.592,76.064 C34.608,76.064 33.768,76.4 33.12,77.096 C32.472,77.792 32.16,78.68 32.16,79.76 C32.16,80.816 32.496,81.68 33.144,82.376 Z M36.264,72.104 L38.256,72.104 L36.696,69.824 L34.512,69.824 L32.952,72.104 L34.944,72.104 L35.616,71.168 L36.264,72.104 Z M54.36,74.936 C53.64,73.736 52.464,73.136 50.856,73.136 C50.112,73.136 49.416,73.328 48.768,73.688 C48.216,74.024 47.808,74.432 47.496,74.912 L47.496,73.448 L44.256,73.448 L44.256,86 L47.568,86 L47.568,78.464 C47.568,77.768 47.76,77.216 48.168,76.784 C48.576,76.328 49.128,76.112 49.8,76.112 C50.376,76.112 50.856,76.304 51.264,76.712 C51.672,77.144 51.888,77.696 51.888,78.368 L51.888,86 L55.2,86 L55.2,78.752 C55.2,77.144 54.912,75.872 54.36,74.936 Z M58.608,89.456 L59.616,86.912 C59.688,86.936 59.736,86.984 59.808,87.008 C59.904,87.056 60,87.104 60.096,87.128 C60.36,87.248 60.624,87.344 60.912,87.416 C61.68,87.656 62.448,87.776 63.192,87.776 C65.496,87.776 66.648,86.936 66.648,85.28 L66.648,84.704 C66.624,84.752 66.576,84.8 66.504,84.872 C66.432,84.944 66.36,85.04 66.264,85.112 C66.048,85.304 65.808,85.472 65.544,85.64 C64.776,86.096 63.912,86.312 62.976,86.312 C61.176,86.312 59.712,85.688 58.608,84.464 C57.528,83.264 56.976,81.68 56.976,79.736 C56.976,77.792 57.552,76.208 58.704,74.984 C59.832,73.76 61.296,73.136 63.096,73.136 C64.032,73.136 64.872,73.352 65.616,73.76 C65.904,73.928 66.168,74.096 66.408,74.312 C66.576,74.48 66.72,74.624 66.84,74.768 L66.84,73.448 L69.96,73.448 L69.96,84.416 C69.96,88.544 67.704,90.608 63.216,90.608 C61.536,90.608 60,90.224 58.608,89.456 Z M65.856,77.096 C65.256,76.4 64.464,76.064 63.504,76.064 C62.568,76.064 61.8,76.4 61.2,77.048 C60.6,77.744 60.312,78.632 60.312,79.712 C60.312,80.792 60.624,81.68 61.224,82.376 C61.824,83.048 62.592,83.384 63.528,83.384 C64.488,83.384 65.256,83.048 65.856,82.376 C66.456,81.704 66.744,80.816 66.744,79.712 C66.744,78.632 66.456,77.768 65.856,77.096 Z M78.72,73.448 L77.376,73.448 L77.376,76.136 L78.696,76.136 L78.696,81.08 C78.696,84.464 80.136,86.168 83.016,86.168 C83.616,86.168 84.096,86.12 84.432,86.048 L84.432,83.216 C84.264,83.24 84.048,83.24 83.832,83.24 C83.16,83.24 82.704,83.096 82.44,82.808 C82.128,82.496 81.984,81.872 81.984,80.984 L81.984,76.136 L84.336,76.136 L84.336,73.448 L81.984,73.448 L81.984,70.808 L78.72,70.808 L78.72,73.448 Z M86.4,86 L89.712,86 L89.712,73.448 L86.4,73.448 L86.4,86 Z M88.44,69.752 L85.752,69.752 L87.456,72.056 L89.424,72.056 L88.44,69.752 Z M110.256,77.72 C110.256,76.328 109.896,75.224 109.2,74.408 C108.456,73.568 107.376,73.136 105.984,73.136 C104.304,73.136 103.056,73.76 102.264,75.008 C101.568,73.76 100.416,73.136 98.832,73.136 C98.04,73.136 97.344,73.328 96.744,73.688 C96.216,74 95.832,74.408 95.568,74.912 L95.568,73.448 L92.328,73.448 L92.328,86 L95.64,86 L95.64,78.488 C95.64,77.744 95.832,77.168 96.216,76.736 C96.576,76.328 97.08,76.112 97.68,76.112 C98.976,76.112 99.624,76.856 99.624,78.368 L99.624,86 L102.936,86 L102.936,78.512 C102.936,77.768 103.128,77.168 103.512,76.736 C103.872,76.328 104.376,76.112 104.976,76.112 C105.576,76.112 106.056,76.328 106.416,76.736 C106.776,77.168 106.944,77.744 106.944,78.488 L106.944,86 L110.256,86 L110.256,77.72 Z M119.016,73.448 L117.672,73.448 L117.672,76.136 L118.992,76.136 L118.992,81.08 C118.992,84.464 120.432,86.168 123.312,86.168 C123.912,86.168 124.392,86.12 124.728,86.048 L124.728,83.216 C124.56,83.24 124.344,83.24 124.128,83.24 C123.456,83.24 123,83.096 122.736,82.808 C122.424,82.496 122.28,81.872 122.28,80.984 L122.28,76.136 L124.632,76.136 L124.632,73.448 L122.28,73.448 L122.28,70.808 L119.016,70.808 L119.016,73.448 Z M136.848,74.936 C136.128,73.736 134.952,73.136 133.32,73.136 C132.576,73.136 131.88,73.328 131.256,73.688 C130.728,74 130.32,74.408 130.008,74.912 L130.008,68.648 L126.696,68.648 L126.696,86 L130.008,86 L130.008,78.464 C130.008,77.768 130.224,77.216 130.632,76.784 C131.04,76.328 131.592,76.112 132.288,76.112 C132.864,76.112 133.344,76.304 133.752,76.712 C134.16,77.144 134.376,77.696 134.376,78.368 L134.376,86 L137.664,86 L137.664,78.752 C137.664,77.144 137.4,75.872 136.848,74.936 Z M140.808,79.112 C141.696,78.344 142.872,77.96 144.336,77.96 C144.912,77.96 145.464,78.032 145.992,78.2 C146.424,78.32 146.784,78.464 147.048,78.656 L147.048,77.84 C147.048,77.288 146.856,76.832 146.448,76.496 C146.04,76.16 145.488,75.992 144.768,75.992 C143.688,75.992 142.584,76.28 141.432,76.88 L140.184,74.624 C141.648,73.64 143.28,73.136 145.128,73.136 C148.608,73.136 150.36,74.768 150.36,78.056 L150.36,86 L147.432,86 L147.216,85.184 C146.52,85.928 145.488,86.312 144.168,86.312 C142.848,86.312 141.744,85.952 140.856,85.208 C139.92,84.416 139.464,83.384 139.464,82.112 C139.464,80.888 139.92,79.88 140.808,79.112 Z M143.4,83.264 C143.808,83.576 144.336,83.744 144.96,83.744 C145.608,83.744 146.112,83.576 146.52,83.264 C146.928,82.952 147.12,82.544 147.12,82.016 C147.12,81.464 146.904,81.032 146.496,80.72 C146.112,80.408 145.584,80.264 144.936,80.264 C144.288,80.264 143.784,80.432 143.376,80.744 C142.968,81.08 142.776,81.512 142.776,82.016 C142.776,82.52 142.992,82.952 143.4,83.264 Z M145.56,72.104 L144.912,71.168 L144.264,72.104 L142.272,72.104 L143.808,69.824 L146.016,69.824 L147.552,72.104 L145.56,72.104 Z M146.928,69.992 L147.936,67.616 L150.768,67.616 L149.04,69.992 L146.928,69.992 Z M157.896,90.296 L164.304,73.448 L160.848,73.448 L158.016,81.632 L155.208,73.448 L151.656,73.448 L156.48,85.688 L154.728,90.296 L157.896,90.296 Z M171.72,86 L171.72,68.648 L175.032,68.648 L175.032,74.768 C175.128,74.624 175.272,74.48 175.44,74.336 C175.656,74.12 175.92,73.952 176.208,73.784 C176.952,73.352 177.816,73.136 178.752,73.136 C180.552,73.136 181.992,73.76 183.072,74.984 C184.152,76.208 184.704,77.792 184.704,79.736 C184.704,81.68 184.128,83.24 182.976,84.464 C181.848,85.688 180.36,86.312 178.56,86.312 C177.624,86.312 176.784,86.096 176.016,85.664 C175.752,85.496 175.488,85.328 175.272,85.136 C175.176,85.064 175.08,84.968 175.008,84.896 C174.936,84.824 174.888,84.776 174.84,84.704 L174.84,86 L171.72,86 Z M175.8,82.328 C176.4,83.024 177.168,83.384 178.152,83.384 C179.088,83.384 179.856,83.048 180.456,82.4 C181.056,81.752 181.368,80.864 181.368,79.76 C181.368,78.68 181.08,77.792 180.48,77.096 C179.88,76.4 179.112,76.064 178.152,76.064 C177.216,76.064 176.448,76.376 175.872,77.024 C175.248,77.696 174.936,78.608 174.936,79.76 C174.936,80.792 175.224,81.632 175.8,82.328 Z M187.224,79.112 C188.112,78.344 189.288,77.96 190.752,77.96 C191.328,77.96 191.88,78.032 192.408,78.2 C192.84,78.32 193.2,78.464 193.464,78.656 L193.464,77.84 C193.464,77.288 193.272,76.832 192.864,76.496 C192.456,76.16 191.904,75.992 191.184,75.992 C190.104,75.992 189,76.28 187.848,76.88 L186.6,74.624 C188.064,73.64 189.696,73.136 191.544,73.136 C195.024,73.136 196.776,74.768 196.776,78.056 L196.776,86 L193.848,86 L193.632,85.184 C192.936,85.928 191.904,86.312 190.584,86.312 C189.264,86.312 188.16,85.952 187.272,85.208 C186.336,84.416 185.88,83.384 185.88,82.112 C185.88,80.888 186.336,79.88 187.224,79.112 Z M189.816,83.264 C190.224,83.576 190.752,83.744 191.376,83.744 C192.024,83.744 192.528,83.576 192.936,83.264 C193.344,82.952 193.536,82.544 193.536,82.016 C193.536,81.464 193.32,81.032 192.912,80.72 C192.528,80.408 192,80.264 191.352,80.264 C190.704,80.264 190.2,80.432 189.792,80.744 C189.384,81.08 189.192,81.512 189.192,82.016 C189.192,82.52 189.408,82.952 189.816,83.264 Z M191.496,69.752 L188.808,69.752 L190.512,72.056 L192.48,72.056 L191.496,69.752 Z M199.224,86 L202.536,86 L202.536,73.448 L199.224,73.448 L199.224,86 Z M199.488,69.08 C199.128,69.44 198.936,69.872 198.936,70.424 C198.936,70.976 199.128,71.408 199.488,71.768 C199.848,72.128 200.304,72.32 200.856,72.32 C201.408,72.32 201.888,72.128 202.248,71.768 C202.608,71.408 202.8,70.976 202.8,70.424 C202.8,69.872 202.608,69.44 202.248,69.08 C201.888,68.72 201.408,68.528 200.856,68.528 C200.304,68.528 199.848,68.72 199.488,69.08 Z M218.232,86 L222.72,73.448 L219.192,73.448 L216.312,82.472 L213.432,73.448 L209.904,73.448 L214.392,86 L218.232,86 Z M224.112,86 L227.424,86 L227.424,73.448 L224.112,73.448 L224.112,86 Z M224.376,69.08 C224.016,69.44 223.824,69.872 223.824,70.424 C223.824,70.976 224.016,71.408 224.376,71.768 C224.736,72.128 225.192,72.32 225.744,72.32 C226.296,72.32 226.776,72.128 227.136,71.768 C227.496,71.408 227.688,70.976 227.688,70.424 C227.688,69.872 227.496,69.44 227.136,69.08 C226.776,68.72 226.296,68.528 225.744,68.528 C225.192,68.528 224.736,68.72 224.376,69.08 Z M231.096,75.032 C232.272,73.76 233.736,73.136 235.512,73.136 C237.432,73.136 238.944,73.736 240.024,74.936 C241.08,76.112 241.608,77.744 241.608,79.832 C241.608,80.144 241.608,80.384 241.584,80.552 L232.752,80.552 C232.776,81.392 233.112,82.088 233.712,82.616 C234.312,83.168 235.08,83.432 236.016,83.432 C236.76,83.432 237.456,83.24 238.056,82.856 C238.272,82.712 238.488,82.544 238.68,82.352 C238.824,82.208 238.944,82.064 239.064,81.896 L241.248,83.552 C241.104,83.816 240.912,84.08 240.648,84.368 C240.336,84.704 240,84.992 239.592,85.256 C238.56,85.952 237.336,86.312 235.968,86.312 C233.976,86.312 232.392,85.688 231.168,84.44 C229.968,83.24 229.368,81.68 229.368,79.76 C229.368,77.864 229.944,76.28 231.096,75.032 Z M232.848,78.392 L238.248,78.392 C238.224,77.624 237.96,77 237.456,76.544 C236.952,76.088 236.328,75.848 235.56,75.848 C234.792,75.848 234.168,76.088 233.664,76.568 C233.208,77.048 232.92,77.648 232.848,78.392 Z M236.136,72.104 L235.488,71.168 L234.84,72.104 L232.848,72.104 L234.384,69.824 L236.592,69.824 L238.128,72.104 L236.136,72.104 Z M237.864,70.544 L238.872,68.168 L241.704,68.168 L239.976,70.544 L237.864,70.544 Z M243.768,73.448 L242.424,73.448 L242.424,76.136 L243.744,76.136 L243.744,81.08 C243.744,84.464 245.184,86.168 248.064,86.168 C248.664,86.168 249.144,86.12 249.48,86.048 L249.48,83.216 C249.312,83.24 249.096,83.24 248.88,83.24 C248.208,83.24 247.752,83.096 247.488,82.808 C247.176,82.496 247.032,81.872 247.032,80.984 L247.032,76.136 L249.384,76.136 L249.384,73.448 L247.032,73.448 L247.032,70.808 L243.768,70.808 L243.768,73.448 Z" id="Không-tìm-thấy-bài-v"></path>
                <rect id="Rectangle-2" x="86" y="97" width="80" height="3"></rect>
                <path d="M92.6634286,33.216 L98.0634286,33.216 L98.0634286,42.432 L92.6634286,42.432 L92.6634286,51 L82.6554286,51 L82.6554286,42.432 L58.8234286,42.432 L58.8234286,33.216 L75.5994286,0.6 L86.2554286,0.6 L69.5514286,33.216 L82.6554286,33.216 L82.6554286,21.264 L92.6634286,21.264 L92.6634286,33.216 Z M145.928571,28.0357143 C145.928571,24.2023618 144.892868,20.6904921 142.821429,17.5 L115.892857,44.3928571 C119.154778,46.5119154 122.690457,47.5714286 126.5,47.5714286 C129.14287,47.5714286 131.660702,47.0535766 134.053571,46.0178571 C136.446441,44.9821377 138.511896,43.5952468 140.25,41.8571429 C141.988104,40.1190389 143.369043,38.0416788 144.392857,35.625 C145.416672,33.2083213 145.928571,30.6785846 145.928571,28.0357143 Z M110.25,38.7142857 L137.214286,11.7857143 C133.999984,9.61903679 130.428591,8.53571429 126.5,8.53571429 C122.976173,8.53571429 119.726205,9.40475321 116.75,11.1428571 C113.773795,12.8809611 111.416675,15.249985 109.678571,18.25 C107.940468,21.250015 107.071429,24.5118871 107.071429,28.0357143 C107.071429,31.8928764 108.130942,35.4523646 110.25,38.7142857 Z M153.928571,28.0357143 C153.928571,31.7738282 153.202388,35.3452211 151.75,38.75 C150.297612,42.1547789 148.351203,45.0833211 145.910714,47.5357143 C143.470226,49.9881075 140.553588,51.9404689 137.160714,53.3928571 C133.76784,54.8452454 130.214304,55.5714286 126.5,55.5714286 C122.785696,55.5714286 119.23216,54.8452454 115.839286,53.3928571 C112.446412,51.9404689 109.529774,49.9881075 107.089286,47.5357143 C104.648797,45.0833211 102.702388,42.1547789 101.25,38.75 C99.7976118,35.3452211 99.0714286,31.7738282 99.0714286,28.0357143 C99.0714286,24.2976004 99.7976118,20.7321598 101.25,17.3392857 C102.702388,13.9464116 104.648797,11.0238218 107.089286,8.57142857 C109.529774,6.11903536 112.446412,4.16667393 115.839286,2.71428571 C119.23216,1.2618975 122.785696,0.535714286 126.5,0.535714286 C130.214304,0.535714286 133.76784,1.2618975 137.160714,2.71428571 C140.553588,4.16667393 143.470226,6.11903536 145.910714,8.57142857 C148.351203,11.0238218 150.297612,13.9464116 151.75,17.3392857 C153.202388,20.7321598 153.928571,24.2976004 153.928571,28.0357143 Z M189.280571,33.216 L194.680571,33.216 L194.680571,42.432 L189.280571,42.432 L189.280571,51 L179.272571,51 L179.272571,42.432 L155.440571,42.432 L155.440571,33.216 L172.216571,0.6 L182.872571,0.6 L166.168571,33.216 L179.272571,33.216 L179.272571,21.264 L189.280571,21.264 L189.280571,33.216 Z" id="44"></path>
            </g>
        </g>
    </g>
</svg>