<?xml version="1.0" encoding="UTF-8" standalone="no"?>
<svg width="11px" height="10px" viewBox="0 0 11 10" version="1.1" xmlns="http://www.w3.org/2000/svg" xmlns:xlink="http://www.w3.org/1999/xlink">
    <!-- Generator: Sketch 46.2 (44496) - http://www.bohemiancoding.com/sketch -->
    <title>ads_ico</title>
    <desc>Created with Sketch.</desc>
    <defs></defs>
    <g id="mobi-chitiet" stroke="none" stroke-width="1" fill="none" fill-rule="evenodd">
        <g id="m-chitiet-fa" transform="translate(-130.000000, -3352.000000)" fill="#9B9B9B">
            <g id="ads-news" transform="translate(10.000000, 3273.000000)">
                <g id="Group-10" transform="translate(0.000000, 20.000000)">
                    <g id="ads_ico" transform="translate(120.000000, 59.000000)">
                        <g>
                            <path d="M0,9.88405797 L0,0.594202899 C0,0.275362319 0.278666667,0 0.601333333,0 L10.3106667,0 C10.648,0 10.912,0.260869565 10.912,0.579710145 L10.912,6.4057971 C10.912,6.72463768 10.6333333,7 10.3106667,7 L2.904,7 L0,9.88405797 Z M0.601333333,0.434782609 C0.513333333,0.434782609 0.44,0.507246377 0.44,0.594202899 L0.44,8.84057971 L2.728,6.56521739 L10.3106667,6.56521739 C10.3986667,6.56521739 10.472,6.49275362 10.472,6.4057971 L10.472,0.579710145 C10.472,0.492753623 10.3986667,0.434782609 10.3106667,0.434782609 L0.601333333,0.434782609 Z" id="Shape" fill-rule="nonzero"></path>
                            <g id="Group" transform="translate(1.466667, 1.884058)" fill-rule="nonzero">
                                <path d="M2.112,2.34782609 L0.777333333,2.34782609 L0.469333333,3.17391304 L0.0293333333,3.17391304 L1.24666667,0.0144927536 L1.61333333,0.0144927536 L2.83066667,3.17391304 L2.39066667,3.17391304 L2.112,2.34782609 Z M0.894666667,2.01449275 L1.98,2.01449275 L1.43733333,0.536231884 L0.894666667,2.01449275 Z" id="Shape"></path>
                                <path d="M3.28533333,3.17391304 L3.28533333,0.0144927536 L4.19466667,0.0144927536 C4.47333333,0.0144927536 4.72266667,0.0724637681 4.928,0.202898551 C5.148,0.31884058 5.30933333,0.492753623 5.42666667,0.724637681 C5.544,0.942028986 5.60266667,1.20289855 5.60266667,1.49275362 L5.60266667,1.69565217 C5.60266667,2 5.544,2.26086957 5.42666667,2.47826087 C5.30933333,2.69565217 5.148,2.86956522 4.928,3 C4.708,3.11594203 4.45866667,3.1884058 4.18,3.1884058 L3.28533333,3.17391304 L3.28533333,3.17391304 Z M3.696,0.362318841 L3.696,2.84057971 L4.136,2.84057971 C4.45866667,2.84057971 4.708,2.73913043 4.89866667,2.53623188 C5.07466667,2.33333333 5.17733333,2.05797101 5.17733333,1.68115942 L5.17733333,1.49275362 C5.17733333,1.13043478 5.08933333,0.855072464 4.928,0.652173913 C4.752,0.449275362 4.51733333,0.347826087 4.19466667,0.347826087 L3.696,0.362318841 L3.696,0.362318841 Z" id="Shape"></path>
                                <path d="M7.55333333,2.55072464 C7.55333333,2.44927536 7.50933333,2.36231884 7.436,2.30434783 C7.348,2.24637681 7.216,2.1884058 6.996,2.14492754 C6.79066667,2.10144928 6.62933333,2.04347826 6.512,1.98550725 C6.39466667,1.92753623 6.30666667,1.85507246 6.248,1.76811594 C6.18933333,1.68115942 6.16,1.57971014 6.16,1.46376812 C6.16,1.27536232 6.248,1.10144928 6.40933333,0.971014493 C6.57066667,0.84057971 6.79066667,0.768115942 7.04,0.768115942 C7.304,0.768115942 7.524,0.84057971 7.7,0.971014493 C7.86133333,1.10144928 7.94933333,1.28985507 7.94933333,1.49275362 L7.53866667,1.49275362 C7.53866667,1.37681159 7.49466667,1.28985507 7.392,1.20289855 C7.304,1.13043478 7.172,1.08695652 7.04,1.08695652 C6.89333333,1.08695652 6.776,1.11594203 6.688,1.1884058 C6.6,1.24637681 6.556,1.33333333 6.556,1.43478261 C6.556,1.53623188 6.6,1.60869565 6.67333333,1.65217391 C6.74666667,1.69565217 6.89333333,1.75362319 7.09866667,1.79710145 C7.304,1.84057971 7.46533333,1.89855072 7.59733333,1.95652174 C7.72933333,2.01449275 7.81733333,2.08695652 7.876,2.1884058 C7.93466667,2.27536232 7.964,2.37681159 7.964,2.50724638 C7.964,2.71014493 7.876,2.88405797 7.71466667,3.01449275 C7.53866667,3.14492754 7.31866667,3.20289855 7.05466667,3.20289855 C6.864,3.20289855 6.70266667,3.17391304 6.556,3.10144928 C6.40933333,3.02898551 6.292,2.94202899 6.21866667,2.82608696 C6.13066667,2.71014493 6.10133333,2.57971014 6.10133333,2.43478261 L6.512,2.43478261 C6.52666667,2.56521739 6.57066667,2.68115942 6.67333333,2.75362319 C6.776,2.82608696 6.908,2.86956522 7.06933333,2.86956522 C7.216,2.86956522 7.348,2.84057971 7.436,2.7826087 C7.50933333,2.73913043 7.55333333,2.66666667 7.55333333,2.55072464 Z" id="Shape"></path>
                            </g>
                        </g>
                    </g>
                </g>
            </g>
        </g>
    </g>
</svg>