<?xml version="1.0" encoding="UTF-8" standalone="no"?>
<svg width="31px" height="30px" viewBox="0 0 31 30" version="1.1" xmlns="http://www.w3.org/2000/svg" xmlns:xlink="http://www.w3.org/1999/xlink">
    <!-- Generator: Sketch 46.2 (44496) - http://www.bohemiancoding.com/sketch -->
    <title>ava</title>
    <desc>Created with Sketch.</desc>
    <defs></defs>
    <g id="mobi-chitiet" stroke="none" stroke-width="1" fill="none" fill-rule="evenodd">
        <g id="m-chitiet-fa" transform="translate(-20.000000, -4140.000000)">
            <g id="Group" transform="translate(10.000000, 4101.000000)">
                <g id="ava" transform="translate(10.289855, 39.014493)">
                    <circle id="Oval-4" fill="#D8D8D8" cx="15" cy="15" r="15"></circle>
                    <path d="M15.375,15 C17.23125,15 18.75,13.48125 18.75,11.625 C18.75,9.76875 17.23125,8.25 15.375,8.25 C13.51875,8.25 12,9.76875 12,11.625 C12,13.48125 13.51875,15 15.375,15 L15.375,15 Z M15,16.5 C12.721875,16.5 8.25,17.6375 8.25,20 L8.25,21.75 L21.75,21.75 L21.75,20 C21.75,17.6375 17.278125,16.5 15,16.5 L15,16.5 Z" id="Shape" fill="#9B9B9B"></path>
                </g>
            </g>
        </g>
    </g>
</svg>