<?xml version="1.0" encoding="UTF-8" standalone="no"?>
<svg width="21px" height="25px" viewBox="0 0 21 25" version="1.1" xmlns="http://www.w3.org/2000/svg" xmlns:xlink="http://www.w3.org/1999/xlink">
    <!-- Generator: Sketch 46.2 (44496) - http://www.bohemiancoding.com/sketch -->
    <title>cake</title>
    <desc>Created with Sketch.</desc>
    <defs>
        <polygon id="path-1" points="0 0.155349462 0 12.0967742 20.8957875 12.0967742 20.8957875 0.155349462"></polygon>
    </defs>
    <g id="Page-1" stroke="none" stroke-width="1" fill="none" fill-rule="evenodd">
        <g id="mobi-sinnnhat-new" transform="translate(-14.000000, -661.000000)">
            <g id="cake" transform="translate(14.000000, 661.000000)">
                <g>
                    <polygon id="Fill-1" fill="#FF0278" points="9.856035 13.6810215 11.03991 13.1183871 11.03991 11.9941935 9.856035 12.556828"></polygon>
                    <polygon id="Fill-2" fill="#FF0278" points="9.856035 10.4608602 11.03991 9.89795699 11.03991 8.77403226 9.856035 9.33666667"></polygon>
                    <polygon id="Fill-3" fill="#FF0278" points="9.856035 12.0708871 11.03991 11.5082527 11.03991 10.3840591 9.856035 10.9469624"></polygon>
                    <polygon id="Fill-4" fill="#FF0278" points="11.0398575 4.13604839 9.8559825 4.13604839 9.8559825 5.63040323 11.0398575 5.06776882"></polygon>
                    <polygon id="Fill-5" fill="#FF0278" points="11.0398575 5.55376344 9.8559825 6.11639785 9.8559825 7.2405914 11.0398575 6.67768817"></polygon>
                    <polygon id="Fill-6" fill="#FF0278" points="9.856035 7.7266129 9.856035 8.85080645 11.03991 8.28790323 11.03991 7.16370968"></polygon>
                    <polygon id="Fill-7" fill="#FF0278" points="9.856035 14.8168011 11.03991 14.8168011 11.03991 13.6041667 9.856035 14.1670699"></polygon>
                    <polygon id="Fill-8" fill="#D8EDFF" points="11.0398575 5.06771505 9.8559825 5.63034946 9.8559825 6.11637097 11.0398575 5.55373656"></polygon>
                    <polygon id="Fill-9" fill="#D8EDFF" points="11.0398575 6.67774194 9.8559825 7.24064516 9.8559825 7.72666667 11.0398575 7.16376344"></polygon>
                    <polygon id="Fill-10" fill="#D8EDFF" points="9.856035 9.33677419 11.03991 8.77387097 11.03991 8.28784946 9.856035 8.85075269"></polygon>
                    <polygon id="Fill-11" fill="#D8EDFF" points="9.856035 10.9469086 11.03991 10.3840054 11.03991 9.89798387 9.856035 10.4608871"></polygon>
                    <polygon id="Fill-12" fill="#D8EDFF" points="9.856035 12.5569355 11.03991 11.9943011 11.03991 11.5082796 9.856035 12.070914"></polygon>
                    <polygon id="Fill-13" fill="#D8EDFF" points="9.856035 14.1670699 11.03991 13.6041667 11.03991 13.118414 9.856035 13.6810484"></polygon>
                    <g id="Group-35" transform="translate(0.000000, 0.143871)">
                        <path d="M11.40027,2.4561828 C11.40027,2.99462366 10.97397,3.43145161 10.44792,3.43145161 C9.92187,3.43145161 9.49557,2.99462366 9.49557,2.4561828 C9.49557,1.91747312 10.44792,0.125 10.44792,0.125 C10.44792,0.125 11.40027,1.91747312 11.40027,2.4561828" id="Fill-14" fill="#FFBF00"></path>
                        <path d="M11.1617363,2.47981183 C11.1617363,2.88357527 10.8422738,3.21099462 10.4479988,3.21099462 C10.0537238,3.21099462 9.73399875,2.88357527 9.73399875,2.47981183 C9.73399875,2.07604839 10.0537238,1.74862903 10.4479988,1.74862903 C10.8422738,1.74862903 11.1617363,2.07604839 11.1617363,2.47981183" id="Fill-16" fill="#FFE100"></path>
                        <g id="Group-20" transform="translate(0.000000, 12.634409)">
                            <mask id="mask-2" fill="white">
                                <use xlink:href="#path-1"></use>
                            </mask>
                            <g id="Clip-19"></g>
                            <path d="M16.8644438,0.155349462 C15.2088563,0.155349462 15.2088563,2.46986559 13.5535313,2.46986559 C11.8982063,2.46986559 11.8982063,0.155349462 10.2426188,0.155349462 C8.58729375,0.155349462 8.58729375,2.46986559 6.93196875,2.46986559 C5.27664375,2.46986559 5.27664375,0.155349462 3.62131875,0.155349462 C1.96599375,0.155349462 1.96599375,2.46986559 0.31093125,2.46986559 C0.20015625,2.46986559 0.09699375,2.45857527 -0.00013125,2.43948925 L-0.00013125,11.2671774 C-0.00013125,11.7255108 0.36264375,12.0967473 0.80994375,12.0967473 L20.0858438,12.0967473 C20.5334063,12.0967473 20.8959188,11.7255108 20.8959188,11.2671774 L20.8959188,2.2886828 C20.6930063,2.40104839 20.4588563,2.46986559 20.1758812,2.46986559 C18.5200313,2.46986559 18.5200313,0.155349462 16.8644438,0.155349462" id="Fill-18" fill="#FFBF00" mask="url(#mask-2)"></path>
                        </g>
                        <path d="M20.085975,11.1335484 L0.8098125,11.1335484 C0.3625125,11.1335484 0,11.5047849 0,11.9628495 L0,15.073871 C0.097125,15.092957 0.200025,15.1042473 0.3110625,15.1042473 C1.966125,15.1042473 1.966125,12.7897312 3.6211875,12.7897312 C5.2765125,12.7897312 5.2765125,15.1042473 6.9321,15.1042473 C8.587425,15.1042473 8.587425,12.7897312 10.24275,12.7897312 C11.898075,12.7897312 11.898075,15.1042473 13.5534,15.1042473 C15.2089875,15.1042473 15.2089875,12.7897312 16.864575,12.7897312 C18.5201625,12.7897312 18.5201625,15.1042473 20.17575,15.1042473 C20.4589875,15.1042473 20.6931375,15.0354301 20.8957875,14.9230645 L20.8957875,11.9628495 C20.8957875,11.5047849 20.533275,11.1335484 20.085975,11.1335484" id="Fill-21" fill="#FFEE89"></path>
                        <path d="M10.4479462,17.1152419 C9.06457125,14.7176613 5.68908375,15.269543 5.58067125,18.1953495 C5.48380875,20.8125538 8.63118375,22.4797581 10.4479462,23.7319086 L10.4479462,17.1152419 Z" id="Fill-23" fill="#FF0278"></path>
                        <path d="M15.3152212,18.1953763 C15.2068088,15.2695699 11.8313213,14.7174194 10.4479462,17.1152688 L10.4479462,23.7319355 C12.2647087,22.4797849 15.4120837,20.8125806 15.3152212,18.1953763" id="Fill-25" fill="#FF4EA5"></path>
                        <path d="M4.07743875,9.89145161 C4.07743875,10.590914 3.52382625,11.1575806 2.84106375,11.1575806 C2.15803875,11.1575806 1.60468875,10.590914 1.60468875,9.89145161 C1.60468875,9.19225806 2.15803875,8.62532258 2.84106375,8.62532258 C3.52382625,8.62532258 4.07743875,9.19225806 4.07743875,9.89145161" id="Fill-27" fill="#FF0278"></path>
                        <path d="M7.9842,9.89145161 C7.9842,10.590914 7.4305875,11.1575806 6.747825,11.1575806 C6.0648,11.1575806 5.51145,10.590914 5.51145,9.89145161 C5.51145,9.19225806 6.0648,8.62532258 6.747825,8.62532258 C7.4305875,8.62532258 7.9842,9.19225806 7.9842,9.89145161" id="Fill-29" fill="#FF0278"></path>
                        <path d="M15.3844425,9.89145161 C15.3844425,10.590914 14.8310925,11.1575806 14.1480675,11.1575806 C13.465305,11.1575806 12.9116925,10.590914 12.9116925,9.89145161 C12.9116925,9.19225806 13.465305,8.62532258 14.1480675,8.62532258 C14.8310925,8.62532258 15.3844425,9.19225806 15.3844425,9.89145161" id="Fill-31" fill="#FF0278"></path>
                        <path d="M19.2911775,9.89145161 C19.2911775,10.590914 18.7378275,11.1575806 18.0548025,11.1575806 C17.37204,11.1575806 16.8184275,10.590914 16.8184275,9.89145161 C16.8184275,9.19225806 17.37204,8.62532258 18.0548025,8.62532258 C18.7378275,8.62532258 19.2911775,9.19225806 19.2911775,9.89145161" id="Fill-33" fill="#FF0278"></path>
                    </g>
                </g>
            </g>
        </g>
    </g>
</svg>