<?xml version="1.0" encoding="UTF-8" standalone="no"?>
<svg width="30px" height="31px" viewBox="0 0 30 31" version="1.1" xmlns="http://www.w3.org/2000/svg" xmlns:xlink="http://www.w3.org/1999/xlink">
    <!-- Generator: Sketch 46.2 (44496) - http://www.bohemiancoding.com/sketch -->
    <title>calendar - simple-line-icons</title>
    <desc>Created with Sketch.</desc>
    <defs>
        <path d="M359.5,664.75 C359.765626,664.75 360.015624,664.816406 360.25,664.949219 C360.484376,665.082032 360.667968,665.261718 360.800781,665.488281 C360.933594,665.714845 361,665.968749 361,666.25 L361,685 C361,685.406252 360.85547,685.757811 360.566406,686.054688 C360.277342,686.351564 359.921877,686.5 359.5,686.5 L338.5,686.5 C338.234374,686.5 337.984376,686.433594 337.75,686.300781 C337.515624,686.167968 337.332032,685.984376 337.199219,685.75 C337.066406,685.515624 337,685.265626 337,685 L337,666.25 C337,665.828123 337.14453,665.472658 337.433594,665.183594 C337.722658,664.89453 338.078123,664.75 338.5,664.75 L344.5,664.75 L344.5,663.25 C344.5,663.046874 344.574218,662.871094 344.722656,662.722656 C344.871094,662.574218 345.046874,662.5 345.25,662.5 C345.453126,662.5 345.628906,662.574218 345.777344,662.722656 C345.925782,662.871094 346,663.046874 346,663.25 L346,664.75 L352,664.75 L352,663.25 C352,663.046874 352.074218,662.871094 352.222656,662.722656 C352.371094,662.574218 352.546874,662.5 352.75,662.5 C352.953126,662.5 353.128906,662.574218 353.277344,662.722656 C353.425782,662.871094 353.5,663.046874 353.5,663.25 L353.5,664.75 L359.5,664.75 Z M359.5,685 L359.5,666.25 L353.5,666.25 L353.5,667 C353.5,667.203126 353.425782,667.378906 353.277344,667.527344 C353.128906,667.675782 352.953126,667.75 352.75,667.75 C352.546874,667.75 352.371094,667.675782 352.222656,667.527344 C352.074218,667.378906 352,667.203126 352,667 L352,666.25 L346,666.25 L346,667 C346,667.203126 345.925782,667.378906 345.777344,667.527344 C345.628906,667.675782 345.453126,667.75 345.25,667.75 C345.046874,667.75 344.871094,667.675782 344.722656,667.527344 C344.574218,667.378906 344.5,667.203126 344.5,667 L344.5,666.25 L338.5,666.25 L338.5,685 L359.5,685 Z M354.25,674.5 C354.046874,674.5 353.871094,674.425782 353.722656,674.277344 C353.574218,674.128906 353.5,673.953126 353.5,673.75 L353.5,672.25 C353.5,672.046874 353.574218,671.871094 353.722656,671.722656 C353.871094,671.574218 354.046874,671.5 354.25,671.5 L355.75,671.5 C355.953126,671.5 356.128906,671.574218 356.277344,671.722656 C356.425782,671.871094 356.5,672.046874 356.5,672.25 L356.5,673.75 C356.5,673.953126 356.425782,674.128906 356.277344,674.277344 C356.128906,674.425782 355.953126,674.5 355.75,674.5 L354.25,674.5 Z M354.25,680.5 C354.046874,680.5 353.871094,680.425782 353.722656,680.277344 C353.574218,680.128906 353.5,679.953126 353.5,679.75 L353.5,678.25 C353.5,678.046874 353.574218,677.871094 353.722656,677.722656 C353.871094,677.574218 354.046874,677.5 354.25,677.5 L355.75,677.5 C355.953126,677.5 356.128906,677.574218 356.277344,677.722656 C356.425782,677.871094 356.5,678.046874 356.5,678.25 L356.5,679.75 C356.5,679.953126 356.425782,680.128906 356.277344,680.277344 C356.128906,680.425782 355.953126,680.5 355.75,680.5 L354.25,680.5 Z M349.75,677.5 C349.8125,677.5 349.878906,677.507812 349.949219,677.523438 C350.019532,677.539063 350.082031,677.5625 350.136719,677.59375 C350.191407,677.625 350.242187,677.664062 350.289062,677.710938 C350.335938,677.757813 350.375,677.808593 350.40625,677.863281 C350.4375,677.917969 350.460937,677.980468 350.476562,678.050781 C350.492188,678.121094 350.5,678.1875 350.5,678.25 L350.5,679.75 C350.5,679.953126 350.425782,680.128906 350.277344,680.277344 C350.128906,680.425782 349.953126,680.5 349.75,680.5 L348.25,680.5 C348.171875,680.5 348.09375,680.488281 348.015625,680.464844 C347.9375,680.441406 347.867188,680.40625 347.804688,680.359375 C347.742187,680.3125 347.6875,680.257813 347.640625,680.195312 C347.59375,680.132812 347.558594,680.0625 347.535156,679.984375 C347.511719,679.90625 347.5,679.828125 347.5,679.75 L347.5,678.25 C347.5,678.046874 347.574218,677.871094 347.722656,677.722656 C347.871094,677.574218 348.046874,677.5 348.25,677.5 L349.75,677.5 Z M349.75,671.5 C349.859376,671.5 349.957031,671.519531 350.042969,671.558594 C350.128907,671.597656 350.207031,671.652343 350.277344,671.722656 C350.347657,671.792969 350.402344,671.871093 350.441406,671.957031 C350.480469,672.042969 350.5,672.140624 350.5,672.25 L350.5,673.75 C350.5,673.953126 350.425782,674.128906 350.277344,674.277344 C350.128906,674.425782 349.953126,674.5 349.75,674.5 L348.25,674.5 C348.046874,674.5 347.871094,674.425782 347.722656,674.277344 C347.574218,674.128906 347.5,673.953126 347.5,673.75 L347.5,672.25 C347.5,672.046874 347.574218,671.871094 347.722656,671.722656 C347.871094,671.574218 348.046874,671.5 348.25,671.5 L349.75,671.5 Z M343.75,671.5 C343.859376,671.5 343.957031,671.519531 344.042969,671.558594 C344.128907,671.597656 344.207031,671.652343 344.277344,671.722656 C344.347657,671.792969 344.402344,671.871093 344.441406,671.957031 C344.480469,672.042969 344.5,672.140624 344.5,672.25 L344.5,673.75 C344.5,673.953126 344.425782,674.128906 344.277344,674.277344 C344.128906,674.425782 343.953126,674.5 343.75,674.5 L342.25,674.5 C342.046874,674.5 341.871094,674.425782 341.722656,674.277344 C341.574218,674.128906 341.5,673.953126 341.5,673.75 L341.5,672.25 C341.5,672.046874 341.574218,671.871094 341.722656,671.722656 C341.871094,671.574218 342.046874,671.5 342.25,671.5 L343.75,671.5 Z M343.75,677.5 C343.8125,677.5 343.878906,677.507812 343.949219,677.523438 C344.019532,677.539063 344.082031,677.5625 344.136719,677.59375 C344.191407,677.625 344.242187,677.664062 344.289062,677.710938 C344.335938,677.757813 344.375,677.808593 344.40625,677.863281 C344.4375,677.917969 344.460937,677.980468 344.476562,678.050781 C344.492188,678.121094 344.5,678.1875 344.5,678.25 L344.5,679.75 C344.5,679.953126 344.425782,680.128906 344.277344,680.277344 C344.128906,680.425782 343.953126,680.5 343.75,680.5 L342.25,680.5 C342.046874,680.5 341.871094,680.425782 341.722656,680.277344 C341.574218,680.128906 341.5,679.953126 341.5,679.75 L341.5,678.25 C341.5,678.046874 341.574218,677.871094 341.722656,677.722656 C341.871094,677.574218 342.046874,677.5 342.25,677.5 L343.75,677.5 Z" id="path-1"></path>
        <filter x="-20.8%" y="-16.7%" width="141.7%" height="141.7%" filterUnits="objectBoundingBox" id="filter-2">
            <feOffset dx="0" dy="1" in="SourceAlpha" result="shadowOffsetOuter1"></feOffset>
            <feGaussianBlur stdDeviation="1.5" in="shadowOffsetOuter1" result="shadowBlurOuter1"></feGaussianBlur>
            <feColorMatrix values="0 0 0 0 0   0 0 0 0 0   0 0 0 0 0  0 0 0 0.0970618207 0" type="matrix" in="shadowBlurOuter1"></feColorMatrix>
        </filter>
    </defs>
    <g id="Page-1" stroke="none" stroke-width="1" fill="none" fill-rule="evenodd">
        <g id="mobi-sinnnhat-new" transform="translate(-334.000000, -660.000000)">
            <g id="calendar---simple-line-icons">
                <use fill="black" fill-opacity="1" filter="url(#filter-2)" xlink:href="#path-1"></use>
                <use fill="#FFFFFF" fill-rule="evenodd" xlink:href="#path-1"></use>
            </g>
        </g>
    </g>
</svg>