<?xml version="1.0" encoding="UTF-8" standalone="no"?>
<svg width="15px" height="15px" viewBox="0 0 15 15" version="1.1" xmlns="http://www.w3.org/2000/svg" xmlns:xlink="http://www.w3.org/1999/xlink">
    <!-- Generator: Sketch 46.2 (44496) - http://www.bohemiancoding.com/sketch -->
    <title>clock</title>
    <desc>Created with Sketch.</desc>
    <defs></defs>
    <g id="mobile-home-opt1" stroke="none" stroke-width="1" fill="none" fill-rule="evenodd">
        <g id="menu_trending" transform="translate(-10.000000, -103.000000)" fill="#DD6F6F">
            <g id="lastest-news" transform="translate(0.000000, 43.000000)">
                <g id="lastest-1" transform="translate(10.000000, 60.000000)">
                    <g id="time">
                        <g id="clock">
                            <g id="schedule">
                                <path d="M7.5,0 C3.375,0 0,3.375 0,7.5 C0,11.625 3.375,15 7.5,15 C11.625,15 15,11.625 15,7.5 C15,3.375 11.625,0 7.5,0 L7.5,0 Z M7.5,13.5 C4.2,13.5 1.5,10.8 1.5,7.5 C1.5,4.2 4.2,1.5 7.5,1.5 C10.8,1.5 13.5,4.2 13.5,7.5 C13.5,10.8 10.8,13.5 7.5,13.5 L7.5,13.5 Z" id="Shape"></path>
                                <polygon id="Shape" points="7.875 3.75 6.75 3.75 6.75 8.15217391 10.65 10.5 11.25 9.54619565 7.875 7.56521739"></polygon>
                            </g>
                        </g>
                    </g>
                </g>
            </g>
        </g>
    </g>
</svg>