<?xml version="1.0" encoding="UTF-8" standalone="no"?>
<svg width="16px" height="16px" viewBox="0 0 16 16" version="1.1" xmlns="http://www.w3.org/2000/svg" xmlns:xlink="http://www.w3.org/1999/xlink">
    <!-- Generator: Sketch 46.2 (44496) - http://www.bohemiancoding.com/sketch -->
    <title>Shape</title>
    <desc>Created with Sketch.</desc>
    <defs></defs>
    <g id="mobi-chitiet" stroke="none" stroke-width="1" fill="none" fill-rule="evenodd">
        <g id="m-chitiet-fa" transform="translate(-20.000000, -4114.000000)" fill="#DD6F6F">
            <g id="Group" transform="translate(10.000000, 4101.000000)">
                <g id="chat-copy" transform="translate(10.000000, 13.289855)">
                    <path d="M13.9029851,0 L1.54477612,0 C0.695149254,0 0,0.694565217 0,1.54347826 L0,15.4347826 L3.08955224,12.3478261 L13.9029851,12.3478261 C14.7526119,12.3478261 15.4477612,11.6532609 15.4477612,10.8043478 L15.4477612,1.54347826 C15.4477612,0.694565217 14.7526119,0 13.9029851,0 L13.9029851,0 Z M3.08955224,5.40217391 L12.358209,5.40217391 L12.358209,6.94565217 L3.08955224,6.94565217 L3.08955224,5.40217391 L3.08955224,5.40217391 Z M9.26865672,9.26086957 L3.08955224,9.26086957 L3.08955224,7.7173913 L9.26865672,7.7173913 L9.26865672,9.26086957 L9.26865672,9.26086957 Z M12.358209,4.63043478 L3.08955224,4.63043478 L3.08955224,3.08695652 L12.358209,3.08695652 L12.358209,4.63043478 L12.358209,4.63043478 Z" id="Shape"></path>
                </g>
            </g>
        </g>
    </g>
</svg>