<?xml version="1.0" encoding="UTF-8" standalone="no"?>
<svg width="14px" height="15px" viewBox="0 0 14 15" version="1.1" xmlns="http://www.w3.org/2000/svg" xmlns:xlink="http://www.w3.org/1999/xlink">
    <!-- Generator: Sketch 46.2 (44496) - http://www.bohemiancoding.com/sketch -->
    <title>pencil - simple-line-icons</title>
    <desc>Created with Sketch.</desc>
    <defs></defs>
    <g id="mobi-chitiet" stroke="none" stroke-width="1" fill="none" fill-rule="evenodd">
        <g id="m-chitiet-fa" transform="translate(-195.000000, -3937.000000)" fill="#333333">
            <g id="credit" transform="translate(195.000000, 3938.000000)">
                <g id="writer">
                    <path d="M13.1933594,0.55859375 C13.7311225,1.06901297 14.0091145,1.6158825 14.0273438,2.19921875 C14.0364584,2.79166963 13.7721381,3.36588264 13.234375,3.921875 C13.0156239,4.14974072 11.7714957,5.38703304 9.50195312,7.63378906 C7.23241053,9.88054509 5.5781302,11.5188751 4.5390625,12.5488281 C4.51171861,12.576172 4.48209651,12.5989582 4.45019531,12.6171875 C4.41829411,12.6354168 4.38411477,12.6490885 4.34765625,12.6582031 C3.75520537,12.8313811 2.49740545,13.2324187 0.57421875,13.8613281 C0.537760234,13.8795574 0.492187773,13.8886719 0.4375,13.8886719 C0.419270742,13.8886719 0.401041758,13.8863933 0.3828125,13.8818359 L0.328125,13.8681641 C0.309895742,13.8636067 0.291666758,13.8567709 0.2734375,13.8476562 C0.255208242,13.8385416 0.239257881,13.8294271 0.225585938,13.8203125 C0.211913994,13.8111979 0.195963633,13.8020834 0.177734375,13.7929688 C0.159505117,13.7838541 0.145833379,13.7701824 0.13671875,13.7519531 C0.00911394531,13.6243483 -0.0319012695,13.4739592 0.013671875,13.3007812 C0.742842187,10.8945192 1.12565086,9.61393307 1.16210938,9.45898438 C1.18945326,9.38606734 1.23046848,9.3222659 1.28515625,9.26757812 C6.89065303,3.65296672 9.7753898,0.768229941 9.93945312,0.61328125 C10.4407577,0.11197666 11.0058562,-0.138671875 11.6347656,-0.138671875 C11.9173191,-0.138671875 12.1884753,-0.0794276758 12.4482422,0.0390625 C12.7080091,0.157552676 12.956379,0.330728027 13.1933594,0.55859375 Z M9.80273438,2.0078125 L9.77539062,2.02148438 L9.72070312,2.07617188 L9.70703125,2.10351562 L9.50195312,2.30859375 L9.47460938,2.32226562 L9.43359375,2.36328125 L9.41992188,2.390625 L9.32421875,2.48632812 L9.296875,2.5 L9.25585938,2.54101562 L9.2421875,2.56835938 L9.17382812,2.63671875 L9.14648438,2.65039062 L9.11914062,2.67773438 L9.10546875,2.70507812 L9.05078125,2.75976562 L9.0234375,2.7734375 L8.99609375,2.80078125 L8.98242188,2.828125 L8.92773438,2.8828125 L8.90039062,2.89648438 L8.88671875,2.91015625 L8.87304688,2.9375 L8.81835938,2.9921875 L8.79101562,3.00585938 L8.77734375,3.01953125 L8.76367188,3.046875 L8.70898438,3.1015625 L8.68164062,3.11523438 L8.66796875,3.12890625 L8.65429688,3.15625 L8.61328125,3.19726562 L8.5859375,3.2109375 L8.57226562,3.22460938 L8.55859375,3.25195312 L8.50390625,3.30664062 L8.4765625,3.3203125 L8.46289062,3.33398438 L8.44921875,3.36132812 L8.40820312,3.40234375 L8.38085938,3.41601562 L8.3671875,3.4296875 L8.35351562,3.45703125 L8.3125,3.49804688 L8.28515625,3.51171875 L8.27148438,3.5390625 L8.23046875,3.58007812 L8.203125,3.59375 L8.18945312,3.60742188 L8.17578125,3.63476562 L8.13476562,3.67578125 L8.10742188,3.68945312 L8.09375,3.703125 L8.08007812,3.73046875 L8.0390625,3.77148438 L8.01171875,3.78515625 L7.99804688,3.8125 L7.95703125,3.85351562 L7.9296875,3.8671875 L7.91601562,3.88085938 L7.90234375,3.90820312 L7.86132812,3.94921875 L7.83398438,3.96289062 L7.8203125,3.99023438 L7.77929688,4.03125 L7.75195312,4.04492188 L7.73828125,4.05859375 L7.72460938,4.0859375 L7.68359375,4.12695312 L7.65625,4.140625 L7.64257812,4.16796875 L7.6015625,4.20898438 L7.57421875,4.22265625 L7.56054688,4.23632812 L7.546875,4.26367188 L7.50585938,4.3046875 L7.47851562,4.31835938 L7.46484375,4.34570312 L7.42382812,4.38671875 L7.39648438,4.40039062 L7.3828125,4.4140625 L7.36914062,4.44140625 L7.328125,4.48242188 L7.30078125,4.49609375 L7.28710938,4.5234375 L7.24609375,4.56445312 L7.21875,4.578125 L7.20507812,4.59179688 L7.19140625,4.61914062 L7.15039062,4.66015625 L7.12304688,4.67382812 L7.109375,4.70117188 L7.06835938,4.7421875 L7.04101562,4.75585938 L7.02734375,4.76953125 L7.01367188,4.796875 L6.97265625,4.83789062 L6.9453125,4.8515625 L6.93164062,4.87890625 L6.890625,4.91992188 L6.86328125,4.93359375 L6.84960938,4.94726562 L6.8359375,4.97460938 L6.79492188,5.015625 L6.76757812,5.02929688 L6.75390625,5.04296875 L6.74023438,5.0703125 L6.69921875,5.11132812 L6.671875,5.125 L6.65820312,5.13867188 L6.64453125,5.16601562 L6.60351562,5.20703125 L6.57617188,5.22070312 L6.5625,5.234375 L6.54882812,5.26171875 L6.5078125,5.30273438 L6.48046875,5.31640625 L6.46679688,5.33007812 L6.453125,5.35742188 L6.41210938,5.3984375 L6.38476562,5.41210938 L6.37109375,5.42578125 L6.35742188,5.453125 L6.31640625,5.49414062 L6.2890625,5.5078125 L6.27539062,5.52148438 L6.26171875,5.54882812 L6.20703125,5.60351562 L6.1796875,5.6171875 L6.16601562,5.63085938 L6.15234375,5.65820312 L6.09765625,5.71289062 L6.0703125,5.7265625 L6.05664062,5.74023438 L6.04296875,5.76757812 L5.98828125,5.82226562 L5.9609375,5.8359375 L5.94726562,5.84960938 L5.93359375,5.87695312 L5.87890625,5.93164062 L5.8515625,5.9453125 L5.83789062,5.95898438 L5.82421875,5.98632812 L5.76953125,6.04101562 L5.7421875,6.0546875 L5.71484375,6.08203125 L5.70117188,6.109375 L5.64648438,6.1640625 L5.61914062,6.17773438 L5.59179688,6.20507812 L5.578125,6.23242188 L5.50976562,6.30078125 L5.48242188,6.31445312 L5.46875,6.328125 L5.45507812,6.35546875 L5.37304688,6.4375 L5.34570312,6.45117188 L5.31835938,6.47851562 L5.3046875,6.50585938 L5.22265625,6.58789062 L5.1953125,6.6015625 L5.16796875,6.62890625 L5.15429688,6.65625 L5.04492188,6.765625 L5.01757812,6.77929688 L4.99023438,6.80664062 L4.9765625,6.83398438 L4.83984375,6.97070312 L4.8125,6.984375 L4.7578125,7.0390625 L4.74414062,7.06640625 L4.22460938,7.5859375 L4.2109375,7.5859375 L4.08789062,7.70898438 L4.08789062,7.72265625 L3.828125,7.98242188 L3.81445312,7.98242188 L3.7734375,8.0234375 L3.7734375,8.03710938 L3.62304688,8.1875 L3.609375,8.1875 L3.58203125,8.21484375 L3.58203125,8.22851562 L3.45898438,8.3515625 L3.4453125,8.3515625 L3.43164062,8.36523438 L3.43164062,8.37890625 L3.3359375,8.47460938 L3.32226562,8.47460938 L3.30859375,8.48828125 L3.30859375,8.50195312 L3.2265625,8.58398438 L3.21289062,8.58398438 L3.21289062,8.59765625 L3.14453125,8.66601562 L3.13085938,8.66601562 L3.1171875,8.6796875 L3.1171875,8.69335938 L3.0625,8.74804688 L3.04882812,8.74804688 L3.03515625,8.76171875 L3.03515625,8.77539062 L2.99414062,8.81640625 L2.98046875,8.81640625 L2.96679688,8.83007812 L2.96679688,8.84375 L2.92578125,8.88476562 L2.91210938,8.88476562 L2.8984375,8.8984375 L2.8984375,8.91210938 L2.85742188,8.953125 L2.84375,8.953125 L2.84375,8.96679688 L2.80273438,9.0078125 L2.7890625,9.0078125 L2.7890625,9.02148438 L2.76171875,9.04882812 L2.74804688,9.04882812 L2.74804688,9.0625 L2.70703125,9.10351562 L2.69335938,9.10351562 L2.69335938,9.1171875 L2.66601562,9.14453125 L2.65234375,9.14453125 L2.65234375,9.15820312 L2.625,9.18554688 L2.61132812,9.18554688 L2.61132812,9.19921875 L2.58398438,9.2265625 L2.5703125,9.2265625 L2.5703125,9.24023438 L2.52929688,9.28125 C3.00325758,9.47265721 3.43163871,9.75976371 3.81445312,10.1425781 C4.13346514,10.4707048 4.38411367,10.8443989 4.56640625,11.2636719 C8.15757004,7.7089666 10.5683532,5.32096965 11.7988281,4.09960938 C11.7805989,4.00846309 11.755534,3.91048229 11.7236328,3.80566406 C11.6917316,3.70084583 11.6188157,3.54362084 11.5048828,3.33398438 C11.39095,3.12434791 11.2519539,2.93750082 11.0878906,2.7734375 C10.686847,2.37239383 10.2584658,2.11718805 9.80273438,2.0078125 Z M1.92773438,10.0195312 C1.86393197,10.247397 1.72265734,10.700843 1.50390625,11.3798828 C1.28515516,12.0589227 1.13476604,12.5351549 1.05273438,12.8085938 C1.35351713,12.7083328 1.84797833,12.544272 2.53613281,12.3164062 C3.22428729,12.0885405 3.6595043,11.9427087 3.84179688,11.8789062 C3.71419207,11.4596333 3.49544426,11.0950536 3.18554688,10.7851562 C2.79361783,10.3932272 2.37435119,10.1380214 1.92773438,10.0195312 Z M12.5917969,3.29296875 C12.956382,2.91926896 13.1386719,2.56380377 13.1386719,2.2265625 C13.1386719,2.06249918 13.0908208,1.89388107 12.9951172,1.72070312 C12.8994136,1.54752518 12.7604176,1.37434982 12.578125,1.20117188 C12.4322909,1.05533781 12.2796232,0.945963906 12.1201172,0.873046875 C11.9606112,0.800129844 11.7988289,0.763671875 11.6347656,0.763671875 C11.4615877,0.763671875 11.2861337,0.80468709 11.1083984,0.88671875 C10.9306632,0.96875041 10.8076175,1.0371091 10.7392578,1.09179688 C10.6708981,1.14648465 10.6139325,1.19661436 10.5683594,1.2421875 L10.5,1.31054688 C10.9466168,1.50195408 11.3522117,1.77994609 11.7167969,2.14453125 C12.0631528,2.50000178 12.327473,2.91471117 12.5097656,3.38867188 L12.578125,3.3203125 C12.5872396,3.31119787 12.5917969,3.30208338 12.5917969,3.29296875 Z" id="pencil---simple-line-icons"></path>
                </g>
            </g>
        </g>
    </g>
</svg>