<?xml version="1.0" encoding="UTF-8" standalone="no"?>
<svg width="19px" height="15px" viewBox="0 0 19 15" version="1.1" xmlns="http://www.w3.org/2000/svg" xmlns:xlink="http://www.w3.org/1999/xlink">
    <!-- Generator: Sketch 46.2 (44496) - http://www.bohemiancoding.com/sketch -->
    <title>design_ico</title>
    <desc>Created with Sketch.</desc>
    <defs></defs>
    <g id="mobi-chitiet" stroke="none" stroke-width="1" fill="none" fill-rule="evenodd">
        <g id="m-chitiet-fa" transform="translate(-294.000000, -3939.000000)" fill="#333333">
            <g id="credit" transform="translate(195.000000, 3938.000000)">
                <g id="design" transform="translate(99.000000, 0.000000)">
                    <g id="design_ico" transform="translate(0.000000, 1.000000)">
                        <g id="Shape">
                            <path d="M10.4270531,11.1111111 L8.55458937,11.1111111 C8.38019324,11.1111111 8.24251208,11.2453033 8.24251208,11.41528 L8.24251208,13.5623546 C8.24251208,13.7323314 8.38019324,13.8665235 8.55458937,13.8665235 L10.4362319,13.8665235 C10.610628,13.8665235 10.7483092,13.7323314 10.7483092,13.5623546 L10.7483092,11.41528 C10.7483092,11.2453033 10.6014493,11.1111111 10.4270531,11.1111111 Z M8.86666667,13.2492396 L8.86666667,11.7194489 L10.1241546,11.7194489 L10.1241546,13.2492396 L8.86666667,13.2492396 Z" fill-rule="nonzero"></path>
                            <path d="M17.6690821,0.0805152979 L6.59951691,0.0805152979 C6.59951691,0.0805152979 6.59951691,0.0805152979 6.59951691,0.0805152979 L1.31256039,0.0805152979 C0.633333333,0.0805152979 0.0917874396,0.608337806 0.0917874396,1.27035248 L0.0917874396,10.5296117 C0.0917874396,11.1826803 0.633333333,11.7194489 1.31256039,11.7194489 L17.6782609,11.7194489 C18.3483092,11.7194489 18.8990338,11.1826803 18.8990338,10.5296117 L18.8990338,1.27035248 C18.8898551,0.608337806 18.3483092,0.0805152979 17.6690821,0.0805152979 Z M18.2657005,10.5296117 C18.2657005,10.8516729 17.9995169,11.1111111 17.6782609,11.1111111 L1.31256039,11.1111111 C0.991304348,11.1111111 0.725120773,10.8516729 0.725120773,10.5296117 L0.725120773,1.27035248 C0.725120773,0.948291286 0.991304348,0.688853104 1.31256039,0.688853104 L7.25120773,0.688853104 C7.25120773,0.688853104 7.25120773,0.688853104 7.25120773,0.688853104 L17.6690821,0.688853104 C17.9903382,0.688853104 18.2565217,0.948291286 18.2565217,1.27035248 L18.2565217,10.5296117 L18.2657005,10.5296117 Z" fill-rule="nonzero"></path>
                            <path d="M11.9966184,13.2492396 L6.98502415,13.2492396 C6.81062802,13.2492396 6.67294686,13.3834317 6.67294686,13.5534085 L6.67294686,14.4748613 C6.67294686,14.6448381 6.81062802,14.7790302 6.98502415,14.7790302 L11.9966184,14.7790302 C12.1710145,14.7790302 12.3086957,14.6448381 12.3086957,14.4748613 L12.3086957,13.5534085 C12.3086957,13.3923779 12.1710145,13.2492396 11.9966184,13.2492396 Z M11.6845411,14.1706924 L11.6845411,14.1706924 L7.29710145,14.1706924 L7.29710145,13.8665235 L11.6845411,13.8665235 C11.6845411,13.8665235 11.6845411,14.1706924 11.6845411,14.1706924 Z" fill-rule="nonzero"></path>
                            <path d="M11.0603865,8.89246735 C10.9594203,8.89246735 10.8584541,8.85668277 10.7850242,8.78511362 L5.2410628,3.85578816 L0.789371981,8.04258365 C0.624154589,8.1946681 0.367149758,8.1946681 0.201932367,8.0336375 C0.0458937198,7.87260691 0.0458937198,7.62211487 0.211111111,7.46108427 L4.93816425,3.0148506 C5.0942029,2.87171229 5.34202899,2.86276615 5.50724638,3.00590446 L11.3357488,8.1946681 C11.5009662,8.34675255 11.5193237,8.59724459 11.363285,8.76722133 C11.2806763,8.85668277 11.1705314,8.89246735 11.0603865,8.89246735 Z" fill-rule="nonzero"></path>
                            <path d="M18.5410628,8.30202183 C18.4676329,8.30202183 18.3942029,8.28412954 18.3299517,8.23939882 L13.1256039,5.15297907 L10.5188406,7.60422258 C10.3536232,7.75630703 10.0966184,7.75630703 9.93140097,7.59527644 C9.77536232,7.43424584 9.77536232,7.1837538 9.94057971,7.02272321 L12.7676329,4.35677223 C12.905314,4.23152621 13.1072464,4.20468778 13.2724638,4.30309537 L18.7521739,7.55054571 C18.9449275,7.66684559 19.0091787,7.91733763 18.8898551,8.10520666 C18.8164251,8.23045267 18.678744,8.30202183 18.5410628,8.30202183 Z" fill-rule="nonzero"></path>
                            <path d="M10.3444444,4.57147969 C9.56425121,4.57147969 8.92173913,3.9452496 8.92173913,3.18482734 C8.92173913,2.42440508 9.56425121,1.79817499 10.3444444,1.79817499 C11.1246377,1.79817499 11.7671498,2.42440508 11.7671498,3.18482734 C11.7671498,3.9452496 11.1338164,4.57147969 10.3444444,4.57147969 Z M10.3444444,2.60332797 C10.0140097,2.60332797 9.74782609,2.86276615 9.74782609,3.18482734 C9.74782609,3.50688853 10.0140097,3.76632671 10.3444444,3.76632671 C10.6748792,3.76632671 10.9410628,3.50688853 10.9410628,3.18482734 C10.9410628,2.86276615 10.6748792,2.60332797 10.3444444,2.60332797 Z" fill-rule="nonzero"></path>
                        </g>
                    </g>
                </g>
            </g>
        </g>
    </g>
</svg>