<?xml version="1.0" encoding="UTF-8" standalone="no"?>
<svg width="24px" height="24px" viewBox="0 0 24 24" version="1.1" xmlns="http://www.w3.org/2000/svg" xmlns:xlink="http://www.w3.org/1999/xlink">
    <!-- Generator: Sketch 46.2 (44496) - http://www.bohemiancoding.com/sketch -->
    <title>Group 12</title>
    <desc>Created with Sketch.</desc>
    <defs></defs>
    <g id="mobi-chitiet" stroke="none" stroke-width="1" fill="none" fill-rule="evenodd">
        <g id="m-chitiet-stt-bar" transform="translate(-207.000000, -630.000000)" fill="#C6C6C6">
            <g id="Group-12" transform="translate(207.000000, 627.000000)">
                <g id="comment" transform="translate(0.000000, 3.000000)">
                    <path d="M21.6009934,0 L2.4089404,0 C1.08948675,0 0.00993377483,1.08 0.00993377483,2.4 L0.00993377483,24 L4.80794702,19.2 L21.6009934,19.2 C22.920447,19.2 24,18.12 24,16.8 L24,2.4 C24,1.08 22.920447,0 21.6009934,0 L21.6009934,0 Z M4.80794702,8.4 L19.2019868,8.4 L19.2019868,10.8 L4.80794702,10.8 L4.80794702,8.4 L4.80794702,8.4 Z M14.4039735,14.4 L4.80794702,14.4 L4.80794702,12 L14.4039735,12 L14.4039735,14.4 L14.4039735,14.4 Z M19.2019868,7.2 L4.80794702,7.2 L4.80794702,4.8 L19.2019868,4.8 L19.2019868,7.2 L19.2019868,7.2 Z" id="Shape"></path>
                </g>
            </g>
        </g>
    </g>
</svg>