<?xml version="1.0" encoding="UTF-8" standalone="no"?>
<svg width="128px" height="23px" viewBox="0 0 128 23" version="1.1" xmlns="http://www.w3.org/2000/svg" xmlns:xlink="http://www.w3.org/1999/xlink">
    <!-- Generator: Sketch 46.2 (44496) - http://www.bohemiancoding.com/sketch -->
    <title>logo focus</title>
    <desc>Created with Sketch.</desc>
    <defs>
        <polygon id="path-1" points="0.28586675 22.7272727 8.87393649 22.7272727 8.87393649 0.148943662 0.28586675 0.148943662"></polygon>
        <polygon id="path-3" points="8.47279577 0.149007682 8.47279577 22.7271127 0.0734514321 22.7271127 0.0734514321 0.149007682 8.47279577 0.149007682"></polygon>
        <polygon id="path-5" points="9.68698319 0.148847631 0.227213574 0.148847631 0.227213574 22.6971511 9.68698319 22.6971511 9.68698319 0.148847631"></polygon>
    </defs>
    <g id="mobile-home-opt1" stroke="none" stroke-width="1" fill="none" fill-rule="evenodd">
        <g id="m-home-opt1" transform="translate(-123.000000, -3134.000000)">
            <g id="Focus-news" transform="translate(-163.000000, 3114.000000)">
                <g id="Group-5" transform="translate(173.000000, 20.000000)">
                    <g id="logo-focus" transform="translate(113.000000, 0.000000)">
                        <polygon id="Fill-1" fill="#EB2026" points="0 0 0 22.7272727 1.98585225 22.7272727 1.98585225 12.0781037 6.6528055 12.0781037 6.6528055 10.2601448 1.98585225 10.2601448 1.98585225 1.81828669 6.81818182 1.81828669 6.81818182 0"></polygon>
                        <g id="Group-71" transform="translate(11.363636, 0.000000)">
                            <g id="Group-4" transform="translate(14.607721, 0.000000)">
                                <mask id="mask-2" fill="white">
                                    <use xlink:href="#path-1"></use>
                                </mask>
                                <g id="Clip-3"></g>
                                <path d="M8.87393649,14.1335787 L8.87393649,18.8269206 C8.87393649,21.4271127 7.58401121,22.7273688 5.00447821,22.7273688 L4.15532503,22.7273688 C1.57547447,22.7273688 0.28586675,21.4271127 0.28586675,18.8269206 L0.28586675,4.01738156 C0.28586675,1.43863636 1.57547447,0.148943662 4.15532503,0.148943662 L5.00447821,0.148943662 C7.54177584,0.148943662 8.81105978,1.42839309 8.81105978,3.98601152 L8.81105978,8.07660051 L6.95492653,8.07660051 L6.95492653,3.95400128 C6.95492653,2.6015685 6.27312702,1.92455186 4.91016314,1.92455186 L4.21788418,1.92455186 C2.85428518,1.92455186 2.1731208,2.6015685 2.1731208,3.95400128 L2.1731208,18.921991 C2.1731208,20.2747439 2.85428518,20.9514405 4.21788418,20.9514405 L4.97303985,20.9514405 C6.33600374,20.9514405 7.0181208,20.2747439 7.0181208,18.921991 L7.0181208,14.1335787 L8.87393649,14.1335787 Z" id="Fill-2" fill="#EB2026" mask="url(#mask-2)"></path>
                            </g>
                            <path d="M37.2486725,18.8267926 C37.2486725,21.4273047 35.9482677,22.7272407 33.3477758,22.7272407 L32.530061,22.7272407 C29.9502105,22.7272407 28.6606027,21.4273047 28.6606027,18.8267926 L28.6606027,0.339276569 L30.5478568,0.339276569 L30.5478568,18.8898528 C30.5478568,20.2646927 31.2401357,20.9513124 32.6240585,20.9513124 L33.2852167,20.9513124 C34.6691395,20.9513124 35.3614184,20.2646927 35.3614184,18.8898528 L35.3614184,0.339276569 L37.2486725,0.339276569 L37.2486725,18.8267926 Z" id="Fill-5" fill="#EB2026"></path>
                            <path d="M50.3867615,13.2773688 C50.6805037,13.8695583 50.8275336,14.6198784 50.8275336,15.5286492 L50.8275336,18.8900448 C50.8275336,21.4479834 49.5376083,22.7271127 46.9577578,22.7271127 L46.2657964,22.7271127 C43.7065872,22.7271127 42.4277765,21.4588668 42.4277765,18.9220551 L42.4277765,14.3554738 L44.2839097,14.3554738 L44.2839097,18.9851152 C44.2839097,20.2962548 44.9650741,20.9515045 46.3286731,20.9515045 L46.8948811,20.9515045 C48.257845,20.9515045 48.939962,20.2962548 48.939962,18.9851152 L48.939962,15.5920294 C48.939962,14.9793534 48.8348499,14.5036812 48.6252609,14.1650128 C48.4153543,13.8273047 48.1006532,13.4889565 47.6811575,13.1506082 L44.4411015,10.7088668 C43.6859458,10.159251 43.1670542,9.58306658 42.8837914,8.9803137 C42.6005286,8.37788092 42.4592148,7.63268246 42.4592148,6.74471831 L42.4592148,3.98607554 C42.4592148,1.428137 43.7491401,0.149007682 46.3286731,0.149007682 L46.9263194,0.149007682 C49.4848935,0.149007682 50.7643394,1.41725352 50.7643394,3.9540653 L50.7643394,7.85483355 L48.9082061,7.85483355 L48.9082061,3.89068502 C48.9082061,2.58050576 48.2267242,1.92461588 46.8634427,1.92461588 L46.3915498,1.92461588 C45.0279508,1.92461588 44.3464689,2.58050576 44.3464689,3.89068502 L44.3464689,6.71302817 C44.3464689,7.32666453 44.4512634,7.80233675 44.6614875,8.14004481 C44.870759,8.47871319 45.1851426,8.81674136 45.6049558,9.15476953 L48.8453294,11.5648207 C49.5795262,12.1150768 50.0930193,12.6854994 50.3867615,13.2773688" id="Fill-7" fill="#EB2026"></path>
                            <polygon id="Fill-9" fill="#FEFEFE" points="67.8538804 22.5367478 62.8834446 4.2396927 62.9460037 12.9919334 62.9460037 22.5367478 61.1851382 22.5367478 61.1851382 0.339244558 63.5757235 0.339244558 68.3575293 18.1289373 68.3257733 9.69391805 68.3257733 0.339244558 70.0875915 0.339244558 70.0875915 22.5367478"></polygon>
                            <polygon id="Fill-11" fill="#FEFEFE" points="81.8190523 0.339180538 81.8190523 2.11478873 77.0686849 2.11478873 77.0686849 10.3282971 81.6618605 10.3282971 81.6618605 12.1039052 77.0686849 12.1039052 77.0686849 20.7610755 81.8822466 20.7610755 81.8822466 22.5366837 75.1811133 22.5366837 75.1811133 0.339180538"></polygon>
                            <polygon id="Fill-13" fill="#FEFEFE" points="98.0140928 19.8411972 100.405313 0.339276569 102.229691 0.339276569 99.2411413 22.5367798 96.850556 22.5367798 94.6797217 4.96891805 92.5406432 22.5367798 90.1494228 22.5367798 87.1608736 0.339276569 89.0798836 0.339276569 91.4079097 19.9365877 93.798495 0.339276569 95.6546283 0.339276569"></polygon>
                            <g id="Group-17" transform="translate(107.334994, 0.000000)">
                                <mask id="mask-4" fill="white">
                                    <use xlink:href="#path-3"></use>
                                </mask>
                                <g id="Clip-16"></g>
                                <path d="M8.03275405,13.2773688 C8.3261787,13.8695583 8.47289103,14.6198784 8.47289103,15.5286492 L8.47289103,18.8900448 C8.47289103,21.4479834 7.18296575,22.7271127 4.60343275,22.7271127 L3.91147136,22.7271127 C1.35226214,22.7271127 0.0734514321,21.4588668 0.0734514321,18.9220551 L0.0734514321,14.3554738 L1.92958468,14.3554738 L1.92958468,18.9851152 C1.92958468,20.2962548 2.61106663,20.9515045 3.97434807,20.9515045 L4.54055604,20.9515045 C5.90351993,20.9515045 6.58531943,20.2962548 6.58531943,18.9851152 L6.58531943,15.5920294 C6.58531943,14.9793534 6.48052491,14.5036812 6.27093587,14.1650128 C6.06134682,13.8273047 5.74632814,13.4889565 5.32715006,13.1506082 L2.08677646,10.7088668 C1.3316208,10.159251 0.812729141,9.58306658 0.529783935,8.9803137 C0.246203611,8.37788092 0.104889788,7.63268246 0.104889788,6.74471831 L0.104889788,3.98607554 C0.104889788,1.428137 1.39481507,0.149007682 3.97434807,0.149007682 L4.5719944,0.149007682 C7.13088605,0.149007682 8.41001432,1.41725352 8.41001432,3.9540653 L8.41001432,7.85483355 L6.55388107,7.85483355 L6.55388107,3.89068502 C6.55388107,2.58050576 5.87239913,1.92461588 4.50943524,1.92461588 L4.03754234,1.92461588 C2.67362578,1.92461588 1.99246139,2.58050576 1.99246139,3.89068502 L1.99246139,6.71302817 C1.99246139,7.32666453 2.09725592,7.80233675 2.30716252,8.14004481 C2.516434,8.47871319 2.83113512,8.81674136 3.25094832,9.15476953 L6.49132192,11.5648207 C7.22488356,12.1150768 7.73901183,12.6854994 8.03275405,13.2773688" id="Fill-15" fill="#FEFEFE" mask="url(#mask-4)"></path>
                            </g>
                            <path d="M4.65932316,19.6472151 L4.65932316,20.8828105 C4.65932316,20.8972151 4.6536071,20.9096991 4.65106663,20.9234635 L5.75966563,20.9234635 C6.44940411,20.9234635 6.9625797,20.7486876 7.30300311,20.4020166 L7.30300311,19.6472151 L4.65932316,19.6472151 Z" id="Fill-18" fill="#EB2026"></path>
                            <path d="M6.77042466,2.10208067 C6.70468991,2.22916133 6.57703113,2.31879001 6.4249203,2.31879001 L3.5576787,2.31879001 C3.39540598,2.31879001 3.25663263,2.21955826 3.19629639,2.07807298 C2.6138929,2.29510243 2.26553051,2.74452625 2.15438481,3.42922535 L7.75962142,3.42922535 C7.65196887,2.76661332 7.31948443,2.32679257 6.77042466,2.10208067" id="Fill-20" fill="#EB2026"></path>
                            <path d="M4.19708406,20.7160051 L4.1827939,20.7160051 L4.1827939,20.2502561 L4.19708406,20.2502561 L4.19708406,19.6471831 L2.20789352,19.6471831 C2.4327254,20.4935339 3.07641781,20.9234315 4.15421357,20.9234315 L4.2053406,20.9234315 C4.20280012,20.9096671 4.19708406,20.8971831 4.19708406,20.8827785 L4.19708406,20.7160051 Z" id="Fill-22" fill="#EB2026"></path>
                            <g id="Group-26">
                                <mask id="mask-6" fill="white">
                                    <use xlink:href="#path-5"></use>
                                </mask>
                                <g id="Clip-25"></g>
                                <path d="M8.67905044,19.6472151 L8.44913761,19.6472151 L8.44913761,21.249968 L1.53365193,21.249968 L1.53365193,19.6472151 L1.23514633,19.6472151 L1.23514633,3.42922535 L1.53365193,3.42922535 L1.53365193,1.65041613 L3.27387609,1.65041613 C3.34564446,1.57455186 3.44567559,1.52589629 3.55777397,1.52589629 L6.42469801,1.52589629 C6.53711395,1.52589629 6.63682752,1.57455186 6.70859589,1.65041613 L8.44913761,1.65041613 L8.44913761,3.42922535 L8.67905044,3.42922535 L8.67905044,19.6472151 Z M5.82260585,0.148815621 L4.09159091,0.148815621 C1.5152335,0.148815621 0.227213574,1.43690781 0.227213574,4.01245198 L0.227213574,18.8018246 C0.227213574,21.3988156 1.5152335,22.6971511 4.09159091,22.6971511 L5.82260585,22.6971511 C8.39896326,22.6971511 9.68698319,21.3988156 9.68698319,18.8018246 L9.68698319,4.01245198 C9.68698319,1.43690781 8.39896326,0.148815621 5.82260585,0.148815621 L5.82260585,0.148815621 Z" id="Fill-24" fill="#EB2026" mask="url(#mask-6)"></path>
                            </g>
                            <path d="M6.77042466,2.10208067 C7.31948443,2.32679257 7.65196887,2.76661332 7.75962142,3.42922535 L8.4493599,3.42922535 L8.4493599,1.65041613 L6.70881818,1.65041613 C6.77582316,1.72147887 6.81837609,1.8165493 6.81837609,1.9221831 C6.81837609,1.9881242 6.79836986,2.04734315 6.77042466,2.10208067" id="Fill-27" fill="#EB2026"></path>
                            <path d="M7.76543275,19.7583547 L7.76543275,20.2503521 L7.76543275,20.7161012 L7.76543275,20.8828745 C7.76543275,21.0115557 7.66190847,21.1159091 7.53424969,21.1159091 C7.40659091,21.1159091 7.30306663,21.0115557 7.30306663,20.8828745 L7.30306663,20.4020807 C6.96264321,20.7487516 6.44915006,20.9235275 5.75972914,20.9235275 L4.65113014,20.9235275 C4.63112391,21.0320423 4.54157223,21.1159091 4.42820361,21.1159091 C4.31483499,21.1159091 4.22528331,21.0320423 4.20527709,20.9235275 L4.15415006,20.9235275 C3.0763543,20.9235275 2.43266189,20.49363 2.20814757,19.6472791 L1.53365193,19.6472791 L1.53365193,21.250032 L8.44913761,21.250032 L8.44913761,19.6472791 L7.76543275,19.6472791 L7.76543275,19.7583547 Z" id="Fill-29" fill="#EB2026"></path>
                            <path d="M3.19632814,2.07816901 C3.17600436,2.03015365 3.16425467,1.97765685 3.16425467,1.92227913 C3.16425467,1.81664533 3.20712516,1.7215749 3.27413014,1.65051216 L1.53358842,1.65051216 L1.53358842,3.42932138 L2.15441656,3.42932138 C2.26556227,2.74462228 2.61392466,2.29519846 3.19632814,2.07816901" id="Fill-31" fill="#EB2026"></path>
                            <path d="M4.20315549,15.7586428 C4.23298172,15.6309219 4.05212055,15.5150448 3.79828031,15.5 C3.54444007,15.4849552 3.31534926,15.5765045 3.28552303,15.7042254 C3.19731355,16.0825864 3.26267741,16.4590269 3.47907621,16.8233035 C3.53999787,16.9241357 3.72339744,16.9891165 3.92202742,16.9891165 C3.96581487,16.9891165 4.01023691,16.9859155 4.05465895,16.9791933 C4.29898018,16.9423816 4.43732311,16.81242 4.36434404,16.6891805 C4.18411747,16.3863636 4.12954182,16.0733035 4.20315549,15.7586428" id="Fill-33" fill="#EB2026"></path>
                            <path d="M3.51404608,14.8400768 C3.45910834,14.956274 3.50769489,15.0951985 3.62296887,15.1505762 C3.65504234,15.1662612 3.68933873,15.1736236 3.72268244,15.1736236 C3.80874097,15.1736236 3.89162391,15.1246479 3.9313188,15.040781 C4.04214695,14.8071063 4.19171731,14.5945583 4.3752665,14.409219 C5.134868,13.6435339 6.33587671,13.5199744 7.23075841,14.115685 C7.33714072,14.1864277 7.48067746,14.1569782 7.55085803,14.0497439 C7.62135616,13.9421895 7.59182316,13.7978233 7.48544085,13.7267606 C6.40796264,13.0097311 4.96275093,13.1582586 4.04849813,14.0798335 C3.8271594,14.3023047 3.64742092,14.5583867 3.51404608,14.8400768" id="Fill-35" fill="#EB2026"></path>
                            <path d="M3.71471171,13.7434699 C4.05672291,13.3983995 4.45970548,13.1419974 4.91222727,12.9809859 C5.03258219,12.9380922 5.09609402,12.8052497 5.0535411,12.6839309 C5.01098817,12.562612 4.87920112,12.4989117 4.75852864,12.5418054 C4.24058966,12.7258643 3.77917621,13.0193982 3.38762578,13.4137644 C2.0821401,14.7300256 1.95130573,16.8282971 3.08340411,18.2950064 C3.12913263,18.3539052 3.19740785,18.3849552 3.26600062,18.3849552 C3.31553985,18.3849552 3.3657142,18.3689501 3.40794956,18.3359795 C3.50861582,18.2569142 3.52671669,18.1106274 3.44827958,18.0088348 C2.45908281,16.7271447 2.57372167,14.893598 3.71471171,13.7434699" id="Fill-37" fill="#EB2026"></path>
                            <path d="M5.66223848,12.3461441 C5.53521482,12.3583692 5.44089975,12.4813187 5.45201432,12.6217327 C5.46312889,12.7610988 5.57522727,12.8648374 5.70225093,12.8526123 C6.45137298,12.7813575 7.19033313,13.0010599 7.80195205,13.46736 L7.80195205,12.8665839 C7.15730697,12.4603614 6.41421856,12.2741907 5.66223848,12.3461441" id="Fill-39" fill="#EB2026"></path>
                            <path d="M8.07494079,13.8789437 C8.17166101,13.9330052 8.28610098,13.9581626 8.39980262,13.9581626 C8.56223354,13.9581626 8.72171116,13.9051716 8.82802958,13.8045421 C9.00818023,13.6337932 8.96240425,13.3891779 8.7261411,13.2585737 C8.43081216,13.096389 8.11997845,12.954009 7.80176152,12.821799 L7.80176152,13.7424516 C7.89257517,13.7879489 7.98634211,13.8302347 8.07494079,13.8789437" id="Fill-41" fill="#EB2026"></path>
                            <path d="M6.57614197,16.1658131 C6.57614197,16.2368758 6.51866376,16.2944942 6.44848319,16.2944942 L5.51422416,16.2944942 C5.44372603,16.2944942 5.38624782,16.2368758 5.38624782,16.1658131 L5.38624782,16.0803457 C5.38624782,15.9142125 5.45452304,15.7516005 5.57329016,15.6334827 C5.68538854,15.5224072 5.83019552,15.4615877 5.98167123,15.4615877 C5.98484682,15.4615877 5.98802242,15.4615877 5.99151557,15.4615877 C6.31383811,15.4673496 6.57614197,15.7362356 6.57614197,16.0614597 L6.57614197,16.1658131 Z M5.99945455,14.9958387 C5.72000249,14.9913572 5.45293524,15.0995519 5.24937983,15.3015365 C5.04233126,15.506402 4.92388169,15.7900128 4.92388169,16.0803457 L4.92388169,16.1658131 C4.92388169,16.4939181 5.18872603,16.7605634 5.5139066,16.7605634 L6.44848319,16.7605634 C6.77366376,16.7605634 7.03850809,16.4939181 7.03850809,16.1658131 L7.03850809,16.0614597 C7.03850809,15.4836748 6.57233126,15.0054417 5.99945455,14.9958387 L5.99945455,14.9958387 Z" id="Fill-43" fill="#EB2026"></path>
                            <path d="M6.50993088,17.7435019 L5.4524589,17.7435019 C5.32511768,17.7435019 5.22127584,17.997935 5.22127584,18.3116837 C5.22127584,18.6254325 5.32511768,18.8798656 5.4524589,18.8798656 L6.50993088,18.8798656 C6.63758966,18.8798656 6.74111395,18.6254325 6.74111395,18.3116837 C6.74111395,17.997935 6.63758966,17.7435019 6.50993088,17.7435019" id="Fill-45" fill="#EB2026"></path>
                            <path d="M6.50993088,18.4429257 L5.4524589,18.4429257 C5.32511768,18.4429257 5.22127584,18.6981393 5.22127584,19.011888 C5.22127584,19.3248563 5.32511768,19.5792894 5.4524589,19.5792894 L6.50993088,19.5792894 C6.63758966,19.5792894 6.74111395,19.3248563 6.74111395,19.011888 C6.74111395,18.6981393 6.63758966,18.4429257 6.50993088,18.4429257" id="Fill-47" fill="#EB2026"></path>
                            <path d="M7.30306663,19.6472151 L7.30306663,20.7835787 C7.84304084,20.4900904 8.21108296,20.1060014 8.43943026,19.6472151 L7.30306663,19.6472151 Z" id="Fill-49" fill="#EB2026"></path>
                            <path d="M5.31934807,19.6472151 L4.21631777,19.6472151 L4.21631777,20.2502881 L4.18298443,20.2502881 L4.18298443,20.7160371 L4.21631777,20.7160371 L4.21631777,20.8828105 C4.21631777,20.8972151 4.23071171,20.9096991 4.23601474,20.9234635 L5.2996511,20.9234635 C5.30571171,20.9096991 5.31934807,20.8972151 5.31934807,20.8828105 L5.31934807,19.6472151 Z" id="Fill-51" fill="#EB2026"></path>
                            <path d="M7.30306663,20.4019846 L7.30306663,20.8827785 C7.30306663,21.0114597 7.55749969,21.1158131 7.87124844,21.1158131 C8.18499719,21.1158131 8.43943026,21.0114597 8.43943026,20.8827785 L8.43943026,20.7160051 L8.43943026,20.2502561 L8.43943026,19.7582586 L8.43943026,19.6471831 L8.29348246,19.6471831 C8.09446273,19.9519206 7.77368975,20.2070423 7.30306663,20.4019846" id="Fill-53" fill="#EB2026"></path>
                            <path d="M4.77336364,21.606386 C5.0623108,21.606386 5.29136415,21.3086588 5.34154545,20.9234315 L4.20518182,20.9234315 C4.25617249,21.3086588 4.48522585,21.606386 4.77336364,21.606386" id="Fill-55" fill="#EB2026"></path>
                            <path d="M7.76543275,18.5909411 L7.76543275,18.2929257 L7.76543275,18.2096991 L7.76543275,17.4603393 L7.76543275,17.1229513 L7.76543275,16.0614917 C7.76543275,15.0698143 6.96486613,14.2628361 5.98106787,14.2628361 C4.99726961,14.2628361 4.19702055,15.0698143 4.19702055,16.0614917 L4.19702055,19.6472791 L4.65938667,19.6472791 L4.65938667,16.0614917 C4.65938667,15.3265365 5.25226961,14.7289052 5.98106787,14.7289052 C6.71018369,14.7289052 7.30306663,15.3265365 7.30306663,16.0614917 L7.30306663,17.1229513 L7.30306663,17.4603393 L7.30306663,18.2929257 L7.30306663,18.5909411 L7.30306663,19.6472791 L7.70604919,19.6472791 C7.72796077,19.5643726 7.75177771,19.4827465 7.76543275,19.3915173 L7.76543275,19.2922855 L7.76543275,18.5909411 Z" id="Fill-57" fill="#EB2026"></path>
                            <path d="M7.91854919,20.2985915 L7.91854919,19.3917734 C7.86968555,19.7145006 7.78445828,20.0042734 7.70604919,20.2985915 L7.91854919,20.2985915 Z" id="Fill-59" fill="#EB2026"></path>
                            <path d="M7.23266376,8.21184379 L6.98719054,8.21184379 L6.33746451,8.86677337 C6.26093275,8.94359795 6.26093275,9.0684379 6.33746451,9.14526248 C6.41336115,9.22208707 6.53720922,9.22208707 6.61342341,9.14526248 L7.60071482,8.15006402 C7.67692902,8.07291933 7.67692902,7.94839949 7.60071482,7.8715749 L6.61342341,6.87637644 C6.53720922,6.79923175 6.41336115,6.79923175 6.33746451,6.87637644 C6.26093275,6.95320102 6.26093275,7.07772087 6.33746451,7.15454545 L6.98719054,7.80979513 L7.23266376,7.80979513 L7.23266376,8.21184379 Z" id="Fill-61" fill="#EB2026"></path>
                            <path d="M2.31329141,8.14993598 L3.30058281,9.14513444 C3.37679701,9.22195903 3.50064508,9.22195903 3.57685928,9.14513444 C3.65307347,9.06830986 3.65307347,8.94346991 3.57685928,8.86664533 L2.92713325,8.21171575 L2.69849066,8.21171575 L2.69849066,7.80966709 L2.92713325,7.80966709 L3.57685928,7.15473752 C3.65307347,7.07759283 3.65307347,6.95307298 3.57685928,6.8762484 C3.50064508,6.79942382 3.37679701,6.79942382 3.30058281,6.8762484 L2.31329141,7.87144686 C2.23707721,7.94827145 2.23707721,8.0731114 2.31329141,8.14993598" id="Fill-63" fill="#EB2026"></path>
                            <polygon id="Fill-65" fill="#EB2026" points="2.92700623 8.94615877 6.987 8.94615877 7.18674471 8.37797695 6.987 7.80979513 2.92700623 7.80979513 2.72757908 8.37797695"></polygon>
                            <polygon id="Fill-67" fill="#EB2026" points="6.98703176 8.94615877 7.86544085 8.94615877 7.86544085 7.80979513 6.98703176 7.80979513 7.70066812 8.37797695"></polygon>
                            <polygon id="Fill-69" fill="#EB2026" points="2.6984589 8.94615877 3.51664072 8.94615877 2.80300436 8.37797695 3.51664072 7.80979513 2.6984589 7.80979513"></polygon>
                        </g>
                    </g>
                </g>
            </g>
        </g>
    </g>
</svg>