<?xml version="1.0" encoding="UTF-8" standalone="no"?>
<svg width="10px" height="11px" viewBox="0 0 10 11" version="1.1" xmlns="http://www.w3.org/2000/svg" xmlns:xlink="http://www.w3.org/1999/xlink">
    <!-- Generator: Sketch 46.2 (44496) - http://www.bohemiancoding.com/sketch -->
    <title>Page 1</title>
    <desc>Created with Sketch.</desc>
    <defs></defs>
    <g id="Page-1" stroke="none" stroke-width="1" fill="none" fill-rule="evenodd">
        <g id="focus-news-02" transform="translate(-183.000000, -850.000000)" fill="#9B9B9B">
            <path d="M190,850 L184,850 C183.45,850 183,850.45 183,851 L183,858 L184,858 L184,851 L190,851 L190,850 Z M191.5,852 L186,852 C185.45,852 185,852.45 185,853 L185,860 C185,860.55 185.45,861 186,861 L191.5,861 C192.05,861 192.5,860.55 192.5,860 L192.5,853 C192.5,852.45 192.05,852 191.5,852 L191.5,852 Z M186,860 L191.5,860 L191.5,853 L186,853 L186,860 Z" id="Page-1"></path>
        </g>
    </g>
</svg>