<?xml version="1.0" encoding="UTF-8" standalone="no"?>
<svg width="12px" height="11px" viewBox="0 0 12 11" version="1.1" xmlns="http://www.w3.org/2000/svg" xmlns:xlink="http://www.w3.org/1999/xlink">
    <!-- Generator: Sketch 46.2 (44496) - http://www.bohemiancoding.com/sketch -->
    <title>Page 1</title>
    <desc>Created with Sketch.</desc>
    <defs></defs>
    <g id="Page-1" stroke="none" stroke-width="1" fill="none" fill-rule="evenodd">
        <g id="focus-news-02" transform="translate(-181.000000, -850.000000)" fill="#9B9B9B">
            <path d="M189.716,850 C188.694,850 187.672,850.481 187.011,851.262 C186.35,850.481 185.328,850 184.306,850 C182.443,850 181,851.442 181,853.306 C181,855.59 183.044,857.453 186.17,860.219 L187.011,861 L187.853,860.219 C190.918,857.394 193.022,855.53 193.022,853.306 C193.022,851.442 191.579,850 189.716,850 L189.716,850 Z M187.011,859.377 L186.951,859.317 C184.066,856.732 182.202,855.049 182.202,853.306 C182.202,852.104 183.104,851.202 184.306,851.202 C185.208,851.202 186.109,851.803 186.47,852.645 L187.612,852.645 C187.912,851.803 188.815,851.202 189.716,851.202 C190.918,851.202 191.82,852.104 191.82,853.306 C191.82,855.049 189.956,856.732 187.071,859.377 L187.011,859.377 Z" id="Page-1"></path>
        </g>
    </g>
</svg>