<?xml version="1.0" encoding="UTF-8" standalone="no"?>
<svg width="13px" height="13px" viewBox="0 0 13 13" version="1.1" xmlns="http://www.w3.org/2000/svg" xmlns:xlink="http://www.w3.org/1999/xlink">
    <!-- Generator: Sketch 46.2 (44496) - http://www.bohemiancoding.com/sketch -->
    <title>Shape</title>
    <desc>Created with Sketch.</desc>
    <defs></defs>
    <g id="mobi-chitiet" stroke="none" stroke-width="1" fill="none" fill-rule="evenodd">
        <g id="m-chitiet-fa" transform="translate(-245.000000, -488.000000)" fill="#9B9B9B">
            <g id="social" transform="translate(107.000000, 478.000000)">
                <g id="mail-copy" transform="translate(128.013659, 0.000000)">
                    <path d="M21.5110927,10 L11.2753311,10 C10.5716225,10 9.99586093,10.576 9.99586093,11.28 L9.99586093,22.8 L12.5548013,20.24 L21.5110927,20.24 C22.2148013,20.24 22.7905629,19.664 22.7905629,18.96 L22.7905629,11.28 C22.7905629,10.576 22.2148013,10 21.5110927,10 L21.5110927,10 Z M12.5548013,14.48 L20.2316225,14.48 L20.2316225,15.76 L12.5548013,15.76 L12.5548013,14.48 L12.5548013,14.48 Z M17.6726821,17.68 L12.5548013,17.68 L12.5548013,16.4 L17.6726821,16.4 L17.6726821,17.68 L17.6726821,17.68 Z M20.2316225,13.84 L12.5548013,13.84 L12.5548013,12.56 L20.2316225,12.56 L20.2316225,13.84 L20.2316225,13.84 Z" id="Shape"></path>
                </g>
            </g>
        </g>
    </g>
</svg>