<?xml version="1.0" encoding="UTF-8" standalone="no"?>
<svg width="22px" height="22px" viewBox="0 0 22 22" version="1.1" xmlns="http://www.w3.org/2000/svg" xmlns:xlink="http://www.w3.org/1999/xlink">
    <!-- Generator: Sketch 46.2 (44496) - http://www.bohemiancoding.com/sketch -->
    <title>pic</title>
    <desc>Created with Sketch.</desc>
    <defs></defs>
    <g id="mobile-home-opt1" stroke="none" stroke-width="1" fill="none" fill-rule="evenodd">
        <g id="m-home-opt1" transform="translate(-316.000000, -681.000000)" stroke="#C6C6C6">
            <g id="top-1" transform="translate(0.000000, 264.000000)">
                <g id="info" transform="translate(10.000000, 418.000000)">
                    <path d="M327,14.5454545 L327,1.81818182 C327,0.818181818 326.181818,0 325.181818,0 L312.454545,0 C311.454545,0 310.636364,0.818181818 310.636364,1.81818182 L310.636364,14.5454545 C310.636364,15.5454545 311.454545,16.3636364 312.454545,16.3636364 L325.181818,16.3636364 C326.181818,16.3636364 327,15.5454545 327,14.5454545 L327,14.5454545 Z M315.636364,9.54545455 L317.909091,12.2727273 L321.090909,8.18181818 L325.181818,13.6363636 L312.454545,13.6363636 L315.636364,9.54545455 L315.636364,9.54545455 Z M307,3.63636364 L307,18.1818182 C307,19.1818182 307.818182,20 308.818182,20 L323.363636,20 L323.363636,18.1818182 L308.818182,18.1818182 L308.818182,3.63636364 L307,3.63636364 L307,3.63636364 Z" id="pic"></path>
                </g>
            </g>
        </g>
    </g>
</svg>