<?xml version="1.0" encoding="UTF-8" standalone="no"?>
<svg width="22px" height="22px" viewBox="0 0 22 22" version="1.1" xmlns="http://www.w3.org/2000/svg" xmlns:xlink="http://www.w3.org/1999/xlink">
    <!-- Generator: Sketch 46.2 (44496) - http://www.bohemiancoding.com/sketch -->
    <title>video</title>
    <desc>Created with Sketch.</desc>
    <defs></defs>
    <g id="mobile-home-opt1" stroke="none" stroke-width="1" fill="none" fill-rule="evenodd">
        <g id="m-home-opt1" transform="translate(-344.000000, -681.000000)" stroke="#C6C6C6">
            <g id="top-1" transform="translate(0.000000, 264.000000)">
                <g id="info" transform="translate(10.000000, 418.000000)">
                    <path d="M336.818182,3.63636364 L335,3.63636364 L335,18.1818182 C335,19.1818182 335.818182,20 336.818182,20 L351.363636,20 L351.363636,18.1818182 L336.818182,18.1818182 L336.818182,3.63636364 L336.818182,3.63636364 Z M353.181818,0 L340.454545,0 C339.454545,0 338.636364,0.818181818 338.636364,1.81818182 L338.636364,14.5454545 C338.636364,15.5454545 339.454545,16.3636364 340.454545,16.3636364 L353.181818,16.3636364 C354.181818,16.3636364 355,15.5454545 355,14.5454545 L355,1.81818182 C355,0.818181818 354.181818,0 353.181818,0 L353.181818,0 Z M344.090909,4.54545455 L344.090909,12.7272727 L350.454545,8.63636364 L344.090909,4.54545455 Z" id="video"></path>
                </g>
            </g>
        </g>
    </g>
</svg>