<?xml version="1.0" encoding="UTF-8" standalone="no"?>
<svg width="30px" height="28px" viewBox="0 0 30 28" version="1.1" xmlns="http://www.w3.org/2000/svg" xmlns:xlink="http://www.w3.org/1999/xlink">
    <!-- Generator: Sketch 46.2 (44496) - http://www.bohemiancoding.com/sketch -->
    <title>lastest</title>
    <desc>Created with Sketch.</desc>
    <defs></defs>
    <g id="mobile-home-opt1" stroke="none" stroke-width="1" fill="none" fill-rule="evenodd">
        <g id="m-home-opt1" transform="translate(-227.000000, -9.000000)" fill="#9B9B9B">
            <g id="menu-header-white" transform="translate(0.000000, 1.000000)">
                <path d="M242.473684,8 C237.315789,8 232.747368,10.8 230.389474,15.0736842 L227,11.6842105 L227,21.2631579 L236.578947,21.2631579 L232.452632,17.1368421 C234.368421,13.4526316 238.052632,10.9473684 242.473684,10.9473684 C248.515789,10.9473684 253.526316,15.9578947 253.526316,22 C253.526316,28.0421053 248.515789,33.0526316 242.473684,33.0526316 C237.610526,33.0526316 233.631579,29.9578947 232.010526,25.6842105 L228.915789,25.6842105 C230.536842,31.5789474 235.989474,36 242.473684,36 C250.284211,36 256.473684,29.6631579 256.473684,22 C256.473684,14.3368421 250.136842,8 242.473684,8 L242.473684,8 Z M240.263158,15.3684211 L240.263158,22.8842105 L247.189474,27.0105263 L248.368421,25.0947368 L242.473684,21.5578947 L242.473684,15.3684211 L240.263158,15.3684211 L240.263158,15.3684211 Z" id="lastest"></path>
            </g>
        </g>
    </g>
</svg>