<?xml version="1.0" encoding="UTF-8" standalone="no"?>
<svg width="19px" height="19px" viewBox="0 0 19 19" version="1.1" xmlns="http://www.w3.org/2000/svg" xmlns:xlink="http://www.w3.org/1999/xlink">
    <!-- Generator: Sketch 46.2 (44496) - http://www.bohemiancoding.com/sketch -->
    <title></title>
    <desc>Created with Sketch.</desc>
    <defs></defs>
    <g id="mobile-home-opt1" stroke="none" stroke-width="1" fill="none" fill-rule="evenodd">
        <g id="menu_category-2" transform="translate(-344.000000, -60.000000)" fill="#C6C6C6">
            <g id="menu" transform="translate(-1.000000, 32.000000)">
                <g id="category" transform="translate(0.000000, 23.000000)">
                    <g id="search" transform="translate(11.000000, 0.000000)">
                        <path d="M346.857143,13.1428571 C346.857143,11.7663622 346.367936,10.5889186 345.389509,9.61049107 C344.411081,8.63206356 343.233638,8.14285714 341.857143,8.14285714 C340.480648,8.14285714 339.303204,8.63206356 338.324777,9.61049107 C337.346349,10.5889186 336.857143,11.7663622 336.857143,13.1428571 C336.857143,14.5193521 337.346349,15.6967957 338.324777,16.6752232 C339.303204,17.6536507 340.480648,18.1428571 341.857143,18.1428571 C343.233638,18.1428571 344.411081,17.6536507 345.389509,16.6752232 C346.367936,15.6967957 346.857143,14.5193521 346.857143,13.1428571 Z M352.571429,22.4285714 C352.571429,22.8154781 352.430061,23.1502962 352.147321,23.4330357 C351.864582,23.7157752 351.529764,23.8571429 351.142857,23.8571429 C350.741069,23.8571429 350.406251,23.7157752 350.138393,23.4330357 L346.310268,19.6160714 C344.978416,20.5386951 343.494056,21 341.857143,21 C340.793149,21 339.775674,20.7935289 338.804688,20.3805804 C337.833701,19.9676319 336.996655,19.4096017 336.293527,18.7064732 C335.590398,18.0033447 335.032368,17.1662995 334.61942,16.1953125 C334.206471,15.2243255 334,14.2068506 334,13.1428571 C334,12.0788637 334.206471,11.0613888 334.61942,10.0904018 C335.032368,9.11941479 335.590398,8.28236959 336.293527,7.57924107 C336.996655,6.87611256 337.833701,6.31808242 338.804688,5.90513393 C339.775674,5.49218544 340.793149,5.28571429 341.857143,5.28571429 C342.921136,5.28571429 343.938611,5.49218544 344.909598,5.90513393 C345.880585,6.31808242 346.71763,6.87611256 347.420759,7.57924107 C348.123887,8.28236959 348.681918,9.11941479 349.094866,10.0904018 C349.507815,11.0613888 349.714286,12.0788637 349.714286,13.1428571 C349.714286,14.7797701 349.252981,16.2641302 348.330357,17.5959821 L352.158482,21.4241071 C352.433781,21.6994061 352.571429,22.0342242 352.571429,22.4285714 Z" id=""></path>
                    </g>
                </g>
            </g>
        </g>
    </g>
</svg>