<?xml version="1.0" encoding="UTF-8" standalone="no"?>
<svg width="104px" height="27px" viewBox="0 0 104 27" version="1.1" xmlns="http://www.w3.org/2000/svg" xmlns:xlink="http://www.w3.org/1999/xlink">
    <!-- Generator: Sketch 46.2 (44496) - http://www.bohemiancoding.com/sketch -->
    <title>send</title>
    <desc>Created with Sketch.</desc>
    <defs></defs>
    <g id="mobi-chitiet" stroke="none" stroke-width="1" fill="none" fill-rule="evenodd">
        <g id="m-chitiet-fa" transform="translate(-251.000000, -4191.000000)">
            <g id="Group" transform="translate(10.000000, 4101.000000)">
                <g id="send" transform="translate(241.811594, 90.463768)">
                    <rect id="Rectangle-5" fill="#DD6F6F" x="0" y="0" width="102.898551" height="25.7246377" rx="2"></rect>
                    <path d="M15.5209466,16.257671 C15.4389149,16.3748591 15.3256348,16.5047406 15.1811028,16.6473194 C15.0365708,16.7898982 14.8461431,16.923686 14.6098137,17.0486866 C14.3734844,17.1736872 14.0834483,17.2791549 13.7396966,17.3650928 C13.3959448,17.4510308 12.9838396,17.4939991 12.5033684,17.4939991 C11.9838346,17.4939991 11.5063003,17.4022031 11.0707512,17.2186085 C10.6352022,17.0350138 10.2602059,16.770368 9.94575125,16.4246632 C9.63129655,16.0789583 9.38618181,15.6551344 9.21039968,15.1531788 C9.03461755,14.6512231 8.94672781,14.0818929 8.94672781,13.445171 L8.94672781,12.7772022 C8.94672781,12.1404803 9.02192237,11.5721266 9.17231375,11.0721241 C9.32270512,10.5721216 9.54340604,10.1482977 9.83442312,9.80063972 C10.1254402,9.45298173 10.4838351,9.18735939 10.9096184,9.00376472 C11.3354018,8.82017005 11.8236782,8.72837409 12.3744622,8.72837409 C12.8627459,8.72837409 13.290476,8.79380313 13.6576653,8.92466316 C14.0248546,9.05552319 14.3373515,9.23716199 14.5951653,9.46958503 C14.8529791,9.70200807 15.0580552,9.97837249 15.2103997,10.2986866 C15.3627442,10.6190007 15.4662588,10.9686066 15.5209466,11.3475147 L14.3959466,11.3475147 C14.3529776,11.1170448 14.2855955,10.8992736 14.1937981,10.6941944 C14.1020008,10.4891153 13.9760255,10.3094296 13.8158684,10.1551319 C13.6557114,10.0008343 13.4584477,9.87876517 13.2240716,9.78892097 C12.9896954,9.69907677 12.7084482,9.65415534 12.3803216,9.65415534 C11.9818821,9.65415534 11.6381355,9.72642025 11.3490716,9.87095222 C11.0600076,10.0154842 10.8217287,10.2225134 10.6342278,10.492046 C10.4467269,10.7615786 10.3070798,11.0877472 10.2152825,11.4705616 C10.1234852,11.853376 10.0775872,12.2850123 10.0775872,12.7654835 L10.0775872,13.445171 C10.0775872,13.9373609 10.1361803,14.3768097 10.2533684,14.7635303 C10.3705565,15.150251 10.5355939,15.4783727 10.7484856,15.7479053 C10.9613773,16.0174379 11.2172341,16.222514 11.5160637,16.3631397 C11.8148934,16.5037654 12.1459447,16.5740772 12.5092278,16.5740772 C12.8139168,16.5740772 13.0727033,16.5535696 13.285595,16.5125538 C13.4984867,16.471538 13.6781724,16.4207572 13.8246575,16.36021 C13.9711426,16.2996629 14.0893055,16.2332573 14.1791497,16.1609913 C14.2689939,16.0887253 14.3432119,16.0213432 14.4018059,15.9588428 L14.4018059,14.0428272 L12.4271966,14.0428272 L12.4271966,13.1287647 L15.5209466,13.1287647 L15.5209466,16.257671 Z M23.9994622,10.5272022 C23.9994622,10.8397038 23.9711422,11.1150917 23.9145012,11.3533741 C23.8578603,11.5916565 23.7611816,11.7918498 23.6244622,11.95396 C23.4877427,12.1160702 23.3031743,12.2400924 23.0707512,12.3260303 C22.8383282,12.4119683 22.5463389,12.4588428 22.1947747,12.4666553 L22.1947747,17.3768116 L21.1635247,17.3768116 L21.1400872,16.7498585 C20.9408674,16.9842346 20.6889168,17.16685 20.3842278,17.29771 C20.0795388,17.4285701 19.712355,17.4939991 19.2826653,17.4939991 C18.9701637,17.4939991 18.6869635,17.4500542 18.4330559,17.3621632 C18.1791484,17.2742721 17.9604006,17.1356016 17.7768059,16.9461475 C17.5932113,16.7566935 17.4516111,16.5125553 17.3520012,16.2137257 C17.2523914,15.914896 17.2025872,15.5545481 17.2025872,15.132671 L17.2025872,11.0369678 L18.2865716,11.0369678 L18.2865716,15.1443897 C18.2865716,15.4295474 18.3197744,15.6648966 18.3861809,15.8504444 C18.4525875,16.0359922 18.5404773,16.1824751 18.6498528,16.2898975 C18.7592284,16.3973199 18.8842271,16.471538 19.0248528,16.5125538 C19.1654785,16.5535696 19.3100083,16.5740772 19.4584466,16.5740772 C19.899855,16.5740772 20.2543437,16.4900937 20.5219231,16.3221241 C20.7895026,16.1541545 20.9857897,15.9295474 21.1107903,15.648296 L21.1107903,11.0369678 L22.1947747,11.0369678 L22.1947747,11.7986866 C22.4291509,11.7908741 22.6107897,11.7606009 22.7396966,11.7078663 C22.8686035,11.6551316 22.9652822,11.5770074 23.0297356,11.4734913 C23.0941891,11.3699751 23.1332512,11.2400936 23.1469231,11.0838428 C23.1605951,10.9275921 23.1674309,10.742047 23.1674309,10.5272022 L23.9994622,10.5272022 Z M19.4408684,10.1287647 L19.4350091,9.23228034 C19.7279793,9.212749 19.9428209,9.17368689 20.0795403,9.11509284 C20.2162597,9.0564988 20.2846184,8.95103111 20.2846184,8.79868659 C20.2846184,8.71665493 20.2592281,8.64634314 20.2084466,8.58774909 C20.1576651,8.52915505 20.0883298,8.48228052 20.0004387,8.44712409 C19.9125477,8.41196767 19.8090331,8.38560074 19.6898919,8.36802253 C19.5707506,8.35044432 19.4447753,8.34165534 19.3119622,8.34165534 L19.3529778,7.72056159 C19.935012,7.72056159 20.3764138,7.82114653 20.6771966,8.02231941 C20.9779793,8.22349229 21.1283684,8.49009118 21.1283684,8.82212409 C21.1283684,8.97056234 21.1020015,9.09751419 21.0492669,9.20298347 C20.9965322,9.30845275 20.9281735,9.39634249 20.8441887,9.46665534 C20.760204,9.5369682 20.6635252,9.59165515 20.5541497,9.63071784 C20.4447741,9.66978054 20.3334471,9.69712402 20.2201653,9.71274909 L20.2143059,10.1287647 L19.4408684,10.1287647 Z M25.8275872,17.3768116 L24.7436028,17.3768116 L24.7436028,11.0369678 L25.8275872,11.0369678 L25.8275872,17.3768116 Z M24.6557122,9.35532722 C24.6557122,9.17954509 24.7094226,9.03110907 24.816845,8.91001472 C24.9242674,8.78892036 25.0834455,8.72837409 25.2943841,8.72837409 C25.5053226,8.72837409 25.6654773,8.78892036 25.7748528,8.91001472 C25.8842284,9.03110907 25.9389153,9.17954509 25.9389153,9.35532722 C25.9389153,9.53110935 25.8842284,9.67759226 25.7748528,9.79478034 C25.6654773,9.91196843 25.5053226,9.97056159 25.2943841,9.97056159 C25.0834455,9.97056159 24.9242674,9.91196843 24.816845,9.79478034 C24.7094226,9.67759226 24.6557122,9.53110935 24.6557122,9.35532722 Z M35.8998528,14.2772022 C35.8998528,14.7420483 35.8451659,15.1707549 35.7357903,15.563335 C35.6264148,15.9559151 35.4662601,16.2957555 35.2553216,16.5828663 C35.044383,16.8699771 34.7865731,17.0936077 34.4818841,17.2537647 C34.177195,17.4139218 33.8295423,17.4939991 33.4389153,17.4939991 C33.0209445,17.4939991 32.65962,17.4207576 32.3549309,17.2742725 C32.0502419,17.1277874 31.792432,16.9178286 31.5814934,16.6443897 L31.5287591,17.3768116 L30.5326653,17.3768116 L30.5326653,8.37681159 L31.6166497,8.37681159 L31.6166497,11.7342335 C31.8275882,11.4725134 32.0814919,11.2713435 32.3783684,11.1307178 C32.6752449,10.9900921 33.0248508,10.9197803 33.4271966,10.9197803 C33.8256361,10.9197803 34.1781716,10.9979046 34.4848137,11.1541553 C34.7914559,11.3104061 35.0492658,11.5301305 35.2582512,11.813335 C35.4672367,12.0965396 35.6264148,12.4363799 35.7357903,12.8328663 C35.8451659,13.2293526 35.8998528,13.6697779 35.8998528,14.1541553 L35.8998528,14.2772022 Z M34.8158684,14.1541553 C34.8158684,13.8377475 34.7865719,13.5398989 34.7279778,13.2606007 C34.6693838,12.9813024 34.5746581,12.7361876 34.4437981,12.5252491 C34.3129381,12.3143105 34.1420414,12.14732 33.9311028,12.0242725 C33.7201643,11.901225 33.4623543,11.8397022 33.1576653,11.8397022 C32.9584456,11.8397022 32.7787599,11.8650926 32.6186028,11.9158741 C32.4584458,11.9666556 32.3148925,12.0369674 32.1879387,12.1268116 C32.060985,12.2166558 31.9506345,12.3221235 31.8568841,12.4432178 C31.7631336,12.5643122 31.6830563,12.6951703 31.6166497,12.835796 L31.6166497,15.5779835 C31.6869625,15.7186092 31.7699695,15.8494672 31.8656731,15.9705616 C31.9613767,16.0916559 32.0727037,16.1971236 32.1996575,16.2869678 C32.3266113,16.376812 32.4701645,16.4471238 32.6303216,16.4979053 C32.7904786,16.5486868 32.9701643,16.5740772 33.1693841,16.5740772 C33.4623543,16.5740772 33.7123518,16.5135309 33.9193841,16.3924366 C34.1264163,16.2713422 34.2963365,16.1072814 34.4291497,15.9002491 C34.5619628,15.6932168 34.6596181,15.4500552 34.7221184,15.1707569 C34.7846187,14.8914586 34.8158684,14.5936101 34.8158684,14.2772022 L34.8158684,14.1541553 Z M38.4428216,17.3768116 L37.3529778,17.3768116 L37.3529778,11.0369678 L38.4428216,11.0369678 L38.4428216,17.3768116 Z M38.5482903,10.117046 L37.6166497,10.117046 L36.1049309,8.39438972 L37.4115716,8.39438972 L38.5482903,10.117046 Z M41.2553216,11.0369678 L41.2904778,11.8338428 C41.5170414,11.5486852 41.7904762,11.3250546 42.1107903,11.1629444 C42.4311044,11.0008342 42.7904758,10.9197803 43.1889153,10.9197803 C43.4975106,10.9197803 43.7768047,10.9617721 44.0268059,11.0457569 C44.2768072,11.1297417 44.4896957,11.264506 44.6654778,11.4500538 C44.8412599,11.6356016 44.9770008,11.8738805 45.0727044,12.1648975 C45.168408,12.4559146 45.2162591,12.8084501 45.2162591,13.2225147 L45.2162591,17.3768116 L44.1322747,17.3768116 L44.1322747,13.210796 C44.1322747,12.964701 44.1049312,12.7547422 44.0502434,12.5809132 C43.9955557,12.4070842 43.9145018,12.265484 43.8070794,12.1561085 C43.699657,12.0467329 43.5668458,11.9666556 43.4086419,11.9158741 C43.250438,11.8650926 43.0678226,11.8397022 42.8607903,11.8397022 C42.5092261,11.8397022 42.2006354,11.9334513 41.9350091,12.1209522 C41.6693827,12.3084532 41.4623536,12.5545444 41.3139153,12.8592335 L41.3139153,17.3768116 L40.2299309,17.3768116 L40.2299309,11.0369678 L41.2553216,11.0369678 Z M47.9350091,11.804546 C48.1615727,11.5272008 48.4330544,11.3104061 48.7494622,11.1541553 C49.06587,10.9979046 49.4193821,10.9197803 49.8100091,10.9197803 C50.1186044,10.9197803 50.3978984,10.9617721 50.6478997,11.0457569 C50.8979009,11.1297417 51.1107894,11.264506 51.2865716,11.4500538 C51.4623537,11.6356016 51.5980945,11.8738805 51.6937981,12.1648975 C51.7895017,12.4559146 51.8373528,12.8084501 51.8373528,13.2225147 L51.8373528,17.3768116 L50.7533684,17.3768116 L50.7533684,13.210796 C50.7533684,12.964701 50.726025,12.7547422 50.6713372,12.5809132 C50.6166494,12.4070842 50.5355955,12.265484 50.4281731,12.1561085 C50.3207507,12.0467329 50.1879395,11.9666556 50.0297356,11.9158741 C49.8715317,11.8650926 49.6889163,11.8397022 49.4818841,11.8397022 C49.1303198,11.8397022 48.8217291,11.9334513 48.5561028,12.1209522 C48.2904765,12.3084532 48.0834473,12.5545444 47.9350091,12.8592335 L47.9350091,17.3768116 L46.8510247,17.3768116 L46.8510247,8.37681159 L47.9350091,8.37681159 L47.9350091,11.804546 Z M57.6088372,17.3768116 L56.5248528,17.3768116 L56.5248528,8.37681159 L57.6088372,8.37681159 L57.6088372,17.3768116 Z M63.2572747,16.7498585 C63.0580549,16.9842346 62.8061043,17.16685 62.5014153,17.29771 C62.1967263,17.4285701 61.8295425,17.4939991 61.3998528,17.4939991 C61.0873512,17.4939991 60.804151,17.4500542 60.5502434,17.3621632 C60.2963359,17.2742721 60.0775881,17.1356016 59.8939934,16.9461475 C59.7103988,16.7566935 59.5687986,16.5125553 59.4691887,16.2137257 C59.3695789,15.914896 59.3197747,15.5545481 59.3197747,15.132671 L59.3197747,11.0369678 L60.4037591,11.0369678 L60.4037591,15.1443897 C60.4037591,15.4295474 60.4369619,15.6648966 60.5033684,15.8504444 C60.569775,16.0359922 60.6576648,16.1824751 60.7670403,16.2898975 C60.8764159,16.3973199 61.0014146,16.471538 61.1420403,16.5125538 C61.282666,16.5535696 61.4271958,16.5740772 61.5756341,16.5740772 C62.0170425,16.5740772 62.3715312,16.4900937 62.6391106,16.3221241 C62.9066901,16.1541545 63.1029772,15.9295474 63.2279778,15.648296 L63.2279778,11.0369678 L64.3119622,11.0369678 L64.3119622,17.3768116 L63.2807122,17.3768116 L63.2572747,16.7498585 Z M69.8725091,17.3768116 C69.8334464,17.2986862 69.8021967,17.2000544 69.7787591,17.0809132 C69.7553214,16.9617719 69.7357904,16.8377497 69.7201653,16.7088428 C69.6186023,16.8143121 69.5043456,16.9148971 69.3773919,17.0106007 C69.2504381,17.1063043 69.1117676,17.1902878 68.9613762,17.2625538 C68.8109849,17.3348198 68.6479006,17.3914598 68.4721184,17.4324757 C68.2963363,17.4734915 68.1107913,17.4939991 67.9154778,17.4939991 C67.5912574,17.4939991 67.2973151,17.4451715 67.0336419,17.3475147 C66.7699687,17.249858 66.5453615,17.1170468 66.3598137,16.9490772 C66.1742659,16.7811076 66.0307127,16.5828674 65.9291497,16.3543507 C65.8275867,16.1258339 65.7768059,15.8807192 65.7768059,15.6189991 C65.7768059,15.2791536 65.8432115,14.979352 65.9760247,14.719585 C66.1088378,14.4598181 66.2992656,14.2420468 66.5473137,14.0662647 C66.7953619,13.8904826 67.0951636,13.7576714 67.4467278,13.6678272 C67.7982921,13.577983 68.1908663,13.5330616 68.6244622,13.5330616 L69.7025872,13.5330616 L69.7025872,13.0350147 C69.7025872,12.6561066 69.5893071,12.3543518 69.3627434,12.1297413 C69.1361798,11.9051308 68.8021988,11.7928272 68.3607903,11.7928272 C68.1576643,11.7928272 67.9721193,11.8201707 67.8041497,11.8748585 C67.6361801,11.9295462 67.4926268,12.0027877 67.3734856,12.094585 C67.2543444,12.1863824 67.1615719,12.2928266 67.0951653,12.413921 C67.0287587,12.5350153 66.9955559,12.6619672 66.9955559,12.7947803 L65.9057122,12.7947803 C65.9057122,12.5682167 65.9652819,12.3436096 66.0844231,12.1209522 C66.2035643,11.8982949 66.372508,11.6981015 66.5912591,11.5203663 C66.8100102,11.342631 67.0746559,11.1981012 67.3852044,11.0867725 C67.6957528,10.9754439 68.042429,10.9197803 68.4252434,10.9197803 C68.7689952,10.9197803 69.0863748,10.9637252 69.3773919,11.0516163 C69.668409,11.1395073 69.9174299,11.2723185 70.1244622,11.4500538 C70.3314945,11.627789 70.4936022,11.8494665 70.6107903,12.1150928 C70.7279784,12.3807192 70.7865716,12.6912629 70.7865716,13.0467335 L70.7865716,15.9939991 C70.7865716,16.2088439 70.8051261,16.4344276 70.8422356,16.6707569 C70.8793452,16.9070862 70.9350087,17.1111857 71.0092278,17.2830616 L71.0092278,17.3768116 L69.8725091,17.3768116 Z M68.0736809,16.5506397 C68.2689944,16.5506397 68.4525863,16.5232962 68.6244622,16.4686085 C68.796338,16.4139207 68.9525865,16.3426323 69.0932122,16.2547413 C69.2338379,16.1668502 69.355907,16.0662653 69.4594231,15.9529835 C69.5629393,15.8397017 69.6439931,15.7225153 69.7025872,15.601421 L69.7025872,14.3006397 L68.8002434,14.3006397 C68.1791466,14.3006397 67.7006357,14.3973184 67.3646966,14.5906788 C67.0287574,14.7840391 66.8607903,15.0760284 66.8607903,15.4666553 C66.8607903,15.6189999 66.8861807,15.7615766 66.9369622,15.8943897 C66.9877437,16.0272029 67.0648914,16.1414596 67.1684075,16.2371632 C67.2719236,16.3328668 67.3988755,16.4090379 67.5492669,16.4656788 C67.6996582,16.5223197 67.8744612,16.5506397 68.0736809,16.5506397 Z M70.3178216,9.98228034 L70.3178216,10.0408741 L69.4213372,10.0408741 L68.5424309,9.04478034 L67.6693841,10.0408741 L66.7728997,10.0408741 L66.7728997,9.97056159 L68.2143059,8.37681159 L68.8705559,8.37681159 L70.3178216,9.98228034 Z M67.3998528,18.8123585 C67.3998528,18.6365763 67.4535632,18.4881403 67.5609856,18.367046 C67.668408,18.2459516 67.8275861,18.1854053 68.0385247,18.1854053 C68.2494632,18.1854053 68.4096179,18.2459516 68.5189934,18.367046 C68.628369,18.4881403 68.6830559,18.6365763 68.6830559,18.8123585 C68.6830559,18.9881406 68.628369,19.1346235 68.5189934,19.2518116 C68.4096179,19.3689997 68.2494632,19.4275928 68.0385247,19.4275928 C67.8275861,19.4275928 67.668408,19.3689997 67.5609856,19.2518116 C67.4535632,19.1346235 67.3998528,18.9881406 67.3998528,18.8123585 Z M73.5111809,11.0369678 L73.5463372,11.8338428 C73.7729008,11.5486852 74.0463356,11.3250546 74.3666497,11.1629444 C74.6869638,11.0008342 75.0463352,10.9197803 75.4447747,10.9197803 C75.75337,10.9197803 76.0326641,10.9617721 76.2826653,11.0457569 C76.5326666,11.1297417 76.7455551,11.264506 76.9213372,11.4500538 C77.0971193,11.6356016 77.2328601,11.8738805 77.3285637,12.1648975 C77.4242673,12.4559146 77.4721184,12.8084501 77.4721184,13.2225147 L77.4721184,17.3768116 L76.3881341,17.3768116 L76.3881341,13.210796 C76.3881341,12.964701 76.3607906,12.7547422 76.3061028,12.5809132 C76.251415,12.4070842 76.1703612,12.265484 76.0629387,12.1561085 C75.9555163,12.0467329 75.8227052,11.9666556 75.6645012,11.9158741 C75.5062973,11.8650926 75.323682,11.8397022 75.1166497,11.8397022 C74.7650854,11.8397022 74.4564948,11.9334513 74.1908684,12.1209522 C73.9252421,12.3084532 73.7182129,12.5545444 73.5697747,12.8592335 L73.5697747,17.3768116 L72.4857903,17.3768116 L72.4857903,11.0369678 L73.5111809,11.0369678 Z M93.0873528,7.16475802 C93.234675,7.27190142 93.2949422,7.41475713 93.2681564,7.59332945 L91.5538707,17.8790437 C91.5315491,18.0085087 91.4601213,18.1089541 91.339585,18.180383 C91.2770846,18.2160975 91.2078889,18.2339545 91.1319957,18.2339545 C91.0828883,18.2339545 91.0293174,18.2227938 90.9712814,18.2004723 L87.4422635,16.7607402 L85.4467278,18.9504723 C85.3663703,19.0442228 85.2614606,19.0910973 85.1319957,19.0910973 C85.0694954,19.0910973 85.0181566,19.0821688 84.9779778,19.0643116 C84.893156,19.0330614 84.8261923,18.9806066 84.777085,18.9069455 C84.7279776,18.8332844 84.7034242,18.751812 84.7034242,18.6625259 L84.7034242,15.6357402 L81.54271,14.3433295 C81.3775306,14.2808291 81.2882457,14.1580625 81.2748528,13.9750259 C81.2614599,13.8009179 81.3328877,13.6692228 81.4891385,13.5799366 L92.6319957,7.15136517 C92.7882464,7.0576147 92.9400306,7.06207894 93.0873528,7.16475802 Z M90.7971742,17.2027045 L92.277085,8.34332945 L82.6744064,13.8812759 L84.9244064,14.7986866 L90.7034242,10.5196687 L87.5025314,15.8567223 L90.7971742,17.2027045 Z" id="Gửi-bình-luận-" fill="#FFFFFF"></path>
                </g>
            </g>
        </g>
    </g>
</svg>