<?xml version="1.0" encoding="UTF-8" standalone="no"?>
<svg width="11px" height="11px" viewBox="0 0 11 11" version="1.1" xmlns="http://www.w3.org/2000/svg" xmlns:xlink="http://www.w3.org/1999/xlink">
    <!-- Generator: Sketch 46.2 (44496) - http://www.bohemiancoding.com/sketch -->
    <title></title>
    <desc>Created with Sketch.</desc>
    <defs></defs>
    <g id="Page-1" stroke="none" stroke-width="1" fill="none" fill-rule="evenodd">
        <g id="mobi-sinnnhat-new" transform="translate(-224.000000, -1718.000000)" fill="#9B9B9B">
            <path d="M232.142857,1724.57143 C232.73661,1724.57143 233.242185,1724.78013 233.659598,1725.19754 C234.077011,1725.61496 234.285714,1726.12053 234.285714,1726.71429 C234.285714,1727.30804 234.077011,1727.81361 233.659598,1728.23103 C233.242185,1728.64844 232.73661,1728.85714 232.142857,1728.85714 C231.549104,1728.85714 231.043529,1728.64844 230.626116,1728.23103 C230.208703,1727.81361 230,1727.30804 230,1726.71429 C230,1726.66071 230.004464,1726.58482 230.013393,1726.48661 L227.602679,1725.28125 C227.191962,1725.66518 226.70536,1725.85714 226.142857,1725.85714 C225.549104,1725.85714 225.043529,1725.64844 224.626116,1725.23103 C224.208703,1724.81361 224,1724.30804 224,1723.71429 C224,1723.12053 224.208703,1722.61496 224.626116,1722.19754 C225.043529,1721.78013 225.549104,1721.57143 226.142857,1721.57143 C226.70536,1721.57143 227.191962,1721.76339 227.602679,1722.14732 L230.013393,1720.94196 C230.004464,1720.84375 230,1720.76786 230,1720.71429 C230,1720.12053 230.208703,1719.61496 230.626116,1719.19754 C231.043529,1718.78013 231.549104,1718.57143 232.142857,1718.57143 C232.73661,1718.57143 233.242185,1718.78013 233.659598,1719.19754 C234.077011,1719.61496 234.285714,1720.12053 234.285714,1720.71429 C234.285714,1721.30804 234.077011,1721.81361 233.659598,1722.23103 C233.242185,1722.64844 232.73661,1722.85714 232.142857,1722.85714 C231.580354,1722.85714 231.093752,1722.66518 230.683036,1722.28125 L228.272321,1723.48661 C228.28125,1723.58482 228.285714,1723.66071 228.285714,1723.71429 C228.285714,1723.76786 228.28125,1723.84375 228.272321,1723.94196 L230.683036,1725.14732 C231.093752,1724.76339 231.580354,1724.57143 232.142857,1724.57143 Z" id=""></path>
        </g>
    </g>
</svg>