<?xml version="1.0" encoding="UTF-8" standalone="no"?>
<svg width="32px" height="32px" viewBox="0 0 32 32" version="1.1" xmlns="http://www.w3.org/2000/svg" xmlns:xlink="http://www.w3.org/1999/xlink">
    <!-- Generator: Sketch 46.2 (44496) - http://www.bohemiancoding.com/sketch -->
    <title>trend</title>
    <desc>Created with Sketch.</desc>
    <defs></defs>
    <g id="mobile-home-opt1" stroke="none" stroke-width="1" fill="none" fill-rule="evenodd">
        <g id="menu_trending" transform="translate(-281.000000, -6.000000)">
            <g id="menu-header-white">
                <g id="trend" transform="translate(283.000000, 8.000000)">
                    <path d="M27.6313579,14 C27.6313579,21.5283158 21.5288316,27.6315789 13.9997789,27.6315789 C6.47146316,27.6315789 0.3682,21.5283158 0.3682,14 C0.3682,6.47168421 6.47146316,0.368421053 13.9997789,0.368421053 C21.5288316,0.368421053 27.6313579,6.47168421 27.6313579,14 Z" id="Stroke-1" stroke="#ED1C24" stroke-width="3"></path>
                    <path d="M18.9109099,11.9410181 C18.5777237,11.4481803 18.2575527,10.9735636 17.9373817,10.4998146 C17.8662326,10.3948263 17.7785977,10.2967793 17.7317434,10.1813789 C17.6996395,10.1032884 17.6857567,9.97400529 17.730008,9.91847427 C17.7785977,9.85426653 17.9087485,9.80394154 17.989442,9.81869197 C19.4766321,10.0963471 20.9620869,10.3844142 22.4475416,10.670746 C22.6410325,10.7080559 22.7173877,10.8208533 22.6809454,11.0091382 C22.3972166,12.4763718 22.1117525,13.9436055 21.829759,15.4117068 C21.8063319,15.5331809 21.7698896,15.6355662 21.6380035,15.6659347 C21.4965729,15.6989063 21.4132764,15.6225511 21.3403919,15.5132244 C21.0471187,15.077653 20.7503748,14.6446846 20.4544986,14.2108485 C20.4171887,14.1570528 20.3781435,14.1041248 20.3312892,14.0373141 C20.2653461,14.082433 20.2054767,14.1206106 20.1482104,14.1613912 C18.4224104,15.3891473 16.6948751,16.6169034 14.9690752,17.8446595 C14.6983615,18.0372827 14.6480365,18.0320767 14.4233094,17.7891285 C13.4350308,16.7201564 12.4493552,15.6511843 11.4610766,14.5822122 C11.4168253,14.5336225 11.3717064,14.4867682 11.3187784,14.4295019 C11.2519676,14.4711501 11.1903629,14.505857 11.1313612,14.5449023 C9.35957462,15.7171274 7.58865572,16.8893525 5.81773683,18.0607099 C5.59040672,18.2116849 5.47153563,18.2220969 5.36828264,18.1014905 C5.26416198,17.9808841 5.29886887,17.8602776 5.48888907,17.6711251 C7.6016708,15.5739615 9.71445253,13.4776655 11.8281019,11.3813695 C12.0276665,11.1826726 12.1274488,11.1852756 12.3244104,11.3952523 C13.1868766,12.3158525 14.048475,13.2373203 14.9109412,14.1596558 C14.9482511,14.1987011 14.9803549,14.2420847 15.0237385,14.2950127 C16.3217761,13.5089017 17.6041956,12.7314674 18.9109099,11.9410181" id="Fill-3" fill="#ED1C24"></path>
                </g>
            </g>
        </g>
    </g>
</svg>