<?xml version="1.0" encoding="UTF-8" standalone="no"?>
<svg width="14px" height="10px" viewBox="0 0 14 10" version="1.1" xmlns="http://www.w3.org/2000/svg" xmlns:xlink="http://www.w3.org/1999/xlink">
    <!-- Generator: Sketch 46.2 (44496) - http://www.bohemiancoding.com/sketch -->
    <title>visibility</title>
    <desc>Created with Sketch.</desc>
    <defs></defs>
    <g id="mobi-xem-là-cười" stroke="none" stroke-width="1" fill="none" fill-rule="evenodd">
        <g id="m-xemlacuoi" transform="translate(-244.000000, -1185.000000)" fill="#9B9B9B">
            <path d="M251,1188.25 C251.473961,1188.25 251.884113,1188.42318 252.230469,1188.76953 C252.576825,1189.11589 252.75,1189.52604 252.75,1190 C252.75,1190.47396 252.576825,1190.88411 252.230469,1191.23047 C251.884113,1191.57682 251.473961,1191.75 251,1191.75 C250.526039,1191.75 250.115887,1191.57682 249.769531,1191.23047 C249.423175,1190.88411 249.25,1190.47396 249.25,1190 C249.25,1189.52604 249.423175,1189.11589 249.769531,1188.76953 C250.115887,1188.42318 250.526039,1188.25 251,1188.25 Z M251,1192.92578 C251.802087,1192.92578 252.490232,1192.63867 253.064453,1192.06445 C253.638675,1191.49023 253.925781,1190.80209 253.925781,1190 C253.925781,1189.19791 253.638675,1188.50977 253.064453,1187.93555 C252.490232,1187.36133 251.802087,1187.07422 251,1187.07422 C250.197913,1187.07422 249.509768,1187.36133 248.935547,1187.93555 C248.361325,1188.50977 248.074219,1189.19791 248.074219,1190 C248.074219,1190.80209 248.361325,1191.49023 248.935547,1192.06445 C249.509768,1192.63867 250.197913,1192.92578 251,1192.92578 Z M251,1185.625 C252.440111,1185.625 253.743484,1186.02604 254.910156,1186.82812 C256.076829,1187.63021 256.915362,1188.68749 257.425781,1190 C256.915362,1191.31251 256.076829,1192.36979 254.910156,1193.17188 C253.743484,1193.97396 252.440111,1194.375 251,1194.375 C249.559889,1194.375 248.256516,1193.97396 247.089844,1193.17188 C245.923171,1192.36979 245.084638,1191.31251 244.574219,1190 C245.084638,1188.68749 245.923171,1187.63021 247.089844,1186.82812 C248.256516,1186.02604 249.559889,1185.625 251,1185.625 Z" id="visibility"></path>
        </g>
    </g>
</svg>