<?xml version="1.0" encoding="UTF-8" standalone="no"?>
<svg width="12px" height="12px" viewBox="0 0 12 12" version="1.1" xmlns="http://www.w3.org/2000/svg" xmlns:xlink="http://www.w3.org/1999/xlink">
    <!-- Generator: Sketch 46.2 (44496) - http://www.bohemiancoding.com/sketch -->
    <title>ico_smile_active</title>
    <desc>Created with Sketch.</desc>
    <defs></defs>
    <g id="mobi-xem-là-cười" stroke="none" stroke-width="1" fill="none" fill-rule="evenodd">
        <g id="m-xemlacuoi" transform="translate(-170.000000, -522.000000)">
            <g id="vid-1-copy" transform="translate(10.000000, 181.000000)">
                <g id="Group-3" transform="translate(148.000000, 239.000000)">
                    <g id="smile" transform="translate(0.000000, 96.000000)">
                        <g id="ico_xemlacuoi">
                            <g transform="translate(12.000000, 6.000000)">
                                <g>
                                    <circle id="Oval" fill="#FFC200" fill-rule="nonzero" cx="6" cy="6" r="6"></circle>
                                    <g id="Group" transform="translate(0.800000, 0.000000)" fill-rule="nonzero" fill="#F2B800">
                                        <path d="M5.2,0 C5.04,0 4.88,0 4.72,0 C7.8,0.24 10.24,2.84 10.24,6 C10.24,9.16 7.8,11.76 4.72,12 C4.88,12 5.04,12 5.2,12 C8.52,12 11.2,9.32 11.2,6 C11.2,2.68 8.52,0 5.2,0 Z" id="Shape"></path>
                                        <path d="M2.36,10.4 C0.32,9.08 -1.2,5.36 1.64,3.4 C1.68,3.36 1.72,3.36 1.76,3.36 C1.8,3.36 1.84,3.4 1.88,3.44 C3.6,6 5.76,7.44 8.8,7.96 C8.88,7.96 8.96,8.04 8.96,8.16 C8.84,9.32 8.04,10.32 7,10.8 C5.36,11.56 3.8,11.16 2.36,10.4 Z" id="Shape"></path>
                                    </g>
                                    <path d="M9.56,8.12 C9.12,11.44 4.96,11.32 3.24,10.24 C1.48,9.12 -0.16,5.44 2.52,3.52 C4.28,6.16 6.48,7.6 9.56,8.12 Z" id="Shape" fill="#F5F5F5" fill-rule="nonzero"></path>
                                    <g id="Group" transform="translate(4.000000, 1.200000)" fill-rule="nonzero" fill="#263740">
                                        <path d="M2.12,2.4 C2,2.32 1.96,2.16 2.04,2 C2.28,1.6 2.2,1.08 1.8,0.84 C1.4,0.6 0.88,0.68 0.64,1.08 C0.56,1.2 0.4,1.24 0.24,1.16 C0.12,1.08 0.08,0.92 0.16,0.76 C0.6,0.12 1.44,-0.08 2.12,0.36 C2.76,0.8 2.96,1.64 2.52,2.32 C2.4,2.44 2.24,2.48 2.12,2.4 Z" id="Shape"></path>
                                        <path d="M6.04,4.96 C5.92,4.88 5.88,4.72 5.96,4.56 C6.2,4.16 6.12,3.64 5.72,3.4 C5.32,3.16 4.8,3.24 4.56,3.64 C4.48,3.76 4.32,3.8 4.16,3.72 C4.04,3.64 4,3.48 4.08,3.32 C4.52,2.68 5.36,2.48 6.04,2.92 C6.68,3.36 6.88,4.2 6.44,4.88 C6.32,5 6.16,5.04 6.04,4.96 Z" id="Shape"></path>
                                    </g>
                                </g>
                            </g>
                        </g>
                    </g>
                </g>
            </g>
        </g>
    </g>
</svg>