<?xml version="1.0" encoding="UTF-8" standalone="no"?>
<svg width="189px" height="38px" viewBox="0 0 189 38" version="1.1" xmlns="http://www.w3.org/2000/svg" xmlns:xlink="http://www.w3.org/1999/xlink">
    <!-- Generator: Sketch 46.2 (44496) - http://www.bohemiancoding.com/sketch -->
    <title>header xemlacuoi</title>
    <desc>Created with Sketch.</desc>
    <defs>
        <path d="M43.992,7.2 L39.168,7.2 L44.424,15.528 L39.096,24 L43.656,24 L46.824,18.6 L49.992,24 L54.552,24 L49.224,15.528 L54.48,7.2 L49.656,7.2 L46.824,12.336 L43.992,7.2 Z M65.376,24 L65.376,20.328 L60.336,20.328 L60.336,17.328 L64.464,17.328 L64.464,13.68 L60.336,13.68 L60.336,10.872 L65.184,10.872 L65.184,7.2 L56.232,7.2 L56.232,24 L65.376,24 Z M79.224,22.632 L82.92,12.984 L82.92,24 L86.856,24 L86.856,7.2 L81.528,7.2 L77.328,17.832 L73.152,7.2 L67.824,7.2 L67.824,24 L71.76,24 L71.76,12.984 L75.456,22.632 L79.224,22.632 Z M103.632,24 L103.632,20.328 L98.592,20.328 L98.592,7.2 L94.488,7.2 L94.488,24 L103.632,24 Z M114.744,20.232 L109.464,20.232 L108.264,24 L104.136,24 L109.944,7.2 L114.264,7.2 L120.072,24 L115.944,24 L114.744,20.232 Z M113.688,16.872 L112.104,11.544 L110.52,16.872 L113.688,16.872 Z M109.848,3.504 L111.6,5.88 L113.544,5.88 L112.608,3.504 L109.848,3.504 Z M127.968,21.792 C129.624,23.472 131.784,24.312 134.448,24.312 C136.368,24.312 138.024,23.832 139.416,22.896 L138.264,19.296 C137.088,20.088 135.864,20.472 134.592,20.472 C133.128,20.472 131.952,19.992 131.064,19.008 C130.248,18.096 129.84,16.944 129.84,15.576 C129.84,14.208 130.248,13.056 131.064,12.168 C131.952,11.208 133.128,10.728 134.592,10.728 C135.816,10.728 137.016,11.112 138.192,11.904 L139.344,8.304 C137.952,7.368 136.32,6.888 134.448,6.888 C131.856,6.888 129.72,7.728 128.04,9.384 C126.384,11.04 125.568,13.104 125.568,15.576 C125.568,18.096 126.36,20.16 127.968,21.792 Z M155.496,8.952 L155.496,17.52 C155.496,19.536 154.872,21.144 153.648,22.368 C152.376,23.64 150.672,24.288 148.488,24.288 C146.28,24.288 144.552,23.664 143.304,22.416 C142.08,21.216 141.48,19.584 141.48,17.544 L141.48,7.2 L145.584,7.2 L145.584,17.544 C145.584,18.456 145.848,19.176 146.376,19.704 C146.88,20.232 147.6,20.496 148.512,20.496 C149.424,20.496 150.144,20.232 150.648,19.704 C151.152,19.176 151.392,18.456 151.392,17.52 L151.392,7.2 L154.872,7.2 C155.28,7.2 155.64,7.056 155.928,6.768 C156.192,6.456 156.336,6.096 156.336,5.64 L158.376,5.64 C158.376,6.6 158.04,7.392 157.392,8.04 C156.864,8.544 156.24,8.832 155.496,8.952 Z M163.128,12.12 C162.288,13.032 161.856,14.184 161.856,15.576 C161.856,16.992 162.288,18.168 163.128,19.08 C163.968,20.016 165.072,20.472 166.392,20.472 C167.712,20.472 168.816,20.016 169.656,19.08 C170.496,18.168 170.928,16.992 170.928,15.576 C170.928,14.184 170.52,13.032 169.68,12.12 C168.816,11.184 167.712,10.728 166.392,10.728 C165.072,10.728 163.968,11.184 163.128,12.12 Z M171.288,8.184 C171.816,8.544 172.32,8.952 172.776,9.408 C174.384,11.04 175.2,13.104 175.2,15.576 C175.2,18.096 174.384,20.16 172.776,21.792 C171.12,23.472 169.008,24.312 166.392,24.312 C163.776,24.312 161.664,23.472 160.008,21.792 C158.4,20.16 157.584,18.096 157.584,15.576 C157.584,13.104 158.4,11.04 160.008,9.408 C161.664,7.728 163.776,6.888 166.392,6.888 C167.304,6.888 168.168,6.984 168.96,7.2 C169.368,7.2 169.704,7.056 169.992,6.768 C170.256,6.456 170.4,6.096 170.4,5.64 L172.44,5.64 C172.44,6.6 172.104,7.392 171.456,8.04 C171.384,8.088 171.336,8.136 171.288,8.184 Z M164.136,3.504 L166.896,3.504 L167.832,5.88 L165.888,5.88 L164.136,3.504 Z M181.44,7.2 L177.336,7.2 L177.336,24 L181.44,24 L181.44,7.2 Z" id="path-1"></path>
        <filter x="-3.5%" y="-19.2%" width="107.0%" height="148.1%" filterUnits="objectBoundingBox" id="filter-2">
            <feOffset dx="0" dy="1" in="SourceAlpha" result="shadowOffsetOuter1"></feOffset>
            <feGaussianBlur stdDeviation="1.5" in="shadowOffsetOuter1" result="shadowBlurOuter1"></feGaussianBlur>
            <feColorMatrix values="0 0 0 0 0   0 0 0 0 0   0 0 0 0 0  0 0 0 0.362516984 0" type="matrix" in="shadowBlurOuter1"></feColorMatrix>
        </filter>
    </defs>
    <g id="mobi-xem-là-cười" stroke="none" stroke-width="1" fill="none" fill-rule="evenodd">
        <g id="m-xemlacuoi" transform="translate(-92.000000, -14.000000)">
            <g id="header-qua-giang-copy">
                <g id="header-xemlacuoi" transform="translate(96.000000, 16.000000)">
                    <g id="Group-5">
                        <g id="XEM-LÀ-CƯỜI">
                            <use fill="black" fill-opacity="1" filter="url(#filter-2)" xlink:href="#path-1"></use>
                            <use fill="#FFFFFF" fill-rule="evenodd" xlink:href="#path-1"></use>
                        </g>
                        <g id="ico_xemlacuoi">
                            <g>
                                <circle id="Oval" fill="#FFC200" fill-rule="nonzero" cx="15" cy="15" r="15"></circle>
                                <g id="Group" transform="translate(2.000000, 0.000000)" fill-rule="nonzero" fill="#F2B800">
                                    <path d="M13,0 C12.6,0 12.2,0 11.8,0 C19.5,0.6 25.6,7.1 25.6,15 C25.6,22.9 19.5,29.4 11.8,30 C12.2,30 12.6,30 13,30 C21.3,30 28,23.3 28,15 C28,6.7 21.3,0 13,0 Z" id="Shape"></path>
                                    <path d="M5.9,26 C0.8,22.7 -3,13.4 4.1,8.5 C4.2,8.4 4.3,8.4 4.4,8.4 C4.5,8.4 4.6,8.5 4.7,8.6 C9,15 14.4,18.6 22,19.9 C22.2,19.9 22.4,20.1 22.4,20.4 C22.1,23.3 20.1,25.8 17.5,27 C13.4,28.9 9.5,27.9 5.9,26 Z" id="Shape"></path>
                                </g>
                                <path d="M23.9,20.3 C22.8,28.6 12.4,28.3 8.1,25.6 C3.7,22.8 -0.4,13.6 6.3,8.8 C10.7,15.4 16.2,19 23.9,20.3 Z" id="Shape" fill="#F5F5F5" fill-rule="nonzero"></path>
                                <g id="Group" transform="translate(10.000000, 3.000000)" fill-rule="nonzero" fill="#263740">
                                    <path d="M5.3,6 C5,5.8 4.9,5.4 5.1,5 C5.7,4 5.5,2.7 4.5,2.1 C3.5,1.5 2.2,1.7 1.6,2.7 C1.4,3 1,3.1 0.6,2.9 C0.3,2.7 0.2,2.3 0.4,1.9 C1.5,0.3 3.6,-0.2 5.3,0.9 C6.9,2 7.4,4.1 6.3,5.8 C6,6.1 5.6,6.2 5.3,6 Z" id="Shape"></path>
                                    <path d="M15.1,12.4 C14.8,12.2 14.7,11.8 14.9,11.4 C15.5,10.4 15.3,9.1 14.3,8.5 C13.3,7.9 12,8.1 11.4,9.1 C11.2,9.4 10.8,9.5 10.4,9.3 C10.1,9.1 10,8.7 10.2,8.3 C11.3,6.7 13.4,6.2 15.1,7.3 C16.7,8.4 17.2,10.5 16.1,12.2 C15.8,12.5 15.4,12.6 15.1,12.4 Z" id="Shape"></path>
                                </g>
                            </g>
                        </g>
                    </g>
                </g>
            </g>
        </g>
    </g>
</svg>