<?xml version="1.0" encoding="UTF-8" standalone="no"?>
<svg width="12px" height="12px" viewBox="0 0 12 12" version="1.1" xmlns="http://www.w3.org/2000/svg" xmlns:xlink="http://www.w3.org/1999/xlink">
    <!-- Generator: Sketch 46.2 (44496) - http://www.bohemiancoding.com/sketch -->
    <title>ico_smile_normal</title>
    <desc>Created with Sketch.</desc>
    <defs></defs>
    <g id="mobi-xem-là-cười" stroke="none" stroke-width="1" fill="none" fill-rule="evenodd">
        <g id="m-xemlacuoi" transform="translate(-170.000000, -1228.000000)" fill-rule="nonzero" fill="#9B9B9B">
            <g id="Group-2" transform="translate(10.000000, 887.000000)">
                <g id="vid-1-copy-2">
                    <g id="Group-3" transform="translate(10.000000, 239.000000)">
                        <g id="smile" transform="translate(138.000000, 96.000000)">
                            <g id="smile_normal">
                                <g id="ico_xemlacuoi_normal" transform="translate(12.000000, 6.000000)">
                                    <path d="M6,0 C2.68,0 0,2.68 0,6 C0,9.32 2.68,12 6,12 C9.32,12 12,9.32 12,6 C12,2.68 9.32,0 6,0 Z M4.16,1.96 C4.6,1.32 5.44,1.12 6.12,1.56 C6.76,2 6.96,2.84 6.52,3.52 C6.4,3.64 6.24,3.68 6.12,3.6 C6,3.52 5.96,3.36 6.04,3.2 C6.28,2.8 6.2,2.28 5.8,2.04 C5.4,1.8 4.88,1.88 4.64,2.28 C4.56,2.4 4.4,2.44 4.24,2.36 C4.12,2.28 4.08,2.12 4.16,1.96 Z M3.24,10.24 C1.48,9.12 -0.16,5.44 2.52,3.52 C4.28,6.16 6.48,7.6 9.56,8.12 C9.12,11.44 4.96,11.32 3.24,10.24 Z M10.04,6.16 C9.92,6.08 9.88,5.92 9.96,5.76 C10.2,5.36 10.12,4.84 9.72,4.6 C9.32,4.36 8.8,4.44 8.56,4.84 C8.48,4.96 8.32,5 8.16,4.92 C8.04,4.84 8,4.68 8.08,4.52 C8.52,3.88 9.36,3.68 10.04,4.12 C10.68,4.56 10.88,5.4 10.44,6.08 C10.32,6.2 10.16,6.24 10.04,6.16 Z" id="Shape"></path>
                                </g>
                            </g>
                        </g>
                    </g>
                </g>
            </g>
        </g>
    </g>
</svg>