<?xml version="1.0" standalone="no"?>
<!DOCTYPE svg PUBLIC "-//W3C//DTD SVG 1.1//EN" "http://www.w3.org/Graphics/SVG/1.1/DTD/svg11.dtd" >
<svg xmlns="http://www.w3.org/2000/svg" xmlns:xlink="http://www.w3.org/1999/xlink" version="1.1">
<metadata>
Created by FontForge 20170910 at Tue Aug  2 18:56:09 2016
 By Jimmy Wärting
Copyright \(c\) 2014 by atipo. All rights reserved.
</metadata>
<defs>
<font id="Geomanist-Medium" horiz-adv-x="613" >
  <font-face 
    font-family="Geomanist"
    font-weight="500"
    font-stretch="normal"
    units-per-em="1000"
    panose-1="2 0 6 3 0 0 0 2 0 4"
    ascent="750"
    descent="-250"
    x-height="523"
    cap-height="700"
    bbox="-371 -291 1163 1013"
    underline-thickness="50"
    underline-position="-100"
    stemh="95"
    stemv="138"
    unicode-range="U+000D-F6C3"
  />
<missing-glyph horiz-adv-x="508" 
d="M4 0v700h500v-700h-500zM254 395l170 255h-340zM284 350l170 -255v510zM54 95l170 255l-170 255v-510zM84 50h340l-170 255z" />
    <glyph glyph-name="ellipsis" unicode="&#x2e;&#x2e;&#x2e;" horiz-adv-x="769" 
d="M62 12c-17 16 -25 36 -25 59c0 24 8 44 25 61c16 17 36 25 60 25s44 -8 61 -25c16 -17 24 -37 24 -61c0 -23 -8 -43 -24 -59c-17 -17 -37 -25 -61 -25s-44 8 -60 25zM324 12c-17 16 -25 36 -25 59c0 24 8 44 25 61c16 17 36 25 60 25s44 -8 61 -25c16 -17 24 -37 24 -61
c0 -23 -8 -43 -24 -59c-17 -17 -37 -25 -61 -25s-44 8 -60 25zM587 12c-17 16 -25 36 -25 59c0 24 8 44 25 61c16 17 36 25 60 25s44 -8 61 -25c16 -17 24 -37 24 -61c0 -23 -8 -43 -24 -59c-17 -17 -37 -25 -61 -25s-44 8 -60 25z" />
    <glyph glyph-name=".notdef" horiz-adv-x="508" 
d="M4 0v700h500v-700h-500zM254 395l170 255h-340zM284 350l170 -255v510zM54 95l170 255l-170 255v-510zM84 50h340l-170 255z" />
    <glyph glyph-name="NULL" horiz-adv-x="0" 
 />
    <glyph glyph-name="NULL" horiz-adv-x="0" 
 />
    <glyph glyph-name="CR" unicode="&#xd;" horiz-adv-x="250" 
 />
    <glyph glyph-name="space" unicode=" " horiz-adv-x="248" 
 />
    <glyph glyph-name="exclam" unicode="!" horiz-adv-x="292" 
d="M84 199l-11 501h146l-11 -501h-124zM86 12c-17 16 -25 36 -25 59c0 24 8 44 25 61c16 17 36 25 60 25s44 -8 61 -25c16 -17 24 -37 24 -61c0 -23 -8 -43 -24 -59c-17 -17 -37 -25 -61 -25s-44 8 -60 25z" />
    <glyph glyph-name="quotedbl" unicode="&#x22;" horiz-adv-x="370" 
d="M47 462l-5 238h112l-5 -238h-102zM220 462l-5 238h112l-6 -238h-101z" />
    <glyph glyph-name="numbersign" unicode="#" horiz-adv-x="659" 
d="M86 0l37 178h-97l21 104h98l27 134h-97l21 105h98l38 179h115l-37 -179h111l37 179h116l-37 -179h96l-21 -105h-97l-27 -134h96l-21 -104h-97l-37 -178h-116l37 178h-111l-37 -178h-116zM261 282h111l27 134h-111z" />
    <glyph glyph-name="dollar" unicode="$" horiz-adv-x="521" 
d="M222 -85v74c-56 6 -103 28 -141 65c-15 15 -27 31 -38 49c-9 15 -16 31 -21 46l119 58c25 -59 65 -89 121 -89c55 0 83 24 83 72c0 26 -16 49 -47 70c-11 7 -28 16 -49 26l-27 13l-28 14c-47 23 -81 48 -104 73c-31 35 -47 77 -47 128c0 53 16 97 48 132s76 57 131 64v56
h86v-57c48 -9 88 -30 120 -65c13 -13 24 -28 33 -44c7 -13 13 -27 18 -40l-117 -53c-10 22 -21 39 -34 50c-18 17 -41 26 -68 26c-23 0 -42 -6 -56 -19c-13 -13 -20 -29 -20 -48c0 -25 16 -48 48 -68c11 -7 27 -16 48 -26l28 -13l28 -13c47 -23 82 -47 105 -71
c31 -35 47 -76 47 -125c0 -54 -16 -100 -48 -137c-32 -38 -76 -62 -132 -71v-77h-86z" />
    <glyph glyph-name="percent" unicode="%" horiz-adv-x="804" 
d="M70 0l530 700h134l-530 -700h-134zM320 428c-33 -33 -73 -49 -122 -49s-89 16 -122 49c-32 32 -48 71 -48 118s16 86 48 118c33 33 73 49 122 49s89 -16 122 -49c32 -32 48 -71 48 -118s-16 -86 -48 -118zM151 499c12 -13 28 -20 47 -20s35 7 48 20c11 13 17 28 17 47
s-6 34 -17 47c-13 13 -29 20 -48 20s-35 -7 -47 -20s-18 -28 -18 -47s6 -34 18 -47zM727 34c-33 -33 -73 -49 -122 -49s-89 16 -122 49c-32 32 -48 71 -48 118s16 86 48 118c33 33 73 49 122 49s89 -16 122 -49c32 -32 48 -71 48 -118s-16 -86 -48 -118zM558 105
c12 -13 28 -20 47 -20s35 7 48 20c11 13 17 28 17 47s-6 34 -17 47c-13 13 -29 20 -48 20s-35 -7 -47 -20s-18 -28 -18 -47s6 -34 18 -47z" />
    <glyph glyph-name="ampersand" unicode="&#x26;" horiz-adv-x="655" 
d="M544 -20l-68 72c-51 -43 -114 -65 -190 -65c-80 0 -144 20 -191 61c-45 39 -68 90 -68 153c0 79 39 144 117 196c-39 45 -58 90 -58 135c0 52 18 95 54 128c38 35 88 53 150 53c65 0 116 -17 154 -52c36 -33 54 -77 54 -132c0 -73 -43 -136 -129 -188l104 -100
c12 25 18 56 18 94h129c0 -75 -18 -140 -53 -194l70 -73zM386 148l-160 159c-40 -19 -60 -51 -60 -95c0 -31 12 -56 37 -75c23 -17 52 -26 85 -26c41 0 73 12 98 37zM288 414c57 34 86 71 86 111c0 23 -7 41 -22 55c-15 15 -35 22 -60 22c-23 0 -42 -7 -57 -22
s-22 -33 -22 -55c0 -34 25 -71 75 -111z" />
    <glyph glyph-name="quotesingle" unicode="'" horiz-adv-x="199" 
d="M48 462l-5 238h112l-5 -238h-102z" />
    <glyph glyph-name="parenleft" unicode="(" horiz-adv-x="332" 
d="M182 596v-558c0 -57 29 -85 86 -85v-119c-149 0 -223 70 -223 211v543c0 141 74 212 223 212v-119c-57 0 -86 -28 -86 -85z" />
    <glyph glyph-name="parenright" unicode=")" horiz-adv-x="333" 
d="M150 38v558c0 57 -29 85 -86 85v119c149 0 223 -71 223 -212v-543c0 -141 -74 -211 -223 -211v119c57 0 86 28 86 85z" />
    <glyph glyph-name="asterisk" unicode="*" horiz-adv-x="434" 
d="M36 569l47 79l86 -49v101h94v-101l87 49l46 -79l-87 -49l88 -48l-47 -80l-87 50v-101h-94v101l-86 -50l-47 79l87 49z" />
    <glyph glyph-name="plus" unicode="+" horiz-adv-x="550" 
d="M36 256v111h181v192h116v-192h181v-111h-181v-193h-116v193h-181z" />
    <glyph glyph-name="comma" unicode="," horiz-adv-x="244" 
d="M81 -59c15 17 23 32 25 47c-21 5 -38 15 -51 32c-12 15 -18 32 -18 51c0 23 8 44 24 61c17 17 37 25 60 25c25 0 46 -8 62 -24c17 -17 26 -39 26 -68c0 -43 -11 -85 -33 -126c-20 -37 -46 -68 -78 -92l-54 60c13 9 25 20 37 34z" />
    <glyph glyph-name="hyphen" unicode="-" horiz-adv-x="369" 
d="M45 242v124h278v-124h-278z" />
    <glyph glyph-name="period" unicode="." horiz-adv-x="245" 
d="M62 12c-17 16 -25 36 -25 59c0 24 8 44 25 61c16 17 36 25 60 25s44 -8 61 -25c16 -17 24 -37 24 -61c0 -23 -8 -43 -24 -59c-17 -17 -37 -25 -61 -25s-44 8 -60 25z" />
    <glyph glyph-name="slash" unicode="/" horiz-adv-x="452" 
d="M15 -108l301 858h121l-301 -858h-121z" />
    <glyph glyph-name="zero" unicode="0" horiz-adv-x="576" 
d="M474 79c-39 -61 -101 -92 -187 -92c-85 0 -147 31 -186 92c-37 58 -55 148 -55 271s18 213 55 271c39 61 101 92 186 92c86 0 148 -31 187 -92c37 -58 55 -148 55 -271s-18 -213 -55 -271zM206 179c14 -40 41 -60 81 -60s67 20 82 60c11 32 17 89 17 171s-6 139 -17 171
c-15 40 -42 60 -82 60s-67 -20 -81 -60c-11 -32 -17 -89 -17 -171s6 -139 17 -171z" />
    <glyph glyph-name="one" unicode="1" horiz-adv-x="341" 
d="M57 536l-35 117l132 47h115v-700h-139v561z" />
    <glyph glyph-name="two" unicode="2" horiz-adv-x="541" 
d="M42 0v50c0 45 16 90 48 136c23 31 58 69 107 114l28 26l28 26c21 19 37 35 50 49c32 36 48 68 48 96c0 26 -8 47 -24 63c-16 15 -38 23 -66 23c-50 0 -83 -27 -99 -82l-123 36c10 45 31 83 63 114c42 41 97 62 165 62s123 -19 165 -57c42 -39 63 -90 63 -153
c0 -71 -45 -145 -134 -222l-25 -22l-26 -21c-20 -16 -35 -29 -46 -39c-31 -29 -50 -54 -55 -76h294v-123h-461z" />
    <glyph glyph-name="three" unicode="3" horiz-adv-x="541" 
d="M101 45c-33 30 -55 68 -66 114l121 38c17 -54 53 -81 108 -81c29 0 53 9 71 26c18 18 27 41 27 70s-10 51 -29 68c-21 18 -49 27 -86 27h-77v109l145 160h-253v124h414v-124l-147 -154c48 -5 88 -24 121 -59c37 -38 55 -86 55 -145c0 -67 -23 -123 -68 -166
s-101 -65 -170 -65s-124 19 -166 58z" />
    <glyph glyph-name="four" unicode="4" horiz-adv-x="588" 
d="M27 163v101l287 436h164v-417h82v-120h-82v-163h-139v163h-312zM172 283h167v260z" />
    <glyph glyph-name="five" unicode="5" horiz-adv-x="541" 
d="M206 325c-11 -6 -21 -14 -31 -25l-117 20l15 380h395v-124h-270l-6 -143c29 16 63 24 100 24c61 0 112 -20 154 -61c43 -42 65 -95 65 -158c0 -73 -22 -133 -67 -180s-102 -71 -171 -71c-68 0 -124 19 -168 58c-35 31 -59 69 -70 114l122 38c15 -54 51 -81 109 -81
c30 0 55 11 74 32s29 47 29 79c0 30 -9 55 -27 76c-20 23 -48 35 -84 35c-19 0 -36 -4 -52 -13z" />
    <glyph glyph-name="six" unicode="6" horiz-adv-x="562" 
d="M382 230c0 33 -8 59 -25 79c-17 21 -42 31 -73 31c-39 0 -73 -18 -101 -55c0 -53 5 -92 16 -116c16 -33 45 -50 88 -50c63 0 95 37 95 111zM428 697l36 -15c9 -5 17 -10 26 -15l-55 -114c-13 8 -26 14 -39 19c-19 6 -40 9 -61 9c-52 0 -90 -19 -115 -57
c-10 -15 -18 -32 -23 -52c-4 -16 -6 -33 -7 -51c14 12 30 22 47 29c25 11 51 16 78 16c62 0 111 -20 148 -60c39 -42 58 -99 58 -172c0 -74 -21 -134 -64 -179s-100 -68 -171 -68c-90 0 -155 30 -195 90c-34 51 -51 127 -51 228c0 272 95 408 286 408c36 0 70 -5 102 -16z
" />
    <glyph glyph-name="seven" unicode="7" horiz-adv-x="510" 
d="M25 700h462v-107l-229 -593h-152l232 576h-313v124z" />
    <glyph glyph-name="eight" unicode="8" horiz-adv-x="564" 
d="M103 46c-45 40 -67 93 -67 160c0 39 11 75 32 106c17 26 38 46 64 60c-21 13 -38 31 -51 53c-17 27 -26 57 -26 89c0 58 21 106 62 143c42 37 97 56 165 56s123 -19 165 -56c41 -37 62 -84 62 -143c0 -33 -9 -62 -26 -89c-14 -22 -31 -40 -52 -53c27 -15 49 -35 66 -60
c21 -31 31 -67 31 -106c0 -66 -23 -119 -68 -159s-105 -60 -179 -60c-75 0 -134 20 -178 59zM208 276c-19 -17 -28 -40 -28 -68c0 -27 9 -49 26 -66c19 -18 44 -27 76 -27c33 0 58 9 76 27c17 17 26 39 26 66c0 28 -9 51 -28 68s-43 26 -74 26s-55 -9 -74 -26zM217 563
c-15 -15 -22 -34 -22 -57c0 -24 8 -43 24 -58s37 -23 63 -23c25 0 46 8 63 23c16 15 24 34 24 58c0 23 -7 42 -22 57c-16 15 -38 23 -65 23s-49 -8 -65 -23z" />
    <glyph glyph-name="nine" unicode="9" horiz-adv-x="562" 
d="M179 470c0 -33 8 -59 25 -79c17 -21 42 -31 73 -31c39 0 73 18 101 55c0 53 -5 92 -16 116c-16 33 -45 50 -88 50c-63 0 -95 -37 -95 -111zM134 3c-13 5 -25 10 -37 15c-9 5 -17 10 -26 15l55 114c13 -8 26 -14 40 -19c19 -6 39 -9 60 -9c52 0 90 19 115 57
c10 15 18 32 23 52c4 16 6 33 7 51c-14 -12 -30 -22 -47 -29c-25 -11 -51 -16 -78 -16c-62 0 -111 20 -148 61c-39 41 -58 98 -58 171c0 74 21 134 64 179s100 68 171 68c90 0 155 -30 195 -90c34 -51 51 -127 51 -228c0 -272 -95 -408 -286 -408c-36 0 -70 5 -101 16z" />
    <glyph glyph-name="colon" unicode=":" horiz-adv-x="244" 
d="M62 12c-17 16 -25 36 -25 59c0 24 8 44 25 61c16 17 36 25 60 25s44 -8 61 -25c16 -17 24 -37 24 -61c0 -23 -8 -43 -24 -59c-17 -17 -37 -25 -61 -25s-44 8 -60 25zM62 367c-17 16 -25 36 -25 59c0 24 8 44 25 61c16 17 36 25 60 25s44 -8 61 -25c16 -17 24 -37 24 -61
c0 -23 -8 -43 -24 -59c-17 -17 -37 -25 -61 -25s-44 8 -60 25z" />
    <glyph glyph-name="semicolon" unicode=";" horiz-adv-x="244" 
d="M62 367c-17 16 -25 36 -25 59c0 24 8 44 25 61c16 17 36 25 60 25s44 -8 61 -25c16 -17 24 -37 24 -61c0 -23 -8 -43 -24 -59c-17 -17 -37 -25 -61 -25s-44 8 -60 25zM81 -59c15 17 23 32 25 47c-21 5 -38 15 -51 32c-12 15 -18 32 -18 51c0 23 8 44 24 61
c17 17 37 25 60 25c25 0 46 -8 62 -24c17 -17 26 -39 26 -68c0 -43 -11 -85 -33 -126c-20 -37 -46 -68 -78 -92l-54 60c13 9 25 20 37 34z" />
    <glyph glyph-name="less" unicode="&#x3c;" horiz-adv-x="508" 
d="M45 262v100l418 189v-120l-280 -118l280 -119v-121z" />
    <glyph glyph-name="equal" unicode="=" horiz-adv-x="550" 
d="M36 347v110h478v-110h-478zM36 157v111h478v-111h-478z" />
    <glyph glyph-name="greater" unicode="&#x3e;" horiz-adv-x="508" 
d="M463 362v-100l-418 -189v121l280 119l-280 118v120z" />
    <glyph glyph-name="question" unicode="?" horiz-adv-x="482" 
d="M152 199v49c0 48 27 97 80 146l29 27c11 10 19 19 26 27c17 21 25 42 25 63s-7 38 -22 52c-16 15 -37 23 -62 23s-45 -7 -61 -21c-11 -10 -21 -24 -28 -41l-110 49c13 36 33 66 61 91c37 33 84 49 140 49c65 0 118 -18 160 -54c42 -37 63 -83 63 -140
c0 -55 -28 -108 -83 -159l-16 -15l-15 -14c-11 -11 -20 -20 -27 -28c-17 -21 -26 -42 -26 -63v-41h-134zM159 12c-17 16 -25 36 -25 59c0 24 8 44 25 61c16 17 36 25 60 25s44 -8 61 -25c16 -17 24 -37 24 -61c0 -23 -8 -43 -24 -59c-17 -17 -37 -25 -61 -25s-44 8 -60 25z
" />
    <glyph glyph-name="at" unicode="@" horiz-adv-x="905" 
d="M553 111c-7 -8 -16 -15 -26 -22c-26 -18 -56 -27 -90 -27c-56 0 -101 18 -136 55s-52 84 -52 142c0 57 17 104 52 141s79 56 132 56c26 0 50 -5 72 -16c7 -4 14 -9 21 -14c3 -1 5 -3 7 -5l5 -5v34h103v-237c0 -41 17 -61 51 -61c23 0 41 13 54 38c14 27 21 64 21 112
c0 89 -29 159 -87 210c-55 49 -129 74 -222 74c-95 0 -171 -31 -230 -93c-58 -61 -87 -137 -87 -229c0 -95 30 -172 89 -230c59 -59 138 -88 236 -88c69 0 132 17 189 50l46 -74c-65 -45 -143 -67 -235 -67c-126 0 -229 38 -309 113c-81 76 -121 174 -121 293
c0 121 41 220 122 299c80 77 181 116 302 116c119 0 217 -35 294 -105c76 -70 114 -158 114 -264c0 -76 -17 -136 -50 -180c-33 -43 -78 -65 -135 -65c-56 0 -94 23 -115 68c-4 -6 -9 -12 -15 -19zM386 186c17 -19 38 -28 64 -28s47 9 64 27c18 19 27 44 27 75
c0 28 -8 51 -25 70s-39 29 -66 29c-26 0 -47 -9 -64 -27c-17 -19 -26 -44 -26 -73s9 -54 26 -73z" />
    <glyph glyph-name="A" unicode="A" horiz-adv-x="660" 
d="M449 180h-238l-61 -180h-142l248 700h148l248 -700h-142zM412 297l-82 252l-81 -252h163z" />
    <glyph glyph-name="B" unicode="B" horiz-adv-x="572" 
d="M67 0v700h222c70 0 126 -17 167 -50c42 -33 63 -78 63 -135c0 -32 -8 -62 -23 -89s-36 -48 -61 -62c71 -30 107 -83 107 -159c0 -65 -24 -116 -72 -153c-44 -35 -100 -52 -168 -52h-235zM208 417h80c25 0 45 8 62 23s25 35 25 59s-8 43 -25 58c-16 14 -37 21 -64 21h-78
v-161zM208 121h86c29 0 53 8 72 25c20 17 30 39 30 67s-10 50 -30 67c-19 15 -43 23 -72 23h-86v-182z" />
    <glyph glyph-name="C" unicode="C" horiz-adv-x="638" 
d="M130 91c-67 68 -100 154 -100 259c0 103 34 190 103 259s157 104 262 104c81 0 150 -21 208 -64l-40 -124c-21 15 -45 27 -70 37c-33 13 -66 19 -98 19c-63 0 -116 -22 -157 -66s-61 -99 -61 -165c0 -67 20 -123 61 -166s94 -65 157 -65c34 0 68 7 103 20
c26 10 50 22 71 37l40 -123c-25 -19 -53 -34 -84 -45c-41 -14 -84 -21 -130 -21c-108 0 -196 35 -265 104z" />
    <glyph glyph-name="D" unicode="D" horiz-adv-x="655" 
d="M67 0v700h186c115 0 205 -31 271 -93c67 -62 100 -148 100 -257c0 -111 -33 -197 -100 -259c-65 -61 -156 -91 -271 -91h-186zM208 122h50c68 0 121 19 159 57c40 40 60 97 60 171c0 73 -20 129 -60 169c-39 39 -92 58 -159 58h-50v-455z" />
    <glyph glyph-name="E" unicode="E" horiz-adv-x="481" 
d="M67 0v700h360v-127h-219v-156h188v-125h-188v-166h228v-126h-369z" />
    <glyph glyph-name="F" unicode="F" horiz-adv-x="470" 
d="M67 0v700h358v-127h-217v-165h190v-126h-190v-282h-141z" />
    <glyph glyph-name="G" unicode="G" horiz-adv-x="747" 
d="M573 671c21 -11 41 -23 58 -38c15 -11 27 -23 38 -36l-89 -92c-7 7 -14 15 -23 22c-12 9 -25 18 -38 25c-37 20 -77 30 -120 30c-67 0 -121 -22 -162 -67c-40 -43 -60 -98 -60 -165c0 -70 21 -126 64 -169c41 -41 93 -62 158 -62c43 0 81 7 115 22c13 5 24 11 34 18
c8 5 14 10 19 15v86h-133v119h265v-277c-90 -77 -192 -115 -306 -115c-102 0 -187 33 -256 99c-71 68 -107 156 -107 264c0 102 34 188 102 257c69 71 156 106 261 106c65 0 125 -14 180 -42z" />
    <glyph glyph-name="H" unicode="H" horiz-adv-x="707" 
d="M67 0v700h141v-284h291v284h141v-700h-141v289h-291v-289h-141z" />
    <glyph glyph-name="I" unicode="I" horiz-adv-x="275" 
d="M67 0v700h141v-700h-141z" />
    <glyph glyph-name="J" unicode="J" horiz-adv-x="374" 
d="M20 4l16 125c1 0 4 0 9 -1l6 -1l7 -1c13 -2 25 -3 36 -3c47 0 71 25 71 76v501h141v-526c0 -61 -19 -108 -56 -139c-34 -27 -80 -41 -138 -41c-30 0 -61 3 -92 10z" />
    <glyph glyph-name="K" unicode="K" horiz-adv-x="615" 
d="M67 0v700h141v-320l231 320h158l-252 -335l260 -365h-162l-235 340v-340h-141z" />
    <glyph glyph-name="L" unicode="L" horiz-adv-x="455" 
d="M67 0v700h141v-573h228v-127h-369z" />
    <glyph glyph-name="M" unicode="M" horiz-adv-x="897" 
d="M248 700l200 -477l201 477h182v-700h-135v500l-182 -441h-131l-182 441v-500h-135v700h182z" />
    <glyph glyph-name="N" unicode="N" horiz-adv-x="713" 
d="M507 0l-302 476v-476h-139v700h143l299 -480v480h139v-700h-140z" />
    <glyph glyph-name="O" unicode="O" horiz-adv-x="788" 
d="M131 91c-67 69 -101 155 -101 259c0 103 34 189 101 258c69 70 157 105 263 105s194 -35 263 -105c67 -69 101 -155 101 -258c0 -104 -34 -190 -101 -259c-69 -69 -156 -104 -263 -104s-194 35 -263 104zM238 515c-41 -44 -61 -99 -61 -165c0 -67 20 -123 61 -166
s93 -65 156 -65s115 22 156 65s61 99 61 166c0 66 -20 121 -61 165s-93 66 -156 66s-115 -22 -156 -66z" />
    <glyph glyph-name="P" unicode="P" horiz-adv-x="542" 
d="M67 0v700h223c69 0 124 -20 166 -59c43 -40 64 -93 64 -159c0 -65 -22 -118 -65 -159s-98 -62 -164 -62h-83v-261h-141zM208 383h63c31 0 56 9 75 27c19 19 29 43 29 72s-10 52 -29 70c-19 17 -43 26 -73 26h-65v-195z" />
    <glyph glyph-name="Q" unicode="Q" horiz-adv-x="789" 
d="M131 91c-67 69 -101 155 -101 259c0 103 34 189 101 258c69 70 157 105 263 105s194 -35 263 -105c67 -69 101 -155 101 -258c0 -77 -21 -147 -64 -210l68 -61l-86 -95l-72 66c-63 -42 -133 -63 -210 -63c-107 0 -194 35 -263 104zM238 515c-41 -44 -61 -99 -61 -165
c0 -67 20 -123 61 -166s93 -65 156 -65c39 0 74 9 105 26l-65 59l84 95l68 -62c17 35 25 72 25 113c0 66 -20 121 -61 165s-93 66 -156 66s-115 -22 -156 -66z" />
    <glyph glyph-name="R" unicode="R" horiz-adv-x="585" 
d="M67 0v700h211c74 0 133 -20 176 -61c41 -38 61 -87 61 -147c0 -85 -35 -146 -106 -185l166 -307h-156l-136 274h-75v-274h-141zM208 393h66c27 0 50 8 67 24c19 17 29 41 29 70c0 28 -9 50 -27 67c-19 16 -44 24 -76 24h-59v-185z" />
    <glyph glyph-name="S" unicode="S" horiz-adv-x="521" 
d="M418 656c15 -15 29 -32 40 -51c9 -15 16 -30 21 -45l-117 -53c-10 22 -21 39 -34 50c-18 17 -41 26 -68 26c-23 0 -42 -6 -56 -19c-13 -13 -20 -29 -20 -48c0 -25 16 -48 48 -68c11 -7 27 -16 48 -26l28 -13l28 -13c47 -23 82 -47 105 -71c31 -35 47 -76 47 -125
c0 -63 -21 -114 -62 -153c-43 -40 -100 -60 -172 -60c-66 0 -121 20 -165 60c-17 15 -31 32 -43 53c-10 15 -18 32 -24 49l119 58c25 -59 65 -89 121 -89c55 0 83 24 83 72c0 26 -16 49 -47 70c-11 7 -28 16 -49 26l-27 13l-28 14c-47 23 -81 48 -104 73
c-31 35 -47 77 -47 128c0 59 20 107 60 144s93 55 160 55c62 0 114 -19 155 -57z" />
    <glyph glyph-name="T" unicode="T" horiz-adv-x="511" 
d="M185 0v573h-164v127h468v-127h-163v-573h-141z" />
    <glyph glyph-name="U" unicode="U" horiz-adv-x="692" 
d="M137 63c-49 49 -73 116 -73 200v437h141v-437c0 -45 12 -80 37 -106s59 -39 104 -39s79 13 104 39s37 61 37 106v437h141v-437c0 -84 -24 -151 -73 -200c-50 -51 -120 -76 -209 -76s-159 25 -209 76z" />
    <glyph glyph-name="V" unicode="V" horiz-adv-x="680" 
d="M417 0h-153l-258 700h155l179 -534l179 534h155z" />
    <glyph glyph-name="W" unicode="W" horiz-adv-x="977" 
d="M620 0l-132 483l-132 -483h-159l-188 700h154l121 -524l139 524h130l139 -524l122 524h153l-187 -700h-160z" />
    <glyph glyph-name="X" unicode="X" horiz-adv-x="638" 
d="M7 0l227 356l-220 344h167l136 -235l137 235h166l-220 -344l228 -356h-157l-77 125l-77 125l-153 -250h-157z" />
    <glyph glyph-name="Y" unicode="Y" horiz-adv-x="584" 
d="M222 0v320l-215 380h159l126 -251l126 251h159l-215 -380v-320h-140z" />
    <glyph glyph-name="Z" unicode="Z" horiz-adv-x="603" 
d="M32 0v92l344 483h-334v125h522v-92l-346 -483h349v-125h-535z" />
    <glyph glyph-name="bracketleft" unicode="[" horiz-adv-x="332" 
d="M45 -166v966h223v-119h-86v-728h86v-119h-223z" />
    <glyph glyph-name="backslash" unicode="\" horiz-adv-x="452" 
d="M136 750l301 -858h-121l-301 858h121z" />
    <glyph glyph-name="bracketright" unicode="]" horiz-adv-x="334" 
d="M287 800v-966h-223v119h86v728h-86v119h223z" />
    <glyph glyph-name="asciicircum" unicode="^" horiz-adv-x="557" 
d="M39 318l183 382h113l183 -382h-129l-111 248l-111 -248h-128z" />
    <glyph glyph-name="underscore" unicode="_" horiz-adv-x="614" 
d="M24 -29h565v-108h-565v108z" />
    <glyph glyph-name="grave" unicode="`" horiz-adv-x="483" 
d="M292 677l41 -96h-82l-71 96h112z" />
    <glyph glyph-name="A001" unicode="a" horiz-adv-x="526" 
d="M80 287c37 32 86 48 147 48c24 0 47 -3 69 -10c18 -5 33 -11 44 -19v34c0 23 -8 42 -25 56s-40 21 -70 21c-45 0 -91 -12 -139 -37l-52 94c61 41 129 62 206 62c145 0 218 -68 218 -205v-331h-122l-9 34c-29 -31 -72 -47 -127 -47s-101 15 -138 46c-39 33 -58 76 -58 129
c0 51 19 93 56 125zM188 114c17 -13 39 -20 65 -20c27 0 48 7 65 20s25 30 25 52c0 23 -9 41 -26 54c-16 13 -38 19 -65 19s-48 -7 -65 -20c-17 -14 -25 -32 -25 -53s9 -39 26 -52z" />
    <glyph glyph-name="B002" unicode="b" horiz-adv-x="620" 
d="M54 0v723h138v-255c4 6 10 12 17 18c9 9 20 16 32 23c31 18 67 27 106 27c75 0 135 -26 180 -77s68 -117 68 -198s-24 -146 -72 -197c-47 -51 -109 -77 -184 -77c-39 0 -74 9 -106 27c-11 7 -22 14 -31 22c-4 3 -8 7 -11 10s-5 5 -7 8v-54h-130zM224 153
c25 -29 57 -44 98 -44c39 0 71 14 96 41s38 64 38 110c0 45 -12 82 -37 111s-57 43 -97 43c-39 0 -71 -13 -95 -40c-26 -28 -39 -66 -39 -114c0 -43 12 -78 36 -107z" />
    <glyph glyph-name="C003" unicode="c" horiz-adv-x="490" 
d="M382 125c9 5 18 10 27 16l21 15l37 -113c-19 -15 -40 -28 -64 -37c-32 -13 -65 -19 -99 -19c-81 0 -148 26 -201 77c-52 51 -78 117 -78 196s26 145 79 198c53 52 120 78 199 78c35 0 68 -6 99 -18c23 -9 45 -22 66 -38l-39 -116c-15 14 -31 25 -47 33
c-24 11 -49 17 -75 17c-43 0 -78 -15 -105 -45c-26 -29 -39 -65 -39 -108c0 -45 14 -81 42 -109c28 -29 64 -43 107 -43c23 0 47 5 70 16z" />
    <glyph glyph-name="D004" unicode="d" horiz-adv-x="620" 
d="M566 723v-723h-130v54c-2 -3 -4 -5 -7 -8s-7 -7 -11 -10c-9 -8 -20 -15 -31 -22c-32 -18 -67 -27 -106 -27c-75 0 -137 26 -184 77c-48 51 -72 116 -72 197s23 147 68 198s105 77 180 77c39 0 75 -9 106 -27c12 -7 23 -14 32 -23c7 -6 13 -12 17 -18v255h138zM394 374
c-25 27 -57 40 -96 40c-40 0 -72 -14 -97 -43s-37 -66 -37 -111c0 -46 13 -83 38 -110s57 -41 96 -41c41 0 74 15 99 44c23 29 35 64 35 107c0 48 -13 86 -38 114z" />
    <glyph glyph-name="E005" unicode="e" horiz-adv-x="559" 
d="M98 457c49 53 110 79 184 79c80 0 143 -25 188 -75c44 -49 66 -117 66 -204c0 -13 0 -23 -1 -30h-368c1 -35 15 -64 40 -86c25 -23 57 -34 96 -34c31 0 60 8 85 24c9 6 18 13 26 21c6 6 11 12 16 19l91 -69c-6 -11 -14 -22 -25 -34c-13 -14 -27 -26 -44 -37
c-43 -29 -94 -44 -151 -44c-83 0 -149 26 -200 78c-50 50 -75 115 -75 195c0 79 24 145 72 197zM171 317h225c-1 32 -12 58 -33 77s-47 29 -79 29s-58 -10 -79 -30c-19 -20 -31 -45 -34 -76z" />
    <glyph glyph-name="F006" unicode="f" horiz-adv-x="326" 
d="M78 0v411h-56v112h56v19c0 63 19 111 58 142c33 26 78 39 135 39c17 0 32 -1 45 -2v-116h-4l-6 1c-7 1 -12 1 -17 1c-49 0 -73 -23 -73 -68v-16h91v-112h-91v-411h-138z" />
    <glyph glyph-name="G007" unicode="g" horiz-adv-x="615" 
d="M92 -144l42 106c3 -1 5 -3 8 -4c4 -2 8 -4 12 -5c11 -5 22 -9 34 -12c32 -10 64 -15 95 -15c96 0 144 35 144 104v24c-1 -2 -3 -4 -6 -7s-6 -7 -10 -10c-9 -8 -19 -15 -30 -22c-32 -19 -68 -28 -107 -28c-75 0 -136 26 -182 77c-45 50 -68 116 -68 197s24 147 72 198
c47 51 108 77 183 77c39 0 74 -9 105 -26c12 -7 23 -14 33 -23c7 -7 13 -13 18 -19v55h130v-457c0 -172 -94 -258 -281 -258c-70 0 -134 16 -192 48zM394 371c-25 29 -58 43 -98 43c-39 0 -71 -14 -96 -41c-25 -29 -37 -66 -37 -111s13 -82 38 -111c25 -28 57 -42 96 -42
c40 0 72 14 97 42s37 65 37 111c0 45 -12 81 -37 109z" />
    <glyph glyph-name="H008" unicode="h" horiz-adv-x="562" 
d="M477 461c23 -39 34 -92 34 -159v-302h-137v318c0 28 -9 51 -26 69c-17 17 -37 25 -61 25c-29 0 -52 -9 -69 -28c-17 -18 -26 -41 -26 -70v-314h-138v723h138v-261c13 21 30 38 52 51c26 15 55 23 86 23c68 0 117 -25 147 -75z" />
    <glyph glyph-name="I009" unicode="i" horiz-adv-x="247" 
d="M54 0v523h138v-523h-138zM65 705c15 15 34 23 57 23s43 -8 58 -23s23 -33 23 -56s-8 -41 -23 -56s-35 -23 -58 -23s-42 8 -57 23s-23 33 -23 56s8 41 23 56z" />
    <glyph glyph-name="J010" unicode="j" horiz-adv-x="247" 
d="M54 -1v524h138v-530c0 -123 -67 -184 -200 -184c-11 0 -22 1 -34 2v117c9 -1 17 -2 24 -2c48 0 72 24 72 73zM65 705c15 15 34 23 57 23s43 -8 58 -23s23 -33 23 -56s-8 -41 -23 -56s-35 -23 -58 -23s-42 8 -57 23s-23 33 -23 56s8 41 23 56z" />
    <glyph glyph-name="K011" unicode="k" horiz-adv-x="532" 
d="M54 0v723h138v-420l168 220h155l-184 -237l198 -286h-162l-175 270v-270h-138z" />
    <glyph glyph-name="L012" unicode="l" horiz-adv-x="247" 
d="M54 0v723h138v-723h-138z" />
    <glyph glyph-name="M013" unicode="m" horiz-adv-x="851" 
d="M801 345v-345h-138v313c0 31 -7 55 -22 73c-15 17 -35 26 -60 26s-46 -9 -61 -26c-16 -18 -24 -43 -24 -74v-312h-138v318c0 63 -27 94 -81 94c-25 0 -46 -9 -61 -26c-16 -18 -24 -42 -24 -73v-313h-138v523h135v-61c11 21 27 38 49 51c25 15 54 23 87 23
c66 0 114 -26 143 -78c33 52 85 78 155 78c58 0 103 -18 134 -53c29 -34 44 -80 44 -138z" />
    <glyph glyph-name="N014" unicode="n" horiz-adv-x="560" 
d="M475 461c23 -39 35 -92 35 -159v-302h-138v318c0 28 -9 51 -26 69c-17 17 -37 25 -61 25c-28 0 -51 -9 -68 -28c-17 -18 -25 -41 -25 -70v-314h-138v523h135v-61c13 20 30 37 53 51c27 15 56 23 87 23c67 0 116 -25 146 -75z" />
    <glyph glyph-name="O015" unicode="o" 
d="M106 458c53 52 120 78 200 78s147 -26 201 -79s81 -118 81 -197s-26 -145 -79 -196s-121 -77 -203 -77c-81 0 -149 26 -202 77s-79 117 -79 196s27 145 81 198zM204 151c27 -28 61 -42 102 -42c42 0 76 14 103 42c27 29 41 65 41 109c0 45 -14 81 -41 110s-62 44 -103 44
s-76 -14 -103 -43s-40 -66 -40 -111c0 -44 14 -80 41 -109z" />
    <glyph glyph-name="P016" unicode="p" horiz-adv-x="621" 
d="M54 -187v710h130v-55c5 6 11 12 18 18c9 9 20 16 31 23c32 18 67 27 106 27c75 0 136 -26 184 -77s72 -117 72 -197c0 -81 -23 -147 -68 -198s-105 -77 -180 -77c-39 0 -74 9 -106 27c-12 7 -23 14 -32 22c-7 7 -13 13 -17 18v-241h-138zM227 149c24 -27 56 -40 95 -40
c40 0 72 14 97 43s37 66 37 111c0 46 -13 83 -38 110s-57 41 -96 41c-41 0 -73 -15 -98 -44c-24 -29 -36 -64 -36 -107c0 -48 13 -86 39 -114z" />
    <glyph glyph-name="Q017" unicode="q" horiz-adv-x="621" 
d="M566 523v-710h-138v241c-4 -5 -10 -11 -17 -18c-9 -8 -20 -15 -32 -22c-32 -18 -67 -27 -106 -27c-75 0 -135 26 -180 77s-68 117 -68 198c0 80 24 146 72 197s109 77 184 77c39 0 74 -9 106 -27c11 -7 22 -14 31 -23c7 -6 13 -12 18 -18v55h130zM397 370
c-25 29 -58 44 -99 44c-39 0 -71 -14 -96 -41s-38 -64 -38 -110c0 -45 12 -82 37 -111s57 -43 97 -43c39 0 71 13 96 40c25 28 38 66 38 114c0 43 -12 78 -35 107z" />
    <glyph glyph-name="R018" unicode="r" horiz-adv-x="360" 
d="M333 536v-140c-94 0 -141 -56 -141 -168v-228h-138v523h135v-76c26 59 74 89 144 89z" />
    <glyph glyph-name="S019" unicode="s" horiz-adv-x="435" 
d="M88 19c-29 17 -52 38 -69 65l81 72c33 -38 73 -57 120 -57c43 0 64 16 64 47c0 17 -13 32 -39 44c-9 5 -22 10 -39 16l-22 9l-23 9c-83 34 -124 86 -124 157c0 47 18 85 55 114c35 27 80 41 135 41c45 0 84 -10 117 -31c26 -16 47 -37 62 -62l-91 -68c-5 6 -10 11 -15 16
c-6 7 -13 12 -20 17c-18 11 -38 17 -59 17c-36 0 -54 -14 -54 -42c0 -18 13 -33 39 -45c9 -4 22 -9 39 -15l23 -8l23 -8c83 -31 124 -83 124 -154c0 -50 -19 -90 -58 -121c-37 -30 -85 -45 -143 -45c-47 0 -89 11 -126 32z" />
    <glyph glyph-name="T020" unicode="t" horiz-adv-x="333" 
d="M67 523v110h136v-110h98v-112h-98v-202c0 -37 6 -63 19 -76c11 -12 30 -18 58 -18c9 0 18 0 25 1v-118c-14 -3 -34 -5 -59 -5c-120 0 -180 71 -180 212v206h-55v112h56z" />
    <glyph glyph-name="U021" unicode="u" horiz-adv-x="556" 
d="M85 62c-23 39 -35 92 -35 159v302h138v-318c0 -28 9 -51 26 -69c17 -17 37 -25 61 -25c28 0 51 9 68 28c17 18 25 41 25 70v314h138v-523h-135v61c-13 -20 -30 -37 -53 -50c-27 -16 -56 -24 -87 -24c-67 0 -116 25 -146 75z" />
    <glyph glyph-name="V022" unicode="v" horiz-adv-x="542" 
d="M351 0h-160l-187 523h147l120 -376l120 376h147z" />
    <glyph glyph-name="W023" unicode="w" horiz-adv-x="828" 
d="M510 0l-96 335l-97 -335h-154l-156 523h150l92 -371l100 371h130l99 -371l93 371h150l-157 -523h-154z" />
    <glyph glyph-name="X024" unicode="x" horiz-adv-x="532" 
d="M377 0l-111 164l-112 -164h-149l184 267l-176 256h155l98 -159l98 159h155l-176 -256l184 -267h-150z" />
    <glyph glyph-name="Y025" unicode="y" horiz-adv-x="540" 
d="M266 -179h-132l73 192l-201 510h148l117 -341l118 341h144z" />
    <glyph glyph-name="Z026" unicode="z" horiz-adv-x="468" 
d="M435 437l-236 -322h239v-115h-410v85l236 323h-229v115h400v-86z" />
    <glyph glyph-name="braceleft" unicode="{" horiz-adv-x="388" 
d="M178 308c10 -6 19 -14 27 -23c21 -25 32 -58 32 -98v-149c0 -57 29 -85 87 -85v-119c-149 0 -223 71 -223 212v108c0 37 -8 63 -23 80c-12 13 -29 19 -50 19v129c49 0 73 33 73 99v107c0 141 74 212 223 212v-119c-58 0 -87 -28 -87 -85v-148c0 -40 -11 -73 -32 -98
c-8 -9 -17 -17 -27 -23c-7 -5 -14 -9 -20 -10c6 -1 13 -4 20 -9z" />
    <glyph glyph-name="bar" unicode="|" horiz-adv-x="282" 
d="M76 -235v1059h130v-1059h-130z" />
    <glyph glyph-name="braceright" unicode="}" horiz-adv-x="388" 
d="M210 327c-10 6 -19 14 -27 23c-21 25 -32 58 -32 98v148c0 57 -29 85 -87 85v119c149 0 223 -71 223 -212v-107c0 -66 24 -99 73 -99v-129c-21 0 -38 -6 -50 -19c-15 -17 -23 -43 -23 -80v-108c0 -141 -74 -212 -223 -212v119c58 0 87 28 87 85v149c0 40 11 73 32 98
c8 9 17 17 27 23c7 5 14 8 20 9c-6 1 -13 5 -20 10z" />
    <glyph glyph-name="asciitilde" unicode="~" horiz-adv-x="546" 
d="M270 243l-20 9l-19 8c-15 5 -28 8 -41 8c-32 0 -48 -17 -48 -52h-107c0 53 13 95 39 128c27 33 63 49 108 49c25 0 57 -8 94 -25l20 -10l20 -8c15 -5 27 -8 38 -8c31 0 48 17 49 51h107c0 -50 -13 -91 -38 -124c-27 -35 -63 -52 -108 -52c-27 0 -58 9 -94 26z" />
    <glyph glyph-name="exclamdown" unicode="&#xa1;" horiz-adv-x="292" 
d="M73 -153l11 501h124l11 -501h-146zM207 535c16 -16 24 -36 24 -59c0 -24 -8 -44 -24 -61c-17 -17 -37 -25 -61 -25s-44 8 -60 25c-17 17 -25 37 -25 61c0 23 8 43 25 59c16 17 36 25 60 25s44 -8 61 -25z" />
    <glyph glyph-name="cent" unicode="&#xa2;" horiz-adv-x="490" 
d="M263 0v65c-71 9 -128 39 -172 88s-66 110 -66 183c0 72 22 133 67 184c44 50 101 80 171 89v91h87v-92c23 -4 46 -11 68 -22c17 -8 34 -18 50 -30l-39 -116c-15 14 -31 25 -47 33c-24 11 -49 17 -75 17c-43 0 -78 -15 -105 -45c-26 -29 -39 -65 -39 -108
c0 -45 14 -81 42 -109c28 -29 64 -43 107 -43c23 0 47 5 70 16c9 5 18 10 27 16l21 15l37 -113c-15 -11 -31 -21 -48 -30c-22 -11 -45 -18 -69 -22v-67h-87z" />
    <glyph glyph-name="sterling" unicode="&#xa3;" horiz-adv-x="573" 
d="M42 292v106h51v102c0 63 20 114 61 153c41 40 95 60 162 60c57 0 105 -17 144 -52c29 -26 48 -57 59 -94l-115 -49c-7 17 -16 30 -27 40c-16 13 -36 20 -60 20c-25 0 -45 -8 -60 -24c-16 -16 -24 -36 -24 -61v-95h155v-106h-155v-169h302v-123h-500v123h58v169h-51z" />
    <glyph glyph-name="yen" unicode="&#xa5;" horiz-adv-x="584" 
d="M225 0v158h-154v91h154v71h-154v91h102l-163 289h159l126 -251l126 251h159l-164 -289h96v-91h-147v-71h147v-91h-147v-158h-140z" />
    <glyph glyph-name="section" unicode="&#xa7;" horiz-adv-x="511" 
d="M390 102c51 -40 76 -87 76 -142s-19 -99 -56 -132c-39 -34 -90 -51 -153 -51c-62 0 -114 18 -157 55c-17 15 -31 31 -43 49c-10 15 -18 30 -23 45l115 50c9 -19 22 -35 38 -48c21 -16 44 -24 70 -24c45 0 68 19 68 58c0 27 -22 54 -66 81l-125 75
c-67 40 -101 92 -101 157c0 61 29 105 86 132c-50 39 -75 87 -75 142s19 99 57 133s89 51 153 51c62 0 114 -19 156 -56c17 -14 31 -30 43 -49c9 -15 17 -30 22 -45l-115 -50c-9 20 -22 36 -37 49c-20 16 -43 24 -69 24c-21 0 -37 -6 -50 -17s-19 -25 -19 -42
c0 -27 22 -54 65 -81l115 -68c75 -44 112 -98 112 -163c0 -61 -29 -105 -87 -133zM307 290l-83 45c-19 -1 -34 -7 -46 -18c-11 -11 -16 -24 -16 -40c0 -23 10 -40 31 -51l92 -52c19 1 34 7 46 18c11 11 17 24 17 40c0 24 -14 43 -41 58z" />
    <glyph glyph-name="dieresis" unicode="&#xa8;" horiz-adv-x="483" 
d="M96 605c-13 13 -19 29 -19 48s6 35 19 48s30 20 49 20s36 -7 49 -20s19 -29 19 -48s-6 -35 -19 -48s-30 -20 -49 -20c-20 0 -36 7 -49 20zM288 605c-13 13 -19 29 -19 48s6 35 19 48s29 20 49 20c19 0 36 -7 49 -20s19 -29 19 -48s-6 -35 -19 -48s-30 -20 -49 -20
c-20 0 -36 7 -49 20z" />
    <glyph glyph-name="copyright" unicode="&#xa9;" horiz-adv-x="790" 
d="M588 149c49 53 74 120 74 201s-25 147 -74 200c-50 53 -115 79 -194 79s-143 -26 -193 -79c-49 -53 -74 -119 -74 -200s25 -148 74 -201c51 -53 115 -80 194 -80s143 27 193 80zM266 486c34 37 78 55 132 55c37 0 69 -9 98 -27c11 -7 21 -16 30 -25c7 -7 14 -15 20 -24
l-73 -59c-3 5 -7 9 -10 13c-5 5 -11 9 -16 13c-14 9 -30 14 -48 14c-25 0 -44 -9 -59 -27c-14 -18 -21 -41 -21 -70s7 -52 21 -69c15 -19 34 -28 59 -28c18 0 34 5 48 14c5 4 11 8 16 13c3 4 7 8 10 13l73 -58c-6 -9 -13 -17 -20 -24c-9 -10 -19 -18 -30 -25
c-29 -19 -61 -28 -98 -28c-54 0 -98 19 -132 56c-34 36 -51 81 -51 136s17 100 51 137zM652 607c68 -69 102 -156 102 -259c0 -102 -34 -188 -101 -257c-69 -70 -155 -105 -258 -105s-189 35 -258 105c-68 69 -102 155 -102 257c0 103 34 189 102 259c69 71 154 106 257 106
c104 0 190 -35 258 -106z" />
    <glyph glyph-name="ordfeminine" unicode="&#xaa;" horiz-adv-x="411" 
d="M76 526c27 24 64 36 110 36c17 0 34 -2 51 -7c13 -3 24 -8 33 -13v23c0 37 -23 56 -70 56c-35 0 -70 -9 -105 -28l-40 72c47 32 100 48 157 48c109 0 163 -52 163 -156v-248h-93l-7 24c-22 -22 -53 -33 -94 -33s-76 12 -103 35c-29 24 -44 56 -44 97c0 39 14 71 42 94z
M157 397c13 -10 29 -15 49 -15c19 0 35 5 48 14c13 10 19 23 19 39s-6 29 -19 39c-13 9 -29 14 -48 14c-20 0 -36 -5 -49 -15s-19 -23 -19 -38c0 -16 6 -29 19 -38z" />
    <glyph glyph-name="guillemotleft" unicode="&#xab;" horiz-adv-x="490" 
d="M150 106l-122 187l122 188h123l-122 -188l122 -187h-123zM338 106l-122 187l122 188h123l-122 -188l122 -187h-123z" />
    <glyph glyph-name="registered" unicode="&#xae;" horiz-adv-x="452" 
d="M226 503h-21v-75h-59v216h88c23 0 42 -7 57 -21c14 -13 21 -30 21 -49c0 -29 -11 -48 -34 -59l40 -87h-61zM229 594h-24v-43h24c15 0 22 7 22 22c0 14 -7 21 -22 21zM74 682c39 40 89 60 150 60c64 0 116 -20 155 -60c38 -39 57 -88 57 -147c0 -58 -19 -107 -57 -146
c-39 -41 -90 -61 -153 -61s-114 20 -153 60c-38 38 -57 87 -57 146s19 108 58 148zM113 424c28 -30 66 -45 113 -45s85 15 113 44c27 29 41 66 41 112c0 47 -14 84 -41 112c-28 29 -66 43 -115 43c-47 0 -84 -15 -111 -44s-41 -66 -41 -112c0 -45 14 -82 41 -110z" />
    <glyph glyph-name="macron" unicode="&#xaf;" horiz-adv-x="445" 
d="M88 603v101h268v-101h-268z" />
    <glyph glyph-name="degree" unicode="&#xb0;" horiz-adv-x="378" 
d="M72 443c-30 29 -45 66 -45 111s15 82 46 113s69 46 116 46s85 -15 116 -46c30 -30 45 -67 45 -112s-15 -82 -45 -112s-69 -45 -116 -45s-86 15 -117 45zM143 601c-11 -13 -17 -28 -17 -46c0 -19 6 -34 17 -46c12 -12 27 -18 46 -18c42 0 63 21 63 64c0 18 -6 33 -17 46
c-12 12 -27 18 -46 18s-34 -6 -46 -18z" />
    <glyph glyph-name="twosuperior" unicode="&#xb2;" horiz-adv-x="360" 
d="M37 303v42c0 44 30 89 90 135l17 13l16 12c13 9 22 17 29 23c19 17 28 32 28 46c0 27 -15 41 -44 41c-15 0 -28 -5 -38 -15c-8 -7 -14 -17 -19 -30l-83 30c8 27 22 51 42 70c27 25 61 38 102 38c43 0 77 -11 104 -34c29 -24 43 -56 43 -96s-26 -78 -77 -114l-15 -10
l-15 -10c-13 -8 -22 -14 -28 -18c-19 -14 -30 -26 -35 -37h175v-86h-292z" />
    <glyph glyph-name="threesuperior" unicode="&#xb3;" horiz-adv-x="357" 
d="M313 700v-68l-89 -89c29 -4 54 -16 73 -35c20 -21 30 -48 30 -81c0 -42 -15 -75 -44 -99c-27 -22 -63 -33 -106 -33c-41 0 -76 13 -103 38c-20 19 -34 42 -43 69l41 16l41 15c5 -13 12 -24 21 -31c11 -10 24 -15 39 -15c32 0 48 15 48 46s-19 47 -57 47h-45v68l65 66
h-135v86h264z" />
    <glyph glyph-name="acute" unicode="&#xb4;" horiz-adv-x="483" 
d="M162 581l42 99h118l-72 -99h-88z" />
    <glyph glyph-name="paragraph" unicode="&#xb6;" horiz-adv-x="545" 
d="M224 -45v368c-53 1 -98 19 -134 55s-54 81 -54 134s18 98 54 134c37 36 82 54 135 54h106v-745h-107zM391 -45v745h107v-745h-107z" />
    <glyph glyph-name="periodcentered" unicode="&#xb7;" horiz-adv-x="249" 
d="M64 254c-17 16 -25 36 -25 59c0 24 8 44 25 61c16 17 36 25 60 25s44 -8 61 -25c16 -17 24 -37 24 -61c0 -23 -8 -43 -24 -59c-17 -17 -37 -25 -61 -25s-44 8 -60 25z" />
    <glyph glyph-name="cedilla" unicode="&#xb8;" horiz-adv-x="445" 
d="M157 -230c-10 2 -18 4 -25 6l16 71l7 -2l8 -1c6 -1 12 -2 18 -2c29 0 43 11 43 33c0 21 -17 31 -50 31c-5 0 -11 -1 -17 -2l16 108h72l-8 -51c24 -5 43 -16 56 -33s20 -36 20 -59c0 -31 -12 -56 -36 -75c-23 -18 -52 -27 -87 -27c-9 0 -20 1 -33 3z" />
    <glyph glyph-name="onesuperior" unicode="&#xb9;" horiz-adv-x="286" 
d="M67 582l-26 88l86 30h86v-397h-104v295z" />
    <glyph glyph-name="ordmasculine" unicode="&#xba;" horiz-adv-x="480" 
d="M89 654c40 39 90 59 151 59c62 0 113 -20 152 -59s59 -88 59 -148c0 -59 -20 -108 -60 -147c-41 -39 -91 -59 -152 -59s-112 19 -152 58c-39 39 -59 88 -59 147c0 60 20 110 61 149zM164 424c19 -21 44 -31 75 -31s56 11 77 32c20 21 30 48 30 81s-10 61 -31 82
c-20 21 -45 31 -76 31s-56 -11 -76 -32c-19 -21 -29 -49 -29 -82s10 -60 30 -81z" />
    <glyph glyph-name="guillemotright" unicode="&#xbb;" horiz-adv-x="490" 
d="M461 293l-122 -187h-123l122 187l-122 188h123zM273 293l-122 -187h-123l122 187l-122 188h123z" />
    <glyph glyph-name="onequarter" unicode="&#xbc;" horiz-adv-x="831" 
d="M654 0v73h-185v77l175 247h114v-236h44v-88h-44v-73h-104zM567 161h87v128zM279 -41h-118l374 782h119zM76 582l-26 88l86 30h86v-397h-104v295z" />
    <glyph glyph-name="onehalf" unicode="&#xbd;" horiz-adv-x="843" 
d="M76 582l-26 88l86 30h86v-397h-104v295zM264 -41h-118l374 782h119zM506 0v42c0 27 9 52 28 77c13 17 34 37 62 58l17 13l16 12c13 9 22 17 29 23c19 17 28 32 28 46c0 27 -15 41 -44 41c-15 0 -28 -5 -38 -15c-8 -7 -14 -17 -19 -30l-83 30c8 27 22 51 42 70
c27 25 61 38 102 38c43 0 77 -11 104 -34c29 -24 43 -56 43 -96s-26 -78 -77 -114l-15 -10l-15 -10c-13 -8 -22 -14 -28 -18c-19 -14 -30 -26 -35 -37h175v-86h-292z" />
    <glyph glyph-name="threequarters" unicode="&#xbe;" horiz-adv-x="876" 
d="M325 -41h-118l374 782h119zM691 0v73h-185v77l175 247h114v-236h44v-88h-44v-73h-104zM604 161h87v128zM318 700v-68l-89 -89c29 -4 54 -16 73 -35c20 -21 30 -48 30 -81c0 -42 -15 -75 -44 -99c-27 -22 -63 -33 -106 -33c-41 0 -76 13 -103 38c-20 19 -34 42 -43 69
l41 16l41 15c5 -13 12 -24 21 -31c11 -10 24 -15 39 -15c32 0 48 15 48 46s-19 47 -57 47h-45v68l65 66h-135v86h264z" />
    <glyph glyph-name="questiondown" unicode="&#xbf;" horiz-adv-x="482" 
d="M330 348v-49c0 -48 -27 -97 -80 -146l-29 -27c-11 -10 -19 -19 -26 -27c-17 -21 -25 -42 -25 -63s7 -38 22 -52c16 -15 37 -23 62 -23s45 7 61 21c11 10 21 24 28 41l110 -49c-13 -36 -33 -66 -61 -91c-37 -33 -84 -49 -140 -49c-65 0 -118 18 -160 54
c-42 37 -63 83 -63 140c0 55 28 108 84 159l15 15l15 14c11 11 20 20 27 28c17 21 26 42 26 63v41h134zM324 535c16 -16 24 -36 24 -59c0 -24 -8 -44 -24 -61c-17 -17 -37 -25 -61 -25s-44 8 -60 25c-17 17 -25 37 -25 61c0 23 8 43 25 59c16 17 36 25 60 25s44 -8 61 -25z
" />
    <glyph glyph-name="Agrave039" unicode="&#xc0;" horiz-adv-x="660" 
d="M449 180h-238l-61 -180h-142l248 700h148l248 -700h-142zM412 297l-82 252l-81 -252h163zM346 854l41 -96h-82l-71 96h112z" />
    <glyph glyph-name="Aacute035" unicode="&#xc1;" horiz-adv-x="660" 
d="M449 180h-238l-61 -180h-142l248 700h148l248 -700h-142zM412 297l-82 252l-81 -252h163zM277 758l42 99h118l-72 -99h-88z" />
    <glyph glyph-name="Acircumflex046" unicode="&#xc2;" horiz-adv-x="660" 
d="M449 180h-238l-61 -180h-142l248 700h148l248 -700h-142zM412 297l-82 252l-81 -252h163zM357 746l-27 39l-28 -39h-83l65 95h91l65 -95h-83z" />
    <glyph glyph-name="Atilde044" unicode="&#xc3;" horiz-adv-x="660" 
d="M449 180h-238l-61 -180h-142l248 700h148l248 -700h-142zM412 297l-82 252l-81 -252h163zM329 776l-10 5l-10 4c-7 3 -13 4 -18 4c-15 0 -22 -9 -22 -26h-59c0 27 7 49 20 66c14 17 32 26 55 26c14 0 30 -4 48 -13l10 -5l9 -4c7 -3 12 -4 17 -4c15 0 22 9 22 26h60
c0 -28 -7 -50 -21 -66c-13 -17 -31 -25 -53 -25c-13 0 -29 4 -48 12z" />
    <glyph glyph-name="Adieresis029" unicode="&#xc4;" horiz-adv-x="660" 
d="M449 180h-238l-61 -180h-142l248 700h148l248 -700h-142zM412 297l-82 252l-81 -252h163zM185 764c-13 13 -19 29 -19 48s6 35 19 48s30 20 49 20s36 -7 49 -20s19 -29 19 -48s-6 -35 -19 -48s-30 -20 -49 -20c-20 0 -36 7 -49 20zM377 764c-13 13 -19 29 -19 48
s6 35 19 48s29 20 49 20c19 0 36 -7 49 -20s19 -29 19 -48s-6 -35 -19 -48s-30 -20 -49 -20c-20 0 -36 7 -49 20z" />
    <glyph glyph-name="Aring033" unicode="&#xc5;" horiz-adv-x="660" 
d="M449 180h-238l-61 -180h-142l248 700h148l248 -700h-142zM412 297l-82 252l-81 -252h163zM254 759c-21 19 -31 42 -31 71s10 53 31 72c19 18 44 27 75 27s57 -9 77 -27c21 -19 31 -42 31 -71s-10 -53 -31 -72c-20 -19 -46 -28 -77 -28c-30 0 -55 9 -75 28zM368 831
c0 25 -13 38 -38 38s-38 -13 -38 -39s13 -39 38 -39s38 13 38 40z" />
    <glyph glyph-name="AE" unicode="&#xc6;" horiz-adv-x="857" 
d="M8 0l365 700h430v-127h-218v-156h187v-125h-187v-166h227v-126h-368v180h-192l-91 -180h-153zM439 563l-135 -266h140v266h-5z" />
    <glyph glyph-name="Ccedilla107" unicode="&#xc7;" horiz-adv-x="638" 
d="M297 -230c-10 2 -18 4 -25 6l16 71l7 -2l8 -1c6 -1 12 -2 18 -2c29 0 43 11 43 33c0 21 -17 31 -50 31c-5 0 -11 -1 -17 -2l13 91c-85 17 -153 59 -204 124s-76 142 -76 231c0 103 34 190 103 259s157 104 262 104c81 0 150 -21 208 -64l-40 -124c-21 15 -45 27 -70 37
c-33 13 -66 19 -98 19c-63 0 -116 -22 -157 -66s-61 -99 -61 -165c0 -67 20 -123 61 -166s94 -65 157 -65c34 0 68 7 103 20c26 10 50 22 71 37l40 -123c-25 -19 -53 -34 -84 -45c-41 -14 -84 -21 -130 -21c-3 0 -8 0 -14 1l-4 -27c24 -5 43 -16 56 -33s20 -36 20 -59
c0 -31 -12 -56 -36 -75c-23 -18 -52 -27 -87 -27c-9 0 -20 1 -33 3z" />
    <glyph glyph-name="Egrave041" unicode="&#xc8;" horiz-adv-x="481" 
d="M67 0v700h360v-127h-219v-156h188v-125h-188v-166h228v-126h-369zM268 854l41 -96h-82l-71 96h112z" />
    <glyph glyph-name="Eacute034" unicode="&#xc9;" horiz-adv-x="481" 
d="M67 0v700h360v-127h-219v-156h188v-125h-188v-166h228v-126h-369zM198 758l42 99h118l-72 -99h-88z" />
    <glyph glyph-name="Ecircumflex047" unicode="&#xca;" horiz-adv-x="481" 
d="M67 0v700h360v-127h-219v-156h188v-125h-188v-166h228v-126h-369zM279 756l-27 39l-28 -39h-83l65 95h91l65 -95h-83z" />
    <glyph glyph-name="Edieresis032" unicode="&#xcb;" horiz-adv-x="481" 
d="M67 0v700h360v-127h-219v-156h188v-125h-188v-166h228v-126h-369zM107 764c-13 13 -19 29 -19 48s6 35 19 48s30 20 49 20s36 -7 49 -20s19 -29 19 -48s-6 -35 -19 -48s-30 -20 -49 -20c-20 0 -36 7 -49 20zM299 764c-13 13 -19 29 -19 48s6 35 19 48s29 20 49 20
c19 0 36 -7 49 -20s19 -29 19 -48s-6 -35 -19 -48s-30 -20 -49 -20c-20 0 -36 7 -49 20z" />
    <glyph glyph-name="Igrave" unicode="&#xcc;" horiz-adv-x="275" 
d="M67 0v700h141v-700h-141zM154 854l41 -96h-82l-71 96h112z" />
    <glyph glyph-name="Iacute" unicode="&#xcd;" horiz-adv-x="275" 
d="M67 0v700h141v-700h-141zM84 758l42 99h118l-72 -99h-88z" />
    <glyph glyph-name="Icircumflex" unicode="&#xce;" horiz-adv-x="275" 
d="M67 0v700h141v-700h-141zM165 756l-27 39l-28 -39h-83l65 95h91l65 -95h-83z" />
    <glyph glyph-name="Idieresis" unicode="&#xcf;" horiz-adv-x="275" 
d="M67 0v700h141v-700h-141zM-1 764c-13 13 -19 29 -19 48s6 35 19 48s30 20 49 20s36 -7 49 -20s19 -29 19 -48s-6 -35 -19 -48s-30 -20 -49 -20c-20 0 -36 7 -49 20zM191 764c-13 13 -19 29 -19 48s6 35 19 48s29 20 49 20c19 0 36 -7 49 -20s19 -29 19 -48
s-6 -35 -19 -48s-30 -20 -49 -20c-20 0 -36 7 -49 20z" />
    <glyph glyph-name="Eth" unicode="&#xd0;" horiz-adv-x="666" 
d="M22 290v124h56v286h185c115 0 206 -31 272 -93c67 -62 100 -148 100 -257c0 -111 -33 -197 -100 -259c-66 -61 -157 -91 -272 -91h-185v290h-56zM219 122h50c67 0 120 19 159 57c40 40 60 97 60 171c0 72 -20 128 -60 169c-39 39 -92 58 -159 58h-50v-163h109v-124h-109
v-168z" />
    <glyph glyph-name="Ntilde043" unicode="&#xd1;" horiz-adv-x="713" 
d="M507 0l-302 476v-476h-139v700h143l299 -480v480h139v-700h-140zM355 776l-10 5l-9 4c-7 3 -14 4 -19 4c-14 0 -21 -9 -21 -26h-60c0 27 7 49 21 66c13 17 31 26 54 26c14 0 30 -4 48 -13l10 -5l9 -4c7 -3 13 -4 18 -4c14 0 21 9 21 26h60c0 -28 -7 -50 -20 -66
c-13 -17 -31 -25 -54 -25c-13 0 -29 4 -48 12z" />
    <glyph glyph-name="Ograve040" unicode="&#xd2;" horiz-adv-x="788" 
d="M131 91c-67 69 -101 155 -101 259c0 103 34 189 101 258c69 70 157 105 263 105s194 -35 263 -105c67 -69 101 -155 101 -258c0 -104 -34 -190 -101 -259c-69 -69 -156 -104 -263 -104s-194 35 -263 104zM238 515c-41 -44 -61 -99 -61 -165c0 -67 20 -123 61 -166
s93 -65 156 -65s115 22 156 65s61 99 61 166c0 66 -20 121 -61 165s-93 66 -156 66s-115 -22 -156 -66zM410 854l41 -96h-82l-71 96h112z" />
    <glyph glyph-name="Oacute037" unicode="&#xd3;" horiz-adv-x="788" 
d="M131 91c-67 69 -101 155 -101 259c0 103 34 189 101 258c69 70 157 105 263 105s194 -35 263 -105c67 -69 101 -155 101 -258c0 -104 -34 -190 -101 -259c-69 -69 -156 -104 -263 -104s-194 35 -263 104zM238 515c-41 -44 -61 -99 -61 -165c0 -67 20 -123 61 -166
s93 -65 156 -65s115 22 156 65s61 99 61 166c0 66 -20 121 -61 165s-93 66 -156 66s-115 -22 -156 -66zM341 758l42 99h118l-72 -99h-88z" />
    <glyph glyph-name="Ocircumflex048" unicode="&#xd4;" horiz-adv-x="788" 
d="M131 91c-67 69 -101 155 -101 259c0 103 34 189 101 258c69 70 157 105 263 105s194 -35 263 -105c67 -69 101 -155 101 -258c0 -104 -34 -190 -101 -259c-69 -69 -156 -104 -263 -104s-194 35 -263 104zM238 515c-41 -44 -61 -99 -61 -165c0 -67 20 -123 61 -166
s93 -65 156 -65s115 22 156 65s61 99 61 166c0 66 -20 121 -61 165s-93 66 -156 66s-115 -22 -156 -66zM421 756l-27 39l-27 -39h-83l64 95h92l64 -95h-83z" />
    <glyph glyph-name="Otilde045" unicode="&#xd5;" horiz-adv-x="788" 
d="M131 91c-67 69 -101 155 -101 259c0 103 34 189 101 258c69 70 157 105 263 105s194 -35 263 -105c67 -69 101 -155 101 -258c0 -104 -34 -190 -101 -259c-69 -69 -156 -104 -263 -104s-194 35 -263 104zM238 515c-41 -44 -61 -99 -61 -165c0 -67 20 -123 61 -166
s93 -65 156 -65s115 22 156 65s61 99 61 166c0 66 -20 121 -61 165s-93 66 -156 66s-115 -22 -156 -66zM393 776l-10 5l-10 4c-7 3 -13 4 -18 4c-15 0 -22 -9 -22 -26h-59c0 27 7 49 20 66c14 17 32 26 55 26c14 0 30 -4 48 -13l10 -5l9 -4c7 -3 12 -4 17 -4
c15 0 22 9 22 26h60c0 -28 -7 -50 -21 -66c-13 -17 -31 -25 -53 -25c-13 0 -29 4 -48 12z" />
    <glyph glyph-name="Odieresis030" unicode="&#xd6;" horiz-adv-x="789" 
d="M131 91c-67 69 -101 155 -101 259c0 103 34 189 101 258c69 70 157 105 263 105s194 -35 263 -105c67 -69 101 -155 101 -258c0 -104 -34 -190 -101 -259c-69 -69 -156 -104 -263 -104s-194 35 -263 104zM238 515c-41 -44 -61 -99 -61 -165c0 -67 20 -123 61 -166
s93 -65 156 -65s115 22 156 65s61 99 61 166c0 66 -20 121 -61 165s-93 66 -156 66s-115 -22 -156 -66zM252 764c-13 13 -19 29 -19 48s6 35 19 48s30 20 49 20s36 -7 49 -20s19 -29 19 -48s-6 -35 -19 -48s-30 -20 -49 -20c-20 0 -36 7 -49 20zM444 764
c-13 13 -19 29 -19 48s6 35 19 48s29 20 49 20c19 0 36 -7 49 -20s19 -29 19 -48s-6 -35 -19 -48s-30 -20 -49 -20c-20 0 -36 7 -49 20z" />
    <glyph glyph-name="multiply" unicode="&#xd7;" horiz-adv-x="529" 
d="M415 69l-152 162l-152 -162l-78 78l154 163l-154 163l78 78l152 -162l152 162l78 -78l-154 -163l154 -163z" />
    <glyph glyph-name="Oslash" unicode="&#xd8;" horiz-adv-x="788" 
d="M203 35l-47 -59l-75 60l47 59c-65 67 -98 152 -98 255s34 189 101 258c69 70 157 105 263 105c68 0 130 -16 187 -47l46 58l76 -60l-46 -57c67 -69 101 -154 101 -257c0 -104 -34 -190 -101 -259c-69 -69 -156 -104 -263 -104c-71 0 -135 16 -191 48zM567 493l-277 -349
c31 -17 66 -25 104 -25c63 0 115 22 156 65s61 99 61 166c0 55 -15 102 -44 143zM238 515c-41 -44 -61 -99 -61 -165c0 -54 14 -101 41 -141l276 348c-31 16 -64 24 -100 24c-63 0 -115 -22 -156 -66z" />
    <glyph glyph-name="Ugrave042" unicode="&#xd9;" horiz-adv-x="692" 
d="M137 63c-49 49 -73 116 -73 200v437h141v-437c0 -45 12 -80 37 -106s59 -39 104 -39s79 13 104 39s37 61 37 106v437h141v-437c0 -84 -24 -151 -73 -200c-50 -51 -120 -76 -209 -76s-159 25 -209 76zM362 854l41 -96h-82l-71 96h112z" />
    <glyph glyph-name="Uacute036" unicode="&#xda;" horiz-adv-x="692" 
d="M137 63c-49 49 -73 116 -73 200v437h141v-437c0 -45 12 -80 37 -106s59 -39 104 -39s79 13 104 39s37 61 37 106v437h141v-437c0 -84 -24 -151 -73 -200c-50 -51 -120 -76 -209 -76s-159 25 -209 76zM293 758l42 99h118l-72 -99h-88z" />
    <glyph glyph-name="Ucircumflex049" unicode="&#xdb;" horiz-adv-x="692" 
d="M137 63c-49 49 -73 116 -73 200v437h141v-437c0 -45 12 -80 37 -106s59 -39 104 -39s79 13 104 39s37 61 37 106v437h141v-437c0 -84 -24 -151 -73 -200c-50 -51 -120 -76 -209 -76s-159 25 -209 76zM373 756l-27 39l-27 -39h-83l64 95h92l64 -95h-83z" />
    <glyph glyph-name="Udieresis031" unicode="&#xdc;" horiz-adv-x="692" 
d="M555 63c-50 -51 -120 -76 -209 -76s-159 25 -209 76c-49 49 -73 116 -73 200v437h141v-437c0 -45 12 -80 37 -106s59 -39 104 -39s79 13 104 39s37 61 37 106v437h141v-437c0 -84 -24 -151 -73 -200zM204 764c13 -13 29 -20 49 -20c19 0 36 7 49 20s19 29 19 48
s-6 35 -19 48s-30 20 -49 20s-36 -7 -49 -20s-19 -29 -19 -48s6 -35 19 -48zM396 764c13 -13 29 -20 49 -20c19 0 36 7 49 20s19 29 19 48s-6 35 -19 48s-30 20 -49 20c-20 0 -36 -7 -49 -20s-19 -29 -19 -48s6 -35 19 -48z" />
    <glyph glyph-name="Yacute" unicode="&#xdd;" horiz-adv-x="584" 
d="M222 0v320l-215 380h159l126 -251l126 251h159l-215 -380v-320h-140zM239 758l42 99h118l-72 -99h-88z" />
    <glyph glyph-name="Thorn" unicode="&#xde;" horiz-adv-x="542" 
d="M67 0v700h141v-123h82c69 0 124 -20 166 -59c43 -40 64 -93 64 -159c0 -65 -22 -118 -65 -159s-98 -62 -164 -62h-83v-138h-141zM208 260h63c31 0 56 9 75 27c19 19 29 43 29 72s-10 52 -29 70c-19 17 -43 26 -73 26h-65v-195z" />
    <glyph glyph-name="germandbls" unicode="&#xdf;" horiz-adv-x="560" 
d="M421 679c37 -29 56 -69 56 -122c0 -27 -7 -52 -22 -75c-12 -19 -26 -33 -43 -42c83 -40 124 -106 124 -199c0 -73 -26 -132 -78 -176c-51 -43 -120 -65 -206 -65v116c45 0 80 11 106 33c27 23 40 54 40 93c0 41 -14 72 -43 94c-26 19 -60 29 -103 29v110
c60 0 90 23 90 69c0 17 -6 32 -19 44c-14 13 -33 19 -57 19c-49 0 -74 -24 -74 -73v-534h-138v542c0 63 21 109 62 140c35 27 84 41 145 41c69 0 122 -15 160 -44z" />
    <glyph glyph-name="Agrave" unicode="&#xe0;" horiz-adv-x="526" 
d="M80 287c37 32 86 48 147 48c24 0 47 -3 69 -10c18 -5 33 -11 44 -19v34c0 23 -8 42 -25 56s-40 21 -70 21c-45 0 -91 -12 -139 -37l-52 94c61 41 129 62 206 62c145 0 218 -68 218 -205v-331h-122l-9 34c-29 -31 -72 -47 -127 -47s-101 15 -138 46c-39 33 -58 76 -58 129
c0 51 19 93 56 125zM188 114c17 -13 39 -20 65 -20c27 0 48 7 65 20s25 30 25 52c0 23 -9 41 -26 54c-16 13 -38 19 -65 19s-48 -7 -65 -20c-17 -14 -25 -32 -25 -53s9 -39 26 -52zM258 677l41 -96h-82l-71 96h112z" />
    <glyph glyph-name="Aacute" unicode="&#xe1;" horiz-adv-x="526" 
d="M80 287c37 32 86 48 147 48c24 0 47 -3 69 -10c18 -5 33 -11 44 -19v34c0 23 -8 42 -25 56s-40 21 -70 21c-45 0 -91 -12 -139 -37l-52 94c61 41 129 62 206 62c145 0 218 -68 218 -205v-331h-122l-9 34c-29 -31 -72 -47 -127 -47s-101 15 -138 46c-39 33 -58 76 -58 129
c0 51 19 93 56 125zM188 114c17 -13 39 -20 65 -20c27 0 48 7 65 20s25 30 25 52c0 23 -9 41 -26 54c-16 13 -38 19 -65 19s-48 -7 -65 -20c-17 -14 -25 -32 -25 -53s9 -39 26 -52zM187 581l42 99h118l-72 -99h-88z" />
    <glyph glyph-name="Acircumflex" unicode="&#xe2;" horiz-adv-x="526" 
d="M80 287c37 32 86 48 147 48c24 0 47 -3 69 -10c18 -5 33 -11 44 -19v34c0 23 -8 42 -25 56s-40 21 -70 21c-45 0 -91 -12 -139 -37l-52 94c61 41 129 62 206 62c145 0 218 -68 218 -205v-331h-122l-9 34c-29 -31 -72 -47 -127 -47s-101 15 -138 46c-39 33 -58 76 -58 129
c0 51 19 93 56 125zM188 114c17 -13 39 -20 65 -20c27 0 48 7 65 20s25 30 25 52c0 23 -9 41 -26 54c-16 13 -38 19 -65 19s-48 -7 -65 -20c-17 -14 -25 -32 -25 -53s9 -39 26 -52zM278 579l-27 39l-27 -39h-83l64 95h92l64 -95h-83z" />
    <glyph glyph-name="Atilde" unicode="&#xe3;" horiz-adv-x="526" 
d="M80 287c37 32 86 48 147 48c24 0 47 -3 69 -10c18 -5 33 -11 44 -19v34c0 23 -8 42 -25 56s-40 21 -70 21c-45 0 -91 -12 -139 -37l-52 94c61 41 129 62 206 62c145 0 218 -68 218 -205v-331h-122l-9 34c-29 -31 -72 -47 -127 -47s-101 15 -138 46c-39 33 -58 76 -58 129
c0 51 19 93 56 125zM188 114c17 -13 39 -20 65 -20c27 0 48 7 65 20s25 30 25 52c0 23 -9 41 -26 54c-16 13 -38 19 -65 19s-48 -7 -65 -20c-17 -14 -25 -32 -25 -53s9 -39 26 -52zM250 599l-10 5l-10 4c-7 3 -13 4 -18 4c-15 0 -22 -9 -22 -26h-59c0 27 7 49 20 66
c14 17 32 26 55 26c14 0 30 -4 48 -13l10 -5l9 -4c7 -3 12 -4 17 -4c15 0 22 9 22 26h60c0 -28 -7 -50 -21 -66c-13 -17 -31 -25 -53 -25c-13 0 -29 4 -48 12z" />
    <glyph glyph-name="Adieresis" unicode="&#xe4;" horiz-adv-x="526" 
d="M80 287c37 32 86 48 147 48c24 0 47 -3 69 -10c18 -5 33 -11 44 -19v34c0 23 -8 42 -25 56s-40 21 -70 21c-45 0 -91 -12 -139 -37l-52 94c61 41 129 62 206 62c145 0 218 -68 218 -205v-331h-122l-9 34c-29 -31 -72 -47 -127 -47s-101 15 -138 46c-39 33 -58 76 -58 129
c0 51 19 93 56 125zM188 114c17 -13 39 -20 65 -20c27 0 48 7 65 20s25 30 25 52c0 23 -9 41 -26 54c-16 13 -38 19 -65 19s-48 -7 -65 -20c-17 -14 -25 -32 -25 -53s9 -39 26 -52zM123 605c-13 13 -19 29 -19 48s6 35 19 48s30 20 49 20s36 -7 49 -20s19 -29 19 -48
s-6 -35 -19 -48s-30 -20 -49 -20c-20 0 -36 7 -49 20zM315 605c-13 13 -19 29 -19 48s6 35 19 48s29 20 49 20c19 0 36 -7 49 -20s19 -29 19 -48s-6 -35 -19 -48s-30 -20 -49 -20c-20 0 -36 7 -49 20z" />
    <glyph glyph-name="Aring" unicode="&#xe5;" horiz-adv-x="526" 
d="M80 287c37 32 86 48 147 48c24 0 47 -3 69 -10c18 -5 33 -11 44 -19v34c0 23 -8 42 -25 56s-40 21 -70 21c-45 0 -91 -12 -139 -37l-52 94c61 41 129 62 206 62c145 0 218 -68 218 -205v-331h-122l-9 34c-29 -31 -72 -47 -127 -47s-101 15 -138 46c-39 33 -58 76 -58 129
c0 51 19 93 56 125zM188 114c17 -13 39 -20 65 -20c27 0 48 7 65 20s25 30 25 52c0 23 -9 41 -26 54c-16 13 -38 19 -65 19s-48 -7 -65 -20c-17 -14 -25 -32 -25 -53s9 -39 26 -52zM192 592c-21 19 -31 42 -31 71s10 53 31 72c19 18 44 27 75 27s57 -9 77 -27
c21 -19 31 -42 31 -71s-10 -53 -31 -72c-20 -19 -46 -28 -77 -28c-30 0 -55 9 -75 28zM306 664c0 25 -13 38 -38 38s-38 -13 -38 -39s13 -39 38 -39s38 13 38 40z" />
    <glyph glyph-name="AE108" unicode="&#xe6;" horiz-adv-x="870" 
d="M188 114c17 -13 39 -20 65 -20s47 7 64 20s25 30 25 52c0 23 -8 41 -25 54s-38 19 -65 19s-48 -7 -65 -20c-17 -14 -25 -32 -25 -53s9 -39 26 -52zM482 317h224c-1 32 -12 58 -33 77s-47 29 -79 29c-31 0 -57 -10 -78 -30c-19 -20 -31 -45 -34 -76zM846 227h-368
c1 -35 15 -64 40 -86c25 -23 57 -34 96 -34c31 0 60 8 85 24c9 6 18 13 26 21c6 6 11 12 16 19l91 -69c-6 -11 -14 -22 -25 -34c-13 -14 -27 -26 -44 -37c-43 -29 -94 -44 -151 -44c-91 0 -161 29 -208 87c-37 -58 -99 -87 -184 -87c-55 0 -101 15 -138 46
c-39 33 -58 76 -58 129c0 51 19 93 56 125s86 48 147 48c24 0 47 -3 69 -10c18 -5 33 -11 44 -19v34c0 23 -8 42 -25 56s-40 21 -70 21c-45 0 -91 -12 -139 -37l-26 47l-26 47c63 41 132 62 206 62c77 0 133 -22 167 -66c44 44 99 66 165 66c81 0 144 -25 189 -75
c44 -49 66 -117 66 -204c0 -13 0 -23 -1 -30z" />
    <glyph glyph-name="Ccedilla" unicode="&#xe7;" horiz-adv-x="490" 
d="M220 -230c-10 2 -18 4 -25 6l16 71l7 -2l8 -1c6 -1 12 -2 18 -2c29 0 43 11 43 33c0 21 -17 31 -50 31c-5 0 -11 -1 -17 -2l13 91c-63 13 -113 44 -151 92s-57 106 -57 173c0 79 26 145 79 198c53 52 120 78 199 78c35 0 68 -6 99 -18c23 -9 45 -22 66 -38l-39 -116
c-15 14 -31 25 -47 33c-24 11 -49 17 -75 17c-43 0 -78 -15 -105 -45c-26 -29 -39 -65 -39 -108c0 -45 14 -81 42 -109c28 -29 64 -43 107 -43c23 0 47 5 70 16c9 5 18 10 27 16l21 15l37 -113c-19 -15 -40 -28 -64 -37c-32 -13 -65 -19 -99 -19l-4 -26c24 -5 43 -16 56 -33
s20 -36 20 -59c0 -31 -12 -56 -36 -75c-23 -18 -52 -27 -87 -27c-9 0 -20 1 -33 3z" />
    <glyph glyph-name="Egrave" unicode="&#xe8;" horiz-adv-x="559" 
d="M98 457c49 53 110 79 184 79c80 0 143 -25 188 -75c44 -49 66 -117 66 -204c0 -13 0 -23 -1 -30h-368c1 -35 15 -64 40 -86c25 -23 57 -34 96 -34c31 0 60 8 85 24c9 6 18 13 26 21c6 6 11 12 16 19l91 -69c-6 -11 -14 -22 -25 -34c-13 -14 -27 -26 -44 -37
c-43 -29 -94 -44 -151 -44c-83 0 -149 26 -200 78c-50 50 -75 115 -75 195c0 79 24 145 72 197zM171 317h225c-1 32 -12 58 -33 77s-47 29 -79 29s-58 -10 -79 -30c-19 -20 -31 -45 -34 -76zM297 677l41 -96h-82l-71 96h112z" />
    <glyph glyph-name="Eacute" unicode="&#xe9;" horiz-adv-x="559" 
d="M98 457c49 53 110 79 184 79c80 0 143 -25 188 -75c44 -49 66 -117 66 -204c0 -13 0 -23 -1 -30h-368c1 -35 15 -64 40 -86c25 -23 57 -34 96 -34c31 0 60 8 85 24c9 6 18 13 26 21c6 6 11 12 16 19l91 -69c-6 -11 -14 -22 -25 -34c-13 -14 -27 -26 -44 -37
c-43 -29 -94 -44 -151 -44c-83 0 -149 26 -200 78c-50 50 -75 115 -75 195c0 79 24 145 72 197zM171 317h225c-1 32 -12 58 -33 77s-47 29 -79 29s-58 -10 -79 -30c-19 -20 -31 -45 -34 -76zM228 581l42 99h118l-72 -99h-88z" />
    <glyph glyph-name="Ecircumflex" unicode="&#xea;" horiz-adv-x="559" 
d="M98 457c49 53 110 79 184 79c80 0 143 -25 188 -75c44 -49 66 -117 66 -204c0 -13 0 -23 -1 -30h-368c1 -35 15 -64 40 -86c25 -23 57 -34 96 -34c31 0 60 8 85 24c9 6 18 13 26 21c6 6 11 12 16 19l91 -69c-6 -11 -14 -22 -25 -34c-13 -14 -27 -26 -44 -37
c-43 -29 -94 -44 -151 -44c-83 0 -149 26 -200 78c-50 50 -75 115 -75 195c0 79 24 145 72 197zM171 317h225c-1 32 -12 58 -33 77s-47 29 -79 29s-58 -10 -79 -30c-19 -20 -31 -45 -34 -76zM308 579l-27 39l-27 -39h-83l64 95h92l64 -95h-83z" />
    <glyph glyph-name="Edieresis" unicode="&#xeb;" horiz-adv-x="559" 
d="M98 457c49 53 110 79 184 79c80 0 143 -25 188 -75c44 -49 66 -117 66 -204c0 -13 0 -23 -1 -30h-368c1 -35 15 -64 40 -86c25 -23 57 -34 96 -34c31 0 60 8 85 24c9 6 18 13 26 21c6 6 11 12 16 19l91 -69c-6 -11 -14 -22 -25 -34c-13 -14 -27 -26 -44 -37
c-43 -29 -94 -44 -151 -44c-83 0 -149 26 -200 78c-50 50 -75 115 -75 195c0 79 24 145 72 197zM171 317h225c-1 32 -12 58 -33 77s-47 29 -79 29s-58 -10 -79 -30c-19 -20 -31 -45 -34 -76zM143 605c-13 13 -19 29 -19 48s6 35 19 48s30 20 49 20s36 -7 49 -20
s19 -29 19 -48s-6 -35 -19 -48s-30 -20 -49 -20c-20 0 -36 7 -49 20zM335 605c-13 13 -19 29 -19 48s6 35 19 48s29 20 49 20c19 0 36 -7 49 -20s19 -29 19 -48s-6 -35 -19 -48s-30 -20 -49 -20c-20 0 -36 7 -49 20z" />
    <glyph glyph-name="Igrave101" unicode="&#xec;" horiz-adv-x="247" 
d="M54 0v523h138v-523h-138zM139 677l41 -96h-82l-71 96h112z" />
    <glyph glyph-name="Iacute098" unicode="&#xed;" horiz-adv-x="247" 
d="M54 0v523h138v-523h-138zM70 581l42 99h118l-72 -99h-88z" />
    <glyph glyph-name="Icircumflex100" unicode="&#xee;" horiz-adv-x="247" 
d="M54 0v523h138v-523h-138zM150 579l-27 39l-27 -39h-83l64 95h92l64 -95h-83z" />
    <glyph glyph-name="Idieresis099" unicode="&#xef;" horiz-adv-x="247" 
d="M-18 605c-13 13 -19 29 -19 48s6 35 19 48s30 20 49 20s36 -7 49 -20s19 -29 19 -48s-6 -35 -19 -48s-30 -20 -49 -20c-20 0 -36 7 -49 20zM174 605c-13 13 -19 29 -19 48s6 35 19 48s29 20 49 20c19 0 36 -7 49 -20s19 -29 19 -48s-6 -35 -19 -48s-30 -20 -49 -20
c-20 0 -36 7 -49 20zM54 0v523h138v-523h-138z" />
    <glyph glyph-name="Eth027" unicode="&#xf0;" horiz-adv-x="588" 
d="M98 431c47 46 106 69 175 69c22 0 42 -3 59 -8c-15 24 -36 46 -63 65l-159 -57l-12 87l91 34c-25 18 -54 36 -85 54l79 69c43 -19 90 -44 140 -77l132 50l13 -90l-70 -26c107 -96 161 -204 161 -325c0 -83 -21 -150 -64 -201c-48 -59 -116 -88 -205 -88
c-79 0 -144 26 -193 77c-48 49 -72 111 -72 186c0 73 24 134 73 181zM196 150c23 -28 54 -42 93 -42c43 0 76 14 99 43c22 26 33 60 33 103c0 37 -11 68 -34 94c-24 26 -55 39 -92 39c-41 0 -74 -13 -98 -40c-23 -25 -34 -58 -34 -97c0 -41 11 -74 33 -100z" />
    <glyph glyph-name="Ntilde" unicode="&#xf1;" horiz-adv-x="560" 
d="M475 461c23 -39 35 -92 35 -159v-302h-138v318c0 28 -9 51 -26 69c-17 17 -37 25 -61 25c-28 0 -51 -9 -68 -28c-17 -18 -25 -41 -25 -70v-314h-138v523h135v-61c13 20 30 37 53 51c27 15 56 23 87 23c67 0 116 -25 146 -75zM281 599l-10 5l-10 4c-7 3 -13 4 -18 4
c-15 0 -22 -9 -22 -26h-59c0 27 7 49 20 66c14 17 32 26 55 26c14 0 30 -4 48 -13l10 -5l9 -4c7 -3 12 -4 17 -4c15 0 22 9 22 26h60c0 -28 -7 -50 -21 -66c-13 -17 -31 -25 -53 -25c-13 0 -29 4 -48 12z" />
    <glyph glyph-name="Ograve" unicode="&#xf2;" 
d="M106 458c53 52 120 78 200 78s147 -26 201 -79s81 -118 81 -197s-26 -145 -79 -196s-121 -77 -203 -77c-81 0 -149 26 -202 77s-79 117 -79 196s27 145 81 198zM204 151c27 -28 61 -42 102 -42c42 0 76 14 103 42c27 29 41 65 41 109c0 45 -14 81 -41 110s-62 44 -103 44
s-76 -14 -103 -43s-40 -66 -40 -111c0 -44 14 -80 41 -109zM323 677l41 -96h-82l-71 96h112z" />
    <glyph glyph-name="Oacute" unicode="&#xf3;" 
d="M106 458c53 52 120 78 200 78s147 -26 201 -79s81 -118 81 -197s-26 -145 -79 -196s-121 -77 -203 -77c-81 0 -149 26 -202 77s-79 117 -79 196s27 145 81 198zM204 151c27 -28 61 -42 102 -42c42 0 76 14 103 42c27 29 41 65 41 109c0 45 -14 81 -41 110s-62 44 -103 44
s-76 -14 -103 -43s-40 -66 -40 -111c0 -44 14 -80 41 -109zM253 581l42 99h118l-72 -99h-88z" />
    <glyph glyph-name="Ocircumflex" unicode="&#xf4;" 
d="M106 458c53 52 120 78 200 78s147 -26 201 -79s81 -118 81 -197s-26 -145 -79 -196s-121 -77 -203 -77c-81 0 -149 26 -202 77s-79 117 -79 196s27 145 81 198zM204 151c27 -28 61 -42 102 -42c42 0 76 14 103 42c27 29 41 65 41 109c0 45 -14 81 -41 110s-62 44 -103 44
s-76 -14 -103 -43s-40 -66 -40 -111c0 -44 14 -80 41 -109zM334 579l-27 39l-28 -39h-83l65 95h91l65 -95h-83z" />
    <glyph glyph-name="Otilde" unicode="&#xf5;" 
d="M106 458c53 52 120 78 200 78s147 -26 201 -79s81 -118 81 -197s-26 -145 -79 -196s-121 -77 -203 -77c-81 0 -149 26 -202 77s-79 117 -79 196s27 145 81 198zM204 151c27 -28 61 -42 102 -42c42 0 76 14 103 42c27 29 41 65 41 109c0 45 -14 81 -41 110s-62 44 -103 44
s-76 -14 -103 -43s-40 -66 -40 -111c0 -44 14 -80 41 -109zM305 599l-10 5l-9 4c-7 3 -14 4 -19 4c-14 0 -21 -9 -21 -26h-60c0 27 7 49 21 66c13 17 31 26 54 26c14 0 30 -4 48 -13l10 -5l9 -4c7 -3 13 -4 18 -4c14 0 21 9 21 26h60c0 -28 -7 -50 -20 -66
c-13 -17 -31 -25 -54 -25c-13 0 -29 4 -48 12z" />
    <glyph glyph-name="Odieresis" unicode="&#xf6;" 
d="M106 458c53 52 120 78 200 78s147 -26 201 -79s81 -118 81 -197s-26 -145 -79 -196s-121 -77 -203 -77c-81 0 -149 26 -202 77s-79 117 -79 196s27 145 81 198zM204 151c27 -28 61 -42 102 -42c42 0 76 14 103 42c27 29 41 65 41 109c0 45 -14 81 -41 110s-62 44 -103 44
s-76 -14 -103 -43s-40 -66 -40 -111c0 -44 14 -80 41 -109zM165 605c-13 13 -19 29 -19 48s6 35 19 48s30 20 49 20s36 -7 49 -20s19 -29 19 -48s-6 -35 -19 -48s-30 -20 -49 -20c-20 0 -36 7 -49 20zM357 605c-13 13 -19 29 -19 48s6 35 19 48s29 20 49 20
c19 0 36 -7 49 -20s19 -29 19 -48s-6 -35 -19 -48s-30 -20 -49 -20c-20 0 -36 7 -49 20z" />
    <glyph glyph-name="divide" unicode="&#xf7;" horiz-adv-x="551" 
d="M225 452c-14 13 -21 30 -21 49c0 20 7 37 21 52c13 14 30 21 50 21s37 -7 51 -21c14 -15 21 -32 21 -52c0 -19 -7 -36 -21 -49c-14 -14 -31 -21 -51 -21s-37 7 -50 21zM225 70c-14 14 -21 31 -21 50c0 20 7 37 21 51c13 14 30 21 50 21s37 -7 51 -21s21 -31 21 -51
c0 -19 -7 -36 -21 -50s-31 -21 -51 -21s-37 7 -50 21zM37 256v111h477v-111h-477z" />
    <glyph glyph-name="Oslash109" unicode="&#xf8;" 
d="M106 458c53 52 120 78 200 78c51 0 97 -11 139 -34l38 48l66 -51l-37 -47c51 -53 76 -117 76 -192c0 -79 -26 -145 -79 -196s-121 -77 -203 -77c-50 0 -96 10 -137 31l-39 -50l-65 51l37 47c-51 53 -77 117 -77 194c0 79 27 145 81 198zM186 173l180 228
c-19 9 -39 13 -60 13c-41 0 -76 -14 -103 -43s-40 -66 -40 -111c0 -33 8 -62 23 -87zM428 345l-178 -226c16 -7 35 -10 56 -10c42 0 76 14 103 42c27 29 41 65 41 109c0 31 -7 60 -22 85z" />
    <glyph glyph-name="Ugrave" unicode="&#xf9;" horiz-adv-x="556" 
d="M85 62c-23 39 -35 92 -35 159v302h138v-318c0 -28 9 -51 26 -69c17 -17 37 -25 61 -25c28 0 51 9 68 28c17 18 25 41 25 70v314h138v-523h-135v61c-13 -20 -30 -37 -53 -50c-27 -16 -56 -24 -87 -24c-67 0 -116 25 -146 75zM294 677l41 -96h-82l-71 96h112z" />
    <glyph glyph-name="Uacute" unicode="&#xfa;" horiz-adv-x="556" 
d="M85 62c-23 39 -35 92 -35 159v302h138v-318c0 -28 9 -51 26 -69c17 -17 37 -25 61 -25c28 0 51 9 68 28c17 18 25 41 25 70v314h138v-523h-135v61c-13 -20 -30 -37 -53 -50c-27 -16 -56 -24 -87 -24c-67 0 -116 25 -146 75zM225 581l42 99h118l-72 -99h-88z" />
    <glyph glyph-name="Ucircumflex" unicode="&#xfb;" horiz-adv-x="556" 
d="M85 62c-23 39 -35 92 -35 159v302h138v-318c0 -28 9 -51 26 -69c17 -17 37 -25 61 -25c28 0 51 9 68 28c17 18 25 41 25 70v314h138v-523h-135v61c-13 -20 -30 -37 -53 -50c-27 -16 -56 -24 -87 -24c-67 0 -116 25 -146 75zM305 579l-27 39l-27 -39h-83l64 95h92l64 -95
h-83z" />
    <glyph glyph-name="Udieresis" unicode="&#xfc;" horiz-adv-x="556" 
d="M85 62c-23 39 -35 92 -35 159v302h138v-318c0 -28 9 -51 26 -69c17 -17 37 -25 61 -25c28 0 51 9 68 28c17 18 25 41 25 70v314h138v-523h-135v61c-13 -20 -30 -37 -53 -50c-27 -16 -56 -24 -87 -24c-67 0 -116 25 -146 75zM139 605c-13 13 -19 29 -19 48s6 35 19 48
s30 20 49 20s36 -7 49 -20s19 -29 19 -48s-6 -35 -19 -48s-30 -20 -49 -20c-20 0 -36 7 -49 20zM331 605c-13 13 -19 29 -19 48s6 35 19 48s29 20 49 20c19 0 36 -7 49 -20s19 -29 19 -48s-6 -35 -19 -48s-30 -20 -49 -20c-20 0 -36 7 -49 20z" />
    <glyph glyph-name="Yacute051" unicode="&#xfd;" horiz-adv-x="540" 
d="M266 -179h-132l73 192l-201 510h148l117 -341l118 341h144zM216 581l42 99h118l-72 -99h-88z" />
    <glyph glyph-name="Thorn028" unicode="&#xfe;" horiz-adv-x="621" 
d="M54 -187v910h138v-247c6 6 13 12 20 18c9 7 20 14 31 20c29 15 61 22 96 22c75 0 136 -26 184 -77s72 -117 72 -197c0 -81 -23 -147 -68 -198s-105 -77 -180 -77c-39 0 -74 9 -106 27c-12 7 -23 14 -32 22c-7 7 -13 13 -17 18v-241h-138zM227 149c24 -27 56 -40 95 -40
c40 0 72 14 97 43s37 66 37 111s-13 82 -38 110c-25 27 -57 41 -96 41c-41 0 -73 -15 -98 -44c-24 -29 -36 -64 -36 -107c0 -48 13 -86 39 -114z" />
    <glyph glyph-name="Ydieresis" unicode="&#xff;" horiz-adv-x="540" 
d="M266 -179h-132l73 192l-201 510h148l117 -341l118 341h144zM127 605c-13 13 -19 29 -19 48s6 35 19 48s30 20 49 20s36 -7 49 -20s19 -29 19 -48s-6 -35 -19 -48s-30 -20 -49 -20c-20 0 -36 7 -49 20zM319 605c-13 13 -19 29 -19 48s6 35 19 48s29 20 49 20
c19 0 36 -7 49 -20s19 -29 19 -48s-6 -35 -19 -48s-30 -20 -49 -20c-20 0 -36 7 -49 20z" />
    <glyph glyph-name="Amacron" unicode="&#x100;" horiz-adv-x="660" 
d="M449 180h-238l-61 -180h-142l248 700h148l248 -700h-142zM412 297l-82 252l-81 -252h163zM196 751v101h268v-101h-268z" />
    <glyph glyph-name="Amacron052" unicode="&#x101;" horiz-adv-x="526" 
d="M80 287c37 32 86 48 147 48c24 0 47 -3 69 -10c18 -5 33 -11 44 -19v34c0 23 -8 42 -25 56s-40 21 -70 21c-45 0 -91 -12 -139 -37l-52 94c61 41 129 62 206 62c145 0 218 -68 218 -205v-331h-122l-9 34c-29 -31 -72 -47 -127 -47s-101 15 -138 46c-39 33 -58 76 -58 129
c0 51 19 93 56 125zM188 114c17 -13 39 -20 65 -20c27 0 48 7 65 20s25 30 25 52c0 23 -9 41 -26 54c-16 13 -38 19 -65 19s-48 -7 -65 -20c-17 -14 -25 -32 -25 -53s9 -39 26 -52zM133 603v101h268v-101h-268z" />
    <glyph glyph-name="Abreve" unicode="&#x102;" horiz-adv-x="660" 
d="M449 180h-238l-61 -180h-142l248 700h148l248 -700h-142zM412 297l-82 252l-81 -252h163zM255 760c-18 17 -27 42 -27 74h73c0 -27 10 -40 29 -40s29 13 29 40h74c0 -32 -9 -57 -27 -74c-19 -19 -44 -28 -76 -28c-31 0 -56 9 -75 28z" />
    <glyph glyph-name="Abreve053" unicode="&#x103;" horiz-adv-x="526" 
d="M80 287c37 32 86 48 147 48c24 0 47 -3 69 -10c18 -5 33 -11 44 -19v34c0 23 -8 42 -25 56s-40 21 -70 21c-45 0 -91 -12 -139 -37l-52 94c61 41 129 62 206 62c145 0 218 -68 218 -205v-331h-122l-9 34c-29 -31 -72 -47 -127 -47s-101 15 -138 46c-39 33 -58 76 -58 129
c0 51 19 93 56 125zM188 114c17 -13 39 -20 65 -20c27 0 48 7 65 20s25 30 25 52c0 23 -9 41 -26 54c-16 13 -38 19 -65 19s-48 -7 -65 -20c-17 -14 -25 -32 -25 -53s9 -39 26 -52zM175 603c-17 18 -26 43 -26 75h73c0 -27 10 -40 29 -40s29 13 29 40h74
c0 -32 -9 -57 -27 -75c-19 -18 -44 -27 -76 -27s-57 9 -76 27z" />
    <glyph glyph-name="Aogonek" unicode="&#x104;" horiz-adv-x="660" 
d="M510 -38c14 17 31 29 50 38h-50l-61 180h-238l-61 -180h-142l248 700h148l248 -700l-6 -3c-3 -1 -5 -3 -8 -4c-7 -4 -13 -8 -18 -13c-15 -13 -23 -28 -23 -44c0 -13 6 -23 17 -30c10 -7 22 -10 35 -10v-98c-9 -3 -21 -4 -35 -4c-37 0 -67 6 -89 19c-28 17 -42 43 -42 79
c0 25 9 49 27 70zM412 297l-82 252l-81 -252h163z" />
    <glyph glyph-name="Aogonek110" unicode="&#x105;" horiz-adv-x="526" 
d="M336 -38c14 17 31 29 50 38h-30l-9 34c-29 -31 -72 -47 -127 -47s-101 15 -138 46c-39 33 -58 76 -58 129c0 51 19 93 56 125s86 48 147 48c24 0 47 -3 69 -10c18 -5 33 -11 44 -19v34c0 23 -8 42 -25 56s-40 21 -70 21c-45 0 -91 -12 -139 -37l-52 94
c61 41 129 62 206 62c145 0 218 -68 218 -205v-331l-6 -3c-3 -1 -5 -3 -8 -4c-7 -4 -13 -8 -18 -13c-15 -13 -23 -28 -23 -44c0 -13 6 -23 17 -30c10 -7 22 -10 35 -10v-98c-9 -3 -21 -4 -35 -4c-37 0 -67 6 -89 19c-28 17 -42 43 -42 79c0 25 9 49 27 70zM188 114
c17 -13 39 -20 65 -20c27 0 48 7 65 20s25 30 25 52c0 23 -9 41 -26 54c-16 13 -38 19 -65 19s-48 -7 -65 -20c-17 -14 -25 -32 -25 -53s9 -39 26 -52z" />
    <glyph glyph-name="Cacute" unicode="&#x106;" horiz-adv-x="638" 
d="M130 91c-67 68 -100 154 -100 259c0 103 34 190 103 259s157 104 262 104c81 0 150 -21 208 -64l-40 -124c-21 15 -45 27 -70 37c-33 13 -66 19 -98 19c-63 0 -116 -22 -157 -66s-61 -99 -61 -165c0 -67 20 -123 61 -166s94 -65 157 -65c34 0 68 7 103 20
c26 10 50 22 71 37l40 -123c-25 -19 -53 -34 -84 -45c-41 -14 -84 -21 -130 -21c-108 0 -196 35 -265 104zM266 758l42 99h118l-72 -99h-88z" />
    <glyph glyph-name="Cacute056" unicode="&#x107;" horiz-adv-x="490" 
d="M382 125c9 5 18 10 27 16l21 15l37 -113c-19 -15 -40 -28 -64 -37c-32 -13 -65 -19 -99 -19c-81 0 -148 26 -201 77c-52 51 -78 117 -78 196s26 145 79 198c53 52 120 78 199 78c35 0 68 -6 99 -18c23 -9 45 -22 66 -38l-39 -116c-15 14 -31 25 -47 33
c-24 11 -49 17 -75 17c-43 0 -78 -15 -105 -45c-26 -29 -39 -65 -39 -108c0 -45 14 -81 42 -109c28 -29 64 -43 107 -43c23 0 47 5 70 16zM193 581l42 99h118l-72 -99h-88z" />
    <glyph glyph-name="Ccircumflex" unicode="&#x108;" horiz-adv-x="638" 
d="M130 91c-67 68 -100 154 -100 259c0 103 34 190 103 259s157 104 262 104c81 0 150 -21 208 -64l-40 -124c-21 15 -45 27 -70 37c-33 13 -66 19 -98 19c-63 0 -116 -22 -157 -66s-61 -99 -61 -165c0 -67 20 -123 61 -166s94 -65 157 -65c34 0 68 7 103 20
c26 10 50 22 71 37l40 -123c-25 -19 -53 -34 -84 -45c-41 -14 -84 -21 -130 -21c-108 0 -196 35 -265 104zM347 756l-27 39l-28 -39h-83l65 95h91l65 -95h-83z" />
    <glyph glyph-name="Ccircumflex057" unicode="&#x109;" horiz-adv-x="490" 
d="M382 125c9 5 18 10 27 16l21 15l37 -113c-19 -15 -40 -28 -64 -37c-32 -13 -65 -19 -99 -19c-81 0 -148 26 -201 77c-52 51 -78 117 -78 196s26 145 79 198c53 52 120 78 199 78c35 0 68 -6 99 -18c23 -9 45 -22 66 -38l-39 -116c-15 14 -31 25 -47 33
c-24 11 -49 17 -75 17c-43 0 -78 -15 -105 -45c-26 -29 -39 -65 -39 -108c0 -45 14 -81 42 -109c28 -29 64 -43 107 -43c23 0 47 5 70 16zM274 579l-27 39l-28 -39h-83l65 95h91l65 -95h-83z" />
    <glyph glyph-name="Cdotaccent" unicode="&#x10a;" horiz-adv-x="638" 
d="M130 91c-67 68 -100 154 -100 259c0 103 34 190 103 259s157 104 262 104c81 0 150 -21 208 -64l-40 -124c-21 15 -45 27 -70 37c-33 13 -66 19 -98 19c-63 0 -116 -22 -157 -66s-61 -99 -61 -165c0 -67 20 -123 61 -166s94 -65 157 -65c34 0 68 7 103 20
c26 10 50 22 71 37l40 -123c-25 -19 -53 -34 -84 -45c-41 -14 -84 -21 -130 -21c-108 0 -196 35 -265 104zM338 865c15 15 34 23 57 23s43 -8 58 -23s23 -33 23 -56s-8 -41 -23 -56s-35 -23 -58 -23s-42 8 -57 23s-23 33 -23 56s8 41 23 56z" />
    <glyph glyph-name="Cdotaccent058" unicode="&#x10b;" horiz-adv-x="490" 
d="M381 125c9 5 18 10 27 16l21 15l37 -113c-19 -15 -40 -28 -64 -37c-32 -13 -65 -19 -99 -19c-81 0 -148 26 -201 77c-52 51 -78 117 -78 196s26 145 79 198c53 52 120 78 199 78c35 0 68 -6 99 -18c23 -9 45 -22 66 -38l-39 -116c-15 14 -31 25 -47 33
c-24 11 -49 17 -75 17c-43 0 -78 -15 -105 -45c-26 -29 -39 -65 -39 -108c0 -45 14 -81 42 -109c28 -29 64 -43 107 -43c23 0 47 5 70 16zM244 705c15 15 34 23 57 23s43 -8 58 -23s23 -33 23 -56s-8 -41 -23 -56s-35 -23 -58 -23s-42 8 -57 23s-23 33 -23 56s8 41 23 56z
" />
    <glyph glyph-name="Ccaron" unicode="&#x10c;" horiz-adv-x="638" 
d="M130 91c-67 68 -100 154 -100 259c0 103 34 190 103 259s157 104 262 104c81 0 150 -21 208 -64l-40 -124c-21 15 -45 27 -70 37c-33 13 -66 19 -98 19c-63 0 -116 -22 -157 -66s-61 -99 -61 -165c0 -67 20 -123 61 -166s94 -65 157 -65c34 0 68 7 103 20
c26 10 50 22 71 37l40 -123c-25 -19 -53 -34 -84 -45c-41 -14 -84 -21 -130 -21c-108 0 -196 35 -265 104zM392 808l49 71h117l-95 -140h-142l-95 140h117z" />
    <glyph glyph-name="Ccaron059" unicode="&#x10d;" horiz-adv-x="490" 
d="M382 125c9 5 18 10 27 16l21 15l37 -113c-19 -15 -40 -28 -64 -37c-32 -13 -65 -19 -99 -19c-81 0 -148 26 -201 77c-52 51 -78 117 -78 196s26 145 79 198c53 52 120 78 199 78c35 0 68 -6 99 -18c23 -9 45 -22 66 -38l-39 -116c-15 14 -31 25 -47 33
c-24 11 -49 17 -75 17c-43 0 -78 -15 -105 -45c-26 -29 -39 -65 -39 -108c0 -45 14 -81 42 -109c28 -29 64 -43 107 -43c23 0 47 5 70 16zM295 653l49 71h117l-95 -140h-142l-95 140h117z" />
    <glyph glyph-name="dcaron060" unicode="&#x10e;" horiz-adv-x="655" 
d="M67 0v700h186c115 0 205 -31 271 -93c67 -62 100 -148 100 -257c0 -111 -33 -197 -100 -259c-65 -61 -156 -91 -271 -91h-186zM208 122h50c68 0 121 19 159 57c40 40 60 97 60 171c0 73 -20 129 -60 169c-39 39 -92 58 -159 58h-50v-455zM281 808l49 71h117l-95 -140
h-142l-95 140h117z" />
    <glyph glyph-name="dcaron" unicode="&#x10f;" horiz-adv-x="620" 
d="M605 723l-7 -174h91l46 174h-130zM566 723v-723h-130v54c-2 -3 -4 -5 -7 -8s-7 -7 -11 -10c-9 -8 -20 -15 -31 -22c-32 -18 -67 -27 -106 -27c-75 0 -137 26 -184 77c-48 51 -72 116 -72 197s23 147 68 198s105 77 180 77c39 0 75 -9 106 -27c12 -7 23 -14 32 -23
c7 -6 13 -12 17 -18v255h138zM397 153c23 29 35 64 35 107c0 48 -13 86 -38 114c-25 27 -57 40 -96 40c-40 0 -72 -14 -97 -43s-37 -66 -37 -111c0 -46 13 -83 38 -110s57 -41 96 -41c41 0 74 15 99 44z" />
    <glyph glyph-name="Dcroat" unicode="&#x110;" horiz-adv-x="665" 
d="M22 290v124h56v286h185c115 0 206 -31 272 -93s99 -148 99 -257c0 -111 -33 -197 -100 -259c-65 -61 -156 -91 -271 -91h-185v290h-56zM219 122h50c67 0 120 19 159 57c40 40 60 97 60 171c0 72 -20 128 -60 169c-39 39 -92 58 -159 58h-50v-163h109v-124h-109v-168z" />
    <glyph glyph-name="Dcroat112" unicode="&#x111;" horiz-adv-x="620" 
d="M566 723v-65h58v-89h-58v-569h-130v54c-2 -3 -4 -5 -7 -8s-7 -7 -11 -10c-9 -8 -20 -15 -31 -22c-32 -18 -67 -27 -106 -27c-75 0 -137 26 -184 77c-48 51 -72 116 -72 197s23 147 68 198s105 77 180 77c39 0 75 -9 106 -27c12 -7 23 -14 32 -23c7 -6 13 -12 17 -18v101
h-127v89h127v65h138zM394 374c-25 27 -57 40 -96 40c-40 0 -72 -14 -97 -43s-37 -66 -37 -111c0 -46 13 -83 38 -110s57 -41 96 -41c41 0 74 15 99 44c23 29 35 64 35 107c0 48 -13 86 -38 114z" />
    <glyph glyph-name="Emacron" unicode="&#x112;" horiz-adv-x="481" 
d="M67 0v700h360v-127h-219v-156h188v-125h-188v-166h228v-126h-369zM120 751v101h268v-101h-268z" />
    <glyph glyph-name="Emacron061" unicode="&#x113;" horiz-adv-x="559" 
d="M98 457c49 53 110 79 184 79c80 0 143 -25 188 -75c44 -49 66 -117 66 -204c0 -13 0 -23 -1 -30h-368c1 -35 15 -64 40 -86c25 -23 57 -34 96 -34c31 0 60 8 85 24c9 6 18 13 26 21c6 6 11 12 16 19l91 -69c-6 -11 -14 -22 -25 -34c-13 -14 -27 -26 -44 -37
c-43 -29 -94 -44 -151 -44c-83 0 -149 26 -200 78c-50 50 -75 115 -75 195c0 79 24 145 72 197zM171 317h225c-1 32 -12 58 -33 77s-47 29 -79 29s-58 -10 -79 -30c-19 -20 -31 -45 -34 -76zM155 603v101h268v-101h-268z" />
    <glyph glyph-name="Ebreve" unicode="&#x114;" horiz-adv-x="481" 
d="M67 0v700h360v-127h-219v-156h188v-125h-188v-166h228v-126h-369zM139 781c-27 26 -40 60 -40 103h99c0 -41 17 -62 52 -62s53 21 53 62h99c0 -43 -13 -77 -39 -103c-27 -27 -65 -40 -113 -40c-47 0 -84 13 -111 40z" />
    <glyph glyph-name="Ebreve062" unicode="&#x115;" horiz-adv-x="559" 
d="M98 457c49 53 110 79 184 79c80 0 143 -25 188 -75c44 -49 66 -117 66 -204c0 -13 0 -23 -1 -30h-368c1 -35 15 -64 40 -86c25 -23 57 -34 96 -34c31 0 60 8 85 24c9 6 18 13 26 21c6 6 11 12 16 19l91 -69c-6 -11 -14 -22 -25 -34c-13 -14 -27 -26 -44 -37
c-43 -29 -94 -44 -151 -44c-83 0 -149 26 -200 78c-50 50 -75 115 -75 195c0 79 24 145 72 197zM171 317h225c-1 32 -12 58 -33 77s-47 29 -79 29s-58 -10 -79 -30c-19 -20 -31 -45 -34 -76zM171 621c-27 26 -40 60 -40 103h99c0 -41 17 -62 52 -62s53 21 53 62h99
c0 -43 -13 -77 -39 -103c-27 -27 -65 -40 -113 -40c-47 0 -84 13 -111 40z" />
    <glyph glyph-name="Edotaccent" unicode="&#x116;" horiz-adv-x="481" 
d="M67 0v700h360v-127h-219v-156h188v-125h-188v-166h228v-126h-369zM200 865c15 15 34 23 57 23s43 -8 58 -23s23 -33 23 -56s-8 -41 -23 -56s-35 -23 -58 -23s-42 8 -57 23s-23 33 -23 56s8 41 23 56z" />
    <glyph glyph-name="Edotaccent063" unicode="&#x117;" horiz-adv-x="559" 
d="M98 457c49 53 110 79 184 79c80 0 143 -25 188 -75c44 -49 66 -117 66 -204c0 -13 0 -23 -1 -30h-368c1 -35 15 -64 40 -86c25 -23 57 -34 96 -34c31 0 60 8 85 24c9 6 18 13 26 21c6 6 11 12 16 19l91 -69c-6 -11 -14 -22 -25 -34c-13 -14 -27 -26 -44 -37
c-43 -29 -94 -44 -151 -44c-83 0 -149 26 -200 78c-50 50 -75 115 -75 195c0 79 24 145 72 197zM171 317h225c-1 32 -12 58 -33 77s-47 29 -79 29s-58 -10 -79 -30c-19 -20 -31 -45 -34 -76zM229 705c15 15 34 23 57 23s43 -8 58 -23s23 -33 23 -56s-8 -41 -23 -56
s-35 -23 -58 -23s-42 8 -57 23s-23 33 -23 56s8 41 23 56z" />
    <glyph glyph-name="eogonek111" unicode="&#x118;" horiz-adv-x="481" 
d="M67 0v700h360v-127h-219v-156h188v-125h-188v-166h228v-126l-6 -3c-3 -1 -5 -3 -8 -4c-7 -4 -13 -8 -18 -13c-15 -13 -23 -28 -23 -44c0 -13 6 -23 17 -30c10 -7 22 -10 35 -10v-98c-9 -3 -21 -4 -35 -4c-37 0 -67 6 -89 19c-28 17 -42 43 -42 79c0 25 9 49 27 70
c14 17 31 29 50 38h-277z" />
    <glyph glyph-name="eogonek" unicode="&#x119;" horiz-adv-x="559" 
d="M273 -51c9 14 22 27 38 38h-10c-83 0 -149 26 -200 78c-50 50 -75 115 -75 195c0 79 24 145 72 197c49 53 110 79 184 79c80 0 143 -25 188 -75c44 -49 66 -117 66 -204c0 -13 0 -23 -1 -30h-368c1 -35 15 -64 40 -86c25 -23 57 -34 96 -34c31 0 60 8 85 24
c9 6 18 13 26 21c6 6 11 12 16 19l91 -69c-7 -11 -16 -23 -27 -35c-15 -15 -31 -29 -49 -41c-50 -33 -75 -62 -75 -88c0 -13 5 -23 16 -31c10 -7 22 -11 36 -11v-98c-4 -1 -9 -2 -15 -3c-7 -1 -14 -1 -20 -1c-37 0 -67 6 -89 19c-28 17 -42 43 -42 79c0 20 6 39 17 57z
M171 317h225c-1 32 -12 58 -33 77s-47 29 -79 29s-58 -10 -79 -30c-19 -20 -31 -45 -34 -76z" />
    <glyph glyph-name="Ecaron" unicode="&#x11a;" horiz-adv-x="481" 
d="M67 0v700h360v-127h-219v-156h188v-125h-188v-166h228v-126h-369zM259 808l49 71h117l-95 -140h-142l-95 140h117z" />
    <glyph glyph-name="Ecaron064" unicode="&#x11b;" horiz-adv-x="559" 
d="M98 457c49 53 110 79 184 79c80 0 143 -25 188 -75c44 -49 66 -117 66 -204c0 -13 0 -23 -1 -30h-368c1 -35 15 -64 40 -86c25 -23 57 -34 96 -34c31 0 60 8 85 24c9 6 18 13 26 21c6 6 11 12 16 19l91 -69c-6 -11 -14 -22 -25 -34c-13 -14 -27 -26 -44 -37
c-43 -29 -94 -44 -151 -44c-83 0 -149 26 -200 78c-50 50 -75 115 -75 195c0 79 24 145 72 197zM171 317h225c-1 32 -12 58 -33 77s-47 29 -79 29s-58 -10 -79 -30c-19 -20 -31 -45 -34 -76zM284 653l49 71h117l-95 -140h-142l-95 140h117z" />
    <glyph glyph-name="Gcircumflex" unicode="&#x11c;" horiz-adv-x="747" 
d="M573 671c21 -11 41 -23 58 -38c15 -11 27 -23 38 -36l-89 -92c-7 7 -14 15 -23 22c-12 9 -25 18 -38 25c-37 20 -77 30 -120 30c-67 0 -121 -22 -162 -67c-40 -43 -60 -98 -60 -165c0 -70 21 -126 64 -169c41 -41 93 -62 158 -62c43 0 81 7 115 22c13 5 24 11 34 18
c8 5 14 10 19 15v86h-133v119h265v-277c-90 -77 -192 -115 -306 -115c-102 0 -187 33 -256 99c-71 68 -107 156 -107 264c0 102 34 188 102 257c69 71 156 106 261 106c65 0 125 -14 180 -42zM392 756l-27 39l-28 -39h-83l65 95h91l65 -95h-83z" />
    <glyph glyph-name="Gcircumflex065" unicode="&#x11d;" horiz-adv-x="615" 
d="M92 -144l42 106c3 -1 5 -3 8 -4c4 -2 8 -4 12 -5c11 -5 22 -9 34 -12c32 -10 64 -15 95 -15c96 0 144 35 144 104v24c-1 -2 -3 -4 -6 -7s-6 -7 -10 -10c-9 -8 -19 -15 -30 -22c-32 -19 -68 -28 -107 -28c-75 0 -136 26 -182 77c-45 50 -68 116 -68 197s24 147 72 198
c47 51 108 77 183 77c39 0 74 -9 105 -26c12 -7 23 -14 33 -23c7 -7 13 -13 18 -19v55h130v-457c0 -172 -94 -258 -281 -258c-70 0 -134 16 -192 48zM394 371c-25 29 -58 43 -98 43c-39 0 -71 -14 -96 -41c-25 -29 -37 -66 -37 -111s13 -82 38 -111c25 -28 57 -42 96 -42
c40 0 72 14 97 42s37 65 37 111c0 45 -12 81 -37 109zM322 579l-27 39l-28 -39h-83l65 95h91l65 -95h-83z" />
    <glyph glyph-name="Gbreve" unicode="&#x11e;" horiz-adv-x="747" 
d="M573 671c21 -11 41 -23 58 -38c15 -11 27 -23 38 -36l-89 -92c-7 7 -14 15 -23 22c-12 9 -25 18 -38 25c-37 20 -77 30 -120 30c-67 0 -121 -22 -162 -67c-40 -43 -60 -98 -60 -165c0 -70 21 -126 64 -169c41 -41 93 -62 158 -62c43 0 81 7 115 22c13 5 24 11 34 18
c8 5 14 10 19 15v86h-133v119h265v-277c-90 -77 -192 -115 -306 -115c-102 0 -187 33 -256 99c-71 68 -107 156 -107 264c0 102 34 188 102 257c69 71 156 106 261 106c65 0 125 -14 180 -42zM284 781c-27 26 -40 60 -40 103h99c0 -41 17 -62 52 -62s53 21 53 62h99
c0 -43 -13 -77 -39 -103c-27 -27 -65 -40 -113 -40c-47 0 -84 13 -111 40z" />
    <glyph glyph-name="Gbreve067" unicode="&#x11f;" horiz-adv-x="615" 
d="M92 -144l42 106c3 -1 5 -3 8 -4c4 -2 8 -4 12 -5c11 -5 22 -9 34 -12c32 -10 64 -15 95 -15c96 0 144 35 144 104v24c-1 -2 -3 -4 -6 -7s-6 -7 -10 -10c-9 -8 -19 -15 -30 -22c-32 -19 -68 -28 -107 -28c-75 0 -136 26 -182 77c-45 50 -68 116 -68 197s24 147 72 198
c47 51 108 77 183 77c39 0 74 -9 105 -26c12 -7 23 -14 33 -23c7 -7 13 -13 18 -19v55h130v-457c0 -172 -94 -258 -281 -258c-70 0 -134 16 -192 48zM394 371c-25 29 -58 43 -98 43c-39 0 -71 -14 -96 -41c-25 -29 -37 -66 -37 -111s13 -82 38 -111c25 -28 57 -42 96 -42
c40 0 72 14 97 42s37 65 37 111c0 45 -12 81 -37 109zM195 621c-27 26 -40 60 -40 103h99c0 -41 17 -62 52 -62s53 21 53 62h99c0 -43 -13 -77 -39 -103c-27 -27 -65 -40 -113 -40c-47 0 -84 13 -111 40z" />
    <glyph glyph-name="Gdotaccent" unicode="&#x120;" horiz-adv-x="747" 
d="M573 671c21 -11 41 -23 58 -38c15 -11 27 -23 38 -36l-89 -92c-7 7 -14 15 -23 22c-12 9 -25 18 -38 25c-37 20 -77 30 -120 30c-67 0 -121 -22 -162 -67c-40 -43 -60 -98 -60 -165c0 -70 21 -126 64 -169c41 -41 93 -62 158 -62c43 0 81 7 115 22c13 5 24 11 34 18
c8 5 14 10 19 15v86h-133v119h265v-277c-90 -77 -192 -115 -306 -115c-102 0 -187 33 -256 99c-71 68 -107 156 -107 264c0 102 34 188 102 257c69 71 156 106 261 106c65 0 125 -14 180 -42zM342 865c15 15 34 23 57 23s43 -8 58 -23s23 -33 23 -56s-8 -41 -23 -56
s-35 -23 -58 -23s-42 8 -57 23s-23 33 -23 56s8 41 23 56z" />
    <glyph glyph-name="Gdotaccent070" unicode="&#x121;" horiz-adv-x="615" 
d="M92 -144l42 106c3 -1 5 -3 8 -4c4 -2 8 -4 12 -5c11 -5 22 -9 34 -12c32 -10 64 -15 95 -15c96 0 144 35 144 104v24c-1 -2 -3 -4 -6 -7s-6 -7 -10 -10c-9 -8 -19 -15 -30 -22c-32 -19 -68 -28 -107 -28c-75 0 -136 26 -182 77c-45 50 -68 116 -68 197s24 147 72 198
c47 51 108 77 183 77c39 0 74 -9 105 -26c12 -7 23 -14 33 -23c7 -7 13 -13 18 -19v55h130v-457c0 -172 -94 -258 -281 -258c-70 0 -134 16 -192 48zM394 371c-25 29 -58 43 -98 43c-39 0 -71 -14 -96 -41c-25 -29 -37 -66 -37 -111s13 -82 38 -111c25 -28 57 -42 96 -42
c40 0 72 14 97 42s37 65 37 111c0 45 -12 81 -37 109zM250 705c15 15 34 23 57 23s43 -8 58 -23s23 -33 23 -56s-8 -41 -23 -56s-35 -23 -58 -23s-42 8 -57 23s-23 33 -23 56s8 41 23 56z" />
    <glyph glyph-name="Gcommaaccent" unicode="&#x122;" horiz-adv-x="747" 
d="M573 671c21 -11 41 -23 58 -38c15 -11 27 -23 38 -36l-89 -92c-7 7 -14 15 -23 22c-12 9 -25 18 -38 25c-37 20 -77 30 -120 30c-67 0 -121 -22 -162 -67c-40 -43 -60 -98 -60 -165c0 -70 21 -126 64 -169c41 -41 93 -62 158 -62c43 0 81 7 115 22c13 5 24 11 34 18
c8 5 14 10 19 15v86h-133v119h265v-277c-90 -77 -192 -115 -306 -115c-102 0 -187 33 -256 99c-71 68 -107 156 -107 264c0 102 34 188 102 257c69 71 156 106 261 106c65 0 125 -14 180 -42zM368 -212c10 13 17 25 20 37c-19 4 -33 13 -44 27c-10 13 -15 28 -15 45
c0 21 7 38 22 52c15 15 32 22 53 22c23 0 41 -8 56 -23c15 -16 22 -37 22 -63c0 -73 -32 -132 -95 -176l-48 51c11 9 20 18 29 28z" />
    <glyph glyph-name="Gcommaaccent097" unicode="&#x123;" horiz-adv-x="615" 
d="M92 -144l42 106c3 -1 5 -3 8 -4c4 -2 8 -4 12 -5c11 -5 22 -9 34 -12c32 -10 64 -15 95 -15c96 0 144 35 144 104v24c-1 -2 -3 -4 -6 -7s-6 -7 -10 -10c-9 -8 -19 -15 -30 -22c-32 -19 -68 -28 -107 -28c-75 0 -136 26 -182 77c-45 50 -68 116 -68 197s24 147 72 198
c47 51 108 77 183 77c39 0 74 -9 105 -26c12 -7 23 -14 33 -23c7 -7 13 -13 18 -19v55h130v-457c0 -172 -94 -258 -281 -258c-70 0 -134 16 -192 48zM394 371c-25 29 -58 43 -98 43c-39 0 -71 -14 -96 -41c-25 -29 -37 -66 -37 -111s13 -82 38 -111c25 -28 57 -42 96 -42
c40 0 72 14 97 42s37 65 37 111c0 45 -12 81 -37 109zM340 754c-10 -13 -17 -25 -20 -37c19 -4 33 -13 44 -27c10 -13 15 -28 15 -45c0 -21 -7 -38 -22 -52c-15 -15 -32 -22 -53 -22c-23 0 -41 8 -56 24c-15 15 -22 36 -22 62c0 73 32 132 95 176l48 -51
c-11 -9 -20 -18 -29 -28z" />
    <glyph glyph-name="Hcircumflex" unicode="&#x124;" horiz-adv-x="707" 
d="M67 0v700h141v-284h291v284h141v-700h-141v289h-291v-289h-141zM381 756l-27 39l-28 -39h-83l65 95h91l65 -95h-83z" />
    <glyph glyph-name="Hcircumflex118" unicode="&#x125;" horiz-adv-x="562" 
d="M477 461c23 -39 34 -92 34 -159v-302h-137v318c0 28 -9 51 -26 69c-17 17 -37 25 -61 25c-29 0 -52 -9 -69 -28c-17 -18 -26 -41 -26 -70v-314h-138v723h138v-261c13 21 30 38 52 51c26 15 55 23 86 23c68 0 117 -25 147 -75zM310 908l-27 39l-28 -39h-83l65 95h91
l65 -95h-83z" />
    <glyph glyph-name="Hbar" unicode="&#x126;" horiz-adv-x="707" 
d="M67 0v511h-57v96h57v93h141v-93h291v93h141v-93h58v-96h-58v-511h-141v289h-291v-289h-141zM208 416h291v95h-291v-95z" />
    <glyph glyph-name="Hbar119" unicode="&#x127;" horiz-adv-x="562" 
d="M477 461c23 -39 34 -92 34 -159v-302h-137v318c0 28 -9 51 -26 69c-17 17 -37 25 -61 25c-29 0 -52 -9 -69 -28c-17 -18 -26 -41 -26 -70v-314h-138v575h-51v88h51v60h138v-60h130v-88h-130v-113c13 21 30 38 52 51c26 15 55 23 86 23c68 0 117 -25 147 -75z" />
    <glyph glyph-name="Itilde" unicode="&#x128;" horiz-adv-x="275" 
d="M67 0v700h141v-700h-141zM136 776l-10 5l-9 4c-7 3 -14 4 -19 4c-14 0 -21 -9 -21 -26h-60c0 27 7 49 21 66c13 17 31 26 54 26c14 0 30 -4 48 -13l10 -5l9 -4c7 -3 13 -4 18 -4c14 0 21 9 21 26h60c0 -28 -7 -50 -20 -66c-13 -17 -31 -25 -54 -25c-13 0 -29 4 -48 12z
" />
    <glyph glyph-name="Itilde102" unicode="&#x129;" horiz-adv-x="247" 
d="M54 0v523h138v-523h-138zM122 599l-10 5l-10 4c-7 3 -13 4 -18 4c-15 0 -22 -9 -22 -26h-59c0 27 7 49 20 66c14 17 32 26 55 26c14 0 30 -4 48 -13l10 -5l9 -4c7 -3 12 -4 17 -4c15 0 22 9 22 26h60c0 -28 -7 -50 -21 -66c-13 -17 -31 -25 -53 -25c-13 0 -29 4 -48 12z
" />
    <glyph glyph-name="Imacron" unicode="&#x12a;" horiz-adv-x="275" 
d="M67 0v700h141v-700h-141zM4 751v101h268v-101h-268z" />
    <glyph glyph-name="Imacron104" unicode="&#x12b;" horiz-adv-x="247" 
d="M-10 603v101h268v-101h-268zM54 0v523h138v-523h-138z" />
    <glyph glyph-name="Ibreve" unicode="&#x12c;" horiz-adv-x="275" 
d="M67 0v700h141v-700h-141zM29 781c-27 26 -40 60 -40 103h99c0 -41 17 -62 52 -62s53 21 53 62h99c0 -43 -13 -77 -39 -103c-27 -27 -65 -40 -113 -40c-47 0 -84 13 -111 40z" />
    <glyph glyph-name="Ibreve103" unicode="&#x12d;" horiz-adv-x="246" 
d="M15 621c-27 26 -40 60 -40 103h99c0 -41 17 -62 52 -62s53 21 53 62h99c0 -43 -13 -77 -39 -103c-27 -27 -65 -40 -113 -40c-47 0 -84 13 -111 40zM54 0v523h138v-523h-138z" />
    <glyph glyph-name="Iogonek" unicode="&#x12e;" horiz-adv-x="275" 
d="M67 0v700h141v-700l-6 -3c-3 -1 -5 -3 -8 -4c-7 -4 -13 -8 -18 -13c-15 -13 -23 -28 -23 -44c0 -13 6 -23 17 -30c10 -7 22 -10 35 -10v-98c-4 -1 -9 -2 -15 -3c-7 -1 -14 -1 -20 -1c-37 0 -67 6 -89 19c-28 17 -42 43 -42 79c0 25 9 49 27 70c14 17 31 29 50 38h-49z
" />
    <glyph glyph-name="Iogonek115" unicode="&#x12f;" horiz-adv-x="247" 
d="M54 0v523h138v-523l-6 -3c-3 -1 -5 -3 -8 -4c-7 -4 -13 -8 -18 -13c-15 -13 -23 -28 -23 -44c0 -13 6 -23 17 -30c10 -7 22 -10 35 -10v-98c-9 -3 -21 -4 -35 -4c-37 0 -67 6 -89 19c-28 17 -42 43 -42 79c0 25 9 49 27 70c14 17 31 29 50 38h-46zM65 705
c15 15 34 23 57 23s43 -8 58 -23s23 -33 23 -56s-8 -41 -23 -56s-35 -23 -58 -23s-42 8 -57 23s-23 33 -23 56s8 41 23 56z" />
    <glyph glyph-name="Idotaccent" unicode="&#x130;" horiz-adv-x="275" 
d="M67 0v700h141v-700h-141zM83 865c15 15 34 23 57 23s43 -8 58 -23s23 -33 23 -56s-8 -41 -23 -56s-35 -23 -58 -23s-42 8 -57 23s-23 33 -23 56s8 41 23 56z" />
    <glyph glyph-name="dotlessi" unicode="&#x131;" horiz-adv-x="247" 
d="M54 0v523h138v-523h-138z" />
    <glyph glyph-name="ij081" unicode="&#x132;" horiz-adv-x="649" 
d="M67 0v700h141v-700h-141zM296 4l16 125c1 0 4 0 9 -1l6 -1l7 -1c13 -2 25 -3 36 -3c47 0 71 25 71 76v501h141v-526c0 -61 -19 -108 -56 -139c-34 -27 -80 -41 -138 -41c-30 0 -61 3 -92 10z" />
    <glyph glyph-name="ij" unicode="&#x133;" horiz-adv-x="494" 
d="M54 0v523h138v-523h-138zM65 705c15 15 34 23 57 23s43 -8 58 -23s23 -33 23 -56s-8 -41 -23 -56s-35 -23 -58 -23s-42 8 -57 23s-23 33 -23 56s8 41 23 56zM301 -1v524h138v-530c0 -123 -67 -184 -200 -184c-11 0 -22 1 -34 2v117c9 -1 17 -2 24 -2c48 0 72 24 72 73z
M312 705c15 15 34 23 57 23s43 -8 58 -23s23 -33 23 -56s-8 -41 -23 -56s-35 -23 -58 -23s-42 8 -57 23s-23 33 -23 56s8 41 23 56z" />
    <glyph glyph-name="jcircumflex080" unicode="&#x134;" horiz-adv-x="374" 
d="M20 4l16 125c1 0 4 0 9 -1l6 -1l7 -1c13 -2 25 -3 36 -3c47 0 71 25 71 76v501h141v-526c0 -61 -19 -108 -56 -139c-34 -27 -80 -41 -138 -41c-30 0 -61 3 -92 10zM190 756l-27 39l-27 -39h-83l64 95h92l64 -95h-83z" />
    <glyph glyph-name="jcircumflex" unicode="&#x135;" horiz-adv-x="247" 
d="M54 -1v524h138v-530c0 -123 -67 -184 -200 -184c-11 0 -22 1 -34 2v117c9 -1 17 -2 24 -2c48 0 72 24 72 73zM158 579l-27 39l-27 -39h-83l64 95h92l65 -95h-84z" />
    <glyph glyph-name="Kcommaaccent" unicode="&#x136;" horiz-adv-x="615" 
d="M67 0v700h141v-320l231 320h158l-252 -335l260 -365h-162l-235 340v-340h-141zM279 -212c10 13 17 25 20 37c-19 4 -33 13 -44 27c-10 13 -15 28 -15 45c0 21 7 38 22 52c15 15 32 22 53 22c23 0 41 -8 56 -23c15 -16 22 -37 22 -63c0 -73 -32 -132 -95 -176l-48 51
c11 9 20 18 29 28z" />
    <glyph glyph-name="Kcommaaccent079" unicode="&#x137;" horiz-adv-x="532" 
d="M54 0v723h138v-420l168 220h155l-184 -237l198 -286h-162l-175 270v-270h-138zM233 -212c10 13 17 25 20 37c-19 4 -33 13 -44 27c-10 13 -15 28 -15 45c0 21 7 38 22 52c15 15 32 22 53 22c23 0 41 -8 56 -23c15 -16 22 -37 22 -63c0 -73 -32 -132 -95 -176l-48 51
c11 9 20 18 29 28z" />
    <glyph glyph-name="kgreenlandic" unicode="&#x138;" horiz-adv-x="532" 
d="M54 0v523h138v-225l168 225h155l-184 -242l198 -281h-162l-175 265v-265h-138z" />
    <glyph glyph-name="Lacute" unicode="&#x139;" horiz-adv-x="455" 
d="M67 0v700h141v-573h228v-127h-369zM198 758l42 99h118l-72 -99h-88z" />
    <glyph glyph-name="Lacute088" unicode="&#x13a;" horiz-adv-x="247" 
d="M54 0v723h138v-723h-138zM43 904l42 99h118l-72 -99h-88z" />
    <glyph glyph-name="lcommaaccent089" unicode="&#x13b;" horiz-adv-x="455" 
d="M67 0v700h141v-573h228v-127h-369zM214 -212c10 13 17 25 20 37c-19 4 -33 13 -44 27c-10 13 -15 28 -15 45c0 21 7 38 22 52c15 15 32 22 53 22c23 0 41 -8 56 -23c15 -16 22 -37 22 -63c0 -73 -32 -132 -95 -176l-48 51c11 9 20 18 29 28z" />
    <glyph glyph-name="lcommaaccent" unicode="&#x13c;" horiz-adv-x="247" 
d="M54 0v723h138v-723h-138zM85 -212c10 13 17 25 20 37c-19 4 -33 13 -44 27c-10 13 -15 28 -15 45c0 21 7 38 22 52c15 15 32 22 53 22c23 0 41 -8 56 -23c15 -16 22 -37 22 -63c0 -73 -32 -132 -95 -176l-48 51c11 9 20 18 29 28z" />
    <glyph glyph-name="Lcaron" unicode="&#x13d;" horiz-adv-x="455" 
d="M275 526l7 174h130l-46 -174h-91zM67 0v700h141v-573h228v-127h-369z" />
    <glyph glyph-name="Lcaron090" unicode="&#x13e;" horiz-adv-x="247" 
d="M224 549l7 174h130l-46 -174h-91zM54 0v723h138v-723h-138z" />
    <glyph glyph-name="ldot091" unicode="&#x13f;" horiz-adv-x="455" 
d="M67 0v700h141v-573h228v-127h-369zM299 308c-17 16 -25 36 -25 59c0 24 8 44 25 61c16 17 36 25 60 25s44 -8 61 -25c16 -17 24 -37 24 -61c0 -23 -8 -43 -24 -59c-17 -17 -37 -25 -61 -25s-44 8 -60 25z" />
    <glyph glyph-name="ldot" unicode="&#x140;" horiz-adv-x="403" 
d="M54 0v723h138v-723h-138zM254 294c-17 16 -25 36 -25 59c0 24 8 44 25 61c16 17 36 25 60 25s44 -8 61 -25c16 -17 24 -37 24 -61c0 -23 -8 -43 -24 -59c-17 -17 -37 -25 -61 -25s-44 8 -60 25z" />
    <glyph glyph-name="Lslash" unicode="&#x141;" horiz-adv-x="455" 
d="M11 191v132l56 32v345h141v-267l108 62v-134l-108 -60v-175h228v-126h-369v224z" />
    <glyph glyph-name="Lslash092" unicode="&#x142;" horiz-adv-x="294" 
d="M21 238v132l53 32v321h138v-240l61 37v-135l-61 -37v-348h-138v270z" />
    <glyph glyph-name="Nacute" unicode="&#x143;" horiz-adv-x="713" 
d="M507 0l-302 476v-476h-139v700h143l299 -480v480h139v-700h-140zM303 758l42 99h118l-72 -99h-88z" />
    <glyph glyph-name="Nacute094" unicode="&#x144;" horiz-adv-x="560" 
d="M475 461c23 -39 35 -92 35 -159v-302h-138v318c0 28 -9 51 -26 69c-17 17 -37 25 -61 25c-28 0 -51 -9 -68 -28c-17 -18 -25 -41 -25 -70v-314h-138v523h135v-61c13 20 30 37 53 51c27 15 56 23 87 23c67 0 116 -25 146 -75zM229 581l42 99h118l-72 -99h-88z" />
    <glyph glyph-name="Ncommaaccent" unicode="&#x145;" horiz-adv-x="713" 
d="M507 0l-302 476v-476h-139v700h143l299 -480v480h139v-700h-140zM318 -212c10 13 17 25 20 37c-19 4 -33 13 -44 27c-10 13 -15 28 -15 45c0 21 7 38 22 52c15 15 32 22 53 22c23 0 41 -8 56 -23c15 -16 22 -37 22 -63c0 -73 -32 -132 -95 -176l-48 51c11 9 20 18 29 28z
" />
    <glyph glyph-name="Ncommaaccent095" unicode="&#x146;" horiz-adv-x="560" 
d="M475 461c23 -39 35 -92 35 -159v-302h-138v318c0 28 -9 51 -26 69c-17 17 -37 25 -61 25c-28 0 -51 -9 -68 -28c-17 -18 -25 -41 -25 -70v-314h-138v523h135v-61c13 20 30 37 53 51c27 15 56 23 87 23c67 0 116 -25 146 -75zM242 -212c10 13 17 25 20 37
c-19 4 -33 13 -44 27c-10 13 -15 28 -15 45c0 21 7 38 22 52c15 15 32 22 53 22c23 0 41 -8 56 -23c15 -16 22 -37 22 -63c0 -73 -32 -132 -95 -176l-48 51c11 9 20 18 29 28z" />
    <glyph glyph-name="Ncaron" unicode="&#x147;" horiz-adv-x="713" 
d="M507 0l-302 476v-476h-139v700h143l299 -480v480h139v-700h-140zM362 808l49 71h117l-95 -140h-142l-95 140h117z" />
    <glyph glyph-name="Ncaron096" unicode="&#x148;" horiz-adv-x="560" 
d="M475 461c23 -39 35 -92 35 -159v-302h-138v318c0 28 -9 51 -26 69c-17 17 -37 25 -61 25c-28 0 -51 -9 -68 -28c-17 -18 -25 -41 -25 -70v-314h-138v523h135v-61c13 20 30 37 53 51c27 15 56 23 87 23c67 0 116 -25 146 -75zM283 653l49 71h117l-95 -140h-142l-95 140
h117z" />
    <glyph glyph-name="napostrophe" unicode="&#x149;" horiz-adv-x="636" 
d="M550 461c23 -39 35 -92 35 -159v-302h-138v318c0 28 -9 51 -26 69c-17 17 -37 25 -61 25c-28 0 -51 -9 -68 -28c-17 -18 -25 -41 -25 -70v-314h-138v523h135v-61c13 20 30 37 53 51c27 15 56 23 87 23c67 0 116 -25 146 -75zM6 545c10 13 17 25 20 37
c-19 4 -33 13 -44 27c-10 13 -15 28 -15 45c0 21 7 38 22 52c15 15 32 22 53 22c23 0 41 -8 56 -23c15 -16 22 -37 22 -63c0 -73 -32 -132 -95 -176l-48 51c11 9 20 18 29 28z" />
    <glyph glyph-name="eng117" unicode="&#x14a;" horiz-adv-x="713" 
d="M361 -181l16 125c1 0 4 0 9 -1l6 -1l7 -1c13 -2 25 -3 36 -3c43 0 67 22 70 66l-300 472v-476h-139v700h143l299 -480v480h139v-711c0 -61 -19 -108 -56 -139c-34 -27 -80 -41 -138 -41c-30 0 -61 3 -92 10z" />
    <glyph glyph-name="eng" unicode="&#x14b;" horiz-adv-x="560" 
d="M372 -1v319c0 28 -9 51 -26 69c-17 17 -37 25 -61 25c-28 0 -51 -9 -68 -28c-17 -18 -25 -41 -25 -70v-314h-138v523h135v-61c13 20 30 37 53 51c27 15 56 23 87 23c67 0 116 -25 146 -75c23 -39 35 -92 35 -159v-309c0 -123 -67 -184 -200 -184c-11 0 -22 1 -34 2v117
c9 -1 17 -2 24 -2c48 0 72 24 72 73z" />
    <glyph glyph-name="omacron093" unicode="&#x14c;" horiz-adv-x="788" 
d="M131 91c-67 69 -101 155 -101 259c0 103 34 189 101 258c69 70 157 105 263 105s194 -35 263 -105c67 -69 101 -155 101 -258c0 -104 -34 -190 -101 -259c-69 -69 -156 -104 -263 -104s-194 35 -263 104zM238 515c-41 -44 -61 -99 -61 -165c0 -67 20 -123 61 -166
s93 -65 156 -65s115 22 156 65s61 99 61 166c0 66 -20 121 -61 165s-93 66 -156 66s-115 -22 -156 -66zM260 751v101h268v-101h-268z" />
    <glyph glyph-name="omacron" unicode="&#x14d;" 
d="M106 458c53 52 120 78 200 78s147 -26 201 -79s81 -118 81 -197s-26 -145 -79 -196s-121 -77 -203 -77c-81 0 -149 26 -202 77s-79 117 -79 196s27 145 81 198zM204 151c27 -28 61 -42 102 -42c42 0 76 14 103 42c27 29 41 65 41 109c0 45 -14 81 -41 110s-62 44 -103 44
s-76 -14 -103 -43s-40 -66 -40 -111c0 -44 14 -80 41 -109zM173 603v101h268v-101h-268z" />
    <glyph glyph-name="Obreve" unicode="&#x14e;" horiz-adv-x="788" 
d="M131 91c-67 69 -101 155 -101 259c0 103 34 189 101 258c69 70 157 105 263 105s194 -35 263 -105c67 -69 101 -155 101 -258c0 -104 -34 -190 -101 -259c-69 -69 -156 -104 -263 -104s-194 35 -263 104zM238 515c-41 -44 -61 -99 -61 -165c0 -67 20 -123 61 -166
s93 -65 156 -65s115 22 156 65s61 99 61 166c0 66 -20 121 -61 165s-93 66 -156 66s-115 -22 -156 -66zM283 781c-27 26 -40 60 -40 103h99c0 -41 17 -62 52 -62s53 21 53 62h99c0 -43 -13 -77 -39 -103c-27 -27 -65 -40 -113 -40c-47 0 -84 13 -111 40z" />
    <glyph glyph-name="Obreve106" unicode="&#x14f;" 
d="M106 458c53 52 120 78 200 78s147 -26 201 -79s81 -118 81 -197s-26 -145 -79 -196s-121 -77 -203 -77c-81 0 -149 26 -202 77s-79 117 -79 196s27 145 81 198zM204 151c27 -28 61 -42 102 -42c42 0 76 14 103 42c27 29 41 65 41 109c0 45 -14 81 -41 110s-62 44 -103 44
s-76 -14 -103 -43s-40 -66 -40 -111c0 -44 14 -80 41 -109zM192 621c-27 26 -40 60 -40 103h99c0 -41 17 -62 52 -62s53 21 53 62h99c0 -43 -13 -77 -39 -103c-27 -27 -65 -40 -113 -40c-47 0 -84 13 -111 40z" />
    <glyph glyph-name="ohungarumlaut087" unicode="&#x150;" horiz-adv-x="788" 
d="M131 91c-67 69 -101 155 -101 259c0 103 34 189 101 258c69 70 157 105 263 105s194 -35 263 -105c67 -69 101 -155 101 -258c0 -104 -34 -190 -101 -259c-69 -69 -156 -104 -263 -104s-194 35 -263 104zM238 515c-41 -44 -61 -99 -61 -165c0 -67 20 -123 61 -166
s93 -65 156 -65s115 22 156 65s61 99 61 166c0 66 -20 121 -61 165s-93 66 -156 66s-115 -22 -156 -66zM381 758l68 144h132l-96 -144h-104zM207 758l67 144h133l-97 -144h-103z" />
    <glyph glyph-name="ohungarumlaut" unicode="&#x151;" 
d="M106 458c53 52 120 78 200 78s147 -26 201 -79s81 -118 81 -197s-26 -145 -79 -196s-121 -77 -203 -77c-81 0 -149 26 -202 77s-79 117 -79 196s27 145 81 198zM204 151c27 -28 61 -42 102 -42c42 0 76 14 103 42c27 29 41 65 41 109c0 45 -14 81 -41 110s-62 44 -103 44
s-76 -14 -103 -43s-40 -66 -40 -111c0 -44 14 -80 41 -109zM294 581l68 144h132l-96 -144h-104zM120 581l67 144h133l-97 -144h-103z" />
    <glyph glyph-name="OE105" unicode="&#x152;" horiz-adv-x="1027" 
d="M131 91c-67 69 -101 155 -101 259c0 103 34 189 101 258c69 70 157 105 263 105c33 0 67 -4 102 -13h476v-127h-288c35 -43 57 -95 68 -156h189v-125h-188c-8 -62 -31 -117 -69 -166h297v-126h-485c-35 -9 -69 -13 -102 -13c-107 0 -194 35 -263 104zM238 515
c-41 -44 -61 -99 -61 -165c0 -67 20 -123 61 -166s93 -65 156 -65s115 22 156 65s61 99 61 166c0 66 -20 121 -61 165s-93 66 -156 66s-115 -22 -156 -66z" />
    <glyph glyph-name="OE" unicode="&#x153;" horiz-adv-x="979" 
d="M105 458c53 52 120 78 200 78c88 0 158 -30 209 -91c46 61 108 91 187 91c81 0 144 -25 189 -75c44 -49 66 -117 66 -204c0 -13 0 -23 -1 -30h-369c1 -35 15 -64 40 -87c25 -22 58 -33 97 -33c31 0 60 8 85 24c9 6 18 13 26 21c6 6 11 12 16 19l91 -69
c-6 -11 -14 -22 -25 -34c-13 -14 -27 -26 -44 -37c-44 -29 -95 -44 -152 -44c-89 0 -158 30 -206 91c-52 -61 -122 -91 -209 -91c-81 0 -148 26 -201 77s-79 117 -79 196s27 145 80 198zM203 151c27 -28 61 -42 102 -42s76 14 104 43c27 29 41 65 41 110
c0 44 -14 80 -41 109s-62 43 -104 43c-41 0 -75 -14 -102 -43s-40 -66 -40 -111c0 -44 13 -80 40 -109zM591 317h224c-1 32 -12 58 -33 77s-47 29 -79 29s-58 -10 -78 -30s-31 -45 -34 -76z" />
    <glyph glyph-name="racute086" unicode="&#x154;" horiz-adv-x="585" 
d="M67 0v700h211c74 0 133 -20 176 -61c41 -38 61 -87 61 -147c0 -85 -35 -146 -106 -185l166 -307h-156l-136 274h-75v-274h-141zM208 393h66c27 0 50 8 67 24c19 17 29 41 29 70c0 28 -9 50 -27 67c-19 16 -44 24 -76 24h-59v-185zM268 758l42 99h118l-72 -99h-88z" />
    <glyph glyph-name="racute" unicode="&#x155;" horiz-adv-x="360" 
d="M333 536v-140c-94 0 -141 -56 -141 -168v-228h-138v523h135v-76c26 59 74 89 144 89zM140 581l42 99h118l-72 -99h-88z" />
    <glyph glyph-name="Rcommaaccent" unicode="&#x156;" horiz-adv-x="585" 
d="M67 0v700h211c74 0 133 -20 176 -61c41 -38 61 -87 61 -147c0 -85 -35 -146 -106 -185l166 -307h-156l-136 274h-75v-274h-141zM208 393h66c27 0 50 8 67 24c19 17 29 41 29 70c0 28 -9 50 -27 67c-19 16 -44 24 -76 24h-59v-185zM256 -212c10 13 17 25 20 37
c-19 4 -33 13 -44 27c-10 13 -15 28 -15 45c0 21 7 38 22 52c15 15 32 22 53 22c23 0 41 -8 56 -23c15 -16 22 -37 22 -63c0 -73 -32 -132 -95 -176l-48 51c11 9 20 18 29 28z" />
    <glyph glyph-name="Rcommaaccent082" unicode="&#x157;" horiz-adv-x="360" 
d="M333 536v-140c-94 0 -141 -56 -141 -168v-228h-138v523h135v-76c26 59 74 89 144 89zM111 -212c10 13 17 25 20 37c-19 4 -33 13 -44 27c-10 13 -15 28 -15 45c0 21 7 38 22 52c15 15 32 22 53 22c23 0 41 -8 56 -23c15 -16 22 -37 22 -63c0 -73 -32 -132 -95 -176
l-48 51c11 9 20 18 29 28z" />
    <glyph glyph-name="rcaron085" unicode="&#x158;" horiz-adv-x="585" 
d="M67 0v700h211c74 0 133 -20 176 -61c41 -38 61 -87 61 -147c0 -85 -35 -146 -106 -185l166 -307h-156l-136 274h-75v-274h-141zM208 393h66c27 0 50 8 67 24c19 17 29 41 29 70c0 28 -9 50 -27 67c-19 16 -44 24 -76 24h-59v-185zM268 808l49 71h117l-95 -140h-142
l-95 140h117z" />
    <glyph glyph-name="rcaron" unicode="&#x159;" horiz-adv-x="360" 
d="M333 536v-140c-94 0 -141 -56 -141 -168v-228h-138v523h135v-76c26 59 74 89 144 89zM181 653l49 71h117l-95 -140h-142l-95 140h117z" />
    <glyph glyph-name="sacute084" unicode="&#x15a;" horiz-adv-x="521" 
d="M418 656c15 -15 29 -32 40 -51c9 -15 16 -30 21 -45l-117 -53c-10 22 -21 39 -34 50c-18 17 -41 26 -68 26c-23 0 -42 -6 -56 -19c-13 -13 -20 -29 -20 -48c0 -25 16 -48 48 -68c11 -7 27 -16 48 -26l28 -13l28 -13c47 -23 82 -47 105 -71c31 -35 47 -76 47 -125
c0 -63 -21 -114 -62 -153c-43 -40 -100 -60 -172 -60c-66 0 -121 20 -165 60c-17 15 -31 32 -43 53c-10 15 -18 32 -24 49l119 58c25 -59 65 -89 121 -89c55 0 83 24 83 72c0 26 -16 49 -47 70c-11 7 -28 16 -49 26l-27 13l-28 14c-47 23 -81 48 -104 73
c-31 35 -47 77 -47 128c0 59 20 107 60 144s93 55 160 55c62 0 114 -19 155 -57zM202 758l42 99h118l-72 -99h-88z" />
    <glyph glyph-name="sacute" unicode="&#x15b;" horiz-adv-x="435" 
d="M88 19c-29 17 -52 38 -69 65l81 72c33 -38 73 -57 120 -57c43 0 64 16 64 47c0 17 -13 32 -39 44c-9 5 -22 10 -39 16l-22 9l-23 9c-83 34 -124 86 -124 157c0 47 18 85 55 114c35 27 80 41 135 41c45 0 84 -10 117 -31c26 -16 47 -37 62 -62l-91 -68c-5 6 -10 11 -15 16
c-6 7 -13 12 -20 17c-18 11 -38 17 -59 17c-36 0 -54 -14 -54 -42c0 -18 13 -33 39 -45c9 -4 22 -9 39 -15l23 -8l23 -8c83 -31 124 -83 124 -154c0 -50 -19 -90 -58 -121c-37 -30 -85 -45 -143 -45c-47 0 -89 11 -126 32zM164 581l42 99h118l-72 -99h-88z" />
    <glyph glyph-name="scircumflex083" unicode="&#x15c;" horiz-adv-x="521" 
d="M418 656c15 -15 29 -32 40 -51c9 -15 16 -30 21 -45l-117 -53c-10 22 -21 39 -34 50c-18 17 -41 26 -68 26c-23 0 -42 -6 -56 -19c-13 -13 -20 -29 -20 -48c0 -25 16 -48 48 -68c11 -7 27 -16 48 -26l28 -13l28 -13c47 -23 82 -47 105 -71c31 -35 47 -76 47 -125
c0 -63 -21 -114 -62 -153c-43 -40 -100 -60 -172 -60c-66 0 -121 20 -165 60c-17 15 -31 32 -43 53c-10 15 -18 32 -24 49l119 58c25 -59 65 -89 121 -89c55 0 83 24 83 72c0 26 -16 49 -47 70c-11 7 -28 16 -49 26l-27 13l-28 14c-47 23 -81 48 -104 73
c-31 35 -47 77 -47 128c0 59 20 107 60 144s93 55 160 55c62 0 114 -19 155 -57zM282 756l-27 39l-27 -39h-83l64 95h92l64 -95h-83z" />
    <glyph glyph-name="scircumflex" unicode="&#x15d;" horiz-adv-x="435" 
d="M88 19c-29 17 -52 38 -69 65l81 72c33 -38 73 -57 120 -57c43 0 64 16 64 47c0 17 -13 32 -39 44c-9 5 -22 10 -39 16l-22 9l-23 9c-83 34 -124 86 -124 157c0 47 18 85 55 114c35 27 80 41 135 41c45 0 84 -10 117 -31c26 -16 47 -37 62 -62l-91 -68c-5 6 -10 11 -15 16
c-6 7 -13 12 -20 17c-18 11 -38 17 -59 17c-36 0 -54 -14 -54 -42c0 -18 13 -33 39 -45c9 -4 22 -9 39 -15l23 -8l23 -8c83 -31 124 -83 124 -154c0 -50 -19 -90 -58 -121c-37 -30 -85 -45 -143 -45c-47 0 -89 11 -126 32zM244 579l-27 39l-27 -39h-83l64 95h92l64 -95h-83z
" />
    <glyph glyph-name="Scedilla" unicode="&#x15e;" horiz-adv-x="521" 
d="M207 -230c-10 2 -18 4 -25 6l16 71l7 -2l8 -1c6 -1 12 -2 18 -2c29 0 43 11 43 33c0 21 -17 31 -50 31c-5 0 -11 -1 -17 -2l12 85c-55 6 -102 28 -139 65c-14 15 -26 31 -37 50c-9 15 -16 30 -21 45l119 58c25 -59 65 -89 121 -89c55 0 83 24 83 72c0 26 -16 49 -47 70
c-11 7 -28 16 -49 26l-27 13l-28 14c-47 23 -81 48 -104 73c-31 35 -47 77 -47 128c0 59 20 107 60 144s93 55 160 55c62 0 114 -19 155 -57c15 -15 29 -32 40 -51c9 -15 16 -30 21 -45l-117 -53c-10 22 -21 39 -34 50c-18 17 -41 26 -68 26c-23 0 -42 -6 -56 -19
c-13 -13 -20 -29 -20 -48c0 -25 16 -48 48 -68c11 -7 27 -16 48 -26l28 -13l28 -13c47 -23 82 -47 105 -71c31 -35 47 -76 47 -125c0 -57 -17 -104 -52 -142c-35 -39 -84 -62 -145 -69l-4 -28c24 -5 43 -16 56 -33s20 -36 20 -59c0 -31 -12 -56 -36 -75
c-23 -18 -52 -27 -87 -27c-9 0 -20 1 -33 3z" />
    <glyph glyph-name="Scedilla116" unicode="&#x15f;" horiz-adv-x="435" 
d="M165 -230c-10 2 -18 4 -25 6l16 71l7 -2l8 -1c6 -1 12 -2 18 -2c29 0 43 11 43 33c0 21 -17 31 -50 31c-5 0 -11 -1 -17 -2l12 86c-38 5 -72 17 -101 36c-25 16 -44 35 -57 58l81 72c33 -38 73 -57 120 -57c43 0 64 16 64 47c0 17 -13 32 -39 44c-9 5 -22 10 -39 16
l-22 9l-23 9c-83 34 -124 86 -124 157c0 47 18 85 55 114c35 27 80 41 135 41c45 0 84 -10 117 -31c26 -16 47 -37 62 -62l-91 -68c-5 6 -10 11 -15 16c-6 7 -13 12 -20 17c-18 11 -38 17 -59 17c-36 0 -54 -14 -54 -42c0 -18 13 -33 39 -45c9 -4 22 -9 39 -15l23 -8l23 -8
c83 -31 124 -83 124 -154c0 -45 -16 -82 -47 -111c-30 -29 -70 -47 -119 -52l-4 -29c24 -5 43 -16 56 -33s20 -36 20 -59c0 -31 -12 -56 -36 -75c-23 -18 -52 -27 -87 -27c-9 0 -20 1 -33 3z" />
    <glyph glyph-name="Scaron078" unicode="&#x160;" horiz-adv-x="521" 
d="M418 656c15 -15 29 -32 40 -51c9 -15 16 -30 21 -45l-117 -53c-10 22 -21 39 -34 50c-18 17 -41 26 -68 26c-23 0 -42 -6 -56 -19c-13 -13 -20 -29 -20 -48c0 -25 16 -48 48 -68c11 -7 27 -16 48 -26l28 -13l28 -13c47 -23 82 -47 105 -71c31 -35 47 -76 47 -125
c0 -63 -21 -114 -62 -153c-43 -40 -100 -60 -172 -60c-66 0 -121 20 -165 60c-17 15 -31 32 -43 53c-10 15 -18 32 -24 49l119 58c25 -59 65 -89 121 -89c55 0 83 24 83 72c0 26 -16 49 -47 70c-11 7 -28 16 -49 26l-27 13l-28 14c-47 23 -81 48 -104 73
c-31 35 -47 77 -47 128c0 59 20 107 60 144s93 55 160 55c62 0 114 -19 155 -57zM259 808l49 71h117l-95 -140h-142l-95 140h117z" />
    <glyph glyph-name="Scaron" unicode="&#x161;" horiz-adv-x="435" 
d="M88 19c-29 17 -52 38 -69 65l81 72c33 -38 73 -57 120 -57c43 0 64 16 64 47c0 17 -13 32 -39 44c-9 5 -22 10 -39 16l-22 9l-23 9c-83 34 -124 86 -124 157c0 47 18 85 55 114c35 27 80 41 135 41c45 0 84 -10 117 -31c26 -16 47 -37 62 -62l-91 -68c-5 6 -10 11 -15 16
c-6 7 -13 12 -20 17c-18 11 -38 17 -59 17c-36 0 -54 -14 -54 -42c0 -18 13 -33 39 -45c9 -4 22 -9 39 -15l23 -8l23 -8c83 -31 124 -83 124 -154c0 -50 -19 -90 -58 -121c-37 -30 -85 -45 -143 -45c-47 0 -89 11 -126 32zM225 653l49 71h117l-95 -140h-142l-95 140h117z
" />
    <glyph glyph-name="Tcedilla" unicode="&#x162;" horiz-adv-x="511" 
d="M185 0v573h-164v127h468v-127h-163v-573h-141zM214 -212c10 13 17 25 20 37c-19 4 -33 13 -44 27c-10 13 -15 28 -15 45c0 21 7 38 22 52c15 15 32 22 53 22c23 0 41 -8 56 -23c15 -16 22 -37 22 -63c0 -73 -32 -132 -95 -176l-48 51c11 9 20 18 29 28z" />
    <glyph glyph-name="Tcedilla" unicode="&#x21a;" horiz-adv-x="511" 
d="M185 0v573h-164v127h468v-127h-163v-573h-141zM214 -212c10 13 17 25 20 37c-19 4 -33 13 -44 27c-10 13 -15 28 -15 45c0 21 7 38 22 52c15 15 32 22 53 22c23 0 41 -8 56 -23c15 -16 22 -37 22 -63c0 -73 -32 -132 -95 -176l-48 51c11 9 20 18 29 28z" />
    <glyph glyph-name="Tcedilla050" unicode="&#x163;" horiz-adv-x="333" 
d="M67 523v110h136v-110h98v-112h-98v-202c0 -37 6 -63 19 -76c11 -12 30 -18 58 -18c9 0 18 0 25 1v-118c-14 -3 -34 -5 -59 -5c-120 0 -180 71 -180 212v206h-55v112h56zM145 -212c10 13 17 25 20 37c-19 4 -33 13 -44 27c-10 13 -15 28 -15 45c0 21 7 38 22 52
c15 15 32 22 53 22c23 0 41 -8 56 -23c15 -16 22 -37 22 -63c0 -73 -32 -132 -95 -176l-48 51c11 9 20 18 29 28z" />
    <glyph glyph-name="Tcedilla050" unicode="&#x21b;" horiz-adv-x="333" 
d="M67 523v110h136v-110h98v-112h-98v-202c0 -37 6 -63 19 -76c11 -12 30 -18 58 -18c9 0 18 0 25 1v-118c-14 -3 -34 -5 -59 -5c-120 0 -180 71 -180 212v206h-55v112h56zM145 -212c10 13 17 25 20 37c-19 4 -33 13 -44 27c-10 13 -15 28 -15 45c0 21 7 38 22 52
c15 15 32 22 53 22c23 0 41 -8 56 -23c15 -16 22 -37 22 -63c0 -73 -32 -132 -95 -176l-48 51c11 9 20 18 29 28z" />
    <glyph glyph-name="Tcaron" unicode="&#x164;" horiz-adv-x="511" 
d="M185 0v573h-164v127h468v-127h-163v-573h-141zM255 808l49 71h117l-95 -140h-142l-95 140h117z" />
    <glyph glyph-name="Tcaron073" unicode="&#x165;" horiz-adv-x="335" 
d="M248 549l7 174h130l-46 -174h-91zM67 523v110h136v-110h98v-112h-98v-202c0 -37 6 -63 19 -76c11 -12 30 -18 58 -18c9 0 18 0 25 1v-118c-14 -3 -34 -5 -59 -5c-120 0 -180 71 -180 212v206h-55v112h56z" />
    <glyph glyph-name="Tbar" unicode="&#x166;" horiz-adv-x="511" 
d="M71 310v103h116v160h-164v127h468v-127h-163v-160h115v-103h-115v-310h-141v310h-116z" />
    <glyph glyph-name="Tbar114" unicode="&#x167;" horiz-adv-x="333" 
d="M67 523v110h136v-110h98v-112h-98v-80h90v-91h-90v-31c0 -37 6 -63 19 -76c11 -12 30 -18 58 -18c9 0 18 0 25 1v-118c-14 -3 -34 -5 -59 -5c-120 0 -180 71 -180 212v35h-55v91h55v80h-55v112h56z" />
    <glyph glyph-name="utilde077" unicode="&#x168;" horiz-adv-x="692" 
d="M137 63c-49 49 -73 116 -73 200v437h141v-437c0 -45 12 -80 37 -106s59 -39 104 -39s79 13 104 39s37 61 37 106v437h141v-437c0 -84 -24 -151 -73 -200c-50 -51 -120 -76 -209 -76s-159 25 -209 76zM345 776l-10 5l-10 4c-7 3 -13 4 -18 4c-15 0 -22 -9 -22 -26h-59
c0 27 7 49 20 66c14 17 32 26 55 26c14 0 30 -4 48 -13l10 -5l9 -4c7 -3 12 -4 17 -4c15 0 22 9 22 26h60c0 -28 -7 -50 -21 -66c-13 -17 -31 -25 -53 -25c-13 0 -29 4 -48 12z" />
    <glyph glyph-name="utilde" unicode="&#x169;" horiz-adv-x="556" 
d="M85 62c-23 39 -35 92 -35 159v302h138v-318c0 -28 9 -51 26 -69c17 -17 37 -25 61 -25c28 0 51 9 68 28c17 18 25 41 25 70v314h138v-523h-135v61c-13 -20 -30 -37 -53 -50c-27 -16 -56 -24 -87 -24c-67 0 -116 25 -146 75zM277 599l-10 5l-10 4c-7 3 -13 4 -18 4
c-15 0 -22 -9 -22 -26h-59c0 27 7 49 20 66c14 17 32 26 55 26c14 0 30 -4 48 -13l10 -5l9 -4c7 -3 12 -4 17 -4c15 0 22 9 22 26h60c0 -28 -7 -50 -21 -66c-13 -17 -31 -25 -53 -25c-13 0 -29 4 -48 12z" />
    <glyph glyph-name="umacron076" unicode="&#x16a;" horiz-adv-x="692" 
d="M555 63c-50 -51 -120 -76 -209 -76s-159 25 -209 76c-49 49 -73 116 -73 200v437h141v-437c0 -45 12 -80 37 -106s59 -39 104 -39s79 13 104 39s37 61 37 106v437h141v-437c0 -84 -24 -151 -73 -200zM214 852v-101h268v101h-268z" />
    <glyph glyph-name="umacron" unicode="&#x16b;" horiz-adv-x="556" 
d="M85 62c-23 39 -35 92 -35 159v302h138v-318c0 -28 9 -51 26 -69c17 -17 37 -25 61 -25c28 0 51 9 68 28c17 18 25 41 25 70v314h138v-523h-135v61c-13 -20 -30 -37 -53 -50c-27 -16 -56 -24 -87 -24c-67 0 -116 25 -146 75zM148 603v101h268v-101h-268z" />
    <glyph glyph-name="ubreve075" unicode="&#x16c;" horiz-adv-x="692" 
d="M555 63c-50 -51 -120 -76 -209 -76s-159 25 -209 76c-49 49 -73 116 -73 200v437h141v-437c0 -45 12 -80 37 -106s59 -39 104 -39s79 13 104 39s37 61 37 106v437h141v-437c0 -84 -24 -151 -73 -200zM242 781c27 -27 64 -40 111 -40c48 0 86 13 113 40
c26 26 39 60 39 103h-99c0 -41 -18 -62 -53 -62s-52 21 -52 62h-99c0 -43 13 -77 40 -103z" />
    <glyph glyph-name="ubreve" unicode="&#x16d;" horiz-adv-x="556" 
d="M85 62c-23 39 -35 92 -35 159v302h138v-318c0 -28 9 -51 26 -69c17 -17 37 -25 61 -25c28 0 51 9 68 28c17 18 25 41 25 70v314h138v-523h-135v61c-13 -20 -30 -37 -53 -50c-27 -16 -56 -24 -87 -24c-67 0 -116 25 -146 75zM169 621c-27 26 -40 60 -40 103h99
c0 -41 17 -62 52 -62s53 21 53 62h99c0 -43 -13 -77 -39 -103c-27 -27 -65 -40 -113 -40c-47 0 -84 13 -111 40z" />
    <glyph glyph-name="uring074" unicode="&#x16e;" horiz-adv-x="692" 
d="M555 63c-50 -51 -120 -76 -209 -76s-159 25 -209 76c-49 49 -73 116 -73 200v437h141v-437c0 -45 12 -80 37 -106s59 -39 104 -39s79 13 104 39s37 61 37 106v437h141v-437c0 -84 -24 -151 -73 -200zM273 759c20 -19 45 -28 75 -28c31 0 57 9 77 28c21 19 31 43 31 72
s-10 52 -31 71c-20 18 -46 27 -77 27s-56 -9 -75 -27c-21 -19 -31 -43 -31 -72s10 -52 31 -71zM387 831c0 -27 -13 -40 -38 -40s-38 13 -38 39s13 39 38 39s38 -13 38 -38z" />
    <glyph glyph-name="uring" unicode="&#x16f;" horiz-adv-x="556" 
d="M85 62c-23 39 -35 92 -35 159v302h138v-318c0 -28 9 -51 26 -69c17 -17 37 -25 61 -25c28 0 51 9 68 28c17 18 25 41 25 70v314h138v-523h-135v61c-13 -20 -30 -37 -53 -50c-27 -16 -56 -24 -87 -24c-67 0 -116 25 -146 75zM206 592c-21 19 -31 42 -31 71s10 53 31 72
c19 18 44 27 75 27s57 -9 77 -27c21 -19 31 -42 31 -71s-10 -53 -31 -72c-20 -19 -46 -28 -77 -28c-30 0 -55 9 -75 28zM320 664c0 25 -13 38 -38 38s-38 -13 -38 -39s13 -39 38 -39s38 13 38 40z" />
    <glyph glyph-name="uhungarumlaut072" unicode="&#x170;" horiz-adv-x="692" 
d="M137 63c-49 49 -73 116 -73 200v437h141v-437c0 -45 12 -80 37 -106s59 -39 104 -39s79 13 104 39s37 61 37 106v437h141v-437c0 -84 -24 -151 -73 -200c-50 -51 -120 -76 -209 -76s-159 25 -209 76zM333 758l68 144h132l-96 -144h-104zM159 758l67 144h133l-97 -144
h-103z" />
    <glyph glyph-name="uhungarumlaut" unicode="&#x171;" horiz-adv-x="556" 
d="M85 62c-23 39 -35 92 -35 159v302h138v-318c0 -28 9 -51 26 -69c17 -17 37 -25 61 -25c28 0 51 9 68 28c17 18 25 41 25 70v314h138v-523h-135v61c-13 -20 -30 -37 -53 -50c-27 -16 -56 -24 -87 -24c-67 0 -116 25 -146 75zM265 581l68 144h132l-96 -144h-104zM91 581
l67 144h133l-97 -144h-103z" />
    <glyph glyph-name="Uogonek" unicode="&#x172;" horiz-adv-x="692" 
d="M333 -51c9 15 22 28 38 39c-11 -1 -20 -1 -25 -1c-89 0 -159 25 -209 76c-49 49 -73 116 -73 200v437h141v-437c0 -45 12 -80 37 -106s59 -39 104 -39s79 13 104 39s37 61 37 106v437h141v-437c0 -121 -48 -204 -144 -249c-14 -7 -26 -15 -35 -25
c-13 -14 -20 -29 -20 -46c0 -14 6 -25 17 -34s22 -13 35 -13v-98c-9 -3 -21 -4 -35 -4c-37 0 -67 6 -89 19c-28 17 -42 43 -42 79c0 20 6 39 18 57z" />
    <glyph glyph-name="Uogonek113" unicode="&#x173;" horiz-adv-x="556" 
d="M364 -38c14 17 31 29 50 38h-43v61c-13 -20 -30 -37 -53 -50c-27 -16 -56 -24 -87 -24c-67 0 -116 25 -146 75c-23 39 -35 92 -35 159v302h138v-318c0 -28 9 -51 26 -69c17 -17 37 -25 61 -25c28 0 51 9 68 28c17 18 25 41 25 70v314h138v-523l-6 -3c-3 -1 -5 -3 -8 -4
c-7 -4 -13 -8 -18 -13c-15 -13 -23 -28 -23 -44c0 -13 6 -23 17 -30c10 -7 22 -10 35 -10v-98c-9 -3 -21 -4 -35 -4c-37 0 -67 6 -89 19c-28 17 -42 43 -42 79c0 25 9 49 27 70z" />
    <glyph glyph-name="wcircumflex071" unicode="&#x174;" horiz-adv-x="977" 
d="M620 0l-132 483l-132 -483h-159l-188 700h154l121 -524l139 524h130l139 -524l122 524h153l-187 -700h-160zM515 756l-27 39l-27 -39h-83l64 95h92l64 -95h-83z" />
    <glyph glyph-name="wcircumflex" unicode="&#x175;" horiz-adv-x="828" 
d="M510 0l-96 335l-97 -335h-154l-156 523h150l92 -371l100 371h130l99 -371l93 371h150l-157 -523h-154zM441 579l-27 39l-27 -39h-83l64 95h92l64 -95h-83z" />
    <glyph glyph-name="ycircumflex069" unicode="&#x176;" horiz-adv-x="584" 
d="M222 0v320l-215 380h159l126 -251l126 251h159l-215 -380v-320h-140zM319 756l-27 39l-27 -39h-83l64 95h92l64 -95h-83z" />
    <glyph glyph-name="ycircumflex" unicode="&#x177;" horiz-adv-x="540" 
d="M266 -179h-132l73 192l-201 510h148l117 -341l118 341h144zM297 579l-27 39l-28 -39h-83l65 95h91l65 -95h-83z" />
    <glyph glyph-name="Ydieresis038" unicode="&#x178;" horiz-adv-x="584" 
d="M222 0v320l-215 380h159l126 -251l126 251h159l-215 -380v-320h-140zM148 770c-13 13 -19 29 -19 48s6 35 19 48s30 20 49 20s36 -7 49 -20s19 -29 19 -48s-6 -35 -19 -48s-30 -20 -49 -20c-20 0 -36 7 -49 20zM340 770c-13 13 -19 29 -19 48s6 35 19 48s29 20 49 20
c19 0 36 -7 49 -20s19 -29 19 -48s-6 -35 -19 -48s-30 -20 -49 -20c-20 0 -36 7 -49 20z" />
    <glyph glyph-name="zacute068" unicode="&#x179;" horiz-adv-x="603" 
d="M32 0v92l344 483h-334v125h522v-92l-346 -483h349v-125h-535zM246 758l42 99h118l-72 -99h-88z" />
    <glyph glyph-name="zacute" unicode="&#x17a;" horiz-adv-x="468" 
d="M435 437l-236 -322h239v-115h-410v85l236 323h-229v115h400v-86zM180 581l42 99h118l-72 -99h-88z" />
    <glyph glyph-name="zdotaccent066" unicode="&#x17b;" horiz-adv-x="603" 
d="M32 0v92l344 483h-334v125h522v-92l-346 -483h349v-125h-535zM244 865c15 15 34 23 57 23s43 -8 58 -23s23 -33 23 -56s-8 -41 -23 -56s-35 -23 -58 -23s-42 8 -57 23s-23 33 -23 56s8 41 23 56z" />
    <glyph glyph-name="zdotaccent" unicode="&#x17c;" horiz-adv-x="468" 
d="M435 437l-236 -322h239v-115h-410v85l236 323h-229v115h400v-86zM181 705c15 15 34 23 57 23s43 -8 58 -23s23 -33 23 -56s-8 -41 -23 -56s-35 -23 -58 -23s-42 8 -57 23s-23 33 -23 56s8 41 23 56z" />
    <glyph glyph-name="Zcaron055" unicode="&#x17d;" horiz-adv-x="603" 
d="M32 0v92l344 483h-334v125h522v-92l-346 -483h349v-125h-535zM300 808l49 71h117l-95 -140h-142l-95 140h117z" />
    <glyph glyph-name="Zcaron" unicode="&#x17e;" horiz-adv-x="468" 
d="M435 437l-236 -322h239v-115h-410v85l236 323h-229v115h400v-86zM237 653l49 71h117l-95 -140h-142l-95 140h117z" />
    <glyph glyph-name="florin" unicode="&#x192;" horiz-adv-x="476" 
d="M285 323l-43 -327c-17 -125 -85 -188 -206 -188c-11 0 -23 1 -36 2c-5 1 -11 1 -16 2c-4 1 -8 1 -11 2l16 115c5 -1 11 -2 16 -3c6 -1 12 -1 19 -1c29 0 49 8 61 23c11 15 20 42 25 83l39 292h-60v112h75l13 99c8 63 33 109 76 140c34 25 77 37 128 37c25 0 46 -2 64 -6
l-15 -115h-2l-3 1l-9 1c-8 1 -15 2 -22 2c-47 0 -75 -25 -82 -74l-12 -85h87v-112h-102z" />
    <glyph glyph-name="Ohorn" unicode="&#x1a0;" horiz-adv-x="788" 
d="M238 515c-41 -44 -61 -99 -61 -165c0 -67 20 -123 61 -166s93 -65 156 -65s115 22 156 65s61 99 61 166c0 66 -20 121 -61 165s-93 66 -156 66s-115 -22 -156 -66zM612 647c16 -11 31 -24 45 -39c67 -69 101 -155 101 -258c0 -104 -34 -190 -101 -259
c-69 -69 -156 -104 -263 -104s-194 35 -263 104c-67 69 -101 155 -101 259c0 103 34 189 101 258c69 70 157 105 263 105c39 0 75 -5 109 -14c40 1 60 22 60 64h98c0 -45 -15 -83 -45 -112z" />
    <glyph glyph-name="Ohorn150" unicode="&#x1a1;" 
d="M204 151c27 -28 61 -42 102 -42c42 0 76 14 103 42c27 29 41 65 41 109c0 45 -14 81 -41 110s-62 44 -103 44s-76 -14 -103 -43s-40 -66 -40 -111c0 -44 14 -80 41 -109zM501 463l6 -6c54 -53 81 -118 81 -197s-26 -145 -79 -196s-121 -77 -203 -77
c-81 0 -149 26 -202 77s-79 117 -79 196s27 145 81 198c53 52 120 78 200 78c37 0 71 -6 103 -17c31 5 47 26 47 63h98c0 -45 -15 -83 -45 -112c-3 -3 -5 -5 -8 -7z" />
    <glyph glyph-name="Uhorn" unicode="&#x1af;" horiz-adv-x="692" 
d="M628 617v-354c0 -84 -24 -151 -73 -200c-50 -51 -120 -76 -209 -76s-159 25 -209 76c-49 49 -73 116 -73 200v437h141v-437c0 -45 12 -80 37 -106s59 -39 104 -39s79 13 104 39s37 61 37 106v437h93c32 5 48 26 48 63h98c0 -45 -15 -83 -45 -112c-15 -15 -33 -27 -53 -34
z" />
    <glyph glyph-name="Uhorn163" unicode="&#x1b0;" horiz-adv-x="556" 
d="M506 436v-436h-135v61c-13 -20 -30 -37 -53 -50c-27 -16 -56 -24 -87 -24c-67 0 -116 25 -146 75c-23 39 -35 92 -35 159v302h138v-318c0 -28 9 -51 26 -69c17 -17 37 -25 61 -25c28 0 51 9 68 28c17 18 25 41 25 70v314h105c22 9 33 28 33 59h98c0 -45 -15 -83 -45 -112
c-15 -15 -33 -27 -53 -34z" />
    <glyph glyph-name="Aringacute" unicode="&#x1fa;" horiz-adv-x="660" 
d="M449 180h-238l-61 -180h-142l239 676c-16 18 -24 40 -24 66c0 29 10 53 31 72c19 18 44 27 75 27s57 -9 77 -27c21 -19 31 -42 31 -71c0 -27 -8 -49 -25 -67l240 -676h-142zM412 297l-82 252l-81 -252h163zM264 869l67 144h145l-97 -144h-115zM368 743
c0 25 -13 38 -38 38s-38 -13 -38 -39s13 -39 38 -39s38 13 38 40z" />
    <glyph glyph-name="Aringacute120" unicode="&#x1fb;" horiz-adv-x="526" 
d="M80 287c37 32 86 48 147 48c24 0 47 -3 69 -10c18 -5 33 -11 44 -19v34c0 23 -8 42 -25 56s-40 21 -70 21c-45 0 -91 -12 -139 -37l-52 94c61 41 129 62 206 62c145 0 218 -68 218 -205v-331h-122l-9 34c-29 -31 -72 -47 -127 -47s-101 15 -138 46c-39 33 -58 76 -58 129
c0 51 19 93 56 125zM188 114c17 -13 39 -20 65 -20c27 0 48 7 65 20s25 30 25 52c0 23 -9 41 -26 54c-16 13 -38 19 -65 19s-48 -7 -65 -20c-17 -14 -25 -32 -25 -53s9 -39 26 -52zM187 585c-21 19 -31 42 -31 71s10 53 31 72c19 18 44 27 75 27s57 -9 77 -27
c21 -19 31 -42 31 -71s-10 -53 -31 -72c-20 -19 -46 -28 -77 -28c-30 0 -55 9 -75 28zM301 657c0 25 -13 38 -38 38s-38 -13 -38 -39s13 -39 38 -39s38 13 38 40zM195 774l67 144h145l-97 -144h-115z" />
    <glyph glyph-name="AEacute" unicode="&#x1fc;" horiz-adv-x="857" 
d="M8 0l365 700h430v-127h-218v-156h187v-125h-187v-166h227v-126h-368v180h-192l-91 -180h-153zM439 563l-135 -266h140v266h-5zM446 738l67 144h145l-97 -144h-115z" />
    <glyph glyph-name="AEacute121" unicode="&#x1fd;" horiz-adv-x="870" 
d="M188 114c17 -13 39 -20 65 -20s47 7 64 20s25 30 25 52c0 23 -8 41 -25 54s-38 19 -65 19s-48 -7 -65 -20c-17 -14 -25 -32 -25 -53s9 -39 26 -52zM482 317h224c-1 32 -12 58 -33 77s-47 29 -79 29c-31 0 -57 -10 -78 -30c-19 -20 -31 -45 -34 -76zM846 227h-368
c1 -35 15 -64 40 -86c25 -23 57 -34 96 -34c31 0 60 8 85 24c9 6 18 13 26 21c6 6 11 12 16 19l91 -69c-6 -11 -14 -22 -25 -34c-13 -14 -27 -26 -44 -37c-43 -29 -94 -44 -151 -44c-91 0 -161 29 -208 87c-37 -58 -99 -87 -184 -87c-55 0 -101 15 -138 46
c-39 33 -58 76 -58 129c0 51 19 93 56 125s86 48 147 48c24 0 47 -3 69 -10c18 -5 33 -11 44 -19v34c0 23 -8 42 -25 56s-40 21 -70 21c-45 0 -91 -12 -139 -37l-26 47l-26 47c63 41 132 62 206 62c77 0 133 -22 167 -66c44 44 99 66 165 66c81 0 144 -25 189 -75
c44 -49 66 -117 66 -204c0 -13 0 -23 -1 -30zM363 581l67 144h145l-97 -144h-115z" />
    <glyph glyph-name="Oslashacute" unicode="&#x1fe;" horiz-adv-x="788" 
d="M203 35l-47 -59l-75 60l47 59c-65 67 -98 152 -98 255s34 189 101 258c69 70 157 105 263 105c68 0 130 -16 187 -47l46 58l76 -60l-46 -57c67 -69 101 -154 101 -257c0 -104 -34 -190 -101 -259c-69 -69 -156 -104 -263 -104c-71 0 -135 16 -191 48zM567 493l-277 -349
c31 -17 66 -25 104 -25c63 0 115 22 156 65s61 99 61 166c0 55 -15 102 -44 143zM238 515c-41 -44 -61 -99 -61 -165c0 -54 14 -101 41 -141l276 348c-31 16 -64 24 -100 24c-63 0 -115 -22 -156 -66zM323 738l67 144h145l-97 -144h-115z" />
    <glyph glyph-name="Oslashacute122" unicode="&#x1ff;" 
d="M106 458c53 52 120 78 200 78c51 0 97 -11 139 -34l38 48l66 -51l-37 -47c51 -53 76 -117 76 -192c0 -79 -26 -145 -79 -196s-121 -77 -203 -77c-50 0 -96 10 -137 31l-39 -50l-65 51l37 47c-51 53 -77 117 -77 194c0 79 27 145 81 198zM186 173l180 228
c-19 9 -39 13 -60 13c-41 0 -76 -14 -103 -43s-40 -66 -40 -111c0 -33 8 -62 23 -87zM428 345l-178 -226c16 -7 35 -10 56 -10c42 0 76 14 103 42c27 29 41 65 41 109c0 31 -7 60 -22 85zM233 581l67 144h145l-97 -144h-115z" />
    <glyph glyph-name="scommaaccent054" unicode="&#x218;" horiz-adv-x="521" 
d="M418 656c15 -15 29 -32 40 -51c9 -15 16 -30 21 -45l-117 -53c-10 22 -21 39 -34 50c-18 17 -41 26 -68 26c-23 0 -42 -6 -56 -19c-13 -13 -20 -29 -20 -48c0 -25 16 -48 48 -68c11 -7 27 -16 48 -26l28 -13l28 -13c47 -23 82 -47 105 -71c31 -35 47 -76 47 -125
c0 -63 -21 -114 -62 -153c-43 -40 -100 -60 -172 -60c-66 0 -121 20 -165 60c-17 15 -31 32 -43 53c-10 15 -18 32 -24 49l119 58c25 -59 65 -89 121 -89c55 0 83 24 83 72c0 26 -16 49 -47 70c-11 7 -28 16 -49 26l-27 13l-28 14c-47 23 -81 48 -104 73
c-31 35 -47 77 -47 128c0 59 20 107 60 144s93 55 160 55c62 0 114 -19 155 -57zM217 -212c10 13 17 25 20 37c-19 4 -33 13 -44 27c-10 13 -15 28 -15 45c0 21 7 38 22 52c15 15 32 22 53 22c23 0 41 -8 56 -23c15 -16 22 -37 22 -63c0 -73 -32 -132 -95 -176l-48 51
c11 9 20 18 29 28z" />
    <glyph glyph-name="scommaaccent" unicode="&#x219;" horiz-adv-x="435" 
d="M88 19c-29 17 -52 38 -69 65l81 72c33 -38 73 -57 120 -57c43 0 64 16 64 47c0 17 -13 32 -39 44c-9 5 -22 10 -39 16l-22 9l-23 9c-83 34 -124 86 -124 157c0 47 18 85 55 114c35 27 80 41 135 41c45 0 84 -10 117 -31c26 -16 47 -37 62 -62l-91 -68c-5 6 -10 11 -15 16
c-6 7 -13 12 -20 17c-18 11 -38 17 -59 17c-36 0 -54 -14 -54 -42c0 -18 13 -33 39 -45c9 -4 22 -9 39 -15l23 -8l23 -8c83 -31 124 -83 124 -154c0 -50 -19 -90 -58 -121c-37 -30 -85 -45 -143 -45c-47 0 -89 11 -126 32zM183 -212c10 13 17 25 20 37c-19 4 -33 13 -44 27
c-10 13 -15 28 -15 45c0 21 7 38 22 52c15 15 32 22 53 22c23 0 41 -8 56 -23c15 -16 22 -37 22 -63c0 -73 -32 -132 -95 -176l-48 51c11 9 20 18 29 28z" />
    <glyph glyph-name="uni0237" unicode="&#x237;" horiz-adv-x="247" 
d="M54 -1v524h138v-530c0 -123 -67 -184 -200 -184c-11 0 -22 1 -34 2v117c9 -1 17 -2 24 -2c48 0 72 24 72 73z" />
    <glyph glyph-name="circumflex" unicode="&#x2c6;" horiz-adv-x="445" 
d="M251 579l-27 39l-27 -39h-83l64 95h92l64 -95h-83z" />
    <glyph glyph-name="caron" unicode="&#x2c7;" horiz-adv-x="445" 
d="M222 653l49 71h117l-95 -140h-142l-95 140h117z" />
    <glyph glyph-name="breve" unicode="&#x2d8;" horiz-adv-x="445" 
d="M154 603c-18 18 -27 43 -27 75h74c0 -27 9 -40 28 -40s29 13 29 40h74c0 -32 -9 -57 -27 -75c-19 -18 -44 -27 -76 -27c-31 0 -56 9 -75 27z" />
    <glyph glyph-name="dotaccent" unicode="&#x2d9;" horiz-adv-x="445" 
d="M165 705c15 15 34 23 57 23s43 -8 58 -23s23 -33 23 -56s-8 -41 -23 -56s-35 -23 -58 -23s-42 8 -57 23s-23 33 -23 56s8 41 23 56z" />
    <glyph glyph-name="ring" unicode="&#x2da;" horiz-adv-x="445" 
d="M146 592c-21 19 -31 42 -31 71s10 53 31 72c19 18 44 27 75 27s57 -9 77 -27c21 -19 31 -42 31 -71s-10 -53 -31 -72c-20 -19 -46 -28 -77 -28c-30 0 -55 9 -75 28zM260 664c0 25 -13 38 -38 38s-38 -13 -38 -39s13 -39 38 -39s38 13 38 40z" />
    <glyph glyph-name="ogonek" unicode="&#x2db;" horiz-adv-x="445" 
d="M165 -38c14 17 31 29 50 38h92l-6 -3c-3 -1 -5 -3 -8 -4c-7 -4 -13 -8 -18 -13c-15 -13 -23 -28 -23 -44c0 -13 6 -23 17 -30c10 -7 22 -10 35 -10v-98c-4 -1 -9 -2 -15 -3c-7 -1 -14 -1 -20 -1c-37 0 -67 6 -89 19c-28 17 -42 43 -42 79c0 25 9 49 27 70z" />
    <glyph glyph-name="tilde" unicode="&#x2dc;" horiz-adv-x="445" 
d="M222 599l-10 5l-9 4c-7 3 -14 4 -19 4c-14 0 -21 -9 -21 -26h-60c0 27 7 49 21 66c13 17 31 26 54 26c14 0 30 -4 48 -13l10 -5l9 -4c7 -3 13 -4 18 -4c14 0 21 9 21 26h60c0 -28 -7 -50 -20 -66c-13 -17 -31 -25 -54 -25c-13 0 -29 4 -48 12z" />
    <glyph glyph-name="hungarumlaut" unicode="&#x2dd;" horiz-adv-x="465" 
d="M219 581l68 144h132l-96 -144h-104zM45 581l67 144h133l-97 -144h-103z" />
    <glyph glyph-name="gravecomb" unicode="&#x300;" horiz-adv-x="0" 
d="M-211 677l41 -96h-82l-71 96h112z" />
    <glyph glyph-name="acutecomb" unicode="&#x301;" horiz-adv-x="0" 
d="M-327 581l42 99h118l-72 -99h-88z" />
    <glyph glyph-name="tildecomb" unicode="&#x303;" horiz-adv-x="0" 
d="M-252 599l-10 5l-9 4c-7 3 -14 4 -19 4c-14 0 -21 -9 -21 -26h-60c0 27 7 49 21 66c13 17 31 26 54 26c14 0 30 -4 48 -13l10 -5l9 -4c7 -3 13 -4 18 -4c14 0 21 9 21 26h60c0 -28 -7 -50 -20 -66c-13 -17 -31 -25 -54 -25c-13 0 -29 4 -48 12z" />
    <glyph glyph-name="hookabovecomb" unicode="&#x309;" horiz-adv-x="445" 
d="M231 567c-7 -3 -14 -5 -21 -8l-22 55l9 3l5 2c4 2 7 4 10 6c13 9 17 18 10 27c-5 9 -16 8 -32 -3c-3 -1 -7 -5 -13 -12l-24 52l46 24c17 7 33 7 48 2c15 -4 27 -13 36 -27c13 -19 16 -39 9 -60c-7 -19 -20 -36 -41 -50c-5 -3 -12 -7 -20 -11z" />
    <glyph glyph-name="uni031B" unicode="&#x31b;" horiz-adv-x="378" 
d="M189 398v93c42 0 63 21 63 64h98c0 -45 -15 -82 -45 -112s-69 -45 -116 -45z" />
    <glyph glyph-name="dotbelowcomb" unicode="&#x323;" horiz-adv-x="0" 
d="M-230 -184c-11 11 -17 25 -17 41c0 17 6 31 17 43s25 18 42 18s31 -6 42 -18c12 -12 18 -26 18 -43c0 -16 -6 -30 -18 -41c-11 -11 -25 -17 -42 -17s-31 6 -42 17z" />
    <glyph glyph-name="Wgrave" unicode="&#x1e80;" horiz-adv-x="977" 
d="M620 0l-132 483l-132 -483h-159l-188 700h154l121 -524l139 524h130l139 -524l122 524h153l-187 -700h-160zM504 854l41 -96h-82l-71 96h112z" />
    <glyph glyph-name="Wgrave123" unicode="&#x1e81;" horiz-adv-x="828" 
d="M510 0l-96 335l-97 -335h-154l-156 523h150l92 -371l100 371h130l99 -371l93 371h150l-157 -523h-154zM430 677l41 -96h-82l-71 96h112z" />
    <glyph glyph-name="Wacute" unicode="&#x1e82;" horiz-adv-x="976" 
d="M620 0l-132 483l-132 -483h-159l-188 700h154l121 -524l139 524h130l139 -524l122 524h153l-187 -700h-160zM426 738l67 144h145l-97 -144h-115z" />
    <glyph glyph-name="Wacute124" unicode="&#x1e83;" horiz-adv-x="828" 
d="M510 0l-96 335l-97 -335h-154l-156 523h150l92 -371l100 371h130l99 -371l93 371h150l-157 -523h-154zM359 581l67 144h145l-97 -144h-115z" />
    <glyph glyph-name="Wdieresis" unicode="&#x1e84;" horiz-adv-x="976" 
d="M620 0l-132 483l-132 -483h-159l-188 700h154l121 -524l139 524h130l139 -524l122 524h153l-187 -700h-160zM344 764c-13 13 -19 29 -19 48s6 35 19 48s30 20 49 20s36 -7 49 -20s19 -29 19 -48s-6 -35 -19 -48s-30 -20 -49 -20c-20 0 -36 7 -49 20zM536 764
c-13 13 -19 29 -19 48s6 35 19 48s29 20 49 20c19 0 36 -7 49 -20s19 -29 19 -48s-6 -35 -19 -48s-30 -20 -49 -20c-20 0 -36 7 -49 20z" />
    <glyph glyph-name="Wdieresis125" unicode="&#x1e85;" horiz-adv-x="828" 
d="M510 0l-96 335l-97 -335h-154l-156 523h150l92 -371l100 371h130l99 -371l93 371h150l-157 -523h-154zM268 605c-13 13 -19 29 -19 48s6 35 19 48s30 20 49 20s36 -7 49 -20s19 -29 19 -48s-6 -35 -19 -48s-30 -20 -49 -20c-20 0 -36 7 -49 20zM460 605
c-13 13 -19 29 -19 48s6 35 19 48s29 20 49 20c19 0 36 -7 49 -20s19 -29 19 -48s-6 -35 -19 -48s-30 -20 -49 -20c-20 0 -36 7 -49 20z" />
    <glyph glyph-name="A.dotbl" unicode="&#x1ea0;" horiz-adv-x="660" 
d="M449 180h-238l-61 -180h-142l248 700h148l248 -700h-142zM412 297l-82 252l-81 -252h163zM288 -184c-11 11 -17 25 -17 41c0 17 6 31 17 43s25 18 42 18s31 -6 42 -18c12 -12 18 -26 18 -43c0 -16 -6 -30 -18 -41c-11 -11 -25 -17 -42 -17s-31 6 -42 17z" />
    <glyph glyph-name="A.dotbl127" unicode="&#x1ea1;" horiz-adv-x="526" 
d="M80 287c37 32 86 48 147 48c24 0 47 -3 69 -10c18 -5 33 -11 44 -19v34c0 23 -8 42 -25 56s-40 21 -70 21c-45 0 -91 -12 -139 -37l-52 94c61 41 129 62 206 62c145 0 218 -68 218 -205v-331h-122l-9 34c-29 -31 -72 -47 -127 -47s-101 15 -138 46c-39 33 -58 76 -58 129
c0 51 19 93 56 125zM188 114c17 -13 39 -20 65 -20c27 0 48 7 65 20s25 30 25 52c0 23 -9 41 -26 54c-16 13 -38 19 -65 19s-48 -7 -65 -20c-17 -14 -25 -32 -25 -53s9 -39 26 -52zM209 -184c-11 11 -17 25 -17 41c0 17 6 31 17 43s25 18 42 18s31 -6 42 -18
c12 -12 18 -26 18 -43c0 -16 -6 -30 -18 -41c-11 -11 -25 -17 -42 -17s-31 6 -42 17z" />
    <glyph glyph-name="A.hook" unicode="&#x1ea2;" horiz-adv-x="660" 
d="M449 180h-238l-61 -180h-142l248 700h148l248 -700h-142zM412 297l-82 252l-81 -252h163zM337 744c-7 -3 -14 -5 -22 -8l-21 55l9 3l5 2c4 2 7 4 10 6c13 9 17 18 10 27c-6 9 -17 8 -32 -3c-3 -1 -7 -5 -13 -12l-24 52l46 24c17 7 33 7 48 2c15 -4 27 -13 36 -27
c13 -19 16 -39 9 -60c-7 -19 -20 -36 -41 -50c-5 -3 -12 -7 -20 -11z" />
    <glyph glyph-name="A.hook128" unicode="&#x1ea3;" horiz-adv-x="526" 
d="M80 287c37 32 86 48 147 48c24 0 47 -3 69 -10c18 -5 33 -11 44 -19v34c0 23 -8 42 -25 56s-40 21 -70 21c-45 0 -91 -12 -139 -37l-52 94c61 41 129 62 206 62c145 0 218 -68 218 -205v-331h-122l-9 34c-29 -31 -72 -47 -127 -47s-101 15 -138 46c-39 33 -58 76 -58 129
c0 51 19 93 56 125zM188 114c17 -13 39 -20 65 -20c27 0 48 7 65 20s25 30 25 52c0 23 -9 41 -26 54c-16 13 -38 19 -65 19s-48 -7 -65 -20c-17 -14 -25 -32 -25 -53s9 -39 26 -52zM258 567c-7 -3 -14 -5 -22 -8l-21 55l9 3l5 2c4 2 7 4 10 6c13 9 17 18 10 27
c-6 9 -17 8 -32 -3c-3 -1 -7 -5 -13 -12l-24 52l46 24c17 7 33 7 48 2c15 -4 27 -13 36 -27c13 -19 16 -39 9 -60c-7 -19 -20 -36 -41 -50c-5 -3 -12 -7 -20 -11z" />
    <glyph glyph-name="Acir.acute" unicode="&#x1ea4;" horiz-adv-x="660" 
d="M449 180h-238l-61 -180h-142l248 700h148l248 -700h-142zM412 297l-82 252l-81 -252h163zM357 743l-27 39l-27 -39h-83l64 95h92l65 -95h-84zM427 799l42 99h118l-72 -99h-88z" />
    <glyph glyph-name="Acir.acute129" unicode="&#x1ea5;" horiz-adv-x="526" 
d="M80 287c37 32 86 48 147 48c24 0 47 -3 69 -10c18 -5 33 -11 44 -19v34c0 23 -8 42 -25 56s-40 21 -70 21c-45 0 -91 -12 -139 -37l-52 94c61 41 129 62 206 62c145 0 218 -68 218 -205v-331h-122l-9 34c-29 -31 -72 -47 -127 -47s-101 15 -138 46c-39 33 -58 76 -58 129
c0 51 19 93 56 125zM188 114c17 -13 39 -20 65 -20c27 0 48 7 65 20s25 30 25 52c0 23 -9 41 -26 54c-16 13 -38 19 -65 19s-48 -7 -65 -20c-17 -14 -25 -32 -25 -53s9 -39 26 -52zM278 579l-27 39l-27 -39h-83l64 95h92l64 -95h-83zM335 667l42 99h118l-72 -99h-88z" />
    <glyph glyph-name="Acir.grave" unicode="&#x1ea6;" horiz-adv-x="660" 
d="M449 180h-238l-61 -180h-142l248 700h148l248 -700h-142zM412 297l-82 252l-81 -252h163zM357 743l-27 40l-27 -40h-83l64 95h92l64 -95h-83zM481 908l41 -96h-82l-71 96h112z" />
    <glyph glyph-name="Acir.grave130" unicode="&#x1ea7;" horiz-adv-x="526" 
d="M80 287c37 32 86 48 147 48c24 0 47 -3 69 -10c18 -5 33 -11 44 -19v34c0 23 -8 42 -25 56s-40 21 -70 21c-45 0 -91 -12 -139 -37l-52 94c61 41 129 62 206 62c145 0 218 -68 218 -205v-331h-122l-9 34c-29 -31 -72 -47 -127 -47s-101 15 -138 46c-39 33 -58 76 -58 129
c0 51 19 93 56 125zM188 114c17 -13 39 -20 65 -20c27 0 48 7 65 20s25 30 25 52c0 23 -9 41 -26 54c-16 13 -38 19 -65 19s-48 -7 -65 -20c-17 -14 -25 -32 -25 -53s9 -39 26 -52zM278 579l-27 39l-27 -39h-83l64 95h92l64 -95h-83zM394 743l41 -96h-82l-71 96h112z" />
    <glyph glyph-name="Acir.hook" unicode="&#x1ea8;" horiz-adv-x="660" 
d="M449 180h-238l-61 -180h-142l248 700h148l248 -700h-142zM412 297l-82 252l-81 -252h163zM357 743l-27 39l-27 -39h-83l64 95h92l64 -95h-83zM468 798c-7 -3 -14 -5 -21 -8l-22 55l9 3l5 2c4 2 7 4 10 6c13 9 17 18 10 27c-5 9 -16 8 -32 -3c-3 -1 -7 -5 -13 -12l-24 52
l46 24c17 7 33 7 48 2c15 -4 27 -13 36 -27c13 -19 16 -39 9 -60c-7 -19 -20 -36 -41 -50c-5 -3 -12 -7 -20 -11z" />
    <glyph glyph-name="Acir.hook131" unicode="&#x1ea9;" horiz-adv-x="526" 
d="M80 287c37 32 86 48 147 48c24 0 47 -3 69 -10c18 -5 33 -11 44 -19v34c0 23 -8 42 -25 56s-40 21 -70 21c-45 0 -91 -12 -139 -37l-52 94c61 41 129 62 206 62c145 0 218 -68 218 -205v-331h-122l-9 34c-29 -31 -72 -47 -127 -47s-101 15 -138 46c-39 33 -58 76 -58 129
c0 51 19 93 56 125zM188 114c17 -13 39 -20 65 -20c27 0 48 7 65 20s25 30 25 52c0 23 -9 41 -26 54c-16 13 -38 19 -65 19s-48 -7 -65 -20c-17 -14 -25 -32 -25 -53s9 -39 26 -52zM278 579l-27 39l-27 -39h-83l64 95h92l64 -95h-83zM374 635c-7 -3 -14 -6 -21 -8l-21 54
l9 4l5 2c3 1 7 3 10 5c13 9 17 19 10 28c-6 9 -17 8 -33 -3c-3 -2 -7 -6 -13 -12l-24 52l47 23c16 7 32 8 47 3s27 -14 36 -27c13 -19 16 -39 9 -60c-7 -20 -20 -37 -40 -51c-5 -3 -12 -7 -21 -10z" />
    <glyph glyph-name="Acir.tilde" unicode="&#x1eaa;" horiz-adv-x="660" 
d="M449 180h-238l-61 -180h-142l248 700h148l248 -700h-142zM412 297l-82 252l-81 -252h163zM358 743l-27 40l-27 -40h-83l64 95h92l64 -95h-83zM339 884l-10 5l-10 4c-7 3 -13 4 -18 4c-15 0 -22 -9 -22 -26h-59c0 27 7 49 20 66c14 17 32 26 55 26c14 0 30 -4 48 -13
l10 -5l9 -4c7 -3 12 -4 17 -4c15 0 22 9 22 26h60c0 -28 -7 -50 -21 -66c-13 -17 -31 -25 -53 -25c-13 0 -29 4 -48 12z" />
    <glyph glyph-name="Acir.tilde132" unicode="&#x1eab;" horiz-adv-x="526" 
d="M80 287c37 32 86 48 147 48c24 0 47 -3 69 -10c18 -5 33 -11 44 -19v34c0 23 -8 42 -25 56s-40 21 -70 21c-45 0 -91 -12 -139 -37l-52 94c61 41 129 62 206 62c145 0 218 -68 218 -205v-331h-122l-9 34c-29 -31 -72 -47 -127 -47s-101 15 -138 46c-39 33 -58 76 -58 129
c0 51 19 93 56 125zM188 114c17 -13 39 -20 65 -20c27 0 48 7 65 20s25 30 25 52c0 23 -9 41 -26 54c-16 13 -38 19 -65 19s-48 -7 -65 -20c-17 -14 -25 -32 -25 -53s9 -39 26 -52zM278 579l-27 39l-27 -39h-83l64 95h92l64 -95h-83zM250 711l-10 4l-10 4c-7 3 -13 4 -18 4
c-15 0 -22 -9 -22 -26h-59c0 27 7 50 20 67c14 17 32 25 55 25c14 0 30 -4 48 -13l10 -4l9 -4c7 -3 12 -4 17 -4c15 0 22 9 22 26h60c0 -28 -7 -50 -21 -67c-13 -17 -31 -25 -53 -25c-13 0 -29 4 -48 13z" />
    <glyph glyph-name="Acir.dotbl" unicode="&#x1eac;" horiz-adv-x="660" 
d="M449 180h-238l-61 -180h-142l248 700h148l248 -700h-142zM412 297l-82 252l-81 -252h163zM357 743l-27 39l-28 -39h-83l65 95h91l65 -95h-83zM288 -184c-11 11 -17 25 -17 41c0 17 6 31 17 43s25 18 42 18s31 -6 42 -18c12 -12 18 -26 18 -43c0 -16 -6 -30 -18 -41
c-11 -11 -25 -17 -42 -17s-31 6 -42 17z" />
    <glyph glyph-name="Acir.dotbl133" unicode="&#x1ead;" horiz-adv-x="526" 
d="M80 287c37 32 86 48 147 48c24 0 47 -3 69 -10c18 -5 33 -11 44 -19v34c0 23 -8 42 -25 56s-40 21 -70 21c-45 0 -91 -12 -139 -37l-52 94c61 41 129 62 206 62c145 0 218 -68 218 -205v-331h-122l-9 34c-29 -31 -72 -47 -127 -47s-101 15 -138 46c-39 33 -58 76 -58 129
c0 51 19 93 56 125zM188 114c17 -13 39 -20 65 -20c27 0 48 7 65 20s25 30 25 52c0 23 -9 41 -26 54c-16 13 -38 19 -65 19s-48 -7 -65 -20c-17 -14 -25 -32 -25 -53s9 -39 26 -52zM278 579l-27 39l-27 -39h-83l64 95h92l64 -95h-83zM209 -184c-11 11 -17 25 -17 41
c0 17 6 31 17 43s25 18 42 18s31 -6 42 -18c12 -12 18 -26 18 -43c0 -16 -6 -30 -18 -41c-11 -11 -25 -17 -42 -17s-31 6 -42 17z" />
    <glyph glyph-name="Abrv.acute" unicode="&#x1eae;" horiz-adv-x="660" 
d="M449 180h-238l-61 -180h-142l248 700h148l248 -700h-142zM412 297l-82 252l-81 -252h163zM255 770c-18 18 -27 43 -27 75h74c0 -27 9 -40 28 -40s29 13 29 40h74c0 -33 -9 -58 -27 -75c-19 -18 -44 -27 -76 -27c-31 0 -56 9 -75 27zM284 878l42 99h118l-72 -99h-88z" />
    <glyph glyph-name="Abrv.acute134" unicode="&#x1eaf;" horiz-adv-x="526" 
d="M80 287c37 32 86 48 147 48c24 0 47 -3 69 -10c18 -5 33 -11 44 -19v34c0 23 -8 42 -25 56s-40 21 -70 21c-45 0 -91 -12 -139 -37l-52 94c61 41 129 62 206 62c145 0 218 -68 218 -205v-331h-122l-9 34c-29 -31 -72 -47 -127 -47s-101 15 -138 46c-39 33 -58 76 -58 129
c0 51 19 93 56 125zM188 114c17 -13 39 -20 65 -20c27 0 48 7 65 20s25 30 25 52c0 23 -9 41 -26 54c-16 13 -38 19 -65 19s-48 -7 -65 -20c-17 -14 -25 -32 -25 -53s9 -39 26 -52zM175 603c-17 18 -26 43 -26 75h73c0 -27 10 -40 29 -40s29 13 29 40h74
c0 -32 -9 -57 -27 -75c-19 -18 -44 -27 -76 -27s-57 9 -76 27zM198 703l42 99h118l-72 -99h-88z" />
    <glyph glyph-name="Abrv.grave" unicode="&#x1eb0;" horiz-adv-x="660" 
d="M449 180h-238l-61 -180h-142l248 700h148l248 -700h-142zM412 297l-82 252l-81 -252h163zM254 771c-18 17 -27 42 -27 75h74c0 -27 10 -40 29 -40s29 13 29 40h73c0 -33 -9 -58 -26 -75c-19 -18 -44 -27 -76 -27s-57 9 -76 27zM330 980l41 -96h-82l-71 96h112z" />
    <glyph glyph-name="Abrv.grave135" unicode="&#x1eb1;" horiz-adv-x="526" 
d="M80 287c37 32 86 48 147 48c24 0 47 -3 69 -10c18 -5 33 -11 44 -19v34c0 23 -8 42 -25 56s-40 21 -70 21c-45 0 -91 -12 -139 -37l-52 94c61 41 129 62 206 62c145 0 218 -68 218 -205v-331h-122l-9 34c-29 -31 -72 -47 -127 -47s-101 15 -138 46c-39 33 -58 76 -58 129
c0 51 19 93 56 125zM188 114c17 -13 39 -20 65 -20c27 0 48 7 65 20s25 30 25 52c0 23 -9 41 -26 54c-16 13 -38 19 -65 19s-48 -7 -65 -20c-17 -14 -25 -32 -25 -53s9 -39 26 -52zM175 603c-17 18 -26 43 -26 75h73c0 -27 10 -40 29 -40s29 13 29 40h74
c0 -32 -9 -57 -27 -75c-19 -18 -44 -27 -76 -27s-57 9 -76 27zM267 798l41 -96h-82l-71 96h112z" />
    <glyph glyph-name="Abrv.hook" unicode="&#x1eb2;" horiz-adv-x="660" 
d="M449 180h-238l-61 -180h-142l248 700h148l248 -700h-142zM412 297l-82 252l-81 -252h163zM255 770c-18 17 -27 42 -27 75h74c0 -27 9 -40 28 -40s29 13 29 40h74c0 -33 -9 -58 -27 -75c-19 -18 -44 -27 -76 -27c-31 0 -56 9 -75 27zM345 886l-21 -6l-21 41l9 3l5 1
c3 1 7 3 10 4c13 7 17 14 10 21c-6 7 -17 6 -33 -2c-3 -1 -7 -4 -13 -9l-24 39l47 17c16 5 32 6 47 3c15 -4 27 -11 36 -21c13 -14 16 -29 9 -45c-6 -15 -19 -27 -40 -38c-5 -3 -12 -5 -21 -8z" />
    <glyph glyph-name="Abrv.hook136" unicode="&#x1eb3;" horiz-adv-x="526" 
d="M80 287c37 32 86 48 147 48c24 0 47 -3 69 -10c18 -5 33 -11 44 -19v34c0 23 -8 42 -25 56s-40 21 -70 21c-45 0 -91 -12 -139 -37l-52 94c61 41 129 62 206 62c145 0 218 -68 218 -205v-331h-122l-9 34c-29 -31 -72 -47 -127 -47s-101 15 -138 46c-39 33 -58 76 -58 129
c0 51 19 93 56 125zM188 114c17 -13 39 -20 65 -20c27 0 48 7 65 20s25 30 25 52c0 23 -9 41 -26 54c-16 13 -38 19 -65 19s-48 -7 -65 -20c-17 -14 -25 -32 -25 -53s9 -39 26 -52zM175 603c-17 18 -26 43 -26 75h73c0 -27 10 -40 29 -40s29 13 29 40h74
c0 -32 -9 -57 -27 -75c-19 -18 -44 -27 -76 -27s-57 9 -76 27zM258 686c-7 -3 -14 -5 -22 -8l-21 55l9 3l5 2c4 2 7 4 10 6c13 9 17 18 10 27c-6 9 -17 8 -32 -3c-3 -1 -7 -5 -13 -12l-24 52l46 24c17 7 33 7 48 2c15 -4 27 -13 36 -27c13 -19 16 -39 9 -60
c-7 -19 -20 -36 -41 -50c-5 -3 -12 -7 -20 -11z" />
    <glyph glyph-name="Abrv.tilde" unicode="&#x1eb4;" horiz-adv-x="660" 
d="M449 180h-238l-61 -180h-142l248 700h148l248 -700h-142zM412 297l-82 252l-81 -252h163zM261 770c-18 18 -27 43 -27 75h73c0 -27 10 -40 29 -40s29 13 29 40h74c0 -32 -9 -57 -27 -75c-19 -18 -44 -27 -76 -27c-31 0 -56 9 -75 27zM342 893l-10 5l-10 4
c-7 3 -13 4 -18 4c-15 0 -22 -9 -22 -26h-59c0 27 7 49 20 66c14 17 32 26 55 26c14 0 30 -4 48 -13l10 -5l9 -4c7 -3 12 -4 17 -4c15 0 22 9 22 26h60c0 -28 -7 -50 -21 -66c-13 -17 -31 -25 -53 -25c-13 0 -29 4 -48 12z" />
    <glyph glyph-name="Abrv.tilde137" unicode="&#x1eb5;" horiz-adv-x="526" 
d="M80 287c37 32 86 48 147 48c24 0 47 -3 69 -10c18 -5 33 -11 44 -19v34c0 23 -8 42 -25 56s-40 21 -70 21c-45 0 -91 -12 -139 -37l-52 94c61 41 129 62 206 62c145 0 218 -68 218 -205v-331h-122l-9 34c-29 -31 -72 -47 -127 -47s-101 15 -138 46c-39 33 -58 76 -58 129
c0 51 19 93 56 125zM188 114c17 -13 39 -20 65 -20c27 0 48 7 65 20s25 30 25 52c0 23 -9 41 -26 54c-16 13 -38 19 -65 19s-48 -7 -65 -20c-17 -14 -25 -32 -25 -53s9 -39 26 -52zM175 603c-17 18 -26 43 -26 75h73c0 -27 10 -40 29 -40s29 13 29 40h74
c0 -32 -9 -57 -27 -75c-19 -18 -44 -27 -76 -27s-57 9 -76 27zM250 714l-10 5l-10 4c-7 3 -13 4 -18 4c-15 0 -22 -9 -22 -26h-59c0 27 7 50 20 67c14 17 32 25 55 25c14 0 30 -4 48 -13l10 -4l9 -4c7 -3 12 -4 17 -4c15 0 22 9 22 26h60c0 -28 -7 -50 -21 -67
c-13 -17 -31 -25 -53 -25c-13 0 -29 4 -48 12z" />
    <glyph glyph-name="Abrv.dotbl" unicode="&#x1eb6;" horiz-adv-x="660" 
d="M449 180h-238l-61 -180h-142l248 700h148l248 -700h-142zM412 297l-82 252l-81 -252h163zM254 770c-18 18 -27 43 -27 75h74c0 -27 10 -40 29 -40s29 13 29 40h73c0 -33 -9 -58 -26 -75c-19 -18 -44 -27 -76 -27s-57 9 -76 27zM288 -184c-11 11 -17 25 -17 41
c0 17 6 31 17 43s25 18 42 18s31 -6 42 -18c12 -12 18 -26 18 -43c0 -16 -6 -30 -18 -41c-11 -11 -25 -17 -42 -17s-31 6 -42 17z" />
    <glyph glyph-name="Abrv.dotbl138" unicode="&#x1eb7;" horiz-adv-x="526" 
d="M80 287c37 32 86 48 147 48c24 0 47 -3 69 -10c18 -5 33 -11 44 -19v34c0 23 -8 42 -25 56s-40 21 -70 21c-45 0 -91 -12 -139 -37l-52 94c61 41 129 62 206 62c145 0 218 -68 218 -205v-331h-122l-9 34c-29 -31 -72 -47 -127 -47s-101 15 -138 46c-39 33 -58 76 -58 129
c0 51 19 93 56 125zM188 114c17 -13 39 -20 65 -20c27 0 48 7 65 20s25 30 25 52c0 23 -9 41 -26 54c-16 13 -38 19 -65 19s-48 -7 -65 -20c-17 -14 -25 -32 -25 -53s9 -39 26 -52zM175 603c-17 18 -26 43 -26 75h73c0 -27 10 -40 29 -40s29 13 29 40h74
c0 -32 -9 -57 -27 -75c-19 -18 -44 -27 -76 -27s-57 9 -76 27zM209 -184c-11 11 -17 25 -17 41c0 17 6 31 17 43s25 18 42 18s31 -6 42 -18c12 -12 18 -26 18 -43c0 -16 -6 -30 -18 -41c-11 -11 -25 -17 -42 -17s-31 6 -42 17z" />
    <glyph glyph-name="E.dotbl" unicode="&#x1eb8;" horiz-adv-x="481" 
d="M67 0v700h360v-127h-219v-156h188v-125h-188v-166h228v-126h-369zM209 -184c-11 11 -17 25 -17 41c0 17 6 31 17 43s26 18 43 18s31 -6 42 -18s17 -26 17 -43c0 -16 -6 -30 -17 -41s-25 -17 -42 -17s-32 6 -43 17z" />
    <glyph glyph-name="E.dotbl139" unicode="&#x1eb9;" horiz-adv-x="559" 
d="M98 457c49 53 110 79 184 79c80 0 143 -25 188 -75c44 -49 66 -117 66 -204c0 -13 0 -23 -1 -30h-368c1 -35 15 -64 40 -86c25 -23 57 -34 96 -34c31 0 60 8 85 24c9 6 18 13 26 21c6 6 11 12 16 19l91 -69c-6 -11 -14 -22 -25 -34c-13 -14 -27 -26 -44 -37
c-43 -29 -94 -44 -151 -44c-83 0 -149 26 -200 78c-50 50 -75 115 -75 195c0 79 24 145 72 197zM171 317h225c-1 32 -12 58 -33 77s-47 29 -79 29s-58 -10 -79 -30c-19 -20 -31 -45 -34 -76zM239 -184c-11 11 -17 25 -17 41c0 17 6 31 17 43s25 18 42 18s31 -6 42 -18
c12 -12 18 -26 18 -43c0 -16 -6 -30 -18 -41c-11 -11 -25 -17 -42 -17s-31 6 -42 17z" />
    <glyph glyph-name="E.hook" unicode="&#x1eba;" horiz-adv-x="481" 
d="M67 0v700h360v-127h-219v-156h188v-125h-188v-166h228v-126h-369zM258 744c-7 -3 -14 -5 -21 -8l-21 55l9 3l5 2c3 2 7 4 10 6c13 9 17 18 10 27c-6 9 -17 8 -33 -3c-3 -1 -7 -5 -13 -12l-24 52l47 24c16 7 32 7 47 2c15 -4 27 -13 36 -27c13 -19 16 -39 9 -60
c-7 -19 -20 -36 -40 -50c-5 -3 -12 -7 -21 -11z" />
    <glyph glyph-name="E.hook140" unicode="&#x1ebb;" horiz-adv-x="559" 
d="M98 457c49 53 110 79 184 79c80 0 143 -25 188 -75c44 -49 66 -117 66 -204c0 -13 0 -23 -1 -30h-368c1 -35 15 -64 40 -86c25 -23 57 -34 96 -34c31 0 60 8 85 24c9 6 18 13 26 21c6 6 11 12 16 19l91 -69c-6 -11 -14 -22 -25 -34c-13 -14 -27 -26 -44 -37
c-43 -29 -94 -44 -151 -44c-83 0 -149 26 -200 78c-50 50 -75 115 -75 195c0 79 24 145 72 197zM171 317h225c-1 32 -12 58 -33 77s-47 29 -79 29s-58 -10 -79 -30c-19 -20 -31 -45 -34 -76zM288 567c-7 -3 -14 -5 -22 -8l-21 55l9 3l5 2c4 2 7 4 10 6c13 9 17 18 10 27
c-6 9 -17 8 -32 -3c-3 -1 -7 -5 -13 -12l-24 52l46 24c17 7 33 7 48 2c15 -4 27 -13 36 -27c13 -19 16 -39 9 -60c-7 -19 -20 -36 -41 -50c-5 -3 -12 -7 -20 -11z" />
    <glyph glyph-name="E.tilde" unicode="&#x1ebc;" horiz-adv-x="481" 
d="M67 0v700h360v-127h-219v-156h188v-125h-188v-166h228v-126h-369zM250 756l-10 5l-9 4c-7 3 -13 4 -18 4c-15 0 -22 -9 -22 -26h-60c0 27 7 49 21 66s32 26 54 26c14 0 30 -4 48 -13l10 -5l10 -4c6 -3 12 -4 17 -4c15 0 22 9 22 26h59c0 -28 -7 -50 -20 -67
c-13 -16 -31 -24 -54 -24c-13 0 -29 4 -48 12z" />
    <glyph glyph-name="E.tilde141" unicode="&#x1ebd;" horiz-adv-x="559" 
d="M98 457c49 53 110 79 184 79c80 0 143 -25 188 -75c44 -49 66 -117 66 -204c0 -13 0 -23 -1 -30h-368c1 -35 15 -64 40 -86c25 -23 57 -34 96 -34c31 0 60 8 85 24c9 6 18 13 26 21c6 6 11 12 16 19l91 -69c-6 -11 -14 -22 -25 -34c-13 -14 -27 -26 -44 -37
c-43 -29 -94 -44 -151 -44c-83 0 -149 26 -200 78c-50 50 -75 115 -75 195c0 79 24 145 72 197zM171 317h225c-1 32 -12 58 -33 77s-47 29 -79 29s-58 -10 -79 -30c-19 -20 -31 -45 -34 -76zM280 599l-10 5l-10 4c-7 3 -13 4 -18 4c-15 0 -22 -9 -22 -26h-59
c0 27 7 49 20 66c14 17 32 26 55 26c14 0 30 -4 48 -13l10 -5l9 -4c7 -3 12 -4 17 -4c15 0 22 9 22 26h60c0 -28 -7 -50 -21 -66c-13 -17 -31 -25 -53 -25c-13 0 -29 4 -48 12z" />
    <glyph glyph-name="Ecir.acute" unicode="&#x1ebe;" horiz-adv-x="481" 
d="M67 0v700h360v-127h-219v-156h188v-125h-188v-166h228v-126h-369zM279 743l-27 39l-28 -39h-83l65 95h92l64 -95h-83zM349 799l42 99h118l-72 -99h-88z" />
    <glyph glyph-name="Ecir.acute142" unicode="&#x1ebf;" horiz-adv-x="559" 
d="M98 457c49 53 110 79 184 79c80 0 143 -25 188 -75c44 -49 66 -117 66 -204c0 -13 0 -23 -1 -30h-368c1 -35 15 -64 40 -86c25 -23 57 -34 96 -34c31 0 60 8 85 24c9 6 18 13 26 21c6 6 11 12 16 19l91 -69c-6 -11 -14 -22 -25 -34c-13 -14 -27 -26 -44 -37
c-43 -29 -94 -44 -151 -44c-83 0 -149 26 -200 78c-50 50 -75 115 -75 195c0 79 24 145 72 197zM171 317h225c-1 32 -12 58 -33 77s-47 29 -79 29s-58 -10 -79 -30c-19 -20 -31 -45 -34 -76zM308 579l-27 39l-27 -39h-83l64 95h92l64 -95h-83zM380 644l42 99h118l-72 -99
h-88z" />
    <glyph glyph-name="Ecir.grave" unicode="&#x1ec0;" horiz-adv-x="481" 
d="M67 0v700h360v-127h-219v-156h188v-125h-188v-166h228v-126h-369zM279 743l-27 40l-28 -40h-83l65 95h91l65 -95h-83zM403 908l41 -96h-82l-71 96h112z" />
    <glyph glyph-name="Ecir.grave143" unicode="&#x1ec1;" horiz-adv-x="559" 
d="M98 457c49 53 110 79 184 79c80 0 143 -25 188 -75c44 -49 66 -117 66 -204c0 -13 0 -23 -1 -30h-368c1 -35 15 -64 40 -86c25 -23 57 -34 96 -34c31 0 60 8 85 24c9 6 18 13 26 21c6 6 11 12 16 19l91 -69c-6 -11 -14 -22 -25 -34c-13 -14 -27 -26 -44 -37
c-43 -29 -94 -44 -151 -44c-83 0 -149 26 -200 78c-50 50 -75 115 -75 195c0 79 24 145 72 197zM171 317h225c-1 32 -12 58 -33 77s-47 29 -79 29s-58 -10 -79 -30c-19 -20 -31 -45 -34 -76zM308 579l-27 39l-27 -39h-83l64 95h92l64 -95h-83zM433 761l41 -96h-82l-71 96
h112z" />
    <glyph glyph-name="Ecir.hook" unicode="&#x1ec2;" horiz-adv-x="481" 
d="M67 0v700h360v-127h-219v-156h188v-125h-188v-166h228v-126h-369zM279 743l-27 39l-28 -39h-83l65 95h91l65 -95h-83zM389 798c-7 -3 -14 -5 -21 -8l-21 55l9 3l5 2c3 2 7 4 10 6c13 9 17 18 10 27c-6 9 -17 8 -33 -3c-3 -1 -7 -5 -13 -12l-24 52l47 24c16 7 32 7 47 2
c15 -4 27 -13 36 -27c13 -19 16 -39 9 -60c-6 -19 -19 -36 -40 -50c-5 -3 -12 -7 -21 -11z" />
    <glyph glyph-name="Ecir.hook144" unicode="&#x1ec3;" horiz-adv-x="559" 
d="M98 457c49 53 110 79 184 79c80 0 143 -25 188 -75c44 -49 66 -117 66 -204c0 -13 0 -23 -1 -30h-368c1 -35 15 -64 40 -86c25 -23 57 -34 96 -34c31 0 60 8 85 24c9 6 18 13 26 21c6 6 11 12 16 19l91 -69c-6 -11 -14 -22 -25 -34c-13 -14 -27 -26 -44 -37
c-43 -29 -94 -44 -151 -44c-83 0 -149 26 -200 78c-50 50 -75 115 -75 195c0 79 24 145 72 197zM171 317h225c-1 32 -12 58 -33 77s-47 29 -79 29s-58 -10 -79 -30c-19 -20 -31 -45 -34 -76zM308 579l-27 39l-27 -39h-83l64 95h92l64 -95h-83zM410 635c-7 -3 -14 -6 -21 -8
l-22 54l9 4l5 2c4 1 7 3 10 5c13 9 17 19 10 28c-5 9 -16 8 -32 -3c-3 -2 -7 -6 -13 -12l-24 52l46 23c17 7 33 8 48 3s27 -14 36 -27c13 -19 16 -39 9 -60c-7 -20 -20 -37 -41 -51c-5 -3 -12 -7 -20 -10z" />
    <glyph glyph-name="Ecir.tilde" unicode="&#x1ec4;" horiz-adv-x="481" 
d="M67 0v700h360v-127h-219v-156h188v-125h-188v-166h228v-126h-369zM280 743l-28 40l-27 -40h-83l65 95h91l65 -95h-83zM260 884l-10 5l-9 4c-7 3 -14 4 -19 4c-14 0 -21 -9 -21 -26h-60c0 27 7 49 21 66c13 17 31 26 54 26c14 0 30 -4 48 -13l10 -5l9 -4c7 -3 13 -4 18 -4
c14 0 21 9 21 26h60c0 -28 -7 -50 -20 -66c-13 -17 -31 -25 -54 -25c-13 0 -29 4 -48 12z" />
    <glyph glyph-name="Ecir.tilde145" unicode="&#x1ec5;" horiz-adv-x="559" 
d="M98 457c49 53 110 79 184 79c80 0 143 -25 188 -75c44 -49 66 -117 66 -204c0 -13 0 -23 -1 -30h-368c1 -35 15 -64 40 -86c25 -23 57 -34 96 -34c31 0 60 8 85 24c9 6 18 13 26 21c6 6 11 12 16 19l91 -69c-6 -11 -14 -22 -25 -34c-13 -14 -27 -26 -44 -37
c-43 -29 -94 -44 -151 -44c-83 0 -149 26 -200 78c-50 50 -75 115 -75 195c0 79 24 145 72 197zM171 317h225c-1 32 -12 58 -33 77s-47 29 -79 29s-58 -10 -79 -30c-19 -20 -31 -45 -34 -76zM308 579l-27 39l-27 -39h-83l64 95h92l64 -95h-83zM280 711l-10 4l-10 4
c-7 3 -13 4 -18 4c-15 0 -22 -9 -22 -26h-59c0 27 7 50 20 67c14 17 32 25 55 25c14 0 30 -4 48 -13l10 -4l9 -4c7 -3 12 -4 17 -4c15 0 22 9 22 26h60c0 -28 -7 -50 -21 -67c-13 -17 -31 -25 -53 -25c-13 0 -29 4 -48 13z" />
    <glyph glyph-name="Ecir.dotbl" unicode="&#x1ec6;" horiz-adv-x="481" 
d="M67 0v700h360v-127h-219v-156h188v-125h-188v-166h228v-126h-369zM279 756l-27 39l-28 -39h-83l65 95h91l65 -95h-83zM209 -184c-11 11 -17 25 -17 41c0 17 6 31 17 43s26 18 43 18s31 -6 42 -18s17 -26 17 -43c0 -16 -6 -30 -17 -41s-25 -17 -42 -17s-32 6 -43 17z" />
    <glyph glyph-name="Ecir.dotbl146" unicode="&#x1ec7;" horiz-adv-x="559" 
d="M98 457c49 53 110 79 184 79c80 0 143 -25 188 -75c44 -49 66 -117 66 -204c0 -13 0 -23 -1 -30h-368c1 -35 15 -64 40 -86c25 -23 57 -34 96 -34c31 0 60 8 85 24c9 6 18 13 26 21c6 6 11 12 16 19l91 -69c-6 -11 -14 -22 -25 -34c-13 -14 -27 -26 -44 -37
c-43 -29 -94 -44 -151 -44c-83 0 -149 26 -200 78c-50 50 -75 115 -75 195c0 79 24 145 72 197zM171 317h225c-1 32 -12 58 -33 77s-47 29 -79 29s-58 -10 -79 -30c-19 -20 -31 -45 -34 -76zM308 579l-27 39l-27 -39h-83l64 95h92l64 -95h-83zM239 -184
c-11 11 -17 25 -17 41c0 17 6 31 17 43s25 18 42 18s31 -6 42 -18c12 -12 18 -26 18 -43c0 -16 -6 -30 -18 -41c-11 -11 -25 -17 -42 -17s-31 6 -42 17z" />
    <glyph glyph-name="I.hook" unicode="&#x1ec8;" horiz-adv-x="275" 
d="M67 0v700h141v-700h-141zM144 744c-7 -3 -14 -5 -21 -8l-21 55l9 3l5 2c3 2 7 4 10 6c13 9 17 18 10 27c-6 9 -17 8 -33 -3c-3 -1 -7 -5 -13 -12l-24 52l47 24c16 7 32 7 47 2c15 -4 27 -13 36 -27c13 -19 16 -39 9 -60c-7 -19 -20 -36 -40 -50c-5 -3 -12 -7 -21 -11z
" />
    <glyph glyph-name="I.hook147" unicode="&#x1ec9;" horiz-adv-x="247" 
d="M54 0v523h138v-523h-138zM130 567c-7 -3 -14 -5 -22 -8l-21 55l9 3l5 2c4 2 7 4 10 6c13 9 17 18 10 27c-6 9 -17 8 -32 -3c-3 -1 -7 -5 -13 -12l-24 52l46 24c17 7 33 7 48 2c15 -4 27 -13 36 -27c13 -19 16 -39 9 -60c-7 -19 -20 -36 -41 -50c-5 -3 -12 -7 -20 -11z
" />
    <glyph glyph-name="I.dotbl" unicode="&#x1eca;" horiz-adv-x="275" 
d="M67 0v700h141v-700h-141zM95 -184c-11 11 -17 25 -17 41c0 17 6 31 17 43s26 18 43 18s31 -6 42 -18s17 -26 17 -43c0 -16 -6 -30 -17 -41s-25 -17 -42 -17s-32 6 -43 17z" />
    <glyph glyph-name="I.dotbl148" unicode="&#x1ecb;" horiz-adv-x="247" 
d="M54 0v523h138v-523h-138zM65 705c15 15 34 23 57 23s43 -8 58 -23s23 -33 23 -56s-8 -41 -23 -56s-35 -23 -58 -23s-42 8 -57 23s-23 33 -23 56s8 41 23 56zM80 -184c-11 11 -17 25 -17 41c0 17 6 31 17 43s26 18 43 18s31 -6 42 -18s17 -26 17 -43c0 -16 -6 -30 -17 -41
s-25 -17 -42 -17s-32 6 -43 17z" />
    <glyph glyph-name="O.dotbl" unicode="&#x1ecc;" horiz-adv-x="788" 
d="M131 91c-67 69 -101 155 -101 259c0 103 34 189 101 258c69 70 157 105 263 105s194 -35 263 -105c67 -69 101 -155 101 -258c0 -104 -34 -190 -101 -259c-69 -69 -156 -104 -263 -104s-194 35 -263 104zM238 515c-41 -44 -61 -99 -61 -165c0 -67 20 -123 61 -166
s93 -65 156 -65s115 22 156 65s61 99 61 166c0 66 -20 121 -61 165s-93 66 -156 66s-115 -22 -156 -66zM352 -184c-11 11 -17 25 -17 41c0 17 6 31 17 43s25 18 42 18s31 -6 42 -18c12 -12 18 -26 18 -43c0 -16 -6 -30 -18 -41c-11 -11 -25 -17 -42 -17s-31 6 -42 17z" />
    <glyph glyph-name="O.dotbl149" unicode="&#x1ecd;" 
d="M106 458c53 52 120 78 200 78s147 -26 201 -79s81 -118 81 -197s-26 -145 -79 -196s-121 -77 -203 -77c-81 0 -149 26 -202 77s-79 117 -79 196s27 145 81 198zM204 151c27 -28 61 -42 102 -42c42 0 76 14 103 42c27 29 41 65 41 109c0 45 -14 81 -41 110s-62 44 -103 44
s-76 -14 -103 -43s-40 -66 -40 -111c0 -44 14 -80 41 -109zM264 -184c-11 11 -17 25 -17 41c0 17 6 31 17 43s26 18 43 18s31 -6 42 -18s17 -26 17 -43c0 -16 -6 -30 -17 -41s-25 -17 -42 -17s-32 6 -43 17z" />
    <glyph glyph-name="O.hook" unicode="&#x1ece;" horiz-adv-x="788" 
d="M131 91c-67 69 -101 155 -101 259c0 103 34 189 101 258c69 70 157 105 263 105s194 -35 263 -105c67 -69 101 -155 101 -258c0 -104 -34 -190 -101 -259c-69 -69 -156 -104 -263 -104s-194 35 -263 104zM238 515c-41 -44 -61 -99 -61 -165c0 -67 20 -123 61 -166
s93 -65 156 -65s115 22 156 65s61 99 61 166c0 66 -20 121 -61 165s-93 66 -156 66s-115 -22 -156 -66zM401 744c-7 -3 -14 -5 -22 -8l-21 55l9 3l5 2c4 2 7 4 10 6c13 9 17 18 10 27c-6 9 -17 8 -32 -3c-3 -1 -7 -5 -13 -12l-24 52l46 24c17 7 33 7 48 2
c15 -4 27 -13 36 -27c13 -19 16 -39 9 -60c-7 -19 -20 -36 -41 -50c-5 -3 -12 -7 -20 -11z" />
    <glyph glyph-name="O.hook151" unicode="&#x1ecf;" 
d="M106 458c53 52 120 78 200 78s147 -26 201 -79s81 -118 81 -197s-26 -145 -79 -196s-121 -77 -203 -77c-81 0 -149 26 -202 77s-79 117 -79 196s27 145 81 198zM204 151c27 -28 61 -42 102 -42c42 0 76 14 103 42c27 29 41 65 41 109c0 45 -14 81 -41 110s-62 44 -103 44
s-76 -14 -103 -43s-40 -66 -40 -111c0 -44 14 -80 41 -109zM312 567c-7 -3 -14 -5 -21 -8l-21 55l9 3l5 2c3 2 7 4 10 6c13 9 17 18 10 27c-6 9 -17 8 -33 -3c-3 -1 -7 -5 -13 -12l-23 52l46 24c17 7 33 7 48 2c15 -4 26 -13 35 -27c13 -19 16 -39 9 -60
c-6 -19 -19 -36 -40 -50c-5 -3 -12 -7 -21 -11z" />
    <glyph glyph-name="Ocir.acute" unicode="&#x1ed0;" horiz-adv-x="788" 
d="M131 91c-67 69 -101 155 -101 259c0 103 34 189 101 258c69 70 157 105 263 105s194 -35 263 -105c67 -69 101 -155 101 -258c0 -104 -34 -190 -101 -259c-69 -69 -156 -104 -263 -104s-194 35 -263 104zM238 515c-41 -44 -61 -99 -61 -165c0 -67 20 -123 61 -166
s93 -65 156 -65s115 22 156 65s61 99 61 166c0 66 -20 121 -61 165s-93 66 -156 66s-115 -22 -156 -66zM421 743l-27 39l-27 -39h-83l64 95h92l65 -95h-84zM491 799l42 99h118l-72 -99h-88z" />
    <glyph glyph-name="Ocir.acute152" unicode="&#x1ed1;" 
d="M106 458c53 52 120 78 200 78s147 -26 201 -79s81 -118 81 -197s-26 -145 -79 -196s-121 -77 -203 -77c-81 0 -149 26 -202 77s-79 117 -79 196s27 145 81 198zM204 151c27 -28 61 -42 102 -42c42 0 76 14 103 42c27 29 41 65 41 109c0 45 -14 81 -41 110s-62 44 -103 44
s-76 -14 -103 -43s-40 -66 -40 -111c0 -44 14 -80 41 -109zM334 579l-27 39l-28 -39h-83l65 95h91l65 -95h-83zM400 644l42 99h118l-72 -99h-88z" />
    <glyph glyph-name="Ocir.grave" unicode="&#x1ed2;" horiz-adv-x="788" 
d="M131 91c-67 69 -101 155 -101 259c0 103 34 189 101 258c69 70 157 105 263 105s194 -35 263 -105c67 -69 101 -155 101 -258c0 -104 -34 -190 -101 -259c-69 -69 -156 -104 -263 -104s-194 35 -263 104zM238 515c-41 -44 -61 -99 -61 -165c0 -67 20 -123 61 -166
s93 -65 156 -65s115 22 156 65s61 99 61 166c0 66 -20 121 -61 165s-93 66 -156 66s-115 -22 -156 -66zM421 743l-27 40l-27 -40h-83l64 95h92l64 -95h-83zM545 908l41 -96h-82l-71 96h112z" />
    <glyph glyph-name="Ocir.grave153" unicode="&#x1ed3;" 
d="M106 458c53 52 120 78 200 78s147 -26 201 -79s81 -118 81 -197s-26 -145 -79 -196s-121 -77 -203 -77c-81 0 -149 26 -202 77s-79 117 -79 196s27 145 81 198zM204 151c27 -28 61 -42 102 -42c42 0 76 14 103 42c27 29 41 65 41 109c0 45 -14 81 -41 110s-62 44 -103 44
s-76 -14 -103 -43s-40 -66 -40 -111c0 -44 14 -80 41 -109zM334 579l-27 39l-28 -39h-83l65 95h91l65 -95h-83zM462 763l41 -96h-82l-71 96h112z" />
    <glyph glyph-name="Ocir.hook" unicode="&#x1ed4;" horiz-adv-x="788" 
d="M131 91c-67 69 -101 155 -101 259c0 103 34 189 101 258c69 70 157 105 263 105s194 -35 263 -105c67 -69 101 -155 101 -258c0 -104 -34 -190 -101 -259c-69 -69 -156 -104 -263 -104s-194 35 -263 104zM238 515c-41 -44 -61 -99 -61 -165c0 -67 20 -123 61 -166
s93 -65 156 -65s115 22 156 65s61 99 61 166c0 66 -20 121 -61 165s-93 66 -156 66s-115 -22 -156 -66zM421 743l-27 39l-27 -39h-83l64 95h92l64 -95h-83zM532 798c-7 -3 -14 -5 -21 -8l-22 55l9 3l5 2c4 2 7 4 10 6c13 9 17 18 10 27c-5 9 -16 8 -32 -3
c-3 -1 -7 -5 -13 -12l-24 52l46 24c17 7 33 7 48 2c15 -4 27 -13 36 -27c13 -19 16 -39 9 -60c-7 -19 -20 -36 -41 -50c-5 -3 -12 -7 -20 -11z" />
    <glyph glyph-name="Ocir.hook154" unicode="&#x1ed5;" 
d="M106 458c53 52 120 78 200 78s147 -26 201 -79s81 -118 81 -197s-26 -145 -79 -196s-121 -77 -203 -77c-81 0 -149 26 -202 77s-79 117 -79 196s27 145 81 198zM204 151c27 -28 61 -42 102 -42c42 0 76 14 103 42c27 29 41 65 41 109c0 45 -14 81 -41 110s-62 44 -103 44
s-76 -14 -103 -43s-40 -66 -40 -111c0 -44 14 -80 41 -109zM334 579l-27 39l-28 -39h-83l65 95h91l65 -95h-83zM441 635c-7 -3 -14 -6 -22 -8l-21 54l9 4l5 2c4 1 7 3 10 5c13 9 17 19 10 28c-6 9 -17 8 -32 -3c-3 -2 -7 -6 -13 -12l-24 52l46 23c17 7 33 8 48 3
s27 -14 36 -27c13 -19 15 -39 8 -60c-6 -20 -19 -37 -40 -51c-5 -3 -12 -7 -20 -10z" />
    <glyph glyph-name="Ocir.tilde" unicode="&#x1ed6;" horiz-adv-x="788" 
d="M131 91c-67 69 -101 155 -101 259c0 103 34 189 101 258c69 70 157 105 263 105s194 -35 263 -105c67 -69 101 -155 101 -258c0 -104 -34 -190 -101 -259c-69 -69 -156 -104 -263 -104s-194 35 -263 104zM238 515c-41 -44 -61 -99 -61 -165c0 -67 20 -123 61 -166
s93 -65 156 -65s115 22 156 65s61 99 61 166c0 66 -20 121 -61 165s-93 66 -156 66s-115 -22 -156 -66zM422 743l-27 40l-27 -40h-83l64 95h92l64 -95h-83zM403 884l-10 5l-10 4c-7 3 -13 4 -18 4c-15 0 -22 -9 -22 -26h-59c0 27 7 49 20 66c14 17 32 26 55 26
c14 0 30 -4 48 -13l10 -5l9 -4c7 -3 12 -4 17 -4c15 0 22 9 22 26h60c0 -28 -7 -50 -21 -66c-13 -17 -31 -25 -53 -25c-13 0 -29 4 -48 12z" />
    <glyph glyph-name="Ocir.tilde155" unicode="&#x1ed7;" 
d="M106 458c53 52 120 78 200 78s147 -26 201 -79s81 -118 81 -197s-26 -145 -79 -196s-121 -77 -203 -77c-81 0 -149 26 -202 77s-79 117 -79 196s27 145 81 198zM204 151c27 -28 61 -42 102 -42c42 0 76 14 103 42c27 29 41 65 41 109c0 45 -14 81 -41 110s-62 44 -103 44
s-76 -14 -103 -43s-40 -66 -40 -111c0 -44 14 -80 41 -109zM334 579l-27 39l-28 -39h-83l65 95h91l65 -95h-83zM305 711l-10 4l-9 4c-7 3 -14 4 -19 4c-14 0 -21 -9 -21 -26h-60c0 27 7 50 21 67c13 17 31 25 54 25c14 0 30 -4 48 -13l10 -4l9 -4c7 -3 13 -4 18 -4
c14 0 21 9 21 26h60c0 -28 -7 -50 -20 -67s-31 -25 -54 -25c-13 0 -29 4 -48 13z" />
    <glyph glyph-name="Ocir.dotbl" unicode="&#x1ed8;" horiz-adv-x="788" 
d="M131 91c-67 69 -101 155 -101 259c0 103 34 189 101 258c69 70 157 105 263 105s194 -35 263 -105c67 -69 101 -155 101 -258c0 -104 -34 -190 -101 -259c-69 -69 -156 -104 -263 -104s-194 35 -263 104zM238 515c-41 -44 -61 -99 -61 -165c0 -67 20 -123 61 -166
s93 -65 156 -65s115 22 156 65s61 99 61 166c0 66 -20 121 -61 165s-93 66 -156 66s-115 -22 -156 -66zM421 756l-27 39l-27 -39h-83l64 95h92l64 -95h-83zM352 -184c-11 11 -17 25 -17 41c0 17 6 31 17 43s25 18 42 18s31 -6 42 -18c12 -12 18 -26 18 -43
c0 -16 -6 -30 -18 -41c-11 -11 -25 -17 -42 -17s-31 6 -42 17z" />
    <glyph glyph-name="Ocir.dotbl157" unicode="&#x1ed9;" 
d="M106 458c53 52 120 78 200 78s147 -26 201 -79s81 -118 81 -197s-26 -145 -79 -196s-121 -77 -203 -77c-81 0 -149 26 -202 77s-79 117 -79 196s27 145 81 198zM204 151c27 -28 61 -42 102 -42c42 0 76 14 103 42c27 29 41 65 41 109c0 45 -14 81 -41 110s-62 44 -103 44
s-76 -14 -103 -43s-40 -66 -40 -111c0 -44 14 -80 41 -109zM334 579l-27 39l-28 -39h-83l65 95h91l65 -95h-83zM264 -184c-11 11 -17 25 -17 41c0 17 6 31 17 43s26 18 43 18s31 -6 42 -18s17 -26 17 -43c0 -16 -6 -30 -17 -41s-25 -17 -42 -17s-32 6 -43 17z" />
    <glyph glyph-name="Ohorn.acute" unicode="&#x1eda;" horiz-adv-x="788" 
d="M238 515c-41 -44 -61 -99 -61 -165c0 -67 20 -123 61 -166s93 -65 156 -65s115 22 156 65s61 99 61 166c0 66 -20 121 -61 165s-93 66 -156 66s-115 -22 -156 -66zM612 647c16 -11 31 -24 45 -39c67 -69 101 -155 101 -258c0 -104 -34 -190 -101 -259
c-69 -69 -156 -104 -263 -104s-194 35 -263 104c-67 69 -101 155 -101 259c0 103 34 189 101 258c69 70 157 105 263 105c39 0 75 -5 109 -14c40 1 60 22 60 64h98c0 -45 -15 -83 -45 -112zM341 758l42 99h118l-72 -99h-88z" />
    <glyph glyph-name="Ohorn.acute158" unicode="&#x1edb;" 
d="M204 151c27 -28 61 -42 102 -42c42 0 76 14 103 42c27 29 41 65 41 109c0 45 -14 81 -41 110s-62 44 -103 44s-76 -14 -103 -43s-40 -66 -40 -111c0 -44 14 -80 41 -109zM501 463l6 -6c54 -53 81 -118 81 -197s-26 -145 -79 -196s-121 -77 -203 -77
c-81 0 -149 26 -202 77s-79 117 -79 196s27 145 81 198c53 52 120 78 200 78c37 0 71 -6 103 -17c31 5 47 26 47 63h98c0 -45 -15 -83 -45 -112c-3 -3 -5 -5 -8 -7zM261 581l42 99h118l-72 -99h-88z" />
    <glyph glyph-name="Ohorn.grave" unicode="&#x1edc;" horiz-adv-x="788" 
d="M238 515c-41 -44 -61 -99 -61 -165c0 -67 20 -123 61 -166s93 -65 156 -65s115 22 156 65s61 99 61 166c0 66 -20 121 -61 165s-93 66 -156 66s-115 -22 -156 -66zM612 647c16 -11 31 -24 45 -39c67 -69 101 -155 101 -258c0 -104 -34 -190 -101 -259
c-69 -69 -156 -104 -263 -104s-194 35 -263 104c-67 69 -101 155 -101 259c0 103 34 189 101 258c69 70 157 105 263 105c39 0 75 -5 109 -14c40 1 60 22 60 64h98c0 -45 -15 -83 -45 -112zM410 854l41 -96h-82l-71 96h112z" />
    <glyph glyph-name="Ohorn.grave156" unicode="&#x1edd;" 
d="M204 151c27 -28 61 -42 102 -42c42 0 76 14 103 42c27 29 41 65 41 109c0 45 -14 81 -41 110s-62 44 -103 44s-76 -14 -103 -43s-40 -66 -40 -111c0 -44 14 -80 41 -109zM501 463l6 -6c54 -53 81 -118 81 -197s-26 -145 -79 -196s-121 -77 -203 -77
c-81 0 -149 26 -202 77s-79 117 -79 196s27 145 81 198c53 52 120 78 200 78c37 0 71 -6 103 -17c31 5 47 26 47 63h98c0 -45 -15 -83 -45 -112c-3 -3 -5 -5 -8 -7zM330 677l41 -96h-82l-71 96h112z" />
    <glyph glyph-name="Ohorn.hook" unicode="&#x1ede;" horiz-adv-x="788" 
d="M238 515c-41 -44 -61 -99 -61 -165c0 -67 20 -123 61 -166s93 -65 156 -65s115 22 156 65s61 99 61 166c0 66 -20 121 -61 165s-93 66 -156 66s-115 -22 -156 -66zM612 647c16 -11 31 -24 45 -39c67 -69 101 -155 101 -258c0 -104 -34 -190 -101 -259
c-69 -69 -156 -104 -263 -104s-194 35 -263 104c-67 69 -101 155 -101 259c0 103 34 189 101 258c69 70 157 105 263 105c39 0 75 -5 109 -14c40 1 60 22 60 64h98c0 -45 -15 -83 -45 -112zM401 744c-7 -3 -14 -5 -22 -8l-21 55l9 3l5 2c4 2 7 4 10 6c13 9 17 18 10 27
c-6 9 -17 8 -32 -3c-3 -1 -7 -5 -13 -12l-24 52l46 24c17 7 33 7 48 2c15 -4 27 -13 36 -27c13 -19 16 -39 9 -60c-7 -19 -20 -36 -41 -50c-5 -3 -12 -7 -20 -11z" />
    <glyph glyph-name="Ohorn.hook159" unicode="&#x1edf;" 
d="M204 151c27 -28 61 -42 102 -42c42 0 76 14 103 42c27 29 41 65 41 109c0 45 -14 81 -41 110s-62 44 -103 44s-76 -14 -103 -43s-40 -66 -40 -111c0 -44 14 -80 41 -109zM501 463l6 -6c54 -53 81 -118 81 -197s-26 -145 -79 -196s-121 -77 -203 -77
c-81 0 -149 26 -202 77s-79 117 -79 196s27 145 81 198c53 52 120 78 200 78c37 0 71 -6 103 -17c31 5 47 26 47 63h98c0 -45 -15 -83 -45 -112c-3 -3 -5 -5 -8 -7zM296 567c-7 -3 -14 -5 -21 -8l-21 55l9 3l5 2c3 2 7 4 10 6c13 9 17 18 10 27c-6 9 -17 8 -33 -3
c-3 -1 -7 -5 -13 -12l-24 52l47 24c16 7 32 7 47 2c15 -4 27 -13 36 -27c13 -19 16 -39 9 -60c-7 -19 -20 -36 -40 -50c-5 -3 -12 -7 -21 -11z" />
    <glyph glyph-name="Ohorn.tilde" unicode="&#x1ee0;" horiz-adv-x="788" 
d="M238 515c-41 -44 -61 -99 -61 -165c0 -67 20 -123 61 -166s93 -65 156 -65s115 22 156 65s61 99 61 166c0 66 -20 121 -61 165s-93 66 -156 66s-115 -22 -156 -66zM612 647c16 -11 31 -24 45 -39c67 -69 101 -155 101 -258c0 -104 -34 -190 -101 -259
c-69 -69 -156 -104 -263 -104s-194 35 -263 104c-67 69 -101 155 -101 259c0 103 34 189 101 258c69 70 157 105 263 105c39 0 75 -5 109 -14c40 1 60 22 60 64h98c0 -45 -15 -83 -45 -112zM393 776l-10 5l-10 4c-7 3 -13 4 -18 4c-15 0 -22 -9 -22 -26h-59c0 27 7 49 20 66
c14 17 32 26 55 26c14 0 30 -4 48 -13l10 -5l9 -4c7 -3 12 -4 17 -4c15 0 22 9 22 26h60c0 -28 -7 -50 -21 -66c-13 -17 -31 -25 -53 -25c-13 0 -29 4 -48 12z" />
    <glyph glyph-name="Ohorn.tilde160" unicode="&#x1ee1;" 
d="M204 151c27 -28 61 -42 102 -42c42 0 76 14 103 42c27 29 41 65 41 109c0 45 -14 81 -41 110s-62 44 -103 44s-76 -14 -103 -43s-40 -66 -40 -111c0 -44 14 -80 41 -109zM501 463l6 -6c54 -53 81 -118 81 -197s-26 -145 -79 -196s-121 -77 -203 -77
c-81 0 -149 26 -202 77s-79 117 -79 196s27 145 81 198c53 52 120 78 200 78c37 0 71 -6 103 -17c31 5 47 26 47 63h98c0 -45 -15 -83 -45 -112c-3 -3 -5 -5 -8 -7zM312 604l-10 5l-9 4c-7 3 -14 4 -19 4c-14 0 -21 -9 -21 -26h-60c0 27 7 49 21 66c13 17 31 26 54 26
c14 0 30 -4 48 -13l10 -5l9 -4c7 -3 13 -4 18 -4c14 0 21 9 21 26h60c0 -28 -7 -50 -20 -66c-13 -17 -31 -25 -54 -25c-13 0 -29 4 -48 12z" />
    <glyph glyph-name="Ohorn.dotbl" unicode="&#x1ee2;" horiz-adv-x="788" 
d="M238 515c-41 -44 -61 -99 -61 -165c0 -67 20 -123 61 -166s93 -65 156 -65s115 22 156 65s61 99 61 166c0 66 -20 121 -61 165s-93 66 -156 66s-115 -22 -156 -66zM612 647c16 -11 31 -24 45 -39c67 -69 101 -155 101 -258c0 -104 -34 -190 -101 -259
c-69 -69 -156 -104 -263 -104s-194 35 -263 104c-67 69 -101 155 -101 259c0 103 34 189 101 258c69 70 157 105 263 105c39 0 75 -5 109 -14c40 1 60 22 60 64h98c0 -45 -15 -83 -45 -112zM352 -184c-11 11 -17 25 -17 41c0 17 6 31 17 43s25 18 42 18s31 -6 42 -18
c12 -12 18 -26 18 -43c0 -16 -6 -30 -18 -41c-11 -11 -25 -17 -42 -17s-31 6 -42 17z" />
    <glyph glyph-name="Ohorn.dotbl161" unicode="&#x1ee3;" 
d="M204 151c27 -28 61 -42 102 -42c42 0 76 14 103 42c27 29 41 65 41 109c0 45 -14 81 -41 110s-62 44 -103 44s-76 -14 -103 -43s-40 -66 -40 -111c0 -44 14 -80 41 -109zM501 463l6 -6c54 -53 81 -118 81 -197s-26 -145 -79 -196s-121 -77 -203 -77
c-81 0 -149 26 -202 77s-79 117 -79 196s27 145 81 198c53 52 120 78 200 78c37 0 71 -6 103 -17c31 5 47 26 47 63h98c0 -45 -15 -83 -45 -112c-3 -3 -5 -5 -8 -7zM261 -184c-11 11 -17 25 -17 42c0 16 6 30 17 42c12 12 26 18 43 18s31 -6 42 -18s17 -26 17 -42
c0 -17 -6 -31 -17 -42s-25 -17 -42 -17s-31 6 -43 17z" />
    <glyph glyph-name="U.dotbl" unicode="&#x1ee4;" horiz-adv-x="692" 
d="M137 63c-49 49 -73 116 -73 200v437h141v-437c0 -45 12 -80 37 -106s59 -39 104 -39s79 13 104 39s37 61 37 106v437h141v-437c0 -84 -24 -151 -73 -200c-50 -51 -120 -76 -209 -76s-159 25 -209 76zM304 -184c-11 11 -17 25 -17 41c0 17 6 31 17 43s25 18 42 18
s31 -6 42 -18c12 -12 18 -26 18 -43c0 -16 -6 -30 -18 -41c-11 -11 -25 -17 -42 -17s-31 6 -42 17z" />
    <glyph glyph-name="U.dotbl162" unicode="&#x1ee5;" horiz-adv-x="556" 
d="M85 62c-23 39 -35 92 -35 159v302h138v-318c0 -28 9 -51 26 -69c17 -17 37 -25 61 -25c28 0 51 9 68 28c17 18 25 41 25 70v314h138v-523h-135v61c-13 -20 -30 -37 -53 -50c-27 -16 -56 -24 -87 -24c-67 0 -116 25 -146 75zM236 -184c-11 11 -17 25 -17 41
c0 17 6 31 17 43s25 18 42 18s31 -6 42 -18c12 -12 18 -26 18 -43c0 -16 -6 -30 -18 -41c-11 -11 -25 -17 -42 -17s-31 6 -42 17z" />
    <glyph glyph-name="U.hook" unicode="&#x1ee6;" horiz-adv-x="692" 
d="M137 63c-49 49 -73 116 -73 200v437h141v-437c0 -45 12 -80 37 -106s59 -39 104 -39s79 13 104 39s37 61 37 106v437h141v-437c0 -84 -24 -151 -73 -200c-50 -51 -120 -76 -209 -76s-159 25 -209 76zM353 744c-7 -3 -14 -5 -22 -8l-21 55l9 3l5 2c4 2 7 4 10 6
c13 9 17 18 10 27c-6 9 -17 8 -32 -3c-3 -1 -7 -5 -13 -12l-24 52l46 24c17 7 33 7 48 2c15 -4 27 -13 36 -27c13 -19 16 -39 9 -60c-7 -19 -20 -36 -41 -50c-5 -3 -12 -7 -20 -11z" />
    <glyph glyph-name="U.hook164" unicode="&#x1ee7;" horiz-adv-x="556" 
d="M85 62c-23 39 -35 92 -35 159v302h138v-318c0 -28 9 -51 26 -69c17 -17 37 -25 61 -25c28 0 51 9 68 28c17 18 25 41 25 70v314h138v-523h-135v61c-13 -20 -30 -37 -53 -50c-27 -16 -56 -24 -87 -24c-67 0 -116 25 -146 75zM285 567c-7 -3 -14 -5 -22 -8l-21 55l9 3l5 2
c4 2 7 4 10 6c13 9 17 18 10 27c-6 9 -17 8 -32 -3c-3 -1 -7 -5 -13 -12l-24 52l46 24c17 7 33 7 48 2c15 -4 27 -13 36 -27c13 -19 16 -39 9 -60c-7 -19 -20 -36 -41 -50c-5 -3 -12 -7 -20 -11z" />
    <glyph glyph-name="Uhorn.acute" unicode="&#x1ee8;" horiz-adv-x="692" 
d="M628 617v-354c0 -84 -24 -151 -73 -200c-50 -51 -120 -76 -209 -76s-159 25 -209 76c-49 49 -73 116 -73 200v437h141v-437c0 -45 12 -80 37 -106s59 -39 104 -39s79 13 104 39s37 61 37 106v437h93c32 5 48 26 48 63h98c0 -45 -15 -83 -45 -112c-15 -15 -33 -27 -53 -34
zM304 743l42 99h118l-72 -99h-88z" />
    <glyph glyph-name="Uhorn.acute165" unicode="&#x1ee9;" horiz-adv-x="556" 
d="M506 436v-436h-135v61c-13 -20 -30 -37 -53 -50c-27 -16 -56 -24 -87 -24c-67 0 -116 25 -146 75c-23 39 -35 92 -35 159v302h138v-318c0 -28 9 -51 26 -69c17 -17 37 -25 61 -25c28 0 51 9 68 28c17 18 25 41 25 70v314h105c22 9 33 28 33 59h98c0 -45 -15 -83 -45 -112
c-15 -15 -33 -27 -53 -34zM234 581l42 99h118l-72 -99h-88z" />
    <glyph glyph-name="Uhorn.grave" unicode="&#x1eea;" horiz-adv-x="692" 
d="M628 617v-354c0 -84 -24 -151 -73 -200c-50 -51 -120 -76 -209 -76s-159 25 -209 76c-49 49 -73 116 -73 200v437h141v-437c0 -45 12 -80 37 -106s59 -39 104 -39s79 13 104 39s37 61 37 106v437h93c32 5 48 26 48 63h98c0 -45 -15 -83 -45 -112c-15 -15 -33 -27 -53 -34
zM354 839l41 -96h-82l-71 96h112z" />
    <glyph glyph-name="Uhorn.grave166" unicode="&#x1eeb;" horiz-adv-x="556" 
d="M506 436v-436h-135v61c-13 -20 -30 -37 -53 -50c-27 -16 -56 -24 -87 -24c-67 0 -116 25 -146 75c-23 39 -35 92 -35 159v302h138v-318c0 -28 9 -51 26 -69c17 -17 37 -25 61 -25c28 0 51 9 68 28c17 18 25 41 25 70v314h105c22 9 33 28 33 59h98c0 -45 -15 -83 -45 -112
c-15 -15 -33 -27 -53 -34zM278 677l41 -96h-82l-71 96h112z" />
    <glyph glyph-name="Uhorn.hook" unicode="&#x1eec;" horiz-adv-x="692" 
d="M628 617v-354c0 -84 -24 -151 -73 -200c-50 -51 -120 -76 -209 -76s-159 25 -209 76c-49 49 -73 116 -73 200v437h141v-437c0 -45 12 -80 37 -106s59 -39 104 -39s79 13 104 39s37 61 37 106v437h93c32 5 48 26 48 63h98c0 -45 -15 -83 -45 -112c-15 -15 -33 -27 -53 -34
zM366 751c-7 -3 -14 -5 -22 -8l-21 55l9 4l5 2c4 1 7 3 10 5c13 9 17 18 10 28c-6 9 -17 8 -32 -3c-3 -2 -7 -6 -13 -12l-24 52l46 23c17 7 33 8 48 3s27 -14 36 -27c13 -19 16 -39 9 -60c-7 -20 -20 -37 -41 -51c-5 -3 -12 -7 -20 -11z" />
    <glyph glyph-name="Uhorn.hook167" unicode="&#x1eed;" horiz-adv-x="556" 
d="M506 436v-436h-135v61c-13 -20 -30 -37 -53 -50c-27 -16 -56 -24 -87 -24c-67 0 -116 25 -146 75c-23 39 -35 92 -35 159v302h138v-318c0 -28 9 -51 26 -69c17 -17 37 -25 61 -25c28 0 51 9 68 28c17 18 25 41 25 70v314h105c22 9 33 28 33 59h98c0 -45 -15 -83 -45 -112
c-15 -15 -33 -27 -53 -34zM296 567c-7 -3 -14 -5 -21 -8l-21 55l9 3l4 2c4 2 8 4 11 6c13 9 16 18 10 27s-17 9 -33 -2c-3 -2 -7 -6 -13 -13l-24 53l47 23c16 7 32 8 47 3s27 -14 36 -28c13 -19 16 -39 9 -60c-7 -19 -20 -36 -41 -50c-5 -3 -11 -7 -20 -11z" />
    <glyph glyph-name="Uhorn.tilde" unicode="&#x1eee;" horiz-adv-x="692" 
d="M628 617v-354c0 -84 -24 -151 -73 -200c-50 -51 -120 -76 -209 -76s-159 25 -209 76c-49 49 -73 116 -73 200v437h141v-437c0 -45 12 -80 37 -106s59 -39 104 -39s79 13 104 39s37 61 37 106v437h93c32 5 48 26 48 63h98c0 -45 -15 -83 -45 -112c-15 -15 -33 -27 -53 -34
zM361 756l-10 5l-10 4c-7 3 -13 4 -18 4c-15 0 -22 -9 -22 -26h-59c0 27 7 49 20 66c14 17 32 25 55 25c14 0 30 -4 48 -12l10 -5l9 -4c7 -3 12 -4 17 -4c15 0 22 9 22 26h60c0 -28 -7 -50 -21 -67c-13 -17 -31 -25 -53 -25c-13 0 -29 4 -48 13z" />
    <glyph glyph-name="Uhorn.tilde168" unicode="&#x1eef;" horiz-adv-x="556" 
d="M506 436v-436h-135v61c-13 -20 -30 -37 -53 -50c-27 -16 -56 -24 -87 -24c-67 0 -116 25 -146 75c-23 39 -35 92 -35 159v302h138v-318c0 -28 9 -51 26 -69c17 -17 37 -25 61 -25c28 0 51 9 68 28c17 18 25 41 25 70v314h105c22 9 33 28 33 59h98c0 -45 -15 -83 -45 -112
c-15 -15 -33 -27 -53 -34zM309 599l-10 5l-10 4c-7 3 -13 4 -18 4c-15 0 -22 -9 -22 -26h-59c0 27 7 49 20 66c14 17 32 26 55 26c14 0 30 -4 48 -13l10 -5l9 -4c7 -3 12 -4 17 -4c15 0 22 9 22 26h60c0 -28 -7 -50 -21 -66c-13 -17 -31 -25 -53 -25c-13 0 -29 4 -48 12z
" />
    <glyph glyph-name="Uhorn.dotbl" unicode="&#x1ef0;" horiz-adv-x="692" 
d="M628 617v-354c0 -84 -24 -151 -73 -200c-50 -51 -120 -76 -209 -76s-159 25 -209 76c-49 49 -73 116 -73 200v437h141v-437c0 -45 12 -80 37 -106s59 -39 104 -39s79 13 104 39s37 61 37 106v437h93c32 5 48 26 48 63h98c0 -45 -15 -83 -45 -112c-15 -15 -33 -27 -53 -34
zM327 -185c-11 12 -17 26 -17 42c0 17 6 31 17 42c11 12 25 18 42 18s31 -6 42 -18c12 -11 18 -25 18 -42c0 -16 -6 -30 -18 -42c-11 -11 -25 -17 -42 -17s-31 6 -42 17z" />
    <glyph glyph-name="Uhorn.dotbl169" unicode="&#x1ef1;" horiz-adv-x="556" 
d="M506 436v-436h-135v61c-13 -20 -30 -37 -53 -50c-27 -16 -56 -24 -87 -24c-67 0 -116 25 -146 75c-23 39 -35 92 -35 159v302h138v-318c0 -28 9 -51 26 -69c17 -17 37 -25 61 -25c28 0 51 9 68 28c17 18 25 41 25 70v314h105c22 9 33 28 33 59h98c0 -45 -15 -83 -45 -112
c-15 -15 -33 -27 -53 -34zM268 -184c-11 11 -17 25 -17 41c0 17 6 31 17 43s25 18 42 18s31 -6 42 -18c12 -12 18 -26 18 -43c0 -16 -6 -30 -18 -41c-11 -11 -25 -17 -42 -17s-31 6 -42 17z" />
    <glyph glyph-name="Ygrave" unicode="&#x1ef2;" horiz-adv-x="584" 
d="M222 0v320l-215 380h159l126 -251l126 251h159l-215 -380v-320h-140zM308 854l41 -96h-82l-71 96h112z" />
    <glyph glyph-name="Ygrave126" unicode="&#x1ef3;" horiz-adv-x="540" 
d="M266 -179h-132l73 192l-201 510h148l117 -341l118 341h144zM286 677l41 -96h-82l-71 96h112z" />
    <glyph glyph-name="Y.dotbl" unicode="&#x1ef4;" horiz-adv-x="584" 
d="M222 0v320l-215 380h159l126 -251l126 251h159l-215 -380v-320h-140zM250 -184c-11 11 -17 25 -17 41c0 17 6 31 17 43s25 18 42 18s31 -6 42 -18c12 -12 18 -26 18 -43c0 -16 -6 -30 -18 -41c-11 -11 -25 -17 -42 -17s-31 6 -42 17z" />
    <glyph glyph-name="Y.dotbl170" unicode="&#x1ef5;" horiz-adv-x="540" 
d="M266 -179h-132l73 192l-201 510h148l117 -341l118 341h144zM325 -184c-11 11 -17 25 -17 41c0 17 6 31 17 43s26 18 43 18s31 -6 42 -18s17 -26 17 -43c0 -16 -6 -30 -17 -41s-25 -17 -42 -17s-32 6 -43 17z" />
    <glyph glyph-name="Y.hook" unicode="&#x1ef6;" horiz-adv-x="584" 
d="M222 0v320l-215 380h159l126 -251l126 251h159l-215 -380v-320h-140zM299 744c-7 -3 -14 -5 -22 -8l-21 55l9 3l5 2c4 2 7 4 10 6c13 9 17 18 10 27c-6 9 -17 8 -32 -3c-3 -1 -7 -5 -13 -12l-24 52l46 24c17 7 33 7 48 2c15 -4 27 -13 36 -27c13 -19 16 -39 9 -60
c-7 -19 -20 -36 -41 -50c-5 -3 -12 -7 -20 -11z" />
    <glyph glyph-name="Y.hook171" unicode="&#x1ef7;" horiz-adv-x="540" 
d="M266 -179h-132l73 192l-201 510h148l117 -341l118 341h144zM276 567c-7 -3 -14 -5 -21 -8l-21 55l9 3l5 2c3 2 7 4 10 6c13 9 17 18 10 27c-6 9 -17 8 -33 -3c-3 -1 -7 -5 -13 -12l-24 52l47 24c16 7 32 7 47 2c15 -4 27 -13 36 -27c13 -19 16 -39 9 -60
c-7 -19 -20 -36 -40 -50c-5 -3 -12 -7 -21 -11z" />
    <glyph glyph-name="Ytilde" unicode="&#x1ef8;" horiz-adv-x="584" 
d="M222 0v320l-215 380h159l126 -251l126 251h159l-215 -380v-320h-140zM291 776l-10 5l-10 4c-7 3 -13 4 -18 4c-15 0 -22 -9 -22 -26h-59c0 27 7 49 20 66c14 17 32 26 55 26c14 0 30 -4 48 -13l10 -5l9 -4c7 -3 12 -4 17 -4c15 0 22 9 22 26h60c0 -28 -7 -50 -21 -66
c-13 -17 -31 -25 -53 -25c-13 0 -29 4 -48 12z" />
    <glyph glyph-name="Ytilde172" unicode="&#x1ef9;" horiz-adv-x="540" 
d="M266 -179h-132l73 192l-201 510h148l117 -341l118 341h144zM268 599l-10 5l-9 4c-7 3 -14 4 -19 4c-14 0 -21 -9 -21 -26h-60c0 27 7 49 21 66c13 17 31 26 54 26c14 0 30 -4 48 -13l10 -5l9 -4c7 -3 13 -4 18 -4c14 0 21 9 21 26h60c0 -28 -7 -50 -20 -66
c-13 -17 -31 -25 -54 -25c-13 0 -29 4 -48 12z" />
    <glyph glyph-name="endash" unicode="&#x2013;" horiz-adv-x="648" 
d="M45 251v113h558v-113h-558z" />
    <glyph glyph-name="emdash" unicode="&#x2014;" horiz-adv-x="918" 
d="M45 251v113h827v-113h-827z" />
    <glyph glyph-name="quoteleft" unicode="&#x2018;" horiz-adv-x="225" 
d="M154 638c-15 -17 -23 -32 -25 -47c21 -5 38 -15 51 -32c12 -15 18 -32 18 -51c0 -23 -8 -44 -24 -61c-17 -17 -37 -25 -60 -25c-25 0 -46 8 -62 24c-17 17 -26 39 -26 68c0 43 11 85 33 126c20 37 46 68 78 92l54 -60c-13 -9 -25 -20 -37 -34z" />
    <glyph glyph-name="quoteright" unicode="&#x2019;" horiz-adv-x="225" 
d="M70 516c15 17 23 32 25 47c-21 5 -38 15 -51 32c-12 15 -18 32 -18 51c0 23 8 44 24 61c17 17 37 25 60 25c25 0 46 -8 62 -24c17 -17 26 -39 26 -68c0 -43 -11 -85 -33 -126c-20 -37 -46 -68 -78 -92l-54 60c13 9 25 20 37 34z" />
    <glyph glyph-name="quotesinglbase" unicode="&#x201a;" horiz-adv-x="244" 
d="M81 -59c15 17 23 32 25 47c-21 5 -38 15 -51 32c-12 15 -18 32 -18 51c0 23 8 44 24 61c17 17 37 25 60 25c25 0 46 -8 62 -24c17 -17 26 -39 26 -68c0 -43 -11 -85 -33 -126c-20 -37 -46 -68 -78 -92l-54 60c13 9 25 20 37 34z" />
    <glyph glyph-name="quotedblleft" unicode="&#x201c;" horiz-adv-x="425" 
d="M154 638c-15 -17 -23 -32 -25 -47c21 -5 38 -15 51 -32c12 -15 18 -32 18 -51c0 -23 -8 -44 -24 -61c-17 -17 -37 -25 -60 -25c-25 0 -46 8 -62 24c-17 17 -26 39 -26 68c0 43 11 85 33 126c20 37 46 68 78 92l54 -60c-13 -9 -25 -20 -37 -34zM354 638
c-15 -17 -23 -32 -25 -47c21 -5 38 -15 51 -32c12 -15 18 -32 18 -51c0 -23 -8 -44 -24 -61c-17 -17 -37 -25 -60 -25c-25 0 -46 8 -62 24c-17 17 -26 39 -26 68c0 43 11 85 33 126c20 37 46 68 78 92l54 -60c-13 -9 -25 -20 -37 -34z" />
    <glyph glyph-name="quotedblright" unicode="&#x201d;" horiz-adv-x="425" 
d="M270 516c15 17 23 32 25 47c-21 5 -38 15 -51 32c-12 15 -18 32 -18 51c0 23 8 44 24 61c17 17 37 25 60 25c25 0 46 -8 62 -24c17 -17 26 -39 26 -68c0 -43 -11 -85 -33 -126c-20 -37 -46 -68 -78 -92l-54 60c13 9 25 20 37 34zM70 516c15 17 23 32 25 47
c-21 5 -38 15 -51 32c-12 15 -18 32 -18 51c0 23 8 44 24 61c17 17 37 25 60 25c25 0 46 -8 62 -24c17 -17 26 -39 26 -68c0 -43 -11 -85 -33 -126c-20 -37 -46 -68 -78 -92l-54 60c13 9 25 20 37 34z" />
    <glyph glyph-name="quotedblbase" unicode="&#x201e;" horiz-adv-x="425" 
d="M70 -59c15 17 23 32 25 47c-21 5 -38 15 -51 32c-12 15 -18 32 -18 51c0 23 8 44 24 61c17 17 37 25 60 25c25 0 46 -8 62 -24c17 -17 26 -39 26 -68c0 -43 -11 -85 -33 -126c-20 -37 -46 -68 -78 -92l-54 60c13 9 25 20 37 34zM270 -59c15 17 23 32 25 47
c-21 5 -38 15 -51 32c-12 15 -18 32 -18 51c0 23 8 44 24 61c17 17 37 25 60 25c25 0 46 -8 62 -24c17 -17 26 -39 26 -68c0 -43 -11 -85 -33 -126c-20 -37 -46 -68 -78 -92l-54 60c13 9 25 20 37 34z" />
    <glyph glyph-name="dagger" unicode="&#x2020;" horiz-adv-x="425" 
d="M144 0v416h-117v120h117v164h135v-164h119v-120h-119v-416h-135z" />
    <glyph glyph-name="daggerdbl" unicode="&#x2021;" horiz-adv-x="424" 
d="M398 288v-119h-117v-169h-135v169h-119v119h119v122h-119v120h119v170h135v-170h117v-120h-117v-122h117z" />
    <glyph glyph-name="bullet" unicode="&#x2022;" horiz-adv-x="406" 
d="M80 188c-33 33 -49 74 -49 122s16 89 49 122s74 50 123 50s90 -17 123 -50s49 -74 49 -122s-16 -89 -49 -122s-74 -50 -123 -50s-90 17 -123 50z" />
    <glyph glyph-name="perthousand" unicode="&#x2030;" horiz-adv-x="1191" 
d="M70 0l530 700h134l-530 -700h-134zM320 428c-33 -33 -73 -49 -122 -49s-89 16 -122 49c-32 32 -48 71 -48 118s16 86 48 118c33 33 73 49 122 49s89 -16 122 -49c32 -32 48 -71 48 -118s-16 -86 -48 -118zM151 499c12 -13 28 -20 47 -20s35 7 48 20c11 13 17 28 17 47
s-6 34 -17 47c-13 13 -29 20 -48 20s-35 -7 -47 -20s-18 -28 -18 -47s6 -34 18 -47zM727 34c-33 -33 -73 -49 -122 -49s-89 16 -122 49c-32 32 -48 71 -48 118s16 86 48 118c33 33 73 49 122 49s89 -16 122 -49c32 -32 48 -71 48 -118s-16 -86 -48 -118zM558 105
c12 -13 28 -20 47 -20s35 7 48 20c11 13 17 28 17 47s-6 34 -17 47c-13 13 -29 20 -48 20s-35 -7 -47 -20s-18 -28 -18 -47s6 -34 18 -47zM1115 34c-33 -33 -73 -49 -122 -49s-89 16 -122 49c-32 32 -48 71 -48 118s16 86 48 118c33 33 73 49 122 49s89 -16 122 -49
c32 -32 48 -71 48 -118s-16 -86 -48 -118zM946 105c12 -13 28 -20 47 -20s35 7 48 20c11 13 17 28 17 47s-6 34 -17 47c-13 13 -29 20 -48 20s-35 -7 -47 -20s-18 -28 -18 -47s6 -34 18 -47z" />
    <glyph glyph-name="guilsinglleft" unicode="&#x2039;" horiz-adv-x="302" 
d="M150 106l-122 187l122 188h123l-122 -188l122 -187h-123z" />
    <glyph glyph-name="guilsinglright" unicode="&#x203a;" horiz-adv-x="302" 
d="M273 293l-122 -187h-123l122 187l-122 188h123z" />
    <glyph glyph-name="fraction" unicode="&#x2044;" horiz-adv-x="460" 
d="M102 -41h-118l374 782h119z" />
    <glyph glyph-name="Euro" unicode="&#x20ac;" horiz-adv-x="645" 
d="M24 231v91h50c-1 5 -2 15 -2 29c0 9 1 20 2 32h-50v92h68c22 70 62 127 120 170c60 45 129 68 206 68c73 0 132 -15 179 -45l-58 -115c-15 9 -32 16 -50 21c-23 7 -46 10 -68 10c-39 0 -75 -10 -107 -30c-31 -19 -53 -46 -68 -79h221l-9 -92h-237c-1 -13 -2 -24 -2 -31
c0 -12 1 -22 3 -30h231l-9 -91h-194c15 -34 38 -61 69 -81c32 -20 68 -30 109 -30c25 0 49 4 74 11c19 6 35 13 48 22l54 -114c-15 -13 -37 -25 -66 -35c-35 -11 -71 -17 -110 -17c-84 0 -157 23 -218 69c-57 44 -97 102 -119 175h-67z" />
    <glyph glyph-name="numero" unicode="&#x2116;" horiz-adv-x="1148" 
d="M843 471c16 -17 37 -26 62 -26s45 9 61 26c16 16 24 36 24 59s-8 43 -23 60c-16 18 -37 27 -62 27s-46 -9 -62 -27c-15 -17 -23 -37 -23 -60s8 -43 23 -59zM772 658c35 37 80 55 133 55s98 -18 133 -55c35 -35 52 -78 52 -128c0 -49 -17 -92 -52 -127
c-35 -36 -80 -54 -133 -54s-98 18 -133 54c-35 35 -52 78 -52 127c0 50 17 93 52 128zM737 189v111h335v-111h-335zM507 0l-302 476v-476h-139v700h143l299 -480v480h139v-700h-140z" />
    <glyph glyph-name="trademark" unicode="&#x2122;" horiz-adv-x="777" 
d="M120 339v276h-88v85h269v-85h-87v-276h-94zM583 379h-86l-71 170v-210h-91v361h119l85 -212l86 212h120v-361h-91v210z" />
    <glyph glyph-name="minus" unicode="&#x2212;" horiz-adv-x="550" 
d="M36 256v111h478v-111h-478z" />
    <glyph glyph-name="cir.acute" unicode="&#xe00d;" horiz-adv-x="0" 
d="M251 743l-27 39l-27 -39h-83l64 95h92l65 -95h-84zM321 799l42 99h118l-72 -99h-88z" />
    <glyph glyph-name="cir.grave" unicode="&#xe00e;" horiz-adv-x="0" 
d="M251 743l-27 40l-27 -40h-83l64 95h92l64 -95h-83zM375 908l41 -96h-82l-71 96h112z" />
    <glyph glyph-name="cir.tilde" unicode="&#xe00f;" horiz-adv-x="0" 
d="M252 743l-28 40l-27 -40h-83l65 95h91l65 -95h-83zM232 884l-10 5l-9 4c-7 3 -14 4 -19 4c-14 0 -21 -9 -21 -26h-60c0 27 7 49 21 66c13 17 31 26 54 26c14 0 30 -4 48 -13l10 -5l9 -4c7 -3 13 -4 18 -4c14 0 21 9 21 26h60c0 -28 -7 -50 -20 -66
c-13 -17 -31 -25 -54 -25c-13 0 -29 4 -48 12z" />
    <glyph glyph-name="breve.tilde" unicode="&#xe010;" horiz-adv-x="0" 
d="M154 770c-18 18 -27 43 -27 75h74c0 -27 9 -40 28 -40c20 0 30 13 30 40h73c0 -32 -9 -57 -26 -75c-19 -18 -44 -27 -77 -27c-31 0 -56 9 -75 27zM235 893l-10 5l-9 4c-7 3 -14 4 -19 4c-14 0 -21 -9 -21 -26h-60c0 27 7 49 21 66c13 17 31 26 54 26c14 0 30 -4 48 -13
l10 -5l9 -4c7 -3 13 -4 18 -4c14 0 21 9 21 26h60c0 -28 -7 -50 -20 -66c-13 -17 -31 -25 -54 -25c-13 0 -29 4 -48 12z" />
    <glyph glyph-name="breve.acute" unicode="&#xe011;" horiz-adv-x="0" 
d="M154 770c-18 18 -27 43 -27 75h74c0 -27 10 -40 29 -40s29 13 29 40h73c0 -33 -9 -58 -26 -75c-19 -18 -44 -27 -76 -27s-57 9 -76 27zM183 878l42 99h118l-72 -99h-88z" />
    <glyph glyph-name="breve.grave" unicode="&#xe012;" horiz-adv-x="0" 
d="M154 771c-18 17 -27 42 -27 75h74c0 -27 10 -40 29 -40s29 13 29 40h73c0 -33 -9 -58 -26 -75c-19 -18 -44 -27 -76 -27s-57 9 -76 27zM230 980l41 -96h-82l-71 96h112z" />
    <glyph glyph-name="breve.hook" unicode="&#xe013;" horiz-adv-x="0" 
d="M154 770c-18 17 -27 42 -27 75h74c0 -27 10 -40 29 -40s29 13 29 40h73c0 -33 -9 -58 -26 -75c-19 -18 -44 -27 -76 -27s-57 9 -76 27zM245 886l-21 -6l-22 41l9 3l5 1c4 1 7 3 10 4c13 7 17 14 10 21c-5 7 -16 6 -32 -2c-3 -1 -7 -4 -13 -9l-24 39l46 17c17 5 33 6 48 3
c15 -4 27 -11 36 -21c13 -14 16 -29 9 -45c-7 -15 -20 -27 -41 -38c-5 -3 -12 -5 -20 -8z" />
    <glyph glyph-name="cir.hook" unicode="&#xe014;" horiz-adv-x="0" 
d="M251 743l-27 39l-27 -39h-83l64 95h92l64 -95h-83zM362 798c-7 -3 -14 -5 -21 -8l-22 55l9 3l5 2c4 2 7 4 10 6c13 9 17 18 10 27c-5 9 -16 8 -32 -3c-3 -1 -7 -5 -13 -12l-24 52l46 24c17 7 33 7 48 2c15 -4 27 -13 36 -27c13 -19 16 -39 9 -60c-7 -19 -20 -36 -41 -50
c-5 -3 -12 -7 -20 -11z" />
    <glyph glyph-name="uniE015" unicode="&#xe015;" horiz-adv-x="483" 
d="M292 677l41 -96h-82l-71 96h112z" />
    <glyph glyph-name="uniE016" unicode="&#xe016;" horiz-adv-x="483" 
d="M162 581l42 99h118l-72 -99h-88z" />
    <glyph glyph-name="uniE017" unicode="&#xe017;" horiz-adv-x="445" 
d="M251 579l-27 39l-27 -39h-83l64 95h92l64 -95h-83z" />
    <glyph glyph-name="uniE018" unicode="&#xe018;" horiz-adv-x="445" 
d="M222 653l49 71h117l-95 -140h-142l-95 140h117z" />
    <glyph glyph-name="uniE019" unicode="&#xe019;" horiz-adv-x="445" 
d="M222 599l-10 5l-9 4c-7 3 -14 4 -19 4c-14 0 -21 -9 -21 -26h-60c0 27 7 49 21 66c13 17 31 26 54 26c14 0 30 -4 48 -13l10 -5l9 -4c7 -3 13 -4 18 -4c14 0 21 9 21 26h60c0 -28 -7 -50 -20 -66c-13 -17 -31 -25 -54 -25c-13 0 -29 4 -48 12z" />
    <glyph glyph-name="uniE01A" unicode="&#xe01a;" horiz-adv-x="445" 
d="M292 677l41 -96h-82l-71 96h112z" />
    <glyph glyph-name="uniE01B" unicode="&#xe01b;" horiz-adv-x="465" 
d="M219 581l68 144h132l-96 -144h-104zM45 581l67 144h133l-97 -144h-103z" />
    <glyph glyph-name="uniE01C" unicode="&#xe01c;" horiz-adv-x="445" 
d="M154 603c-18 18 -27 43 -27 75h74c0 -27 9 -40 28 -40s29 13 29 40h74c0 -32 -9 -57 -27 -75c-19 -18 -44 -27 -76 -27c-31 0 -56 9 -75 27z" />
    <glyph glyph-name="uniE01D" unicode="&#xe01d;" horiz-adv-x="445" 
d="M154 603c-18 18 -27 43 -27 75h74c0 -27 9 -40 28 -40s29 13 29 40h74c0 -32 -9 -57 -27 -75c-19 -18 -44 -27 -76 -27c-31 0 -56 9 -75 27z" />
    <glyph glyph-name="uniE01E" unicode="&#xe01e;" horiz-adv-x="445" 
d="M146 592c-21 19 -31 42 -31 71s10 53 31 72c19 18 44 27 75 27s57 -9 77 -27c21 -19 31 -42 31 -71s-10 -53 -31 -72c-20 -19 -46 -28 -77 -28c-30 0 -55 9 -75 28zM260 664c0 25 -13 38 -38 38s-38 -13 -38 -39s13 -39 38 -39s38 13 38 40z" />
    <glyph glyph-name="uniE01F" unicode="&#xe01f;" horiz-adv-x="445" 
d="M231 567c-7 -3 -14 -5 -21 -8l-22 55l9 3l5 2c4 2 7 4 10 6c13 9 17 18 10 27c-5 9 -16 8 -32 -3c-3 -1 -7 -5 -13 -12l-24 52l46 24c17 7 33 7 48 2c15 -4 27 -13 36 -27c13 -19 16 -39 9 -60c-7 -19 -20 -36 -41 -50c-5 -3 -12 -7 -20 -11z" />
    <glyph glyph-name="uniE020" unicode="&#xe020;" horiz-adv-x="638" 
d="M100 705c15 15 34 23 57 23s43 -8 58 -23s23 -33 23 -56s-8 -41 -23 -56s-35 -23 -58 -23s-42 8 -57 23s-23 33 -23 56s8 41 23 56zM422 705c15 15 34 23 57 23s43 -8 58 -23s23 -33 23 -56s-8 -41 -23 -56s-35 -23 -58 -23s-42 8 -57 23s-23 33 -23 56s8 41 23 56z" />
    <glyph glyph-name="uniF6C3" unicode="&#xf6c3;" horiz-adv-x="292" 
d="M108 -212c10 13 17 25 20 37c-19 4 -33 13 -44 27c-10 13 -15 28 -15 45c0 21 7 38 22 52c15 15 32 22 53 22c23 0 41 -8 56 -23c15 -16 22 -37 22 -63c0 -73 -32 -132 -95 -176l-48 51c11 9 20 18 29 28z" />
    <glyph glyph-name="backslash.1" horiz-adv-x="452" 
d="M136 777l301 -858h-121l-301 858h121z" />
    <glyph glyph-name="bar.1" horiz-adv-x="282" 
d="M76 -205v1059h130v-1059h-130z" />
    <glyph glyph-name="braceleft.1" horiz-adv-x="388" 
d="M178 340c10 -6 19 -14 27 -23c21 -25 32 -58 32 -98v-149c0 -57 29 -85 87 -85v-119c-149 0 -223 71 -223 212v108c0 37 -8 63 -23 80c-12 13 -29 19 -50 19v129c49 0 73 33 73 99v107c0 141 74 212 223 212v-119c-58 0 -87 -28 -87 -85v-148c0 -40 -11 -73 -32 -98
c-8 -9 -17 -17 -27 -23c-7 -5 -14 -9 -20 -10c6 -1 13 -4 20 -9z" />
    <glyph glyph-name="braceright.1" horiz-adv-x="388" 
d="M210 359c-10 6 -19 14 -27 23c-21 25 -32 58 -32 98v148c0 57 -29 85 -87 85v119c149 0 223 -71 223 -212v-107c0 -66 24 -99 73 -99v-129c-21 0 -38 -6 -50 -19c-15 -17 -23 -43 -23 -80v-108c0 -141 -74 -212 -223 -212v119c58 0 87 28 87 85v149c0 40 11 73 32 98
c8 9 17 17 27 23c7 5 14 8 20 9c-6 1 -13 5 -20 10z" />
    <glyph glyph-name="bracketleft.1" horiz-adv-x="332" 
d="M45 -134v966h223v-119h-86v-728h86v-119h-223z" />
    <glyph glyph-name="bracketright.1" horiz-adv-x="334" 
d="M287 832v-966h-223v119h86v728h-86v119h223z" />
    <glyph glyph-name="bullet.1" horiz-adv-x="406" 
d="M80 232c-33 33 -49 74 -49 122s16 89 49 122s74 50 123 50s90 -17 123 -50s49 -74 49 -122s-16 -89 -49 -122s-74 -50 -123 -50s-90 17 -123 50z" />
    <glyph glyph-name="eight.1" horiz-adv-x="581" 
d="M111 46c-45 40 -67 93 -67 160c0 39 11 75 32 106c17 26 38 46 64 60c-21 13 -38 31 -51 53c-17 27 -26 57 -26 89c0 58 21 106 62 143c42 37 97 56 165 56s123 -19 165 -56c41 -37 62 -84 62 -143c0 -33 -9 -62 -26 -89c-14 -22 -31 -40 -52 -53c27 -15 49 -35 66 -60
c21 -31 31 -67 31 -106c0 -66 -23 -119 -68 -159s-105 -60 -179 -60c-75 0 -134 20 -178 59zM216 276c-19 -17 -28 -40 -28 -68c0 -27 9 -49 26 -66c19 -18 44 -27 76 -27c33 0 58 9 76 27c17 17 26 39 26 66c0 28 -9 51 -28 68s-43 26 -74 26s-55 -9 -74 -26zM225 563
c-15 -15 -22 -34 -22 -57c0 -24 8 -43 24 -58s37 -23 63 -23c25 0 46 8 63 23c16 15 24 34 24 58c0 23 -7 42 -22 57c-16 15 -38 23 -65 23s-49 -8 -65 -23z" />
    <glyph glyph-name="emdash.1" horiz-adv-x="918" 
d="M45 297v113h827v-113h-827z" />
    <glyph glyph-name="endash.1" horiz-adv-x="648" 
d="M45 297v113h558v-113h-558z" />
    <glyph glyph-name="exclamdown.1" horiz-adv-x="292" 
d="M73 0l11 501h124l11 -501h-146zM207 688c16 -16 24 -36 24 -59c0 -24 -8 -44 -24 -61c-17 -17 -37 -25 -61 -25s-44 8 -60 25c-17 17 -25 37 -25 61c0 23 8 43 25 59c16 17 36 25 60 25s44 -8 61 -25z" />
    <glyph glyph-name="five.1" horiz-adv-x="581" 
d="M223 325c-11 -6 -21 -14 -31 -25l-117 20l15 380h395v-124h-270l-6 -143c29 16 63 24 100 24c61 0 112 -20 154 -61c43 -42 65 -95 65 -158c0 -73 -22 -133 -67 -180s-102 -71 -171 -71c-68 0 -124 19 -168 58c-35 31 -59 69 -70 114l122 38c15 -54 51 -81 109 -81
c30 0 55 11 74 32s29 47 29 79c0 30 -9 55 -27 76c-20 23 -48 35 -84 35c-19 0 -36 -4 -52 -13z" />
    <glyph glyph-name="four.1" horiz-adv-x="581" 
d="M24 163v101l287 436h164v-417h82v-120h-82v-163h-139v163h-312zM169 283h167v260z" />
    <glyph glyph-name="guillemotleft.1" horiz-adv-x="490" 
d="M150 170l-122 187l122 188h123l-122 -188l122 -187h-123zM338 170l-122 187l122 188h123l-122 -188l122 -187h-123z" />
    <glyph glyph-name="guillemotright.1" horiz-adv-x="490" 
d="M461 357l-122 -187h-123l122 187l-122 188h123zM273 357l-122 -187h-123l122 187l-122 188h123z" />
    <glyph glyph-name="guilsinglleft.1" horiz-adv-x="302" 
d="M150 170l-122 187l122 188h123l-122 -188l122 -187h-123z" />
    <glyph glyph-name="guilsinglright.1" horiz-adv-x="302" 
d="M273 357l-122 -187h-123l122 187l-122 188h123z" />
    <glyph glyph-name="hyphen.1" horiz-adv-x="369" 
d="M45 289v124h278v-124h-278z" />
    <glyph glyph-name="nine.1" horiz-adv-x="588" 
d="M192 470c0 -33 8 -59 25 -79c17 -21 42 -31 73 -31c39 0 73 18 101 55c0 53 -5 92 -16 116c-16 33 -45 50 -88 50c-63 0 -95 -37 -95 -111zM147 3c-13 5 -25 10 -37 15c-9 5 -17 10 -26 15l55 114c13 -8 26 -14 40 -19c19 -6 39 -9 60 -9c52 0 90 19 115 57
c10 15 18 32 23 52c4 16 6 33 7 51c-14 -12 -30 -22 -47 -29c-25 -11 -51 -16 -78 -16c-62 0 -111 20 -148 61c-39 41 -58 98 -58 171c0 74 21 134 64 179s100 68 171 68c90 0 155 -30 195 -90c34 -51 51 -127 51 -228c0 -272 -95 -408 -286 -408c-36 0 -70 5 -101 16z" />
    <glyph glyph-name="one.tnum" horiz-adv-x="581" 
d="M77 0v123h178v438l-149 -65l-49 107l222 97h115v-577h130v-123h-447z" />
    <glyph glyph-name="parenleft.1" horiz-adv-x="332" 
d="M182 628v-558c0 -57 29 -85 86 -85v-119c-149 0 -223 70 -223 211v543c0 141 74 212 223 212v-119c-57 0 -86 -28 -86 -85z" />
    <glyph glyph-name="parenright.1" horiz-adv-x="333" 
d="M150 70v558c0 57 -29 85 -86 85v119c149 0 223 -71 223 -212v-543c0 -141 -74 -211 -223 -211v119c57 0 86 28 86 85z" />
    <glyph glyph-name="periodcentered.1" horiz-adv-x="249" 
d="M64 295c-17 16 -25 36 -25 59c0 24 8 44 25 61c16 17 36 25 60 25s44 -8 61 -25c16 -17 24 -37 24 -61c0 -23 -8 -43 -24 -59c-17 -17 -37 -25 -61 -25s-44 8 -60 25z" />
    <glyph glyph-name="questiondown.1" horiz-adv-x="482" 
d="M330 501v-49c0 -48 -27 -97 -80 -146l-29 -27c-11 -10 -19 -19 -26 -27c-17 -21 -25 -42 -25 -63s7 -38 22 -52c16 -15 37 -23 62 -23s45 7 61 21c11 10 21 24 28 41l110 -49c-13 -36 -33 -66 -61 -91c-37 -33 -84 -49 -140 -49c-65 0 -118 18 -160 54
c-42 37 -63 83 -63 140c0 55 28 108 84 159l15 15l15 14c11 11 20 20 27 28c17 21 26 42 26 63v41h134zM324 688c16 -16 24 -36 24 -59c0 -24 -8 -44 -24 -61c-17 -17 -37 -25 -61 -25s-44 8 -60 25c-17 17 -25 37 -25 61c0 23 8 43 25 59c16 17 36 25 60 25s44 -8 61 -25z
" />
    <glyph glyph-name="seven.1" horiz-adv-x="581" 
d="M56 700h468v-107l-235 -593h-152l238 576h-319v124z" />
    <glyph glyph-name="six.1" horiz-adv-x="581" 
d="M392 230c0 33 -8 59 -25 79c-17 21 -42 31 -73 31c-39 0 -73 -18 -101 -55c0 -53 5 -92 16 -116c16 -33 45 -50 88 -50c63 0 95 37 95 111zM438 697l36 -15c9 -5 17 -10 26 -15l-55 -114c-13 8 -26 14 -39 19c-19 6 -40 9 -61 9c-52 0 -90 -19 -115 -57
c-10 -15 -18 -32 -23 -52c-4 -16 -6 -33 -7 -51c14 12 30 22 47 29c25 11 51 16 78 16c62 0 111 -20 148 -60c39 -42 58 -99 58 -172c0 -74 -21 -134 -64 -179s-100 -68 -171 -68c-90 0 -155 30 -195 90c-34 51 -51 127 -51 228c0 272 95 408 286 408c36 0 70 -5 102 -16z
" />
    <glyph glyph-name="slash.1" horiz-adv-x="452" 
d="M15 -81l301 858h121l-301 -858h-121z" />
    <glyph glyph-name="three.tnum" horiz-adv-x="581" 
d="M121 45c-33 30 -55 68 -66 114l121 38c17 -54 53 -81 108 -81c29 0 53 9 71 26c18 18 27 41 27 70s-10 51 -29 68c-21 18 -49 27 -86 27h-77v109l145 160h-253v124h414v-124l-147 -154c48 -5 88 -24 121 -59c37 -38 55 -86 55 -145c0 -67 -23 -123 -68 -166
s-101 -65 -170 -65s-124 19 -166 58z" />
    <glyph glyph-name="two.tnum" horiz-adv-x="581" 
d="M61 0v50c0 45 16 90 48 136c23 31 58 69 107 114l28 26l28 26c21 19 37 35 50 49c32 36 48 68 48 96c0 26 -8 47 -24 63c-16 15 -38 23 -66 23c-50 0 -83 -27 -99 -82l-123 36c10 45 31 83 63 114c42 41 97 62 165 62s123 -19 165 -57c42 -39 63 -90 63 -153
c0 -71 -45 -145 -134 -222l-25 -22l-26 -21c-20 -16 -35 -29 -46 -39c-31 -29 -50 -54 -55 -76h294v-123h-461z" />
    <glyph glyph-name="zero.1" horiz-adv-x="581" 
d="M477 79c-39 -61 -101 -92 -187 -92c-85 0 -147 31 -186 92c-37 58 -55 148 -55 271s18 213 55 271c39 61 101 92 186 92c86 0 148 -31 187 -92c37 -58 55 -148 55 -271s-18 -213 -55 -271zM209 179c14 -40 41 -60 81 -60s67 20 82 60c11 32 17 89 17 171s-6 139 -17 171
c-15 40 -42 60 -82 60s-67 -20 -81 -60c-11 -32 -17 -89 -17 -171s6 -139 17 -171z" />
    </font>
</defs>
</svg>
